%TF.GenerationSoftware,KiCad,Pcbnew,9.0.6*%
%TF.CreationDate,2026-02-16T11:56:36+00:00*%
%TF.ProjectId,SongBeam4.0,536f6e67-4265-4616-9d34-2e302e6b6963,4.0*%
%TF.SameCoordinates,Original*%
%TF.FileFunction,Paste,Top*%
%TF.FilePolarity,Positive*%
%FSLAX46Y46*%
G04 Gerber Fmt 4.6, Leading zero omitted, Abs format (unit mm)*
G04 Created by KiCad (PCBNEW 9.0.6) date 2026-02-16 11:56:36*
%MOMM*%
%LPD*%
G01*
G04 APERTURE LIST*
G04 Aperture macros list*
%AMRoundRect*
0 Rectangle with rounded corners*
0 $1 Rounding radius*
0 $2 $3 $4 $5 $6 $7 $8 $9 X,Y pos of 4 corners*
0 Add a 4 corners polygon primitive as box body*
4,1,4,$2,$3,$4,$5,$6,$7,$8,$9,$2,$3,0*
0 Add four circle primitives for the rounded corners*
1,1,$1+$1,$2,$3*
1,1,$1+$1,$4,$5*
1,1,$1+$1,$6,$7*
1,1,$1+$1,$8,$9*
0 Add four rect primitives between the rounded corners*
20,1,$1+$1,$2,$3,$4,$5,0*
20,1,$1+$1,$4,$5,$6,$7,0*
20,1,$1+$1,$6,$7,$8,$9,0*
20,1,$1+$1,$8,$9,$2,$3,0*%
G04 Aperture macros list end*
%ADD10C,0.290000*%
%ADD11C,0.000000*%
%ADD12R,1.000000X0.599999*%
%ADD13RoundRect,0.250000X-0.262500X-0.450000X0.262500X-0.450000X0.262500X0.450000X-0.262500X0.450000X0*%
%ADD14RoundRect,0.250000X-0.475000X0.250000X-0.475000X-0.250000X0.475000X-0.250000X0.475000X0.250000X0*%
%ADD15RoundRect,0.250000X-0.250000X-0.475000X0.250000X-0.475000X0.250000X0.475000X-0.250000X0.475000X0*%
%ADD16R,0.807999X0.254800*%
%ADD17R,0.254800X0.807999*%
%ADD18R,2.794000X2.794000*%
%ADD19RoundRect,0.250000X0.475000X-0.250000X0.475000X0.250000X-0.475000X0.250000X-0.475000X-0.250000X0*%
%ADD20RoundRect,0.250000X0.450000X-0.262500X0.450000X0.262500X-0.450000X0.262500X-0.450000X-0.262500X0*%
%ADD21RoundRect,0.250000X0.600000X-0.400000X0.600000X0.400000X-0.600000X0.400000X-0.600000X-0.400000X0*%
%ADD22R,0.203200X0.660400*%
%ADD23R,1.600200X0.990600*%
%ADD24RoundRect,0.250000X0.262500X0.450000X-0.262500X0.450000X-0.262500X-0.450000X0.262500X-0.450000X0*%
%ADD25RoundRect,0.250000X-0.450000X0.262500X-0.450000X-0.262500X0.450000X-0.262500X0.450000X0.262500X0*%
%ADD26R,1.320800X0.558800*%
%ADD27R,0.838200X1.397000*%
%ADD28RoundRect,0.079500X0.100500X-0.079500X0.100500X0.079500X-0.100500X0.079500X-0.100500X-0.079500X0*%
%ADD29R,0.750000X1.050000*%
%ADD30R,1.400000X0.650000*%
%ADD31RoundRect,0.250000X0.250000X0.475000X-0.250000X0.475000X-0.250000X-0.475000X0.250000X-0.475000X0*%
%ADD32RoundRect,0.112500X0.237500X-0.112500X0.237500X0.112500X-0.237500X0.112500X-0.237500X-0.112500X0*%
%ADD33R,0.990600X0.711200*%
%ADD34R,0.600000X1.250000*%
%ADD35R,0.800000X0.500000*%
%ADD36R,0.500000X1.000000*%
%ADD37R,0.800000X0.300000*%
%ADD38R,0.500000X1.480000*%
%ADD39R,1.308100X0.330200*%
%ADD40R,1.447800X1.752600*%
%ADD41R,1.800000X0.800000*%
%ADD42R,1.350000X0.400000*%
%ADD43R,1.600000X2.100000*%
%ADD44R,1.900000X1.800000*%
%ADD45R,1.900000X1.900000*%
%ADD46R,1.050000X0.750000*%
%ADD47R,0.558800X1.320800*%
%ADD48R,1.680000X3.150000*%
%ADD49RoundRect,0.079500X0.079500X0.100500X-0.079500X0.100500X-0.079500X-0.100500X0.079500X-0.100500X0*%
%ADD50R,2.286000X5.842000*%
%ADD51R,2.413000X5.842000*%
%ADD52R,4.000000X4.000000*%
%ADD53R,0.700000X1.500000*%
%ADD54RoundRect,0.100000X0.637500X0.100000X-0.637500X0.100000X-0.637500X-0.100000X0.637500X-0.100000X0*%
G04 APERTURE END LIST*
D10*
%TO.C,U7*%
X133406181Y-63718460D02*
G75*
G02*
X134227790Y-63289343I644319J-232540D01*
G01*
X134171274Y-64625268D02*
G75*
G02*
X133388840Y-64128290I-120775J674268D01*
G01*
X134574046Y-63509272D02*
G75*
G02*
X134534868Y-64435368I-523548J-441728D01*
G01*
D11*
G36*
X132168147Y-62813225D02*
G01*
X132196279Y-62841357D01*
X132211500Y-62878110D01*
X132211500Y-63347894D01*
X132196279Y-63384650D01*
X132168147Y-63412779D01*
X132131394Y-63428000D01*
X131821607Y-63428000D01*
X131784854Y-63412779D01*
X131756722Y-63384650D01*
X131741500Y-63347894D01*
X131741500Y-62878110D01*
X131756722Y-62841357D01*
X131784854Y-62813225D01*
X131821607Y-62798000D01*
X132131394Y-62798000D01*
X132168147Y-62813225D01*
G37*
G36*
X132168147Y-64489225D02*
G01*
X132196279Y-64517353D01*
X132211500Y-64554106D01*
X132211500Y-65023893D01*
X132196279Y-65060646D01*
X132168147Y-65088778D01*
X132131394Y-65104003D01*
X131821607Y-65104003D01*
X131784854Y-65088778D01*
X131756722Y-65060646D01*
X131741500Y-65023893D01*
X131741500Y-64554106D01*
X131756722Y-64517353D01*
X131784854Y-64489225D01*
X131821607Y-64474000D01*
X132131394Y-64474000D01*
X132168147Y-64489225D01*
G37*
G36*
X132990147Y-62813225D02*
G01*
X133018275Y-62841357D01*
X133033500Y-62878110D01*
X133033500Y-63328000D01*
X133033496Y-63347894D01*
X133018275Y-63384650D01*
X132990147Y-63412779D01*
X132953394Y-63428000D01*
X132643607Y-63428000D01*
X132606854Y-63412779D01*
X132578722Y-63384650D01*
X132563497Y-63347894D01*
X132563497Y-62878110D01*
X132578722Y-62841357D01*
X132606854Y-62813225D01*
X132643607Y-62798000D01*
X132953394Y-62798000D01*
X132990147Y-62813225D01*
G37*
G36*
X132933504Y-64474003D02*
G01*
X132953394Y-64474003D01*
X132990147Y-64489225D01*
X133018275Y-64517356D01*
X133033500Y-64554109D01*
X133033500Y-65004003D01*
X133033496Y-65023893D01*
X133018275Y-65060646D01*
X132990147Y-65088778D01*
X132953394Y-65104003D01*
X132933500Y-65104003D01*
X132663497Y-65104006D01*
X132643607Y-65104006D01*
X132606854Y-65088781D01*
X132578722Y-65060650D01*
X132563497Y-65023896D01*
X132563497Y-64554106D01*
X132578722Y-64517353D01*
X132606854Y-64489225D01*
X132643607Y-64474000D01*
X132663497Y-64474000D01*
X132933504Y-64474003D01*
G37*
D10*
%TO.C,U4*%
X166780774Y-33304268D02*
G75*
G02*
X165998340Y-32807290I-120775J674268D01*
G01*
X166015681Y-32397460D02*
G75*
G02*
X166837290Y-31968343I644319J-232540D01*
G01*
X167183546Y-32188272D02*
G75*
G02*
X167144368Y-33114368I-523548J-441728D01*
G01*
D11*
G36*
X164777647Y-33168225D02*
G01*
X164805779Y-33196353D01*
X164821000Y-33233106D01*
X164821000Y-33702893D01*
X164805779Y-33739646D01*
X164777647Y-33767778D01*
X164740894Y-33783003D01*
X164431107Y-33783003D01*
X164394354Y-33767778D01*
X164366222Y-33739646D01*
X164351000Y-33702893D01*
X164351000Y-33233106D01*
X164366222Y-33196353D01*
X164394354Y-33168225D01*
X164431107Y-33153000D01*
X164740894Y-33153000D01*
X164777647Y-33168225D01*
G37*
G36*
X164777647Y-31492225D02*
G01*
X164805779Y-31520357D01*
X164821000Y-31557110D01*
X164821000Y-32026894D01*
X164805779Y-32063650D01*
X164777647Y-32091779D01*
X164740894Y-32107000D01*
X164431107Y-32107000D01*
X164394354Y-32091779D01*
X164366222Y-32063650D01*
X164351000Y-32026894D01*
X164351000Y-31557110D01*
X164366222Y-31520357D01*
X164394354Y-31492225D01*
X164431107Y-31477000D01*
X164740894Y-31477000D01*
X164777647Y-31492225D01*
G37*
G36*
X165599647Y-31492225D02*
G01*
X165627775Y-31520357D01*
X165643000Y-31557110D01*
X165643000Y-32007000D01*
X165642996Y-32026894D01*
X165627775Y-32063650D01*
X165599647Y-32091779D01*
X165562894Y-32107000D01*
X165253107Y-32107000D01*
X165216354Y-32091779D01*
X165188222Y-32063650D01*
X165172997Y-32026894D01*
X165172997Y-31557110D01*
X165188222Y-31520357D01*
X165216354Y-31492225D01*
X165253107Y-31477000D01*
X165562894Y-31477000D01*
X165599647Y-31492225D01*
G37*
G36*
X165543004Y-33153003D02*
G01*
X165562894Y-33153003D01*
X165599647Y-33168225D01*
X165627775Y-33196356D01*
X165643000Y-33233109D01*
X165643000Y-33683003D01*
X165642996Y-33702893D01*
X165627775Y-33739646D01*
X165599647Y-33767778D01*
X165562894Y-33783003D01*
X165543000Y-33783003D01*
X165272997Y-33783006D01*
X165253107Y-33783006D01*
X165216354Y-33767781D01*
X165188222Y-33739650D01*
X165172997Y-33702896D01*
X165172997Y-33233106D01*
X165188222Y-33196353D01*
X165216354Y-33168225D01*
X165253107Y-33153000D01*
X165272997Y-33153000D01*
X165543004Y-33153003D01*
G37*
D10*
%TO.C,U5*%
X56661274Y-65125268D02*
G75*
G02*
X55878840Y-64628290I-120775J674268D01*
G01*
X55896181Y-64218460D02*
G75*
G02*
X56717790Y-63789343I644319J-232540D01*
G01*
X57064046Y-64009272D02*
G75*
G02*
X57024868Y-64935368I-523548J-441728D01*
G01*
D11*
G36*
X54658147Y-64989225D02*
G01*
X54686279Y-65017353D01*
X54701500Y-65054106D01*
X54701500Y-65523893D01*
X54686279Y-65560646D01*
X54658147Y-65588778D01*
X54621394Y-65604003D01*
X54311607Y-65604003D01*
X54274854Y-65588778D01*
X54246722Y-65560646D01*
X54231500Y-65523893D01*
X54231500Y-65054106D01*
X54246722Y-65017353D01*
X54274854Y-64989225D01*
X54311607Y-64974000D01*
X54621394Y-64974000D01*
X54658147Y-64989225D01*
G37*
G36*
X54658147Y-63313225D02*
G01*
X54686279Y-63341357D01*
X54701500Y-63378110D01*
X54701500Y-63847894D01*
X54686279Y-63884650D01*
X54658147Y-63912779D01*
X54621394Y-63928000D01*
X54311607Y-63928000D01*
X54274854Y-63912779D01*
X54246722Y-63884650D01*
X54231500Y-63847894D01*
X54231500Y-63378110D01*
X54246722Y-63341357D01*
X54274854Y-63313225D01*
X54311607Y-63298000D01*
X54621394Y-63298000D01*
X54658147Y-63313225D01*
G37*
G36*
X55480147Y-63313225D02*
G01*
X55508275Y-63341357D01*
X55523500Y-63378110D01*
X55523500Y-63828000D01*
X55523496Y-63847894D01*
X55508275Y-63884650D01*
X55480147Y-63912779D01*
X55443394Y-63928000D01*
X55133607Y-63928000D01*
X55096854Y-63912779D01*
X55068722Y-63884650D01*
X55053497Y-63847894D01*
X55053497Y-63378110D01*
X55068722Y-63341357D01*
X55096854Y-63313225D01*
X55133607Y-63298000D01*
X55443394Y-63298000D01*
X55480147Y-63313225D01*
G37*
G36*
X55423504Y-64974003D02*
G01*
X55443394Y-64974003D01*
X55480147Y-64989225D01*
X55508275Y-65017356D01*
X55523500Y-65054109D01*
X55523500Y-65504003D01*
X55523496Y-65523893D01*
X55508275Y-65560646D01*
X55480147Y-65588778D01*
X55443394Y-65604003D01*
X55423500Y-65604003D01*
X55153497Y-65604006D01*
X55133607Y-65604006D01*
X55096854Y-65588781D01*
X55068722Y-65560650D01*
X55053497Y-65523896D01*
X55053497Y-65054106D01*
X55068722Y-65017353D01*
X55096854Y-64989225D01*
X55133607Y-64974000D01*
X55153497Y-64974000D01*
X55423504Y-64974003D01*
G37*
D10*
%TO.C,U8*%
X181765774Y-64744268D02*
G75*
G02*
X180983340Y-64247290I-120775J674268D01*
G01*
X181000681Y-63837460D02*
G75*
G02*
X181822290Y-63408343I644319J-232540D01*
G01*
X182168546Y-63628272D02*
G75*
G02*
X182129368Y-64554368I-523548J-441728D01*
G01*
D11*
G36*
X179762647Y-64608225D02*
G01*
X179790779Y-64636353D01*
X179806000Y-64673106D01*
X179806000Y-65142893D01*
X179790779Y-65179646D01*
X179762647Y-65207778D01*
X179725894Y-65223003D01*
X179416107Y-65223003D01*
X179379354Y-65207778D01*
X179351222Y-65179646D01*
X179336000Y-65142893D01*
X179336000Y-64673106D01*
X179351222Y-64636353D01*
X179379354Y-64608225D01*
X179416107Y-64593000D01*
X179725894Y-64593000D01*
X179762647Y-64608225D01*
G37*
G36*
X179762647Y-62932225D02*
G01*
X179790779Y-62960357D01*
X179806000Y-62997110D01*
X179806000Y-63466894D01*
X179790779Y-63503650D01*
X179762647Y-63531779D01*
X179725894Y-63547000D01*
X179416107Y-63547000D01*
X179379354Y-63531779D01*
X179351222Y-63503650D01*
X179336000Y-63466894D01*
X179336000Y-62997110D01*
X179351222Y-62960357D01*
X179379354Y-62932225D01*
X179416107Y-62917000D01*
X179725894Y-62917000D01*
X179762647Y-62932225D01*
G37*
G36*
X180584647Y-62932225D02*
G01*
X180612775Y-62960357D01*
X180628000Y-62997110D01*
X180628000Y-63447000D01*
X180627996Y-63466894D01*
X180612775Y-63503650D01*
X180584647Y-63531779D01*
X180547894Y-63547000D01*
X180238107Y-63547000D01*
X180201354Y-63531779D01*
X180173222Y-63503650D01*
X180157997Y-63466894D01*
X180157997Y-62997110D01*
X180173222Y-62960357D01*
X180201354Y-62932225D01*
X180238107Y-62917000D01*
X180547894Y-62917000D01*
X180584647Y-62932225D01*
G37*
G36*
X180528004Y-64593003D02*
G01*
X180547894Y-64593003D01*
X180584647Y-64608225D01*
X180612775Y-64636356D01*
X180628000Y-64673109D01*
X180628000Y-65123003D01*
X180627996Y-65142893D01*
X180612775Y-65179646D01*
X180584647Y-65207778D01*
X180547894Y-65223003D01*
X180528000Y-65223003D01*
X180257997Y-65223006D01*
X180238107Y-65223006D01*
X180201354Y-65207781D01*
X180173222Y-65179650D01*
X180157997Y-65142896D01*
X180157997Y-64673106D01*
X180173222Y-64636353D01*
X180201354Y-64608225D01*
X180238107Y-64593000D01*
X180257997Y-64593000D01*
X180528004Y-64593003D01*
G37*
D10*
%TO.C,U6*%
X103943274Y-65214268D02*
G75*
G02*
X103160840Y-64717290I-120775J674268D01*
G01*
X103178181Y-64307460D02*
G75*
G02*
X103999790Y-63878343I644319J-232540D01*
G01*
X104346046Y-64098272D02*
G75*
G02*
X104306868Y-65024368I-523548J-441728D01*
G01*
D11*
G36*
X101940147Y-65078225D02*
G01*
X101968279Y-65106353D01*
X101983500Y-65143106D01*
X101983500Y-65612893D01*
X101968279Y-65649646D01*
X101940147Y-65677778D01*
X101903394Y-65693003D01*
X101593607Y-65693003D01*
X101556854Y-65677778D01*
X101528722Y-65649646D01*
X101513500Y-65612893D01*
X101513500Y-65143106D01*
X101528722Y-65106353D01*
X101556854Y-65078225D01*
X101593607Y-65063000D01*
X101903394Y-65063000D01*
X101940147Y-65078225D01*
G37*
G36*
X101940147Y-63402225D02*
G01*
X101968279Y-63430357D01*
X101983500Y-63467110D01*
X101983500Y-63936894D01*
X101968279Y-63973650D01*
X101940147Y-64001779D01*
X101903394Y-64017000D01*
X101593607Y-64017000D01*
X101556854Y-64001779D01*
X101528722Y-63973650D01*
X101513500Y-63936894D01*
X101513500Y-63467110D01*
X101528722Y-63430357D01*
X101556854Y-63402225D01*
X101593607Y-63387000D01*
X101903394Y-63387000D01*
X101940147Y-63402225D01*
G37*
G36*
X102762147Y-63402225D02*
G01*
X102790275Y-63430357D01*
X102805500Y-63467110D01*
X102805500Y-63917000D01*
X102805496Y-63936894D01*
X102790275Y-63973650D01*
X102762147Y-64001779D01*
X102725394Y-64017000D01*
X102415607Y-64017000D01*
X102378854Y-64001779D01*
X102350722Y-63973650D01*
X102335497Y-63936894D01*
X102335497Y-63467110D01*
X102350722Y-63430357D01*
X102378854Y-63402225D01*
X102415607Y-63387000D01*
X102725394Y-63387000D01*
X102762147Y-63402225D01*
G37*
G36*
X102705504Y-65063003D02*
G01*
X102725394Y-65063003D01*
X102762147Y-65078225D01*
X102790275Y-65106356D01*
X102805500Y-65143109D01*
X102805500Y-65593003D01*
X102805496Y-65612893D01*
X102790275Y-65649646D01*
X102762147Y-65677778D01*
X102725394Y-65693003D01*
X102705500Y-65693003D01*
X102435497Y-65693006D01*
X102415607Y-65693006D01*
X102378854Y-65677781D01*
X102350722Y-65649650D01*
X102335497Y-65612896D01*
X102335497Y-65143106D01*
X102350722Y-65106353D01*
X102378854Y-65078225D01*
X102415607Y-65063000D01*
X102435497Y-65063000D01*
X102705504Y-65063003D01*
G37*
D10*
%TO.C,U1*%
X39560774Y-33309268D02*
G75*
G02*
X38778340Y-32812290I-120775J674268D01*
G01*
X38795681Y-32402460D02*
G75*
G02*
X39617290Y-31973343I644319J-232540D01*
G01*
X39963546Y-32193272D02*
G75*
G02*
X39924368Y-33119368I-523548J-441728D01*
G01*
D11*
G36*
X37557647Y-33173225D02*
G01*
X37585779Y-33201353D01*
X37601000Y-33238106D01*
X37601000Y-33707893D01*
X37585779Y-33744646D01*
X37557647Y-33772778D01*
X37520894Y-33788003D01*
X37211107Y-33788003D01*
X37174354Y-33772778D01*
X37146222Y-33744646D01*
X37131000Y-33707893D01*
X37131000Y-33238106D01*
X37146222Y-33201353D01*
X37174354Y-33173225D01*
X37211107Y-33158000D01*
X37520894Y-33158000D01*
X37557647Y-33173225D01*
G37*
G36*
X37557647Y-31497225D02*
G01*
X37585779Y-31525357D01*
X37601000Y-31562110D01*
X37601000Y-32031894D01*
X37585779Y-32068650D01*
X37557647Y-32096779D01*
X37520894Y-32112000D01*
X37211107Y-32112000D01*
X37174354Y-32096779D01*
X37146222Y-32068650D01*
X37131000Y-32031894D01*
X37131000Y-31562110D01*
X37146222Y-31525357D01*
X37174354Y-31497225D01*
X37211107Y-31482000D01*
X37520894Y-31482000D01*
X37557647Y-31497225D01*
G37*
G36*
X38379647Y-31497225D02*
G01*
X38407775Y-31525357D01*
X38423000Y-31562110D01*
X38423000Y-32012000D01*
X38422996Y-32031894D01*
X38407775Y-32068650D01*
X38379647Y-32096779D01*
X38342894Y-32112000D01*
X38033107Y-32112000D01*
X37996354Y-32096779D01*
X37968222Y-32068650D01*
X37952997Y-32031894D01*
X37952997Y-31562110D01*
X37968222Y-31525357D01*
X37996354Y-31497225D01*
X38033107Y-31482000D01*
X38342894Y-31482000D01*
X38379647Y-31497225D01*
G37*
G36*
X38323004Y-33158003D02*
G01*
X38342894Y-33158003D01*
X38379647Y-33173225D01*
X38407775Y-33201356D01*
X38423000Y-33238109D01*
X38423000Y-33688003D01*
X38422996Y-33707893D01*
X38407775Y-33744646D01*
X38379647Y-33772778D01*
X38342894Y-33788003D01*
X38323000Y-33788003D01*
X38052997Y-33788006D01*
X38033107Y-33788006D01*
X37996354Y-33772781D01*
X37968222Y-33744650D01*
X37952997Y-33707896D01*
X37952997Y-33238106D01*
X37968222Y-33201353D01*
X37996354Y-33173225D01*
X38033107Y-33158000D01*
X38052997Y-33158000D01*
X38323004Y-33158003D01*
G37*
D10*
%TO.C,U3*%
X119195774Y-33382268D02*
G75*
G02*
X118413340Y-32885290I-120775J674268D01*
G01*
X118430681Y-32475460D02*
G75*
G02*
X119252290Y-32046343I644319J-232540D01*
G01*
X119598546Y-32266272D02*
G75*
G02*
X119559368Y-33192368I-523548J-441728D01*
G01*
D11*
G36*
X117192647Y-33246225D02*
G01*
X117220779Y-33274353D01*
X117236000Y-33311106D01*
X117236000Y-33780893D01*
X117220779Y-33817646D01*
X117192647Y-33845778D01*
X117155894Y-33861003D01*
X116846107Y-33861003D01*
X116809354Y-33845778D01*
X116781222Y-33817646D01*
X116766000Y-33780893D01*
X116766000Y-33311106D01*
X116781222Y-33274353D01*
X116809354Y-33246225D01*
X116846107Y-33231000D01*
X117155894Y-33231000D01*
X117192647Y-33246225D01*
G37*
G36*
X117192647Y-31570225D02*
G01*
X117220779Y-31598357D01*
X117236000Y-31635110D01*
X117236000Y-32104894D01*
X117220779Y-32141650D01*
X117192647Y-32169779D01*
X117155894Y-32185000D01*
X116846107Y-32185000D01*
X116809354Y-32169779D01*
X116781222Y-32141650D01*
X116766000Y-32104894D01*
X116766000Y-31635110D01*
X116781222Y-31598357D01*
X116809354Y-31570225D01*
X116846107Y-31555000D01*
X117155894Y-31555000D01*
X117192647Y-31570225D01*
G37*
G36*
X118014647Y-31570225D02*
G01*
X118042775Y-31598357D01*
X118058000Y-31635110D01*
X118058000Y-32085000D01*
X118057996Y-32104894D01*
X118042775Y-32141650D01*
X118014647Y-32169779D01*
X117977894Y-32185000D01*
X117668107Y-32185000D01*
X117631354Y-32169779D01*
X117603222Y-32141650D01*
X117587997Y-32104894D01*
X117587997Y-31635110D01*
X117603222Y-31598357D01*
X117631354Y-31570225D01*
X117668107Y-31555000D01*
X117977894Y-31555000D01*
X118014647Y-31570225D01*
G37*
G36*
X117958004Y-33231003D02*
G01*
X117977894Y-33231003D01*
X118014647Y-33246225D01*
X118042775Y-33274356D01*
X118058000Y-33311109D01*
X118058000Y-33761003D01*
X118057996Y-33780893D01*
X118042775Y-33817646D01*
X118014647Y-33845778D01*
X117977894Y-33861003D01*
X117958000Y-33861003D01*
X117687997Y-33861006D01*
X117668107Y-33861006D01*
X117631354Y-33845781D01*
X117603222Y-33817650D01*
X117587997Y-33780896D01*
X117587997Y-33311106D01*
X117603222Y-33274353D01*
X117631354Y-33246225D01*
X117668107Y-33231000D01*
X117687997Y-33231000D01*
X117958004Y-33231003D01*
G37*
D10*
%TO.C,U2*%
X86762774Y-33287268D02*
G75*
G02*
X85980340Y-32790290I-120775J674268D01*
G01*
X85997681Y-32380460D02*
G75*
G02*
X86819290Y-31951343I644319J-232540D01*
G01*
X87165546Y-32171272D02*
G75*
G02*
X87126368Y-33097368I-523548J-441728D01*
G01*
D11*
G36*
X84759647Y-33151225D02*
G01*
X84787779Y-33179353D01*
X84803000Y-33216106D01*
X84803000Y-33685893D01*
X84787779Y-33722646D01*
X84759647Y-33750778D01*
X84722894Y-33766003D01*
X84413107Y-33766003D01*
X84376354Y-33750778D01*
X84348222Y-33722646D01*
X84333000Y-33685893D01*
X84333000Y-33216106D01*
X84348222Y-33179353D01*
X84376354Y-33151225D01*
X84413107Y-33136000D01*
X84722894Y-33136000D01*
X84759647Y-33151225D01*
G37*
G36*
X84759647Y-31475225D02*
G01*
X84787779Y-31503357D01*
X84803000Y-31540110D01*
X84803000Y-32009894D01*
X84787779Y-32046650D01*
X84759647Y-32074779D01*
X84722894Y-32090000D01*
X84413107Y-32090000D01*
X84376354Y-32074779D01*
X84348222Y-32046650D01*
X84333000Y-32009894D01*
X84333000Y-31540110D01*
X84348222Y-31503357D01*
X84376354Y-31475225D01*
X84413107Y-31460000D01*
X84722894Y-31460000D01*
X84759647Y-31475225D01*
G37*
G36*
X85581647Y-31475225D02*
G01*
X85609775Y-31503357D01*
X85625000Y-31540110D01*
X85625000Y-31990000D01*
X85624996Y-32009894D01*
X85609775Y-32046650D01*
X85581647Y-32074779D01*
X85544894Y-32090000D01*
X85235107Y-32090000D01*
X85198354Y-32074779D01*
X85170222Y-32046650D01*
X85154997Y-32009894D01*
X85154997Y-31540110D01*
X85170222Y-31503357D01*
X85198354Y-31475225D01*
X85235107Y-31460000D01*
X85544894Y-31460000D01*
X85581647Y-31475225D01*
G37*
G36*
X85525004Y-33136003D02*
G01*
X85544894Y-33136003D01*
X85581647Y-33151225D01*
X85609775Y-33179356D01*
X85625000Y-33216109D01*
X85625000Y-33666003D01*
X85624996Y-33685893D01*
X85609775Y-33722646D01*
X85581647Y-33750778D01*
X85544894Y-33766003D01*
X85525000Y-33766003D01*
X85254997Y-33766006D01*
X85235107Y-33766006D01*
X85198354Y-33750781D01*
X85170222Y-33722650D01*
X85154997Y-33685896D01*
X85154997Y-33216106D01*
X85170222Y-33179353D01*
X85198354Y-33151225D01*
X85235107Y-33136000D01*
X85254997Y-33136000D01*
X85525004Y-33136003D01*
G37*
%TD*%
D12*
%TO.C,U17*%
X92059999Y-81849999D03*
X92059999Y-82800000D03*
X92059999Y-83749998D03*
X94809999Y-83749998D03*
X94809999Y-81849999D03*
%TD*%
D13*
%TO.C,R14*%
X133245500Y-67491000D03*
X135070500Y-67491000D03*
%TD*%
D14*
%TO.C,C13*%
X129440500Y-63431000D03*
X129440500Y-65331000D03*
%TD*%
D15*
%TO.C,C14*%
X133230500Y-69781000D03*
X135130500Y-69781000D03*
%TD*%
D13*
%TO.C,R13*%
X129465500Y-67491000D03*
X131290500Y-67491000D03*
%TD*%
%TO.C,R33*%
X105290000Y-88020000D03*
X107115000Y-88020000D03*
%TD*%
D16*
%TO.C,U9*%
X163886000Y-87236415D03*
X163886000Y-86736289D03*
X163886000Y-86236163D03*
X163886000Y-85736037D03*
X163886000Y-85235911D03*
X163886000Y-84735785D03*
D17*
X163170215Y-84020000D03*
X162670089Y-84020000D03*
X162169963Y-84020000D03*
X161669837Y-84020000D03*
X161169711Y-84020000D03*
X160669585Y-84020000D03*
D16*
X159953800Y-84735785D03*
X159953800Y-85235911D03*
X159953800Y-85736037D03*
X159953800Y-86236163D03*
X159953800Y-86736289D03*
X159953800Y-87236415D03*
D17*
X160669585Y-87952200D03*
X161169711Y-87952200D03*
X161669837Y-87952200D03*
X162169963Y-87952200D03*
X162670089Y-87952200D03*
X163170215Y-87952200D03*
D18*
X161919900Y-85986100D03*
%TD*%
D14*
%TO.C,C32*%
X80400000Y-90370000D03*
X80400000Y-92270000D03*
%TD*%
D19*
%TO.C,C26*%
X157735000Y-91880000D03*
X157735000Y-89980000D03*
%TD*%
D20*
%TO.C,R17*%
X161485000Y-91930000D03*
X161485000Y-90105000D03*
%TD*%
D21*
%TO.C,D7*%
X58010000Y-90740000D03*
X58010000Y-87240000D03*
%TD*%
D13*
%TO.C,R8*%
X165833000Y-36142000D03*
X167658000Y-36142000D03*
%TD*%
D15*
%TO.C,C12*%
X102992500Y-70410000D03*
X104892500Y-70410000D03*
%TD*%
D22*
%TO.C,U11*%
X34840000Y-95110000D03*
X35240050Y-95110000D03*
X35640100Y-95110000D03*
X36040150Y-95110000D03*
X36440200Y-95110000D03*
X36440200Y-92849400D03*
X36040150Y-92849400D03*
X35640100Y-92849400D03*
X35240050Y-92849400D03*
X34840000Y-92849400D03*
D23*
X35640100Y-93979700D03*
%TD*%
D24*
%TO.C,R2*%
X40485000Y-36145000D03*
X38660000Y-36145000D03*
%TD*%
D15*
%TO.C,C34*%
X138340000Y-91770000D03*
X140240000Y-91770000D03*
%TD*%
D13*
%TO.C,R36*%
X99460000Y-94460000D03*
X101285000Y-94460000D03*
%TD*%
D15*
%TO.C,C2*%
X38630000Y-38405000D03*
X40530000Y-38405000D03*
%TD*%
%TO.C,C22*%
X166935000Y-82980000D03*
X168835000Y-82980000D03*
%TD*%
D25*
%TO.C,R18*%
X130350000Y-106060000D03*
X130350000Y-107885000D03*
%TD*%
D14*
%TO.C,C9*%
X51850500Y-63901000D03*
X51850500Y-65801000D03*
%TD*%
D13*
%TO.C,R7*%
X162053000Y-36122000D03*
X163878000Y-36122000D03*
%TD*%
%TO.C,R38*%
X138475000Y-89580000D03*
X140300000Y-89580000D03*
%TD*%
D26*
%TO.C,U12*%
X61345800Y-95650000D03*
X61345800Y-96589800D03*
X61345800Y-97529600D03*
X63835000Y-97529600D03*
X63835000Y-96589800D03*
X63835000Y-95650000D03*
%TD*%
D13*
%TO.C,R23*%
X43145000Y-84330000D03*
X44970000Y-84330000D03*
%TD*%
D27*
%TO.C,U19*%
X94534999Y-111174600D03*
X93435001Y-111174600D03*
X92335001Y-111174600D03*
X91235000Y-111174600D03*
X90135000Y-111174600D03*
X89035000Y-111174600D03*
X87934999Y-111174600D03*
X86834999Y-111174600D03*
X85734999Y-111174600D03*
X85735001Y-120090000D03*
X86834999Y-120090000D03*
X87934999Y-120090000D03*
X89035000Y-120090000D03*
X90135000Y-120090000D03*
X91235000Y-120090000D03*
X92335001Y-120090000D03*
X93435001Y-120090000D03*
X94535001Y-120090000D03*
%TD*%
D15*
%TO.C,C6*%
X118235000Y-38428000D03*
X120135000Y-38428000D03*
%TD*%
D14*
%TO.C,C1*%
X34778000Y-32097000D03*
X34778000Y-33997000D03*
%TD*%
D25*
%TO.C,R19*%
X133450000Y-106100000D03*
X133450000Y-107925000D03*
%TD*%
D13*
%TO.C,R1*%
X34825000Y-36135000D03*
X36650000Y-36135000D03*
%TD*%
D28*
%TO.C,C33*%
X78510000Y-91065000D03*
X78510000Y-90375000D03*
%TD*%
D29*
%TO.C,D6*%
X33160000Y-84320000D03*
X33160000Y-87920000D03*
%TD*%
D19*
%TO.C,C44*%
X94860000Y-79430000D03*
X94860000Y-77530000D03*
%TD*%
D30*
%TO.C,FAULT1*%
X43400000Y-87070000D03*
X43400000Y-89370000D03*
%TD*%
D31*
%TO.C,C35*%
X127010000Y-90010000D03*
X125110000Y-90010000D03*
%TD*%
D14*
%TO.C,C24*%
X165285000Y-90005000D03*
X165285000Y-91905000D03*
%TD*%
D13*
%TO.C,R21*%
X41385000Y-104710000D03*
X43210000Y-104710000D03*
%TD*%
%TO.C,R11*%
X99237500Y-68120000D03*
X101062500Y-68120000D03*
%TD*%
D32*
%TO.C,D2*%
X67133800Y-114600000D03*
X67133800Y-113300000D03*
X65133800Y-113950000D03*
%TD*%
D33*
%TO.C,SW3*%
X113725001Y-106199999D03*
X109224999Y-106199999D03*
X113725001Y-104050001D03*
X109224999Y-104050001D03*
%TD*%
D20*
%TO.C,R26*%
X54690000Y-89030000D03*
X54690000Y-87205000D03*
%TD*%
D13*
%TO.C,R9*%
X52005500Y-67931000D03*
X53830500Y-67931000D03*
%TD*%
D24*
%TO.C,R34*%
X92595000Y-89130000D03*
X90770000Y-89130000D03*
%TD*%
D20*
%TO.C,R25*%
X51610000Y-89000000D03*
X51610000Y-87175000D03*
%TD*%
D15*
%TO.C,C20*%
X166935000Y-78730000D03*
X168835000Y-78730000D03*
%TD*%
D34*
%TO.C,U14*%
X107320000Y-92000800D03*
X106370000Y-92000800D03*
X105420000Y-92000800D03*
X105420000Y-94500800D03*
X106370000Y-94500800D03*
X107320000Y-94500800D03*
%TD*%
D14*
%TO.C,C29*%
X29700000Y-80540000D03*
X29700000Y-82440000D03*
%TD*%
D30*
%TO.C,CHG1*%
X43470000Y-100310000D03*
X43470000Y-98010000D03*
%TD*%
D19*
%TO.C,C27*%
X33760000Y-106050000D03*
X33760000Y-104150000D03*
%TD*%
D13*
%TO.C,R5*%
X114510000Y-36198000D03*
X116335000Y-36198000D03*
%TD*%
%TO.C,R10*%
X55715500Y-67931000D03*
X57540500Y-67931000D03*
%TD*%
D19*
%TO.C,C23*%
X167310000Y-91930000D03*
X167310000Y-90030000D03*
%TD*%
D29*
%TO.C,D4*%
X96050000Y-88950000D03*
X96050000Y-92550000D03*
%TD*%
D13*
%TO.C,R15*%
X177060000Y-67610000D03*
X178885000Y-67610000D03*
%TD*%
D14*
%TO.C,C11*%
X99152500Y-63980000D03*
X99152500Y-65880000D03*
%TD*%
D35*
%TO.C,D1*%
X126350000Y-107790000D03*
D36*
X125500000Y-107720000D03*
D37*
X126350000Y-106890000D03*
D35*
X126350000Y-105990000D03*
X124650000Y-105990000D03*
D37*
X124650000Y-106890000D03*
D38*
X125500000Y-106300000D03*
D35*
X124650000Y-107790000D03*
%TD*%
D20*
%TO.C,R35*%
X84300000Y-87590000D03*
X84300000Y-85765000D03*
%TD*%
D39*
%TO.C,U13*%
X71336950Y-87869979D03*
X71336950Y-87219993D03*
X71336950Y-86570007D03*
X71336950Y-85920021D03*
X66930050Y-85920021D03*
X66930050Y-86570007D03*
X66930050Y-87219993D03*
X66930050Y-87869979D03*
D40*
X69133500Y-86895000D03*
%TD*%
D14*
%TO.C,C15*%
X177035000Y-63550000D03*
X177035000Y-65450000D03*
%TD*%
D13*
%TO.C,R12*%
X103007500Y-68140000D03*
X104832500Y-68140000D03*
%TD*%
%TO.C,R37*%
X105387500Y-97920000D03*
X107212500Y-97920000D03*
%TD*%
D15*
%TO.C,C19*%
X166935000Y-76605000D03*
X168835000Y-76605000D03*
%TD*%
D41*
%TO.C,L1*%
X74440000Y-89090000D03*
X74440000Y-90690000D03*
%TD*%
D42*
%TO.C,J9*%
X28000000Y-91570000D03*
X28000000Y-92220000D03*
X28000000Y-92870000D03*
X28000000Y-93520000D03*
X28000000Y-94170000D03*
D43*
X27875000Y-89770000D03*
X27875000Y-95970000D03*
D44*
X25325000Y-89070000D03*
D45*
X25325000Y-91670000D03*
X25325000Y-94070000D03*
D44*
X25325000Y-96670000D03*
%TD*%
D15*
%TO.C,C8*%
X165798000Y-38362000D03*
X167698000Y-38362000D03*
%TD*%
D20*
%TO.C,R29*%
X61060000Y-90800000D03*
X61060000Y-88975000D03*
%TD*%
D46*
%TO.C,D5*%
X99360000Y-89780000D03*
X102960000Y-89780000D03*
%TD*%
D14*
%TO.C,C5*%
X114425000Y-32148000D03*
X114425000Y-34048000D03*
%TD*%
%TO.C,C28*%
X48030000Y-103190000D03*
X48030000Y-105090000D03*
%TD*%
D31*
%TO.C,C18*%
X168835000Y-85080000D03*
X166935000Y-85080000D03*
%TD*%
D15*
%TO.C,C41*%
X64300000Y-82030000D03*
X66200000Y-82030000D03*
%TD*%
D47*
%TO.C,U15*%
X78510400Y-88029200D03*
X79450200Y-88029200D03*
X80390000Y-88029200D03*
X80390000Y-85540000D03*
X79450200Y-85540000D03*
X78510400Y-85540000D03*
%TD*%
D26*
%TO.C,U18*%
X75286200Y-113097500D03*
X75286200Y-115002500D03*
X77673800Y-114050000D03*
%TD*%
D15*
%TO.C,C16*%
X180825000Y-69900000D03*
X182725000Y-69900000D03*
%TD*%
D31*
%TO.C,C40*%
X70940000Y-91830000D03*
X69040000Y-91830000D03*
%TD*%
D20*
%TO.C,R39*%
X72912400Y-115125000D03*
X72912400Y-113300000D03*
%TD*%
D48*
%TO.C,F3*%
X54520000Y-104970000D03*
X59300000Y-104970000D03*
%TD*%
D13*
%TO.C,R28*%
X64007500Y-90690000D03*
X65832500Y-90690000D03*
%TD*%
D24*
%TO.C,R4*%
X87620000Y-36105000D03*
X85795000Y-36105000D03*
%TD*%
D25*
%TO.C,R20*%
X136620000Y-106240000D03*
X136620000Y-108065000D03*
%TD*%
D14*
%TO.C,C3*%
X81950000Y-32075000D03*
X81950000Y-33975000D03*
%TD*%
D13*
%TO.C,R16*%
X180840000Y-67610000D03*
X182665000Y-67610000D03*
%TD*%
D31*
%TO.C,C4*%
X87670000Y-38385000D03*
X85770000Y-38385000D03*
%TD*%
D14*
%TO.C,C7*%
X162048000Y-32112000D03*
X162048000Y-34012000D03*
%TD*%
D49*
%TO.C,C39*%
X86540000Y-122070000D03*
X85850000Y-122070000D03*
%TD*%
D24*
%TO.C,R27*%
X50115000Y-92390000D03*
X48290000Y-92390000D03*
%TD*%
D15*
%TO.C,C17*%
X166935000Y-87205000D03*
X168835000Y-87205000D03*
%TD*%
D50*
%TO.C,J10*%
X73458500Y-128360000D03*
D51*
X77840000Y-128360000D03*
X69077000Y-128360000D03*
%TD*%
D52*
%TO.C,BAT1*%
X47780000Y-120920000D03*
%TD*%
D13*
%TO.C,R3*%
X81995000Y-36105000D03*
X83820000Y-36105000D03*
%TD*%
D20*
%TO.C,R24*%
X48390000Y-88880000D03*
X48390000Y-87055000D03*
%TD*%
D13*
%TO.C,R30*%
X68600000Y-101850000D03*
X70425000Y-101850000D03*
%TD*%
%TO.C,R6*%
X118232500Y-36208000D03*
X120057500Y-36208000D03*
%TD*%
D14*
%TO.C,C25*%
X155460000Y-89980000D03*
X155460000Y-91880000D03*
%TD*%
D53*
%TO.C,L2*%
X89185000Y-125480000D03*
X86885000Y-125480000D03*
%TD*%
D54*
%TO.C,U16*%
X135325000Y-88306000D03*
X135325000Y-87656000D03*
X135325000Y-87006000D03*
X135325000Y-86356000D03*
X135325000Y-85706000D03*
X135325000Y-85056000D03*
X135325000Y-84406000D03*
X135325000Y-83756000D03*
X135325000Y-83106000D03*
X135325000Y-82456000D03*
X129600000Y-82456000D03*
X129600000Y-83106000D03*
X129600000Y-83756000D03*
X129600000Y-84406000D03*
X129600000Y-85056000D03*
X129600000Y-85706000D03*
X129600000Y-86356000D03*
X129600000Y-87006000D03*
X129600000Y-87656000D03*
X129600000Y-88306000D03*
%TD*%
D15*
%TO.C,C10*%
X55670500Y-70211000D03*
X57570500Y-70211000D03*
%TD*%
D33*
%TO.C,SW2*%
X115860001Y-94469999D03*
X111359999Y-94469999D03*
X115860001Y-92320001D03*
X111359999Y-92320001D03*
%TD*%
D13*
%TO.C,R40*%
X72297500Y-81990000D03*
X74122500Y-81990000D03*
%TD*%
D14*
%TO.C,C43*%
X92170000Y-77500000D03*
X92170000Y-79400000D03*
%TD*%
D13*
%TO.C,R31*%
X75010000Y-101890000D03*
X76835000Y-101890000D03*
%TD*%
D20*
%TO.C,R22*%
X37540000Y-105980000D03*
X37540000Y-104155000D03*
%TD*%
D15*
%TO.C,C38*%
X37695000Y-84470000D03*
X39595000Y-84470000D03*
%TD*%
D31*
%TO.C,C21*%
X168835000Y-80855000D03*
X166935000Y-80855000D03*
%TD*%
M02*
