M48
; DRILL file {KiCad 9.0.6} date 2026-02-16T08:55:20+0000
; FORMAT={-:-/ absolute / metric / decimal}
; #@! TF.CreationDate,2026-02-16T08:55:20+00:00
; #@! TF.GenerationSoftware,Kicad,Pcbnew,9.0.6
; #@! TF.FileFunction,Plated,1,2,PTH
FMAT,2
METRIC
; #@! TA.AperFunction,Plated,PTH,ViaDrill
T1C0.250
; #@! TA.AperFunction,Plated,PTH,ComponentDrill
T2C0.500
; #@! TA.AperFunction,Plated,PTH,ComponentDrill
T3C0.800
; #@! TA.AperFunction,Plated,PTH,ComponentDrill
T4C0.940
; #@! TA.AperFunction,Plated,PTH,ComponentDrill
T5C1.010
; #@! TA.AperFunction,Plated,PTH,ComponentDrill
T6C1.100
; #@! TA.AperFunction,Plated,PTH,ComponentDrill
T7C1.590
; #@! TA.AperFunction,Plated,PTH,ComponentDrill
T8C1.626
; #@! TA.AperFunction,Plated,PTH,ComponentDrill
T9C2.000
%
G90
G05
T1
X26.282Y-102.457
X29.381Y-93.585
X33.053Y-93.668
X33.533Y-33.842
X33.611Y-95.064
X37.009Y-96.825
X38.39Y-32.637
X38.5Y-34.323
X40.485Y-37.262
X40.965Y-106.777
X41.99Y-35.59
X42.943Y-57.81
X42.943Y-88.473
X42.943Y-96.759
X45.094Y-91.68
X49.116Y-105.285
X49.287Y-65.831
X49.84Y-88.892
X51.236Y-92.859
X53.027Y-62.723
X53.066Y-88.892
X54.471Y-64.58
X55.34Y-64.43
X56.479Y-90.875
X62.306Y-94.25
X62.736Y-88.892
X65.365Y-97.445
X66.12Y-95.99
X67.184Y-82.28
X68.103Y-91.559
X70.27Y-86.453
X70.924Y-126.573
X76.077Y-126.573
X77.933Y-91.143
X78.493Y-101.96
X78.51Y-89.287
X78.545Y-121.718
X79.058Y-86.785
X79.45Y-84.543
X80.634Y-89.214
X81.73Y-115.08
X82.2Y-86.43
X83.017Y-33.786
X83.392Y-113.508
X83.85Y-116.571
X83.894Y-31.838
X84.376Y-112.664
X84.807Y-35.772
X85.0Y-127.9
X85.861Y-121.121
X86.483Y-34.655
X86.633Y-38.642
X86.66Y-35.944
X87.935Y-121.154
X88.435Y-32.895
X92.05Y-110.096
X93.757Y-77.53
X93.88Y-104.21
X94.04Y-110.01
X95.562Y-80.959
X95.567Y-66.321
X99.753Y-66.9
X100.585Y-63.923
X102.84Y-114.27
X103.48Y-112.63
X104.15Y-98.43
X104.186Y-89.247
X104.856Y-69.263
X105.246Y-90.442
X106.472Y-93.238
X106.901Y-90.527
X108.416Y-88.892
X109.18Y-98.3
X109.932Y-63.191
X110.009Y-39.13
X115.484Y-33.951
X118.005Y-32.753
X120.086Y-37.305
X123.828Y-90.875
X127.669Y-87.638
X128.322Y-89.27
X128.502Y-82.466
X128.73Y-62.66
X128.91Y-129.089
X129.315Y-105.967
X129.655Y-93.122
X130.051Y-81.924
X131.373Y-65.197
X131.565Y-57.161
X131.611Y-69.29
X131.9Y-106.257
X132.241Y-33.007
X132.249Y-109.494
X132.62Y-64.08
X133.425Y-65.083
X133.727Y-84.089
X133.762Y-86.909
X133.78Y-71.37
X134.158Y-67.503
X134.533Y-108.012
X135.964Y-109.147
X136.478Y-87.656
X136.576Y-82.784
X137.366Y-91.29
X139.305Y-91.29
X139.388Y-89.455
X139.86Y-108.724
X143.816Y-92.517
X145.572Y-87.301
X145.998Y-90.726
X147.772Y-108.724
X151.728Y-104.758
X153.276Y-111.276
X156.374Y-88.745
X156.798Y-44.141
X159.199Y-84.62
X159.639Y-63.111
X159.639Y-91.435
X159.81Y-67.358
X159.887Y-88.192
X159.894Y-62.324
X160.038Y-82.953
X160.998Y-83.276
X161.17Y-88.974
X161.952Y-82.783
X162.702Y-82.783
X163.018Y-34.057
X163.502Y-90.897
X163.599Y-38.269
X163.625Y-34.664
X163.659Y-89.516
X163.743Y-82.783
X163.886Y-84.059
X164.033Y-29.903
X164.953Y-88.92
X164.975Y-85.275
X164.98Y-87.981
X165.38Y-84.02
X165.408Y-30.771
X165.718Y-87.205
X165.815Y-94.842
X165.82Y-105.846
X167.885Y-76.993
X169.83Y-74.21
X173.425Y-57.161
X175.12Y-65.62
X175.462Y-59.144
X176.351Y-105.847
X177.202Y-64.426
X185.352Y-92.908
T2
X25.12Y-80.59
X25.12Y-81.59
X26.33Y-104.39
X26.33Y-105.39
X82.955Y-106.395
X83.825Y-80.4
X83.825Y-81.4
X83.955Y-106.395
X84.955Y-106.395
X85.955Y-106.395
X86.955Y-106.395
X87.955Y-106.395
X88.955Y-106.395
X89.955Y-106.395
X107.325Y-43.375
X108.325Y-43.375
X109.325Y-43.375
X110.325Y-43.375
X120.37Y-82.38
X120.37Y-83.38
X120.37Y-84.38
X120.37Y-85.38
X120.37Y-86.38
X120.37Y-87.38
X120.37Y-88.38
X143.85Y-82.1
X143.85Y-83.1
X143.85Y-84.1
X143.85Y-85.1
X143.85Y-86.1
X143.85Y-87.1
X143.85Y-88.1
X174.64Y-128.9
X175.64Y-128.9
X176.64Y-128.9
X177.64Y-128.9
T3
X149.15Y-121.392
X149.15Y-123.392
X149.15Y-125.392
X151.15Y-121.392
X151.15Y-123.392
X151.15Y-125.392
X163.39Y-118.94
X163.39Y-121.48
T4
X187.822Y-107.341
X187.822Y-109.373
X187.822Y-111.405
X187.822Y-113.437
X187.842Y-86.761
X187.842Y-88.793
X187.842Y-90.825
X187.842Y-92.857
X190.362Y-108.357
X190.362Y-110.389
X190.362Y-112.421
X190.362Y-114.453
X190.382Y-87.777
X190.382Y-89.809
X190.382Y-91.841
X190.382Y-93.873
T5
X38.81Y-77.855
X41.81Y-77.855
X44.81Y-77.855
T6
X105.7Y-112.59
X105.7Y-127.83
X108.24Y-112.59
X108.24Y-127.83
X110.78Y-112.59
X110.78Y-127.83
X113.32Y-112.59
X113.32Y-127.83
X115.86Y-112.59
X115.86Y-127.83
X118.4Y-112.59
X118.4Y-115.13
X118.4Y-117.67
X118.4Y-120.21
X118.4Y-122.75
X118.4Y-125.29
X118.4Y-127.83
X120.94Y-112.59
X120.94Y-127.83
X123.48Y-112.59
X123.48Y-127.83
X126.02Y-112.59
X126.02Y-127.83
X128.56Y-112.59
X128.56Y-127.83
X131.1Y-112.59
X131.1Y-127.83
X133.64Y-112.59
X133.64Y-127.83
X136.18Y-112.59
X136.18Y-127.83
X138.72Y-112.59
X138.72Y-127.83
X141.26Y-112.59
X141.26Y-127.83
X143.8Y-112.59
X143.8Y-127.83
X146.34Y-112.59
X146.34Y-127.83
X147.661Y-115.641
X148.88Y-112.59
X148.88Y-127.83
X150.201Y-115.641
X151.42Y-112.59
X151.42Y-127.83
X152.741Y-115.641
X153.96Y-112.59
X153.96Y-127.83
X155.281Y-115.641
X156.5Y-112.59
X156.5Y-127.83
X157.821Y-115.641
X159.04Y-112.59
X159.04Y-127.83
X161.58Y-112.59
X161.58Y-125.29
X161.58Y-127.83
X164.12Y-112.59
X164.12Y-127.83
T7
X36.01Y-77.855
X47.61Y-77.855
T8
X191.175Y-102.769
X191.175Y-119.025
X191.195Y-82.189
X191.195Y-98.445
T9
X37.18Y-120.92
X58.38Y-120.92
M30
