%TF.GenerationSoftware,KiCad,Pcbnew,9.0.6*%
%TF.CreationDate,2026-01-10T21:11:38+01:00*%
%TF.ProjectId,_autosave-sisterboard_A,5f617574-6f73-4617-9665-2d7369737465,1.0*%
%TF.SameCoordinates,Original*%
%TF.FileFunction,Other,Comment*%
%FSLAX46Y46*%
G04 Gerber Fmt 4.6, Leading zero omitted, Abs format (unit mm)*
G04 Created by KiCad (PCBNEW 9.0.6) date 2026-01-10 21:11:38*
%MOMM*%
%LPD*%
G01*
G04 APERTURE LIST*
%ADD10C,0.002000*%
%ADD11C,0.150000*%
%ADD12C,0.015875*%
G04 APERTURE END LIST*
D10*
X152501553Y-97691033D02*
X152507601Y-97697081D01*
X152507601Y-97697081D02*
X152513648Y-97715223D01*
X152513648Y-97715223D02*
X152513648Y-97727319D01*
X152513648Y-97727319D02*
X152507601Y-97745462D01*
X152507601Y-97745462D02*
X152495505Y-97757557D01*
X152495505Y-97757557D02*
X152483410Y-97763604D01*
X152483410Y-97763604D02*
X152459220Y-97769652D01*
X152459220Y-97769652D02*
X152441077Y-97769652D01*
X152441077Y-97769652D02*
X152416886Y-97763604D01*
X152416886Y-97763604D02*
X152404791Y-97757557D01*
X152404791Y-97757557D02*
X152392696Y-97745462D01*
X152392696Y-97745462D02*
X152386648Y-97727319D01*
X152386648Y-97727319D02*
X152386648Y-97715223D01*
X152386648Y-97715223D02*
X152392696Y-97697081D01*
X152392696Y-97697081D02*
X152398743Y-97691033D01*
X152513648Y-97618462D02*
X152507601Y-97630557D01*
X152507601Y-97630557D02*
X152501553Y-97636604D01*
X152501553Y-97636604D02*
X152489458Y-97642652D01*
X152489458Y-97642652D02*
X152453172Y-97642652D01*
X152453172Y-97642652D02*
X152441077Y-97636604D01*
X152441077Y-97636604D02*
X152435029Y-97630557D01*
X152435029Y-97630557D02*
X152428981Y-97618462D01*
X152428981Y-97618462D02*
X152428981Y-97600319D01*
X152428981Y-97600319D02*
X152435029Y-97588223D01*
X152435029Y-97588223D02*
X152441077Y-97582176D01*
X152441077Y-97582176D02*
X152453172Y-97576128D01*
X152453172Y-97576128D02*
X152489458Y-97576128D01*
X152489458Y-97576128D02*
X152501553Y-97582176D01*
X152501553Y-97582176D02*
X152507601Y-97588223D01*
X152507601Y-97588223D02*
X152513648Y-97600319D01*
X152513648Y-97600319D02*
X152513648Y-97618462D01*
X152428981Y-97521699D02*
X152555981Y-97521699D01*
X152435029Y-97521699D02*
X152428981Y-97509604D01*
X152428981Y-97509604D02*
X152428981Y-97485414D01*
X152428981Y-97485414D02*
X152435029Y-97473318D01*
X152435029Y-97473318D02*
X152441077Y-97467271D01*
X152441077Y-97467271D02*
X152453172Y-97461223D01*
X152453172Y-97461223D02*
X152489458Y-97461223D01*
X152489458Y-97461223D02*
X152501553Y-97467271D01*
X152501553Y-97467271D02*
X152507601Y-97473318D01*
X152507601Y-97473318D02*
X152513648Y-97485414D01*
X152513648Y-97485414D02*
X152513648Y-97509604D01*
X152513648Y-97509604D02*
X152507601Y-97521699D01*
X152428981Y-97418890D02*
X152513648Y-97388652D01*
X152428981Y-97358413D02*
X152513648Y-97388652D01*
X152513648Y-97388652D02*
X152543886Y-97400747D01*
X152543886Y-97400747D02*
X152549934Y-97406794D01*
X152549934Y-97406794D02*
X152555981Y-97418890D01*
X152513648Y-97310032D02*
X152428981Y-97310032D01*
X152453172Y-97310032D02*
X152441077Y-97303985D01*
X152441077Y-97303985D02*
X152435029Y-97297937D01*
X152435029Y-97297937D02*
X152428981Y-97285842D01*
X152428981Y-97285842D02*
X152428981Y-97273747D01*
X152513648Y-97231413D02*
X152428981Y-97231413D01*
X152386648Y-97231413D02*
X152392696Y-97237461D01*
X152392696Y-97237461D02*
X152398743Y-97231413D01*
X152398743Y-97231413D02*
X152392696Y-97225366D01*
X152392696Y-97225366D02*
X152386648Y-97231413D01*
X152386648Y-97231413D02*
X152398743Y-97231413D01*
X152428981Y-97116509D02*
X152531791Y-97116509D01*
X152531791Y-97116509D02*
X152543886Y-97122556D01*
X152543886Y-97122556D02*
X152549934Y-97128604D01*
X152549934Y-97128604D02*
X152555981Y-97140699D01*
X152555981Y-97140699D02*
X152555981Y-97158842D01*
X152555981Y-97158842D02*
X152549934Y-97170937D01*
X152507601Y-97116509D02*
X152513648Y-97128604D01*
X152513648Y-97128604D02*
X152513648Y-97152795D01*
X152513648Y-97152795D02*
X152507601Y-97164890D01*
X152507601Y-97164890D02*
X152501553Y-97170937D01*
X152501553Y-97170937D02*
X152489458Y-97176985D01*
X152489458Y-97176985D02*
X152453172Y-97176985D01*
X152453172Y-97176985D02*
X152441077Y-97170937D01*
X152441077Y-97170937D02*
X152435029Y-97164890D01*
X152435029Y-97164890D02*
X152428981Y-97152795D01*
X152428981Y-97152795D02*
X152428981Y-97128604D01*
X152428981Y-97128604D02*
X152435029Y-97116509D01*
X152513648Y-97056032D02*
X152386648Y-97056032D01*
X152513648Y-97001604D02*
X152447124Y-97001604D01*
X152447124Y-97001604D02*
X152435029Y-97007651D01*
X152435029Y-97007651D02*
X152428981Y-97019747D01*
X152428981Y-97019747D02*
X152428981Y-97037890D01*
X152428981Y-97037890D02*
X152435029Y-97049985D01*
X152435029Y-97049985D02*
X152441077Y-97056032D01*
X152428981Y-96959270D02*
X152428981Y-96910889D01*
X152386648Y-96941127D02*
X152495505Y-96941127D01*
X152495505Y-96941127D02*
X152507601Y-96935080D01*
X152507601Y-96935080D02*
X152513648Y-96922985D01*
X152513648Y-96922985D02*
X152513648Y-96910889D01*
X152398743Y-96777842D02*
X152392696Y-96771794D01*
X152392696Y-96771794D02*
X152386648Y-96759699D01*
X152386648Y-96759699D02*
X152386648Y-96729461D01*
X152386648Y-96729461D02*
X152392696Y-96717366D01*
X152392696Y-96717366D02*
X152398743Y-96711318D01*
X152398743Y-96711318D02*
X152410839Y-96705271D01*
X152410839Y-96705271D02*
X152422934Y-96705271D01*
X152422934Y-96705271D02*
X152441077Y-96711318D01*
X152441077Y-96711318D02*
X152513648Y-96783890D01*
X152513648Y-96783890D02*
X152513648Y-96705271D01*
X152386648Y-96626652D02*
X152386648Y-96614557D01*
X152386648Y-96614557D02*
X152392696Y-96602461D01*
X152392696Y-96602461D02*
X152398743Y-96596414D01*
X152398743Y-96596414D02*
X152410839Y-96590366D01*
X152410839Y-96590366D02*
X152435029Y-96584319D01*
X152435029Y-96584319D02*
X152465267Y-96584319D01*
X152465267Y-96584319D02*
X152489458Y-96590366D01*
X152489458Y-96590366D02*
X152501553Y-96596414D01*
X152501553Y-96596414D02*
X152507601Y-96602461D01*
X152507601Y-96602461D02*
X152513648Y-96614557D01*
X152513648Y-96614557D02*
X152513648Y-96626652D01*
X152513648Y-96626652D02*
X152507601Y-96638747D01*
X152507601Y-96638747D02*
X152501553Y-96644795D01*
X152501553Y-96644795D02*
X152489458Y-96650842D01*
X152489458Y-96650842D02*
X152465267Y-96656890D01*
X152465267Y-96656890D02*
X152435029Y-96656890D01*
X152435029Y-96656890D02*
X152410839Y-96650842D01*
X152410839Y-96650842D02*
X152398743Y-96644795D01*
X152398743Y-96644795D02*
X152392696Y-96638747D01*
X152392696Y-96638747D02*
X152386648Y-96626652D01*
X152513648Y-96463367D02*
X152513648Y-96535938D01*
X152513648Y-96499652D02*
X152386648Y-96499652D01*
X152386648Y-96499652D02*
X152404791Y-96511748D01*
X152404791Y-96511748D02*
X152416886Y-96523843D01*
X152416886Y-96523843D02*
X152422934Y-96535938D01*
X152386648Y-96354510D02*
X152386648Y-96378700D01*
X152386648Y-96378700D02*
X152392696Y-96390796D01*
X152392696Y-96390796D02*
X152398743Y-96396843D01*
X152398743Y-96396843D02*
X152416886Y-96408938D01*
X152416886Y-96408938D02*
X152441077Y-96414986D01*
X152441077Y-96414986D02*
X152489458Y-96414986D01*
X152489458Y-96414986D02*
X152501553Y-96408938D01*
X152501553Y-96408938D02*
X152507601Y-96402891D01*
X152507601Y-96402891D02*
X152513648Y-96390796D01*
X152513648Y-96390796D02*
X152513648Y-96366605D01*
X152513648Y-96366605D02*
X152507601Y-96354510D01*
X152507601Y-96354510D02*
X152501553Y-96348462D01*
X152501553Y-96348462D02*
X152489458Y-96342415D01*
X152489458Y-96342415D02*
X152459220Y-96342415D01*
X152459220Y-96342415D02*
X152447124Y-96348462D01*
X152447124Y-96348462D02*
X152441077Y-96354510D01*
X152441077Y-96354510D02*
X152435029Y-96366605D01*
X152435029Y-96366605D02*
X152435029Y-96390796D01*
X152435029Y-96390796D02*
X152441077Y-96402891D01*
X152441077Y-96402891D02*
X152447124Y-96408938D01*
X152447124Y-96408938D02*
X152459220Y-96414986D01*
X152477362Y-96197272D02*
X152477362Y-96136796D01*
X152513648Y-96209367D02*
X152386648Y-96167034D01*
X152386648Y-96167034D02*
X152513648Y-96124701D01*
X152507601Y-96027939D02*
X152513648Y-96040034D01*
X152513648Y-96040034D02*
X152513648Y-96064225D01*
X152513648Y-96064225D02*
X152507601Y-96076320D01*
X152507601Y-96076320D02*
X152501553Y-96082367D01*
X152501553Y-96082367D02*
X152489458Y-96088415D01*
X152489458Y-96088415D02*
X152453172Y-96088415D01*
X152453172Y-96088415D02*
X152441077Y-96082367D01*
X152441077Y-96082367D02*
X152435029Y-96076320D01*
X152435029Y-96076320D02*
X152428981Y-96064225D01*
X152428981Y-96064225D02*
X152428981Y-96040034D01*
X152428981Y-96040034D02*
X152435029Y-96027939D01*
X152507601Y-95919082D02*
X152513648Y-95931177D01*
X152513648Y-95931177D02*
X152513648Y-95955368D01*
X152513648Y-95955368D02*
X152507601Y-95967463D01*
X152507601Y-95967463D02*
X152501553Y-95973510D01*
X152501553Y-95973510D02*
X152489458Y-95979558D01*
X152489458Y-95979558D02*
X152453172Y-95979558D01*
X152453172Y-95979558D02*
X152441077Y-95973510D01*
X152441077Y-95973510D02*
X152435029Y-95967463D01*
X152435029Y-95967463D02*
X152428981Y-95955368D01*
X152428981Y-95955368D02*
X152428981Y-95931177D01*
X152428981Y-95931177D02*
X152435029Y-95919082D01*
X152507601Y-95816272D02*
X152513648Y-95828368D01*
X152513648Y-95828368D02*
X152513648Y-95852558D01*
X152513648Y-95852558D02*
X152507601Y-95864653D01*
X152507601Y-95864653D02*
X152495505Y-95870701D01*
X152495505Y-95870701D02*
X152447124Y-95870701D01*
X152447124Y-95870701D02*
X152435029Y-95864653D01*
X152435029Y-95864653D02*
X152428981Y-95852558D01*
X152428981Y-95852558D02*
X152428981Y-95828368D01*
X152428981Y-95828368D02*
X152435029Y-95816272D01*
X152435029Y-95816272D02*
X152447124Y-95810225D01*
X152447124Y-95810225D02*
X152459220Y-95810225D01*
X152459220Y-95810225D02*
X152471315Y-95870701D01*
X152513648Y-95737654D02*
X152507601Y-95749749D01*
X152507601Y-95749749D02*
X152495505Y-95755796D01*
X152495505Y-95755796D02*
X152386648Y-95755796D01*
X152507601Y-95640891D02*
X152513648Y-95652987D01*
X152513648Y-95652987D02*
X152513648Y-95677177D01*
X152513648Y-95677177D02*
X152507601Y-95689272D01*
X152507601Y-95689272D02*
X152495505Y-95695320D01*
X152495505Y-95695320D02*
X152447124Y-95695320D01*
X152447124Y-95695320D02*
X152435029Y-95689272D01*
X152435029Y-95689272D02*
X152428981Y-95677177D01*
X152428981Y-95677177D02*
X152428981Y-95652987D01*
X152428981Y-95652987D02*
X152435029Y-95640891D01*
X152435029Y-95640891D02*
X152447124Y-95634844D01*
X152447124Y-95634844D02*
X152459220Y-95634844D01*
X152459220Y-95634844D02*
X152471315Y-95695320D01*
X152513648Y-95580415D02*
X152428981Y-95580415D01*
X152453172Y-95580415D02*
X152441077Y-95574368D01*
X152441077Y-95574368D02*
X152435029Y-95568320D01*
X152435029Y-95568320D02*
X152428981Y-95556225D01*
X152428981Y-95556225D02*
X152428981Y-95544130D01*
X152513648Y-95447368D02*
X152447124Y-95447368D01*
X152447124Y-95447368D02*
X152435029Y-95453415D01*
X152435029Y-95453415D02*
X152428981Y-95465511D01*
X152428981Y-95465511D02*
X152428981Y-95489701D01*
X152428981Y-95489701D02*
X152435029Y-95501796D01*
X152507601Y-95447368D02*
X152513648Y-95459463D01*
X152513648Y-95459463D02*
X152513648Y-95489701D01*
X152513648Y-95489701D02*
X152507601Y-95501796D01*
X152507601Y-95501796D02*
X152495505Y-95507844D01*
X152495505Y-95507844D02*
X152483410Y-95507844D01*
X152483410Y-95507844D02*
X152471315Y-95501796D01*
X152471315Y-95501796D02*
X152465267Y-95489701D01*
X152465267Y-95489701D02*
X152465267Y-95459463D01*
X152465267Y-95459463D02*
X152459220Y-95447368D01*
X152428981Y-95405034D02*
X152428981Y-95356653D01*
X152386648Y-95386891D02*
X152495505Y-95386891D01*
X152495505Y-95386891D02*
X152507601Y-95380844D01*
X152507601Y-95380844D02*
X152513648Y-95368749D01*
X152513648Y-95368749D02*
X152513648Y-95356653D01*
X152507601Y-95265939D02*
X152513648Y-95278035D01*
X152513648Y-95278035D02*
X152513648Y-95302225D01*
X152513648Y-95302225D02*
X152507601Y-95314320D01*
X152507601Y-95314320D02*
X152495505Y-95320368D01*
X152495505Y-95320368D02*
X152447124Y-95320368D01*
X152447124Y-95320368D02*
X152435029Y-95314320D01*
X152435029Y-95314320D02*
X152428981Y-95302225D01*
X152428981Y-95302225D02*
X152428981Y-95278035D01*
X152428981Y-95278035D02*
X152435029Y-95265939D01*
X152435029Y-95265939D02*
X152447124Y-95259892D01*
X152447124Y-95259892D02*
X152459220Y-95259892D01*
X152459220Y-95259892D02*
X152471315Y-95320368D01*
X152513648Y-95151035D02*
X152386648Y-95151035D01*
X152507601Y-95151035D02*
X152513648Y-95163130D01*
X152513648Y-95163130D02*
X152513648Y-95187321D01*
X152513648Y-95187321D02*
X152507601Y-95199416D01*
X152507601Y-95199416D02*
X152501553Y-95205463D01*
X152501553Y-95205463D02*
X152489458Y-95211511D01*
X152489458Y-95211511D02*
X152453172Y-95211511D01*
X152453172Y-95211511D02*
X152441077Y-95205463D01*
X152441077Y-95205463D02*
X152435029Y-95199416D01*
X152435029Y-95199416D02*
X152428981Y-95187321D01*
X152428981Y-95187321D02*
X152428981Y-95163130D01*
X152428981Y-95163130D02*
X152435029Y-95151035D01*
X152513648Y-94993796D02*
X152386648Y-94993796D01*
X152386648Y-94993796D02*
X152386648Y-94963558D01*
X152386648Y-94963558D02*
X152392696Y-94945415D01*
X152392696Y-94945415D02*
X152404791Y-94933320D01*
X152404791Y-94933320D02*
X152416886Y-94927273D01*
X152416886Y-94927273D02*
X152441077Y-94921225D01*
X152441077Y-94921225D02*
X152459220Y-94921225D01*
X152459220Y-94921225D02*
X152483410Y-94927273D01*
X152483410Y-94927273D02*
X152495505Y-94933320D01*
X152495505Y-94933320D02*
X152507601Y-94945415D01*
X152507601Y-94945415D02*
X152513648Y-94963558D01*
X152513648Y-94963558D02*
X152513648Y-94993796D01*
X152507601Y-94818415D02*
X152513648Y-94830511D01*
X152513648Y-94830511D02*
X152513648Y-94854701D01*
X152513648Y-94854701D02*
X152507601Y-94866796D01*
X152507601Y-94866796D02*
X152495505Y-94872844D01*
X152495505Y-94872844D02*
X152447124Y-94872844D01*
X152447124Y-94872844D02*
X152435029Y-94866796D01*
X152435029Y-94866796D02*
X152428981Y-94854701D01*
X152428981Y-94854701D02*
X152428981Y-94830511D01*
X152428981Y-94830511D02*
X152435029Y-94818415D01*
X152435029Y-94818415D02*
X152447124Y-94812368D01*
X152447124Y-94812368D02*
X152459220Y-94812368D01*
X152459220Y-94812368D02*
X152471315Y-94872844D01*
X152507601Y-94763987D02*
X152513648Y-94751892D01*
X152513648Y-94751892D02*
X152513648Y-94727701D01*
X152513648Y-94727701D02*
X152507601Y-94715606D01*
X152507601Y-94715606D02*
X152495505Y-94709558D01*
X152495505Y-94709558D02*
X152489458Y-94709558D01*
X152489458Y-94709558D02*
X152477362Y-94715606D01*
X152477362Y-94715606D02*
X152471315Y-94727701D01*
X152471315Y-94727701D02*
X152471315Y-94745844D01*
X152471315Y-94745844D02*
X152465267Y-94757939D01*
X152465267Y-94757939D02*
X152453172Y-94763987D01*
X152453172Y-94763987D02*
X152447124Y-94763987D01*
X152447124Y-94763987D02*
X152435029Y-94757939D01*
X152435029Y-94757939D02*
X152428981Y-94745844D01*
X152428981Y-94745844D02*
X152428981Y-94727701D01*
X152428981Y-94727701D02*
X152435029Y-94715606D01*
X152513648Y-94655129D02*
X152428981Y-94655129D01*
X152386648Y-94655129D02*
X152392696Y-94661177D01*
X152392696Y-94661177D02*
X152398743Y-94655129D01*
X152398743Y-94655129D02*
X152392696Y-94649082D01*
X152392696Y-94649082D02*
X152386648Y-94655129D01*
X152386648Y-94655129D02*
X152398743Y-94655129D01*
X152428981Y-94540225D02*
X152531791Y-94540225D01*
X152531791Y-94540225D02*
X152543886Y-94546272D01*
X152543886Y-94546272D02*
X152549934Y-94552320D01*
X152549934Y-94552320D02*
X152555981Y-94564415D01*
X152555981Y-94564415D02*
X152555981Y-94582558D01*
X152555981Y-94582558D02*
X152549934Y-94594653D01*
X152507601Y-94540225D02*
X152513648Y-94552320D01*
X152513648Y-94552320D02*
X152513648Y-94576511D01*
X152513648Y-94576511D02*
X152507601Y-94588606D01*
X152507601Y-94588606D02*
X152501553Y-94594653D01*
X152501553Y-94594653D02*
X152489458Y-94600701D01*
X152489458Y-94600701D02*
X152453172Y-94600701D01*
X152453172Y-94600701D02*
X152441077Y-94594653D01*
X152441077Y-94594653D02*
X152435029Y-94588606D01*
X152435029Y-94588606D02*
X152428981Y-94576511D01*
X152428981Y-94576511D02*
X152428981Y-94552320D01*
X152428981Y-94552320D02*
X152435029Y-94540225D01*
X152428981Y-94479748D02*
X152513648Y-94479748D01*
X152441077Y-94479748D02*
X152435029Y-94473701D01*
X152435029Y-94473701D02*
X152428981Y-94461606D01*
X152428981Y-94461606D02*
X152428981Y-94443463D01*
X152428981Y-94443463D02*
X152435029Y-94431367D01*
X152435029Y-94431367D02*
X152447124Y-94425320D01*
X152447124Y-94425320D02*
X152513648Y-94425320D01*
X152507601Y-94370891D02*
X152513648Y-94358796D01*
X152513648Y-94358796D02*
X152513648Y-94334605D01*
X152513648Y-94334605D02*
X152507601Y-94322510D01*
X152507601Y-94322510D02*
X152495505Y-94316462D01*
X152495505Y-94316462D02*
X152489458Y-94316462D01*
X152489458Y-94316462D02*
X152477362Y-94322510D01*
X152477362Y-94322510D02*
X152471315Y-94334605D01*
X152471315Y-94334605D02*
X152471315Y-94352748D01*
X152471315Y-94352748D02*
X152465267Y-94364843D01*
X152465267Y-94364843D02*
X152453172Y-94370891D01*
X152453172Y-94370891D02*
X152447124Y-94370891D01*
X152447124Y-94370891D02*
X152435029Y-94364843D01*
X152435029Y-94364843D02*
X152428981Y-94352748D01*
X152428981Y-94352748D02*
X152428981Y-94334605D01*
X152428981Y-94334605D02*
X152435029Y-94322510D01*
X152501553Y-94262033D02*
X152507601Y-94255986D01*
X152507601Y-94255986D02*
X152513648Y-94262033D01*
X152513648Y-94262033D02*
X152507601Y-94268081D01*
X152507601Y-94268081D02*
X152501553Y-94262033D01*
X152501553Y-94262033D02*
X152513648Y-94262033D01*
X152477362Y-94110843D02*
X152477362Y-94050367D01*
X152513648Y-94122938D02*
X152386648Y-94080605D01*
X152386648Y-94080605D02*
X152513648Y-94038272D01*
X152513648Y-93977796D02*
X152507601Y-93989891D01*
X152507601Y-93989891D02*
X152495505Y-93995938D01*
X152495505Y-93995938D02*
X152386648Y-93995938D01*
X152513648Y-93911272D02*
X152507601Y-93923367D01*
X152507601Y-93923367D02*
X152495505Y-93929414D01*
X152495505Y-93929414D02*
X152386648Y-93929414D01*
X152513648Y-93766128D02*
X152428981Y-93766128D01*
X152453172Y-93766128D02*
X152441077Y-93760081D01*
X152441077Y-93760081D02*
X152435029Y-93754033D01*
X152435029Y-93754033D02*
X152428981Y-93741938D01*
X152428981Y-93741938D02*
X152428981Y-93729843D01*
X152513648Y-93687509D02*
X152428981Y-93687509D01*
X152386648Y-93687509D02*
X152392696Y-93693557D01*
X152392696Y-93693557D02*
X152398743Y-93687509D01*
X152398743Y-93687509D02*
X152392696Y-93681462D01*
X152392696Y-93681462D02*
X152386648Y-93687509D01*
X152386648Y-93687509D02*
X152398743Y-93687509D01*
X152428981Y-93572605D02*
X152531791Y-93572605D01*
X152531791Y-93572605D02*
X152543886Y-93578652D01*
X152543886Y-93578652D02*
X152549934Y-93584700D01*
X152549934Y-93584700D02*
X152555981Y-93596795D01*
X152555981Y-93596795D02*
X152555981Y-93614938D01*
X152555981Y-93614938D02*
X152549934Y-93627033D01*
X152507601Y-93572605D02*
X152513648Y-93584700D01*
X152513648Y-93584700D02*
X152513648Y-93608891D01*
X152513648Y-93608891D02*
X152507601Y-93620986D01*
X152507601Y-93620986D02*
X152501553Y-93627033D01*
X152501553Y-93627033D02*
X152489458Y-93633081D01*
X152489458Y-93633081D02*
X152453172Y-93633081D01*
X152453172Y-93633081D02*
X152441077Y-93627033D01*
X152441077Y-93627033D02*
X152435029Y-93620986D01*
X152435029Y-93620986D02*
X152428981Y-93608891D01*
X152428981Y-93608891D02*
X152428981Y-93584700D01*
X152428981Y-93584700D02*
X152435029Y-93572605D01*
X152513648Y-93512128D02*
X152386648Y-93512128D01*
X152513648Y-93457700D02*
X152447124Y-93457700D01*
X152447124Y-93457700D02*
X152435029Y-93463747D01*
X152435029Y-93463747D02*
X152428981Y-93475843D01*
X152428981Y-93475843D02*
X152428981Y-93493986D01*
X152428981Y-93493986D02*
X152435029Y-93506081D01*
X152435029Y-93506081D02*
X152441077Y-93512128D01*
X152428981Y-93415366D02*
X152428981Y-93366985D01*
X152386648Y-93397223D02*
X152495505Y-93397223D01*
X152495505Y-93397223D02*
X152507601Y-93391176D01*
X152507601Y-93391176D02*
X152513648Y-93379081D01*
X152513648Y-93379081D02*
X152513648Y-93366985D01*
X152507601Y-93330700D02*
X152513648Y-93318605D01*
X152513648Y-93318605D02*
X152513648Y-93294414D01*
X152513648Y-93294414D02*
X152507601Y-93282319D01*
X152507601Y-93282319D02*
X152495505Y-93276271D01*
X152495505Y-93276271D02*
X152489458Y-93276271D01*
X152489458Y-93276271D02*
X152477362Y-93282319D01*
X152477362Y-93282319D02*
X152471315Y-93294414D01*
X152471315Y-93294414D02*
X152471315Y-93312557D01*
X152471315Y-93312557D02*
X152465267Y-93324652D01*
X152465267Y-93324652D02*
X152453172Y-93330700D01*
X152453172Y-93330700D02*
X152447124Y-93330700D01*
X152447124Y-93330700D02*
X152435029Y-93324652D01*
X152435029Y-93324652D02*
X152428981Y-93312557D01*
X152428981Y-93312557D02*
X152428981Y-93294414D01*
X152428981Y-93294414D02*
X152435029Y-93282319D01*
X152513648Y-93125080D02*
X152428981Y-93125080D01*
X152453172Y-93125080D02*
X152441077Y-93119033D01*
X152441077Y-93119033D02*
X152435029Y-93112985D01*
X152435029Y-93112985D02*
X152428981Y-93100890D01*
X152428981Y-93100890D02*
X152428981Y-93088795D01*
X152507601Y-92998080D02*
X152513648Y-93010176D01*
X152513648Y-93010176D02*
X152513648Y-93034366D01*
X152513648Y-93034366D02*
X152507601Y-93046461D01*
X152507601Y-93046461D02*
X152495505Y-93052509D01*
X152495505Y-93052509D02*
X152447124Y-93052509D01*
X152447124Y-93052509D02*
X152435029Y-93046461D01*
X152435029Y-93046461D02*
X152428981Y-93034366D01*
X152428981Y-93034366D02*
X152428981Y-93010176D01*
X152428981Y-93010176D02*
X152435029Y-92998080D01*
X152435029Y-92998080D02*
X152447124Y-92992033D01*
X152447124Y-92992033D02*
X152459220Y-92992033D01*
X152459220Y-92992033D02*
X152471315Y-93052509D01*
X152507601Y-92943652D02*
X152513648Y-92931557D01*
X152513648Y-92931557D02*
X152513648Y-92907366D01*
X152513648Y-92907366D02*
X152507601Y-92895271D01*
X152507601Y-92895271D02*
X152495505Y-92889223D01*
X152495505Y-92889223D02*
X152489458Y-92889223D01*
X152489458Y-92889223D02*
X152477362Y-92895271D01*
X152477362Y-92895271D02*
X152471315Y-92907366D01*
X152471315Y-92907366D02*
X152471315Y-92925509D01*
X152471315Y-92925509D02*
X152465267Y-92937604D01*
X152465267Y-92937604D02*
X152453172Y-92943652D01*
X152453172Y-92943652D02*
X152447124Y-92943652D01*
X152447124Y-92943652D02*
X152435029Y-92937604D01*
X152435029Y-92937604D02*
X152428981Y-92925509D01*
X152428981Y-92925509D02*
X152428981Y-92907366D01*
X152428981Y-92907366D02*
X152435029Y-92895271D01*
X152507601Y-92786413D02*
X152513648Y-92798509D01*
X152513648Y-92798509D02*
X152513648Y-92822699D01*
X152513648Y-92822699D02*
X152507601Y-92834794D01*
X152507601Y-92834794D02*
X152495505Y-92840842D01*
X152495505Y-92840842D02*
X152447124Y-92840842D01*
X152447124Y-92840842D02*
X152435029Y-92834794D01*
X152435029Y-92834794D02*
X152428981Y-92822699D01*
X152428981Y-92822699D02*
X152428981Y-92798509D01*
X152428981Y-92798509D02*
X152435029Y-92786413D01*
X152435029Y-92786413D02*
X152447124Y-92780366D01*
X152447124Y-92780366D02*
X152459220Y-92780366D01*
X152459220Y-92780366D02*
X152471315Y-92840842D01*
X152513648Y-92725937D02*
X152428981Y-92725937D01*
X152453172Y-92725937D02*
X152441077Y-92719890D01*
X152441077Y-92719890D02*
X152435029Y-92713842D01*
X152435029Y-92713842D02*
X152428981Y-92701747D01*
X152428981Y-92701747D02*
X152428981Y-92689652D01*
X152428981Y-92659414D02*
X152513648Y-92629176D01*
X152513648Y-92629176D02*
X152428981Y-92598937D01*
X152507601Y-92502175D02*
X152513648Y-92514271D01*
X152513648Y-92514271D02*
X152513648Y-92538461D01*
X152513648Y-92538461D02*
X152507601Y-92550556D01*
X152507601Y-92550556D02*
X152495505Y-92556604D01*
X152495505Y-92556604D02*
X152447124Y-92556604D01*
X152447124Y-92556604D02*
X152435029Y-92550556D01*
X152435029Y-92550556D02*
X152428981Y-92538461D01*
X152428981Y-92538461D02*
X152428981Y-92514271D01*
X152428981Y-92514271D02*
X152435029Y-92502175D01*
X152435029Y-92502175D02*
X152447124Y-92496128D01*
X152447124Y-92496128D02*
X152459220Y-92496128D01*
X152459220Y-92496128D02*
X152471315Y-92556604D01*
X152513648Y-92387271D02*
X152386648Y-92387271D01*
X152507601Y-92387271D02*
X152513648Y-92399366D01*
X152513648Y-92399366D02*
X152513648Y-92423557D01*
X152513648Y-92423557D02*
X152507601Y-92435652D01*
X152507601Y-92435652D02*
X152501553Y-92441699D01*
X152501553Y-92441699D02*
X152489458Y-92447747D01*
X152489458Y-92447747D02*
X152453172Y-92447747D01*
X152453172Y-92447747D02*
X152441077Y-92441699D01*
X152441077Y-92441699D02*
X152435029Y-92435652D01*
X152435029Y-92435652D02*
X152428981Y-92423557D01*
X152428981Y-92423557D02*
X152428981Y-92399366D01*
X152428981Y-92399366D02*
X152435029Y-92387271D01*
X152501553Y-92326794D02*
X152507601Y-92320747D01*
X152507601Y-92320747D02*
X152513648Y-92326794D01*
X152513648Y-92326794D02*
X152507601Y-92332842D01*
X152507601Y-92332842D02*
X152501553Y-92326794D01*
X152501553Y-92326794D02*
X152513648Y-92326794D01*
D11*
X153875919Y-105987870D02*
X153875919Y-105892632D01*
X153875919Y-105892632D02*
X153923538Y-105797394D01*
X153923538Y-105797394D02*
X153971157Y-105749775D01*
X153971157Y-105749775D02*
X154066395Y-105702156D01*
X154066395Y-105702156D02*
X154256871Y-105654537D01*
X154256871Y-105654537D02*
X154494966Y-105654537D01*
X154494966Y-105654537D02*
X154685442Y-105702156D01*
X154685442Y-105702156D02*
X154780680Y-105749775D01*
X154780680Y-105749775D02*
X154828300Y-105797394D01*
X154828300Y-105797394D02*
X154875919Y-105892632D01*
X154875919Y-105892632D02*
X154875919Y-105987870D01*
X154875919Y-105987870D02*
X154828300Y-106083108D01*
X154828300Y-106083108D02*
X154780680Y-106130727D01*
X154780680Y-106130727D02*
X154685442Y-106178346D01*
X154685442Y-106178346D02*
X154494966Y-106225965D01*
X154494966Y-106225965D02*
X154256871Y-106225965D01*
X154256871Y-106225965D02*
X154066395Y-106178346D01*
X154066395Y-106178346D02*
X153971157Y-106130727D01*
X153971157Y-106130727D02*
X153923538Y-106083108D01*
X153923538Y-106083108D02*
X153875919Y-105987870D01*
X154780680Y-105225965D02*
X154828300Y-105178346D01*
X154828300Y-105178346D02*
X154875919Y-105225965D01*
X154875919Y-105225965D02*
X154828300Y-105273584D01*
X154828300Y-105273584D02*
X154780680Y-105225965D01*
X154780680Y-105225965D02*
X154875919Y-105225965D01*
X153875919Y-104559299D02*
X153875919Y-104464061D01*
X153875919Y-104464061D02*
X153923538Y-104368823D01*
X153923538Y-104368823D02*
X153971157Y-104321204D01*
X153971157Y-104321204D02*
X154066395Y-104273585D01*
X154066395Y-104273585D02*
X154256871Y-104225966D01*
X154256871Y-104225966D02*
X154494966Y-104225966D01*
X154494966Y-104225966D02*
X154685442Y-104273585D01*
X154685442Y-104273585D02*
X154780680Y-104321204D01*
X154780680Y-104321204D02*
X154828300Y-104368823D01*
X154828300Y-104368823D02*
X154875919Y-104464061D01*
X154875919Y-104464061D02*
X154875919Y-104559299D01*
X154875919Y-104559299D02*
X154828300Y-104654537D01*
X154828300Y-104654537D02*
X154780680Y-104702156D01*
X154780680Y-104702156D02*
X154685442Y-104749775D01*
X154685442Y-104749775D02*
X154494966Y-104797394D01*
X154494966Y-104797394D02*
X154256871Y-104797394D01*
X154256871Y-104797394D02*
X154066395Y-104749775D01*
X154066395Y-104749775D02*
X153971157Y-104702156D01*
X153971157Y-104702156D02*
X153923538Y-104654537D01*
X153923538Y-104654537D02*
X153875919Y-104559299D01*
X154875919Y-103273585D02*
X154875919Y-103845013D01*
X154875919Y-103559299D02*
X153875919Y-103559299D01*
X153875919Y-103559299D02*
X154018776Y-103654537D01*
X154018776Y-103654537D02*
X154114014Y-103749775D01*
X154114014Y-103749775D02*
X154161633Y-103845013D01*
X154875919Y-102845013D02*
X154209252Y-102845013D01*
X153875919Y-102845013D02*
X153923538Y-102892632D01*
X153923538Y-102892632D02*
X153971157Y-102845013D01*
X153971157Y-102845013D02*
X153923538Y-102797394D01*
X153923538Y-102797394D02*
X153875919Y-102845013D01*
X153875919Y-102845013D02*
X153971157Y-102845013D01*
X154209252Y-102368823D02*
X154875919Y-102368823D01*
X154304490Y-102368823D02*
X154256871Y-102321204D01*
X154256871Y-102321204D02*
X154209252Y-102225966D01*
X154209252Y-102225966D02*
X154209252Y-102083109D01*
X154209252Y-102083109D02*
X154256871Y-101987871D01*
X154256871Y-101987871D02*
X154352109Y-101940252D01*
X154352109Y-101940252D02*
X154875919Y-101940252D01*
X153828300Y-100749776D02*
X155114014Y-101606918D01*
X153875919Y-100225966D02*
X153875919Y-100130728D01*
X153875919Y-100130728D02*
X153923538Y-100035490D01*
X153923538Y-100035490D02*
X153971157Y-99987871D01*
X153971157Y-99987871D02*
X154066395Y-99940252D01*
X154066395Y-99940252D02*
X154256871Y-99892633D01*
X154256871Y-99892633D02*
X154494966Y-99892633D01*
X154494966Y-99892633D02*
X154685442Y-99940252D01*
X154685442Y-99940252D02*
X154780680Y-99987871D01*
X154780680Y-99987871D02*
X154828300Y-100035490D01*
X154828300Y-100035490D02*
X154875919Y-100130728D01*
X154875919Y-100130728D02*
X154875919Y-100225966D01*
X154875919Y-100225966D02*
X154828300Y-100321204D01*
X154828300Y-100321204D02*
X154780680Y-100368823D01*
X154780680Y-100368823D02*
X154685442Y-100416442D01*
X154685442Y-100416442D02*
X154494966Y-100464061D01*
X154494966Y-100464061D02*
X154256871Y-100464061D01*
X154256871Y-100464061D02*
X154066395Y-100416442D01*
X154066395Y-100416442D02*
X153971157Y-100368823D01*
X153971157Y-100368823D02*
X153923538Y-100321204D01*
X153923538Y-100321204D02*
X153875919Y-100225966D01*
X154780680Y-99464061D02*
X154828300Y-99416442D01*
X154828300Y-99416442D02*
X154875919Y-99464061D01*
X154875919Y-99464061D02*
X154828300Y-99511680D01*
X154828300Y-99511680D02*
X154780680Y-99464061D01*
X154780680Y-99464061D02*
X154875919Y-99464061D01*
X153971157Y-99035490D02*
X153923538Y-98987871D01*
X153923538Y-98987871D02*
X153875919Y-98892633D01*
X153875919Y-98892633D02*
X153875919Y-98654538D01*
X153875919Y-98654538D02*
X153923538Y-98559300D01*
X153923538Y-98559300D02*
X153971157Y-98511681D01*
X153971157Y-98511681D02*
X154066395Y-98464062D01*
X154066395Y-98464062D02*
X154161633Y-98464062D01*
X154161633Y-98464062D02*
X154304490Y-98511681D01*
X154304490Y-98511681D02*
X154875919Y-99083109D01*
X154875919Y-99083109D02*
X154875919Y-98464062D01*
X153875919Y-97559300D02*
X153875919Y-98035490D01*
X153875919Y-98035490D02*
X154352109Y-98083109D01*
X154352109Y-98083109D02*
X154304490Y-98035490D01*
X154304490Y-98035490D02*
X154256871Y-97940252D01*
X154256871Y-97940252D02*
X154256871Y-97702157D01*
X154256871Y-97702157D02*
X154304490Y-97606919D01*
X154304490Y-97606919D02*
X154352109Y-97559300D01*
X154352109Y-97559300D02*
X154447347Y-97511681D01*
X154447347Y-97511681D02*
X154685442Y-97511681D01*
X154685442Y-97511681D02*
X154780680Y-97559300D01*
X154780680Y-97559300D02*
X154828300Y-97606919D01*
X154828300Y-97606919D02*
X154875919Y-97702157D01*
X154875919Y-97702157D02*
X154875919Y-97940252D01*
X154875919Y-97940252D02*
X154828300Y-98035490D01*
X154828300Y-98035490D02*
X154780680Y-98083109D01*
X153875919Y-96606919D02*
X153875919Y-97083109D01*
X153875919Y-97083109D02*
X154352109Y-97130728D01*
X154352109Y-97130728D02*
X154304490Y-97083109D01*
X154304490Y-97083109D02*
X154256871Y-96987871D01*
X154256871Y-96987871D02*
X154256871Y-96749776D01*
X154256871Y-96749776D02*
X154304490Y-96654538D01*
X154304490Y-96654538D02*
X154352109Y-96606919D01*
X154352109Y-96606919D02*
X154447347Y-96559300D01*
X154447347Y-96559300D02*
X154685442Y-96559300D01*
X154685442Y-96559300D02*
X154780680Y-96606919D01*
X154780680Y-96606919D02*
X154828300Y-96654538D01*
X154828300Y-96654538D02*
X154875919Y-96749776D01*
X154875919Y-96749776D02*
X154875919Y-96987871D01*
X154875919Y-96987871D02*
X154828300Y-97083109D01*
X154828300Y-97083109D02*
X154780680Y-97130728D01*
X154875919Y-96130728D02*
X154209252Y-96130728D01*
X154304490Y-96130728D02*
X154256871Y-96083109D01*
X154256871Y-96083109D02*
X154209252Y-95987871D01*
X154209252Y-95987871D02*
X154209252Y-95845014D01*
X154209252Y-95845014D02*
X154256871Y-95749776D01*
X154256871Y-95749776D02*
X154352109Y-95702157D01*
X154352109Y-95702157D02*
X154875919Y-95702157D01*
X154352109Y-95702157D02*
X154256871Y-95654538D01*
X154256871Y-95654538D02*
X154209252Y-95559300D01*
X154209252Y-95559300D02*
X154209252Y-95416443D01*
X154209252Y-95416443D02*
X154256871Y-95321204D01*
X154256871Y-95321204D02*
X154352109Y-95273585D01*
X154352109Y-95273585D02*
X154875919Y-95273585D01*
X154875919Y-94797395D02*
X154209252Y-94797395D01*
X154304490Y-94797395D02*
X154256871Y-94749776D01*
X154256871Y-94749776D02*
X154209252Y-94654538D01*
X154209252Y-94654538D02*
X154209252Y-94511681D01*
X154209252Y-94511681D02*
X154256871Y-94416443D01*
X154256871Y-94416443D02*
X154352109Y-94368824D01*
X154352109Y-94368824D02*
X154875919Y-94368824D01*
X154352109Y-94368824D02*
X154256871Y-94321205D01*
X154256871Y-94321205D02*
X154209252Y-94225967D01*
X154209252Y-94225967D02*
X154209252Y-94083110D01*
X154209252Y-94083110D02*
X154256871Y-93987871D01*
X154256871Y-93987871D02*
X154352109Y-93940252D01*
X154352109Y-93940252D02*
X154875919Y-93940252D01*
X156354819Y-100973770D02*
X156354819Y-100878532D01*
X156354819Y-100878532D02*
X156402438Y-100783294D01*
X156402438Y-100783294D02*
X156450057Y-100735675D01*
X156450057Y-100735675D02*
X156545295Y-100688056D01*
X156545295Y-100688056D02*
X156735771Y-100640437D01*
X156735771Y-100640437D02*
X156973866Y-100640437D01*
X156973866Y-100640437D02*
X157164342Y-100688056D01*
X157164342Y-100688056D02*
X157259580Y-100735675D01*
X157259580Y-100735675D02*
X157307200Y-100783294D01*
X157307200Y-100783294D02*
X157354819Y-100878532D01*
X157354819Y-100878532D02*
X157354819Y-100973770D01*
X157354819Y-100973770D02*
X157307200Y-101069008D01*
X157307200Y-101069008D02*
X157259580Y-101116627D01*
X157259580Y-101116627D02*
X157164342Y-101164246D01*
X157164342Y-101164246D02*
X156973866Y-101211865D01*
X156973866Y-101211865D02*
X156735771Y-101211865D01*
X156735771Y-101211865D02*
X156545295Y-101164246D01*
X156545295Y-101164246D02*
X156450057Y-101116627D01*
X156450057Y-101116627D02*
X156402438Y-101069008D01*
X156402438Y-101069008D02*
X156354819Y-100973770D01*
X157259580Y-100211865D02*
X157307200Y-100164246D01*
X157307200Y-100164246D02*
X157354819Y-100211865D01*
X157354819Y-100211865D02*
X157307200Y-100259484D01*
X157307200Y-100259484D02*
X157259580Y-100211865D01*
X157259580Y-100211865D02*
X157354819Y-100211865D01*
X157354819Y-99211866D02*
X157354819Y-99783294D01*
X157354819Y-99497580D02*
X156354819Y-99497580D01*
X156354819Y-99497580D02*
X156497676Y-99592818D01*
X156497676Y-99592818D02*
X156592914Y-99688056D01*
X156592914Y-99688056D02*
X156640533Y-99783294D01*
X157354819Y-98259485D02*
X157354819Y-98830913D01*
X157354819Y-98545199D02*
X156354819Y-98545199D01*
X156354819Y-98545199D02*
X156497676Y-98640437D01*
X156497676Y-98640437D02*
X156592914Y-98735675D01*
X156592914Y-98735675D02*
X156640533Y-98830913D01*
X157354819Y-97830913D02*
X156688152Y-97830913D01*
X156354819Y-97830913D02*
X156402438Y-97878532D01*
X156402438Y-97878532D02*
X156450057Y-97830913D01*
X156450057Y-97830913D02*
X156402438Y-97783294D01*
X156402438Y-97783294D02*
X156354819Y-97830913D01*
X156354819Y-97830913D02*
X156450057Y-97830913D01*
X156688152Y-97354723D02*
X157354819Y-97354723D01*
X156783390Y-97354723D02*
X156735771Y-97307104D01*
X156735771Y-97307104D02*
X156688152Y-97211866D01*
X156688152Y-97211866D02*
X156688152Y-97069009D01*
X156688152Y-97069009D02*
X156735771Y-96973771D01*
X156735771Y-96973771D02*
X156831009Y-96926152D01*
X156831009Y-96926152D02*
X157354819Y-96926152D01*
X156307200Y-95735676D02*
X157592914Y-96592818D01*
X156450057Y-95449961D02*
X156402438Y-95402342D01*
X156402438Y-95402342D02*
X156354819Y-95307104D01*
X156354819Y-95307104D02*
X156354819Y-95069009D01*
X156354819Y-95069009D02*
X156402438Y-94973771D01*
X156402438Y-94973771D02*
X156450057Y-94926152D01*
X156450057Y-94926152D02*
X156545295Y-94878533D01*
X156545295Y-94878533D02*
X156640533Y-94878533D01*
X156640533Y-94878533D02*
X156783390Y-94926152D01*
X156783390Y-94926152D02*
X157354819Y-95497580D01*
X157354819Y-95497580D02*
X157354819Y-94878533D01*
X157259580Y-94449961D02*
X157307200Y-94402342D01*
X157307200Y-94402342D02*
X157354819Y-94449961D01*
X157354819Y-94449961D02*
X157307200Y-94497580D01*
X157307200Y-94497580D02*
X157259580Y-94449961D01*
X157259580Y-94449961D02*
X157354819Y-94449961D01*
X156354819Y-94069009D02*
X156354819Y-93402343D01*
X156354819Y-93402343D02*
X157354819Y-93830914D01*
X157354819Y-92973771D02*
X157354819Y-92783295D01*
X157354819Y-92783295D02*
X157307200Y-92688057D01*
X157307200Y-92688057D02*
X157259580Y-92640438D01*
X157259580Y-92640438D02*
X157116723Y-92545200D01*
X157116723Y-92545200D02*
X156926247Y-92497581D01*
X156926247Y-92497581D02*
X156545295Y-92497581D01*
X156545295Y-92497581D02*
X156450057Y-92545200D01*
X156450057Y-92545200D02*
X156402438Y-92592819D01*
X156402438Y-92592819D02*
X156354819Y-92688057D01*
X156354819Y-92688057D02*
X156354819Y-92878533D01*
X156354819Y-92878533D02*
X156402438Y-92973771D01*
X156402438Y-92973771D02*
X156450057Y-93021390D01*
X156450057Y-93021390D02*
X156545295Y-93069009D01*
X156545295Y-93069009D02*
X156783390Y-93069009D01*
X156783390Y-93069009D02*
X156878628Y-93021390D01*
X156878628Y-93021390D02*
X156926247Y-92973771D01*
X156926247Y-92973771D02*
X156973866Y-92878533D01*
X156973866Y-92878533D02*
X156973866Y-92688057D01*
X156973866Y-92688057D02*
X156926247Y-92592819D01*
X156926247Y-92592819D02*
X156878628Y-92545200D01*
X156878628Y-92545200D02*
X156783390Y-92497581D01*
X156688152Y-91640438D02*
X157354819Y-91640438D01*
X156307200Y-91878533D02*
X157021485Y-92116628D01*
X157021485Y-92116628D02*
X157021485Y-91497581D01*
X157354819Y-91116628D02*
X156688152Y-91116628D01*
X156783390Y-91116628D02*
X156735771Y-91069009D01*
X156735771Y-91069009D02*
X156688152Y-90973771D01*
X156688152Y-90973771D02*
X156688152Y-90830914D01*
X156688152Y-90830914D02*
X156735771Y-90735676D01*
X156735771Y-90735676D02*
X156831009Y-90688057D01*
X156831009Y-90688057D02*
X157354819Y-90688057D01*
X156831009Y-90688057D02*
X156735771Y-90640438D01*
X156735771Y-90640438D02*
X156688152Y-90545200D01*
X156688152Y-90545200D02*
X156688152Y-90402343D01*
X156688152Y-90402343D02*
X156735771Y-90307104D01*
X156735771Y-90307104D02*
X156831009Y-90259485D01*
X156831009Y-90259485D02*
X157354819Y-90259485D01*
X157354819Y-89783295D02*
X156688152Y-89783295D01*
X156783390Y-89783295D02*
X156735771Y-89735676D01*
X156735771Y-89735676D02*
X156688152Y-89640438D01*
X156688152Y-89640438D02*
X156688152Y-89497581D01*
X156688152Y-89497581D02*
X156735771Y-89402343D01*
X156735771Y-89402343D02*
X156831009Y-89354724D01*
X156831009Y-89354724D02*
X157354819Y-89354724D01*
X156831009Y-89354724D02*
X156735771Y-89307105D01*
X156735771Y-89307105D02*
X156688152Y-89211867D01*
X156688152Y-89211867D02*
X156688152Y-89069010D01*
X156688152Y-89069010D02*
X156735771Y-88973771D01*
X156735771Y-88973771D02*
X156831009Y-88926152D01*
X156831009Y-88926152D02*
X157354819Y-88926152D01*
X150909567Y-104019489D02*
X150909567Y-103924251D01*
X150909567Y-103924251D02*
X150957186Y-103829013D01*
X150957186Y-103829013D02*
X151004805Y-103781394D01*
X151004805Y-103781394D02*
X151100043Y-103733775D01*
X151100043Y-103733775D02*
X151290519Y-103686156D01*
X151290519Y-103686156D02*
X151528614Y-103686156D01*
X151528614Y-103686156D02*
X151719090Y-103733775D01*
X151719090Y-103733775D02*
X151814328Y-103781394D01*
X151814328Y-103781394D02*
X151861948Y-103829013D01*
X151861948Y-103829013D02*
X151909567Y-103924251D01*
X151909567Y-103924251D02*
X151909567Y-104019489D01*
X151909567Y-104019489D02*
X151861948Y-104114727D01*
X151861948Y-104114727D02*
X151814328Y-104162346D01*
X151814328Y-104162346D02*
X151719090Y-104209965D01*
X151719090Y-104209965D02*
X151528614Y-104257584D01*
X151528614Y-104257584D02*
X151290519Y-104257584D01*
X151290519Y-104257584D02*
X151100043Y-104209965D01*
X151100043Y-104209965D02*
X151004805Y-104162346D01*
X151004805Y-104162346D02*
X150957186Y-104114727D01*
X150957186Y-104114727D02*
X150909567Y-104019489D01*
X151814328Y-103257584D02*
X151861948Y-103209965D01*
X151861948Y-103209965D02*
X151909567Y-103257584D01*
X151909567Y-103257584D02*
X151861948Y-103305203D01*
X151861948Y-103305203D02*
X151814328Y-103257584D01*
X151814328Y-103257584D02*
X151909567Y-103257584D01*
X150909567Y-102590918D02*
X150909567Y-102495680D01*
X150909567Y-102495680D02*
X150957186Y-102400442D01*
X150957186Y-102400442D02*
X151004805Y-102352823D01*
X151004805Y-102352823D02*
X151100043Y-102305204D01*
X151100043Y-102305204D02*
X151290519Y-102257585D01*
X151290519Y-102257585D02*
X151528614Y-102257585D01*
X151528614Y-102257585D02*
X151719090Y-102305204D01*
X151719090Y-102305204D02*
X151814328Y-102352823D01*
X151814328Y-102352823D02*
X151861948Y-102400442D01*
X151861948Y-102400442D02*
X151909567Y-102495680D01*
X151909567Y-102495680D02*
X151909567Y-102590918D01*
X151909567Y-102590918D02*
X151861948Y-102686156D01*
X151861948Y-102686156D02*
X151814328Y-102733775D01*
X151814328Y-102733775D02*
X151719090Y-102781394D01*
X151719090Y-102781394D02*
X151528614Y-102829013D01*
X151528614Y-102829013D02*
X151290519Y-102829013D01*
X151290519Y-102829013D02*
X151100043Y-102781394D01*
X151100043Y-102781394D02*
X151004805Y-102733775D01*
X151004805Y-102733775D02*
X150957186Y-102686156D01*
X150957186Y-102686156D02*
X150909567Y-102590918D01*
X151004805Y-101876632D02*
X150957186Y-101829013D01*
X150957186Y-101829013D02*
X150909567Y-101733775D01*
X150909567Y-101733775D02*
X150909567Y-101495680D01*
X150909567Y-101495680D02*
X150957186Y-101400442D01*
X150957186Y-101400442D02*
X151004805Y-101352823D01*
X151004805Y-101352823D02*
X151100043Y-101305204D01*
X151100043Y-101305204D02*
X151195281Y-101305204D01*
X151195281Y-101305204D02*
X151338138Y-101352823D01*
X151338138Y-101352823D02*
X151909567Y-101924251D01*
X151909567Y-101924251D02*
X151909567Y-101305204D01*
X151909567Y-100876632D02*
X151242900Y-100876632D01*
X150909567Y-100876632D02*
X150957186Y-100924251D01*
X150957186Y-100924251D02*
X151004805Y-100876632D01*
X151004805Y-100876632D02*
X150957186Y-100829013D01*
X150957186Y-100829013D02*
X150909567Y-100876632D01*
X150909567Y-100876632D02*
X151004805Y-100876632D01*
X151242900Y-100400442D02*
X151909567Y-100400442D01*
X151338138Y-100400442D02*
X151290519Y-100352823D01*
X151290519Y-100352823D02*
X151242900Y-100257585D01*
X151242900Y-100257585D02*
X151242900Y-100114728D01*
X151242900Y-100114728D02*
X151290519Y-100019490D01*
X151290519Y-100019490D02*
X151385757Y-99971871D01*
X151385757Y-99971871D02*
X151909567Y-99971871D01*
X150861948Y-98781395D02*
X152147662Y-99638537D01*
X150909567Y-98257585D02*
X150909567Y-98162347D01*
X150909567Y-98162347D02*
X150957186Y-98067109D01*
X150957186Y-98067109D02*
X151004805Y-98019490D01*
X151004805Y-98019490D02*
X151100043Y-97971871D01*
X151100043Y-97971871D02*
X151290519Y-97924252D01*
X151290519Y-97924252D02*
X151528614Y-97924252D01*
X151528614Y-97924252D02*
X151719090Y-97971871D01*
X151719090Y-97971871D02*
X151814328Y-98019490D01*
X151814328Y-98019490D02*
X151861948Y-98067109D01*
X151861948Y-98067109D02*
X151909567Y-98162347D01*
X151909567Y-98162347D02*
X151909567Y-98257585D01*
X151909567Y-98257585D02*
X151861948Y-98352823D01*
X151861948Y-98352823D02*
X151814328Y-98400442D01*
X151814328Y-98400442D02*
X151719090Y-98448061D01*
X151719090Y-98448061D02*
X151528614Y-98495680D01*
X151528614Y-98495680D02*
X151290519Y-98495680D01*
X151290519Y-98495680D02*
X151100043Y-98448061D01*
X151100043Y-98448061D02*
X151004805Y-98400442D01*
X151004805Y-98400442D02*
X150957186Y-98352823D01*
X150957186Y-98352823D02*
X150909567Y-98257585D01*
X151814328Y-97495680D02*
X151861948Y-97448061D01*
X151861948Y-97448061D02*
X151909567Y-97495680D01*
X151909567Y-97495680D02*
X151861948Y-97543299D01*
X151861948Y-97543299D02*
X151814328Y-97495680D01*
X151814328Y-97495680D02*
X151909567Y-97495680D01*
X150909567Y-96543300D02*
X150909567Y-97019490D01*
X150909567Y-97019490D02*
X151385757Y-97067109D01*
X151385757Y-97067109D02*
X151338138Y-97019490D01*
X151338138Y-97019490D02*
X151290519Y-96924252D01*
X151290519Y-96924252D02*
X151290519Y-96686157D01*
X151290519Y-96686157D02*
X151338138Y-96590919D01*
X151338138Y-96590919D02*
X151385757Y-96543300D01*
X151385757Y-96543300D02*
X151480995Y-96495681D01*
X151480995Y-96495681D02*
X151719090Y-96495681D01*
X151719090Y-96495681D02*
X151814328Y-96543300D01*
X151814328Y-96543300D02*
X151861948Y-96590919D01*
X151861948Y-96590919D02*
X151909567Y-96686157D01*
X151909567Y-96686157D02*
X151909567Y-96924252D01*
X151909567Y-96924252D02*
X151861948Y-97019490D01*
X151861948Y-97019490D02*
X151814328Y-97067109D01*
X151909567Y-96067109D02*
X151242900Y-96067109D01*
X151338138Y-96067109D02*
X151290519Y-96019490D01*
X151290519Y-96019490D02*
X151242900Y-95924252D01*
X151242900Y-95924252D02*
X151242900Y-95781395D01*
X151242900Y-95781395D02*
X151290519Y-95686157D01*
X151290519Y-95686157D02*
X151385757Y-95638538D01*
X151385757Y-95638538D02*
X151909567Y-95638538D01*
X151385757Y-95638538D02*
X151290519Y-95590919D01*
X151290519Y-95590919D02*
X151242900Y-95495681D01*
X151242900Y-95495681D02*
X151242900Y-95352824D01*
X151242900Y-95352824D02*
X151290519Y-95257585D01*
X151290519Y-95257585D02*
X151385757Y-95209966D01*
X151385757Y-95209966D02*
X151909567Y-95209966D01*
X151909567Y-94733776D02*
X151242900Y-94733776D01*
X151338138Y-94733776D02*
X151290519Y-94686157D01*
X151290519Y-94686157D02*
X151242900Y-94590919D01*
X151242900Y-94590919D02*
X151242900Y-94448062D01*
X151242900Y-94448062D02*
X151290519Y-94352824D01*
X151290519Y-94352824D02*
X151385757Y-94305205D01*
X151385757Y-94305205D02*
X151909567Y-94305205D01*
X151385757Y-94305205D02*
X151290519Y-94257586D01*
X151290519Y-94257586D02*
X151242900Y-94162348D01*
X151242900Y-94162348D02*
X151242900Y-94019491D01*
X151242900Y-94019491D02*
X151290519Y-93924252D01*
X151290519Y-93924252D02*
X151385757Y-93876633D01*
X151385757Y-93876633D02*
X151909567Y-93876633D01*
X152544819Y-93895861D02*
X152544819Y-93800623D01*
X152544819Y-93800623D02*
X152592438Y-93705385D01*
X152592438Y-93705385D02*
X152640057Y-93657766D01*
X152640057Y-93657766D02*
X152735295Y-93610147D01*
X152735295Y-93610147D02*
X152925771Y-93562528D01*
X152925771Y-93562528D02*
X153163866Y-93562528D01*
X153163866Y-93562528D02*
X153354342Y-93610147D01*
X153354342Y-93610147D02*
X153449580Y-93657766D01*
X153449580Y-93657766D02*
X153497200Y-93705385D01*
X153497200Y-93705385D02*
X153544819Y-93800623D01*
X153544819Y-93800623D02*
X153544819Y-93895861D01*
X153544819Y-93895861D02*
X153497200Y-93991099D01*
X153497200Y-93991099D02*
X153449580Y-94038718D01*
X153449580Y-94038718D02*
X153354342Y-94086337D01*
X153354342Y-94086337D02*
X153163866Y-94133956D01*
X153163866Y-94133956D02*
X152925771Y-94133956D01*
X152925771Y-94133956D02*
X152735295Y-94086337D01*
X152735295Y-94086337D02*
X152640057Y-94038718D01*
X152640057Y-94038718D02*
X152592438Y-93991099D01*
X152592438Y-93991099D02*
X152544819Y-93895861D01*
X153449580Y-93133956D02*
X153497200Y-93086337D01*
X153497200Y-93086337D02*
X153544819Y-93133956D01*
X153544819Y-93133956D02*
X153497200Y-93181575D01*
X153497200Y-93181575D02*
X153449580Y-93133956D01*
X153449580Y-93133956D02*
X153544819Y-93133956D01*
X153544819Y-92133957D02*
X153544819Y-92705385D01*
X153544819Y-92419671D02*
X152544819Y-92419671D01*
X152544819Y-92419671D02*
X152687676Y-92514909D01*
X152687676Y-92514909D02*
X152782914Y-92610147D01*
X152782914Y-92610147D02*
X152830533Y-92705385D01*
X152544819Y-91229195D02*
X152544819Y-91705385D01*
X152544819Y-91705385D02*
X153021009Y-91753004D01*
X153021009Y-91753004D02*
X152973390Y-91705385D01*
X152973390Y-91705385D02*
X152925771Y-91610147D01*
X152925771Y-91610147D02*
X152925771Y-91372052D01*
X152925771Y-91372052D02*
X152973390Y-91276814D01*
X152973390Y-91276814D02*
X153021009Y-91229195D01*
X153021009Y-91229195D02*
X153116247Y-91181576D01*
X153116247Y-91181576D02*
X153354342Y-91181576D01*
X153354342Y-91181576D02*
X153449580Y-91229195D01*
X153449580Y-91229195D02*
X153497200Y-91276814D01*
X153497200Y-91276814D02*
X153544819Y-91372052D01*
X153544819Y-91372052D02*
X153544819Y-91610147D01*
X153544819Y-91610147D02*
X153497200Y-91705385D01*
X153497200Y-91705385D02*
X153449580Y-91753004D01*
X152544819Y-90276814D02*
X152544819Y-90753004D01*
X152544819Y-90753004D02*
X153021009Y-90800623D01*
X153021009Y-90800623D02*
X152973390Y-90753004D01*
X152973390Y-90753004D02*
X152925771Y-90657766D01*
X152925771Y-90657766D02*
X152925771Y-90419671D01*
X152925771Y-90419671D02*
X152973390Y-90324433D01*
X152973390Y-90324433D02*
X153021009Y-90276814D01*
X153021009Y-90276814D02*
X153116247Y-90229195D01*
X153116247Y-90229195D02*
X153354342Y-90229195D01*
X153354342Y-90229195D02*
X153449580Y-90276814D01*
X153449580Y-90276814D02*
X153497200Y-90324433D01*
X153497200Y-90324433D02*
X153544819Y-90419671D01*
X153544819Y-90419671D02*
X153544819Y-90657766D01*
X153544819Y-90657766D02*
X153497200Y-90753004D01*
X153497200Y-90753004D02*
X153449580Y-90800623D01*
X153544819Y-89800623D02*
X152878152Y-89800623D01*
X152544819Y-89800623D02*
X152592438Y-89848242D01*
X152592438Y-89848242D02*
X152640057Y-89800623D01*
X152640057Y-89800623D02*
X152592438Y-89753004D01*
X152592438Y-89753004D02*
X152544819Y-89800623D01*
X152544819Y-89800623D02*
X152640057Y-89800623D01*
X152878152Y-89324433D02*
X153544819Y-89324433D01*
X152973390Y-89324433D02*
X152925771Y-89276814D01*
X152925771Y-89276814D02*
X152878152Y-89181576D01*
X152878152Y-89181576D02*
X152878152Y-89038719D01*
X152878152Y-89038719D02*
X152925771Y-88943481D01*
X152925771Y-88943481D02*
X153021009Y-88895862D01*
X153021009Y-88895862D02*
X153544819Y-88895862D01*
X152497200Y-87705386D02*
X153782914Y-88562528D01*
X152544819Y-87467290D02*
X152544819Y-86848243D01*
X152544819Y-86848243D02*
X152925771Y-87181576D01*
X152925771Y-87181576D02*
X152925771Y-87038719D01*
X152925771Y-87038719D02*
X152973390Y-86943481D01*
X152973390Y-86943481D02*
X153021009Y-86895862D01*
X153021009Y-86895862D02*
X153116247Y-86848243D01*
X153116247Y-86848243D02*
X153354342Y-86848243D01*
X153354342Y-86848243D02*
X153449580Y-86895862D01*
X153449580Y-86895862D02*
X153497200Y-86943481D01*
X153497200Y-86943481D02*
X153544819Y-87038719D01*
X153544819Y-87038719D02*
X153544819Y-87324433D01*
X153544819Y-87324433D02*
X153497200Y-87419671D01*
X153497200Y-87419671D02*
X153449580Y-87467290D01*
X153449580Y-86419671D02*
X153497200Y-86372052D01*
X153497200Y-86372052D02*
X153544819Y-86419671D01*
X153544819Y-86419671D02*
X153497200Y-86467290D01*
X153497200Y-86467290D02*
X153449580Y-86419671D01*
X153449580Y-86419671D02*
X153544819Y-86419671D01*
X153544819Y-85895862D02*
X153544819Y-85705386D01*
X153544819Y-85705386D02*
X153497200Y-85610148D01*
X153497200Y-85610148D02*
X153449580Y-85562529D01*
X153449580Y-85562529D02*
X153306723Y-85467291D01*
X153306723Y-85467291D02*
X153116247Y-85419672D01*
X153116247Y-85419672D02*
X152735295Y-85419672D01*
X152735295Y-85419672D02*
X152640057Y-85467291D01*
X152640057Y-85467291D02*
X152592438Y-85514910D01*
X152592438Y-85514910D02*
X152544819Y-85610148D01*
X152544819Y-85610148D02*
X152544819Y-85800624D01*
X152544819Y-85800624D02*
X152592438Y-85895862D01*
X152592438Y-85895862D02*
X152640057Y-85943481D01*
X152640057Y-85943481D02*
X152735295Y-85991100D01*
X152735295Y-85991100D02*
X152973390Y-85991100D01*
X152973390Y-85991100D02*
X153068628Y-85943481D01*
X153068628Y-85943481D02*
X153116247Y-85895862D01*
X153116247Y-85895862D02*
X153163866Y-85800624D01*
X153163866Y-85800624D02*
X153163866Y-85610148D01*
X153163866Y-85610148D02*
X153116247Y-85514910D01*
X153116247Y-85514910D02*
X153068628Y-85467291D01*
X153068628Y-85467291D02*
X152973390Y-85419672D01*
X152544819Y-85086338D02*
X152544819Y-84467291D01*
X152544819Y-84467291D02*
X152925771Y-84800624D01*
X152925771Y-84800624D02*
X152925771Y-84657767D01*
X152925771Y-84657767D02*
X152973390Y-84562529D01*
X152973390Y-84562529D02*
X153021009Y-84514910D01*
X153021009Y-84514910D02*
X153116247Y-84467291D01*
X153116247Y-84467291D02*
X153354342Y-84467291D01*
X153354342Y-84467291D02*
X153449580Y-84514910D01*
X153449580Y-84514910D02*
X153497200Y-84562529D01*
X153497200Y-84562529D02*
X153544819Y-84657767D01*
X153544819Y-84657767D02*
X153544819Y-84943481D01*
X153544819Y-84943481D02*
X153497200Y-85038719D01*
X153497200Y-85038719D02*
X153449580Y-85086338D01*
X152640057Y-84086338D02*
X152592438Y-84038719D01*
X152592438Y-84038719D02*
X152544819Y-83943481D01*
X152544819Y-83943481D02*
X152544819Y-83705386D01*
X152544819Y-83705386D02*
X152592438Y-83610148D01*
X152592438Y-83610148D02*
X152640057Y-83562529D01*
X152640057Y-83562529D02*
X152735295Y-83514910D01*
X152735295Y-83514910D02*
X152830533Y-83514910D01*
X152830533Y-83514910D02*
X152973390Y-83562529D01*
X152973390Y-83562529D02*
X153544819Y-84133957D01*
X153544819Y-84133957D02*
X153544819Y-83514910D01*
X153544819Y-83086338D02*
X152878152Y-83086338D01*
X152973390Y-83086338D02*
X152925771Y-83038719D01*
X152925771Y-83038719D02*
X152878152Y-82943481D01*
X152878152Y-82943481D02*
X152878152Y-82800624D01*
X152878152Y-82800624D02*
X152925771Y-82705386D01*
X152925771Y-82705386D02*
X153021009Y-82657767D01*
X153021009Y-82657767D02*
X153544819Y-82657767D01*
X153021009Y-82657767D02*
X152925771Y-82610148D01*
X152925771Y-82610148D02*
X152878152Y-82514910D01*
X152878152Y-82514910D02*
X152878152Y-82372053D01*
X152878152Y-82372053D02*
X152925771Y-82276814D01*
X152925771Y-82276814D02*
X153021009Y-82229195D01*
X153021009Y-82229195D02*
X153544819Y-82229195D01*
X153544819Y-81753005D02*
X152878152Y-81753005D01*
X152973390Y-81753005D02*
X152925771Y-81705386D01*
X152925771Y-81705386D02*
X152878152Y-81610148D01*
X152878152Y-81610148D02*
X152878152Y-81467291D01*
X152878152Y-81467291D02*
X152925771Y-81372053D01*
X152925771Y-81372053D02*
X153021009Y-81324434D01*
X153021009Y-81324434D02*
X153544819Y-81324434D01*
X153021009Y-81324434D02*
X152925771Y-81276815D01*
X152925771Y-81276815D02*
X152878152Y-81181577D01*
X152878152Y-81181577D02*
X152878152Y-81038720D01*
X152878152Y-81038720D02*
X152925771Y-80943481D01*
X152925771Y-80943481D02*
X153021009Y-80895862D01*
X153021009Y-80895862D02*
X153544819Y-80895862D01*
X159463918Y-101449960D02*
X159463918Y-101354722D01*
X159463918Y-101354722D02*
X159511537Y-101259484D01*
X159511537Y-101259484D02*
X159559156Y-101211865D01*
X159559156Y-101211865D02*
X159654394Y-101164246D01*
X159654394Y-101164246D02*
X159844870Y-101116627D01*
X159844870Y-101116627D02*
X160082965Y-101116627D01*
X160082965Y-101116627D02*
X160273441Y-101164246D01*
X160273441Y-101164246D02*
X160368679Y-101211865D01*
X160368679Y-101211865D02*
X160416299Y-101259484D01*
X160416299Y-101259484D02*
X160463918Y-101354722D01*
X160463918Y-101354722D02*
X160463918Y-101449960D01*
X160463918Y-101449960D02*
X160416299Y-101545198D01*
X160416299Y-101545198D02*
X160368679Y-101592817D01*
X160368679Y-101592817D02*
X160273441Y-101640436D01*
X160273441Y-101640436D02*
X160082965Y-101688055D01*
X160082965Y-101688055D02*
X159844870Y-101688055D01*
X159844870Y-101688055D02*
X159654394Y-101640436D01*
X159654394Y-101640436D02*
X159559156Y-101592817D01*
X159559156Y-101592817D02*
X159511537Y-101545198D01*
X159511537Y-101545198D02*
X159463918Y-101449960D01*
X160368679Y-100688055D02*
X160416299Y-100640436D01*
X160416299Y-100640436D02*
X160463918Y-100688055D01*
X160463918Y-100688055D02*
X160416299Y-100735674D01*
X160416299Y-100735674D02*
X160368679Y-100688055D01*
X160368679Y-100688055D02*
X160463918Y-100688055D01*
X160463918Y-99688056D02*
X160463918Y-100259484D01*
X160463918Y-99973770D02*
X159463918Y-99973770D01*
X159463918Y-99973770D02*
X159606775Y-100069008D01*
X159606775Y-100069008D02*
X159702013Y-100164246D01*
X159702013Y-100164246D02*
X159749632Y-100259484D01*
X159463918Y-98783294D02*
X159463918Y-99259484D01*
X159463918Y-99259484D02*
X159940108Y-99307103D01*
X159940108Y-99307103D02*
X159892489Y-99259484D01*
X159892489Y-99259484D02*
X159844870Y-99164246D01*
X159844870Y-99164246D02*
X159844870Y-98926151D01*
X159844870Y-98926151D02*
X159892489Y-98830913D01*
X159892489Y-98830913D02*
X159940108Y-98783294D01*
X159940108Y-98783294D02*
X160035346Y-98735675D01*
X160035346Y-98735675D02*
X160273441Y-98735675D01*
X160273441Y-98735675D02*
X160368679Y-98783294D01*
X160368679Y-98783294D02*
X160416299Y-98830913D01*
X160416299Y-98830913D02*
X160463918Y-98926151D01*
X160463918Y-98926151D02*
X160463918Y-99164246D01*
X160463918Y-99164246D02*
X160416299Y-99259484D01*
X160416299Y-99259484D02*
X160368679Y-99307103D01*
X159463918Y-97830913D02*
X159463918Y-98307103D01*
X159463918Y-98307103D02*
X159940108Y-98354722D01*
X159940108Y-98354722D02*
X159892489Y-98307103D01*
X159892489Y-98307103D02*
X159844870Y-98211865D01*
X159844870Y-98211865D02*
X159844870Y-97973770D01*
X159844870Y-97973770D02*
X159892489Y-97878532D01*
X159892489Y-97878532D02*
X159940108Y-97830913D01*
X159940108Y-97830913D02*
X160035346Y-97783294D01*
X160035346Y-97783294D02*
X160273441Y-97783294D01*
X160273441Y-97783294D02*
X160368679Y-97830913D01*
X160368679Y-97830913D02*
X160416299Y-97878532D01*
X160416299Y-97878532D02*
X160463918Y-97973770D01*
X160463918Y-97973770D02*
X160463918Y-98211865D01*
X160463918Y-98211865D02*
X160416299Y-98307103D01*
X160416299Y-98307103D02*
X160368679Y-98354722D01*
X160463918Y-97354722D02*
X159797251Y-97354722D01*
X159463918Y-97354722D02*
X159511537Y-97402341D01*
X159511537Y-97402341D02*
X159559156Y-97354722D01*
X159559156Y-97354722D02*
X159511537Y-97307103D01*
X159511537Y-97307103D02*
X159463918Y-97354722D01*
X159463918Y-97354722D02*
X159559156Y-97354722D01*
X159797251Y-96878532D02*
X160463918Y-96878532D01*
X159892489Y-96878532D02*
X159844870Y-96830913D01*
X159844870Y-96830913D02*
X159797251Y-96735675D01*
X159797251Y-96735675D02*
X159797251Y-96592818D01*
X159797251Y-96592818D02*
X159844870Y-96497580D01*
X159844870Y-96497580D02*
X159940108Y-96449961D01*
X159940108Y-96449961D02*
X160463918Y-96449961D01*
X159416299Y-95259485D02*
X160702013Y-96116627D01*
X159463918Y-95021389D02*
X159463918Y-94402342D01*
X159463918Y-94402342D02*
X159844870Y-94735675D01*
X159844870Y-94735675D02*
X159844870Y-94592818D01*
X159844870Y-94592818D02*
X159892489Y-94497580D01*
X159892489Y-94497580D02*
X159940108Y-94449961D01*
X159940108Y-94449961D02*
X160035346Y-94402342D01*
X160035346Y-94402342D02*
X160273441Y-94402342D01*
X160273441Y-94402342D02*
X160368679Y-94449961D01*
X160368679Y-94449961D02*
X160416299Y-94497580D01*
X160416299Y-94497580D02*
X160463918Y-94592818D01*
X160463918Y-94592818D02*
X160463918Y-94878532D01*
X160463918Y-94878532D02*
X160416299Y-94973770D01*
X160416299Y-94973770D02*
X160368679Y-95021389D01*
X160368679Y-93973770D02*
X160416299Y-93926151D01*
X160416299Y-93926151D02*
X160463918Y-93973770D01*
X160463918Y-93973770D02*
X160416299Y-94021389D01*
X160416299Y-94021389D02*
X160368679Y-93973770D01*
X160368679Y-93973770D02*
X160463918Y-93973770D01*
X160463918Y-93449961D02*
X160463918Y-93259485D01*
X160463918Y-93259485D02*
X160416299Y-93164247D01*
X160416299Y-93164247D02*
X160368679Y-93116628D01*
X160368679Y-93116628D02*
X160225822Y-93021390D01*
X160225822Y-93021390D02*
X160035346Y-92973771D01*
X160035346Y-92973771D02*
X159654394Y-92973771D01*
X159654394Y-92973771D02*
X159559156Y-93021390D01*
X159559156Y-93021390D02*
X159511537Y-93069009D01*
X159511537Y-93069009D02*
X159463918Y-93164247D01*
X159463918Y-93164247D02*
X159463918Y-93354723D01*
X159463918Y-93354723D02*
X159511537Y-93449961D01*
X159511537Y-93449961D02*
X159559156Y-93497580D01*
X159559156Y-93497580D02*
X159654394Y-93545199D01*
X159654394Y-93545199D02*
X159892489Y-93545199D01*
X159892489Y-93545199D02*
X159987727Y-93497580D01*
X159987727Y-93497580D02*
X160035346Y-93449961D01*
X160035346Y-93449961D02*
X160082965Y-93354723D01*
X160082965Y-93354723D02*
X160082965Y-93164247D01*
X160082965Y-93164247D02*
X160035346Y-93069009D01*
X160035346Y-93069009D02*
X159987727Y-93021390D01*
X159987727Y-93021390D02*
X159892489Y-92973771D01*
X159463918Y-92640437D02*
X159463918Y-92021390D01*
X159463918Y-92021390D02*
X159844870Y-92354723D01*
X159844870Y-92354723D02*
X159844870Y-92211866D01*
X159844870Y-92211866D02*
X159892489Y-92116628D01*
X159892489Y-92116628D02*
X159940108Y-92069009D01*
X159940108Y-92069009D02*
X160035346Y-92021390D01*
X160035346Y-92021390D02*
X160273441Y-92021390D01*
X160273441Y-92021390D02*
X160368679Y-92069009D01*
X160368679Y-92069009D02*
X160416299Y-92116628D01*
X160416299Y-92116628D02*
X160463918Y-92211866D01*
X160463918Y-92211866D02*
X160463918Y-92497580D01*
X160463918Y-92497580D02*
X160416299Y-92592818D01*
X160416299Y-92592818D02*
X160368679Y-92640437D01*
X159559156Y-91640437D02*
X159511537Y-91592818D01*
X159511537Y-91592818D02*
X159463918Y-91497580D01*
X159463918Y-91497580D02*
X159463918Y-91259485D01*
X159463918Y-91259485D02*
X159511537Y-91164247D01*
X159511537Y-91164247D02*
X159559156Y-91116628D01*
X159559156Y-91116628D02*
X159654394Y-91069009D01*
X159654394Y-91069009D02*
X159749632Y-91069009D01*
X159749632Y-91069009D02*
X159892489Y-91116628D01*
X159892489Y-91116628D02*
X160463918Y-91688056D01*
X160463918Y-91688056D02*
X160463918Y-91069009D01*
X160463918Y-90640437D02*
X159797251Y-90640437D01*
X159892489Y-90640437D02*
X159844870Y-90592818D01*
X159844870Y-90592818D02*
X159797251Y-90497580D01*
X159797251Y-90497580D02*
X159797251Y-90354723D01*
X159797251Y-90354723D02*
X159844870Y-90259485D01*
X159844870Y-90259485D02*
X159940108Y-90211866D01*
X159940108Y-90211866D02*
X160463918Y-90211866D01*
X159940108Y-90211866D02*
X159844870Y-90164247D01*
X159844870Y-90164247D02*
X159797251Y-90069009D01*
X159797251Y-90069009D02*
X159797251Y-89926152D01*
X159797251Y-89926152D02*
X159844870Y-89830913D01*
X159844870Y-89830913D02*
X159940108Y-89783294D01*
X159940108Y-89783294D02*
X160463918Y-89783294D01*
X160463918Y-89307104D02*
X159797251Y-89307104D01*
X159892489Y-89307104D02*
X159844870Y-89259485D01*
X159844870Y-89259485D02*
X159797251Y-89164247D01*
X159797251Y-89164247D02*
X159797251Y-89021390D01*
X159797251Y-89021390D02*
X159844870Y-88926152D01*
X159844870Y-88926152D02*
X159940108Y-88878533D01*
X159940108Y-88878533D02*
X160463918Y-88878533D01*
X159940108Y-88878533D02*
X159844870Y-88830914D01*
X159844870Y-88830914D02*
X159797251Y-88735676D01*
X159797251Y-88735676D02*
X159797251Y-88592819D01*
X159797251Y-88592819D02*
X159844870Y-88497580D01*
X159844870Y-88497580D02*
X159940108Y-88449961D01*
X159940108Y-88449961D02*
X160463918Y-88449961D01*
X146895719Y-103416060D02*
X146895719Y-103320822D01*
X146895719Y-103320822D02*
X146943338Y-103225584D01*
X146943338Y-103225584D02*
X146990957Y-103177965D01*
X146990957Y-103177965D02*
X147086195Y-103130346D01*
X147086195Y-103130346D02*
X147276671Y-103082727D01*
X147276671Y-103082727D02*
X147514766Y-103082727D01*
X147514766Y-103082727D02*
X147705242Y-103130346D01*
X147705242Y-103130346D02*
X147800480Y-103177965D01*
X147800480Y-103177965D02*
X147848100Y-103225584D01*
X147848100Y-103225584D02*
X147895719Y-103320822D01*
X147895719Y-103320822D02*
X147895719Y-103416060D01*
X147895719Y-103416060D02*
X147848100Y-103511298D01*
X147848100Y-103511298D02*
X147800480Y-103558917D01*
X147800480Y-103558917D02*
X147705242Y-103606536D01*
X147705242Y-103606536D02*
X147514766Y-103654155D01*
X147514766Y-103654155D02*
X147276671Y-103654155D01*
X147276671Y-103654155D02*
X147086195Y-103606536D01*
X147086195Y-103606536D02*
X146990957Y-103558917D01*
X146990957Y-103558917D02*
X146943338Y-103511298D01*
X146943338Y-103511298D02*
X146895719Y-103416060D01*
X147800480Y-102654155D02*
X147848100Y-102606536D01*
X147848100Y-102606536D02*
X147895719Y-102654155D01*
X147895719Y-102654155D02*
X147848100Y-102701774D01*
X147848100Y-102701774D02*
X147800480Y-102654155D01*
X147800480Y-102654155D02*
X147895719Y-102654155D01*
X146895719Y-101987489D02*
X146895719Y-101892251D01*
X146895719Y-101892251D02*
X146943338Y-101797013D01*
X146943338Y-101797013D02*
X146990957Y-101749394D01*
X146990957Y-101749394D02*
X147086195Y-101701775D01*
X147086195Y-101701775D02*
X147276671Y-101654156D01*
X147276671Y-101654156D02*
X147514766Y-101654156D01*
X147514766Y-101654156D02*
X147705242Y-101701775D01*
X147705242Y-101701775D02*
X147800480Y-101749394D01*
X147800480Y-101749394D02*
X147848100Y-101797013D01*
X147848100Y-101797013D02*
X147895719Y-101892251D01*
X147895719Y-101892251D02*
X147895719Y-101987489D01*
X147895719Y-101987489D02*
X147848100Y-102082727D01*
X147848100Y-102082727D02*
X147800480Y-102130346D01*
X147800480Y-102130346D02*
X147705242Y-102177965D01*
X147705242Y-102177965D02*
X147514766Y-102225584D01*
X147514766Y-102225584D02*
X147276671Y-102225584D01*
X147276671Y-102225584D02*
X147086195Y-102177965D01*
X147086195Y-102177965D02*
X146990957Y-102130346D01*
X146990957Y-102130346D02*
X146943338Y-102082727D01*
X146943338Y-102082727D02*
X146895719Y-101987489D01*
X146895719Y-101320822D02*
X146895719Y-100701775D01*
X146895719Y-100701775D02*
X147276671Y-101035108D01*
X147276671Y-101035108D02*
X147276671Y-100892251D01*
X147276671Y-100892251D02*
X147324290Y-100797013D01*
X147324290Y-100797013D02*
X147371909Y-100749394D01*
X147371909Y-100749394D02*
X147467147Y-100701775D01*
X147467147Y-100701775D02*
X147705242Y-100701775D01*
X147705242Y-100701775D02*
X147800480Y-100749394D01*
X147800480Y-100749394D02*
X147848100Y-100797013D01*
X147848100Y-100797013D02*
X147895719Y-100892251D01*
X147895719Y-100892251D02*
X147895719Y-101177965D01*
X147895719Y-101177965D02*
X147848100Y-101273203D01*
X147848100Y-101273203D02*
X147800480Y-101320822D01*
X146990957Y-100320822D02*
X146943338Y-100273203D01*
X146943338Y-100273203D02*
X146895719Y-100177965D01*
X146895719Y-100177965D02*
X146895719Y-99939870D01*
X146895719Y-99939870D02*
X146943338Y-99844632D01*
X146943338Y-99844632D02*
X146990957Y-99797013D01*
X146990957Y-99797013D02*
X147086195Y-99749394D01*
X147086195Y-99749394D02*
X147181433Y-99749394D01*
X147181433Y-99749394D02*
X147324290Y-99797013D01*
X147324290Y-99797013D02*
X147895719Y-100368441D01*
X147895719Y-100368441D02*
X147895719Y-99749394D01*
X147895719Y-99320822D02*
X147229052Y-99320822D01*
X146895719Y-99320822D02*
X146943338Y-99368441D01*
X146943338Y-99368441D02*
X146990957Y-99320822D01*
X146990957Y-99320822D02*
X146943338Y-99273203D01*
X146943338Y-99273203D02*
X146895719Y-99320822D01*
X146895719Y-99320822D02*
X146990957Y-99320822D01*
X147229052Y-98844632D02*
X147895719Y-98844632D01*
X147324290Y-98844632D02*
X147276671Y-98797013D01*
X147276671Y-98797013D02*
X147229052Y-98701775D01*
X147229052Y-98701775D02*
X147229052Y-98558918D01*
X147229052Y-98558918D02*
X147276671Y-98463680D01*
X147276671Y-98463680D02*
X147371909Y-98416061D01*
X147371909Y-98416061D02*
X147895719Y-98416061D01*
X146848100Y-97225585D02*
X148133814Y-98082727D01*
X146895719Y-96701775D02*
X146895719Y-96606537D01*
X146895719Y-96606537D02*
X146943338Y-96511299D01*
X146943338Y-96511299D02*
X146990957Y-96463680D01*
X146990957Y-96463680D02*
X147086195Y-96416061D01*
X147086195Y-96416061D02*
X147276671Y-96368442D01*
X147276671Y-96368442D02*
X147514766Y-96368442D01*
X147514766Y-96368442D02*
X147705242Y-96416061D01*
X147705242Y-96416061D02*
X147800480Y-96463680D01*
X147800480Y-96463680D02*
X147848100Y-96511299D01*
X147848100Y-96511299D02*
X147895719Y-96606537D01*
X147895719Y-96606537D02*
X147895719Y-96701775D01*
X147895719Y-96701775D02*
X147848100Y-96797013D01*
X147848100Y-96797013D02*
X147800480Y-96844632D01*
X147800480Y-96844632D02*
X147705242Y-96892251D01*
X147705242Y-96892251D02*
X147514766Y-96939870D01*
X147514766Y-96939870D02*
X147276671Y-96939870D01*
X147276671Y-96939870D02*
X147086195Y-96892251D01*
X147086195Y-96892251D02*
X146990957Y-96844632D01*
X146990957Y-96844632D02*
X146943338Y-96797013D01*
X146943338Y-96797013D02*
X146895719Y-96701775D01*
X147800480Y-95939870D02*
X147848100Y-95892251D01*
X147848100Y-95892251D02*
X147895719Y-95939870D01*
X147895719Y-95939870D02*
X147848100Y-95987489D01*
X147848100Y-95987489D02*
X147800480Y-95939870D01*
X147800480Y-95939870D02*
X147895719Y-95939870D01*
X147324290Y-95320823D02*
X147276671Y-95416061D01*
X147276671Y-95416061D02*
X147229052Y-95463680D01*
X147229052Y-95463680D02*
X147133814Y-95511299D01*
X147133814Y-95511299D02*
X147086195Y-95511299D01*
X147086195Y-95511299D02*
X146990957Y-95463680D01*
X146990957Y-95463680D02*
X146943338Y-95416061D01*
X146943338Y-95416061D02*
X146895719Y-95320823D01*
X146895719Y-95320823D02*
X146895719Y-95130347D01*
X146895719Y-95130347D02*
X146943338Y-95035109D01*
X146943338Y-95035109D02*
X146990957Y-94987490D01*
X146990957Y-94987490D02*
X147086195Y-94939871D01*
X147086195Y-94939871D02*
X147133814Y-94939871D01*
X147133814Y-94939871D02*
X147229052Y-94987490D01*
X147229052Y-94987490D02*
X147276671Y-95035109D01*
X147276671Y-95035109D02*
X147324290Y-95130347D01*
X147324290Y-95130347D02*
X147324290Y-95320823D01*
X147324290Y-95320823D02*
X147371909Y-95416061D01*
X147371909Y-95416061D02*
X147419528Y-95463680D01*
X147419528Y-95463680D02*
X147514766Y-95511299D01*
X147514766Y-95511299D02*
X147705242Y-95511299D01*
X147705242Y-95511299D02*
X147800480Y-95463680D01*
X147800480Y-95463680D02*
X147848100Y-95416061D01*
X147848100Y-95416061D02*
X147895719Y-95320823D01*
X147895719Y-95320823D02*
X147895719Y-95130347D01*
X147895719Y-95130347D02*
X147848100Y-95035109D01*
X147848100Y-95035109D02*
X147800480Y-94987490D01*
X147800480Y-94987490D02*
X147705242Y-94939871D01*
X147705242Y-94939871D02*
X147514766Y-94939871D01*
X147514766Y-94939871D02*
X147419528Y-94987490D01*
X147419528Y-94987490D02*
X147371909Y-95035109D01*
X147371909Y-95035109D02*
X147324290Y-95130347D01*
X146895719Y-94320823D02*
X146895719Y-94225585D01*
X146895719Y-94225585D02*
X146943338Y-94130347D01*
X146943338Y-94130347D02*
X146990957Y-94082728D01*
X146990957Y-94082728D02*
X147086195Y-94035109D01*
X147086195Y-94035109D02*
X147276671Y-93987490D01*
X147276671Y-93987490D02*
X147514766Y-93987490D01*
X147514766Y-93987490D02*
X147705242Y-94035109D01*
X147705242Y-94035109D02*
X147800480Y-94082728D01*
X147800480Y-94082728D02*
X147848100Y-94130347D01*
X147848100Y-94130347D02*
X147895719Y-94225585D01*
X147895719Y-94225585D02*
X147895719Y-94320823D01*
X147895719Y-94320823D02*
X147848100Y-94416061D01*
X147848100Y-94416061D02*
X147800480Y-94463680D01*
X147800480Y-94463680D02*
X147705242Y-94511299D01*
X147705242Y-94511299D02*
X147514766Y-94558918D01*
X147514766Y-94558918D02*
X147276671Y-94558918D01*
X147276671Y-94558918D02*
X147086195Y-94511299D01*
X147086195Y-94511299D02*
X146990957Y-94463680D01*
X146990957Y-94463680D02*
X146943338Y-94416061D01*
X146943338Y-94416061D02*
X146895719Y-94320823D01*
X147324290Y-93416061D02*
X147276671Y-93511299D01*
X147276671Y-93511299D02*
X147229052Y-93558918D01*
X147229052Y-93558918D02*
X147133814Y-93606537D01*
X147133814Y-93606537D02*
X147086195Y-93606537D01*
X147086195Y-93606537D02*
X146990957Y-93558918D01*
X146990957Y-93558918D02*
X146943338Y-93511299D01*
X146943338Y-93511299D02*
X146895719Y-93416061D01*
X146895719Y-93416061D02*
X146895719Y-93225585D01*
X146895719Y-93225585D02*
X146943338Y-93130347D01*
X146943338Y-93130347D02*
X146990957Y-93082728D01*
X146990957Y-93082728D02*
X147086195Y-93035109D01*
X147086195Y-93035109D02*
X147133814Y-93035109D01*
X147133814Y-93035109D02*
X147229052Y-93082728D01*
X147229052Y-93082728D02*
X147276671Y-93130347D01*
X147276671Y-93130347D02*
X147324290Y-93225585D01*
X147324290Y-93225585D02*
X147324290Y-93416061D01*
X147324290Y-93416061D02*
X147371909Y-93511299D01*
X147371909Y-93511299D02*
X147419528Y-93558918D01*
X147419528Y-93558918D02*
X147514766Y-93606537D01*
X147514766Y-93606537D02*
X147705242Y-93606537D01*
X147705242Y-93606537D02*
X147800480Y-93558918D01*
X147800480Y-93558918D02*
X147848100Y-93511299D01*
X147848100Y-93511299D02*
X147895719Y-93416061D01*
X147895719Y-93416061D02*
X147895719Y-93225585D01*
X147895719Y-93225585D02*
X147848100Y-93130347D01*
X147848100Y-93130347D02*
X147800480Y-93082728D01*
X147800480Y-93082728D02*
X147705242Y-93035109D01*
X147705242Y-93035109D02*
X147514766Y-93035109D01*
X147514766Y-93035109D02*
X147419528Y-93082728D01*
X147419528Y-93082728D02*
X147371909Y-93130347D01*
X147371909Y-93130347D02*
X147324290Y-93225585D01*
X147895719Y-92606537D02*
X147229052Y-92606537D01*
X147324290Y-92606537D02*
X147276671Y-92558918D01*
X147276671Y-92558918D02*
X147229052Y-92463680D01*
X147229052Y-92463680D02*
X147229052Y-92320823D01*
X147229052Y-92320823D02*
X147276671Y-92225585D01*
X147276671Y-92225585D02*
X147371909Y-92177966D01*
X147371909Y-92177966D02*
X147895719Y-92177966D01*
X147371909Y-92177966D02*
X147276671Y-92130347D01*
X147276671Y-92130347D02*
X147229052Y-92035109D01*
X147229052Y-92035109D02*
X147229052Y-91892252D01*
X147229052Y-91892252D02*
X147276671Y-91797013D01*
X147276671Y-91797013D02*
X147371909Y-91749394D01*
X147371909Y-91749394D02*
X147895719Y-91749394D01*
X147895719Y-91273204D02*
X147229052Y-91273204D01*
X147324290Y-91273204D02*
X147276671Y-91225585D01*
X147276671Y-91225585D02*
X147229052Y-91130347D01*
X147229052Y-91130347D02*
X147229052Y-90987490D01*
X147229052Y-90987490D02*
X147276671Y-90892252D01*
X147276671Y-90892252D02*
X147371909Y-90844633D01*
X147371909Y-90844633D02*
X147895719Y-90844633D01*
X147371909Y-90844633D02*
X147276671Y-90797014D01*
X147276671Y-90797014D02*
X147229052Y-90701776D01*
X147229052Y-90701776D02*
X147229052Y-90558919D01*
X147229052Y-90558919D02*
X147276671Y-90463680D01*
X147276671Y-90463680D02*
X147371909Y-90416061D01*
X147371909Y-90416061D02*
X147895719Y-90416061D01*
X151274819Y-96528770D02*
X151274819Y-96433532D01*
X151274819Y-96433532D02*
X151322438Y-96338294D01*
X151322438Y-96338294D02*
X151370057Y-96290675D01*
X151370057Y-96290675D02*
X151465295Y-96243056D01*
X151465295Y-96243056D02*
X151655771Y-96195437D01*
X151655771Y-96195437D02*
X151893866Y-96195437D01*
X151893866Y-96195437D02*
X152084342Y-96243056D01*
X152084342Y-96243056D02*
X152179580Y-96290675D01*
X152179580Y-96290675D02*
X152227200Y-96338294D01*
X152227200Y-96338294D02*
X152274819Y-96433532D01*
X152274819Y-96433532D02*
X152274819Y-96528770D01*
X152274819Y-96528770D02*
X152227200Y-96624008D01*
X152227200Y-96624008D02*
X152179580Y-96671627D01*
X152179580Y-96671627D02*
X152084342Y-96719246D01*
X152084342Y-96719246D02*
X151893866Y-96766865D01*
X151893866Y-96766865D02*
X151655771Y-96766865D01*
X151655771Y-96766865D02*
X151465295Y-96719246D01*
X151465295Y-96719246D02*
X151370057Y-96671627D01*
X151370057Y-96671627D02*
X151322438Y-96624008D01*
X151322438Y-96624008D02*
X151274819Y-96528770D01*
X152179580Y-95766865D02*
X152227200Y-95719246D01*
X152227200Y-95719246D02*
X152274819Y-95766865D01*
X152274819Y-95766865D02*
X152227200Y-95814484D01*
X152227200Y-95814484D02*
X152179580Y-95766865D01*
X152179580Y-95766865D02*
X152274819Y-95766865D01*
X152274819Y-94766866D02*
X152274819Y-95338294D01*
X152274819Y-95052580D02*
X151274819Y-95052580D01*
X151274819Y-95052580D02*
X151417676Y-95147818D01*
X151417676Y-95147818D02*
X151512914Y-95243056D01*
X151512914Y-95243056D02*
X151560533Y-95338294D01*
X152274819Y-93814485D02*
X152274819Y-94385913D01*
X152274819Y-94100199D02*
X151274819Y-94100199D01*
X151274819Y-94100199D02*
X151417676Y-94195437D01*
X151417676Y-94195437D02*
X151512914Y-94290675D01*
X151512914Y-94290675D02*
X151560533Y-94385913D01*
X152274819Y-93385913D02*
X151608152Y-93385913D01*
X151274819Y-93385913D02*
X151322438Y-93433532D01*
X151322438Y-93433532D02*
X151370057Y-93385913D01*
X151370057Y-93385913D02*
X151322438Y-93338294D01*
X151322438Y-93338294D02*
X151274819Y-93385913D01*
X151274819Y-93385913D02*
X151370057Y-93385913D01*
X151608152Y-92909723D02*
X152274819Y-92909723D01*
X151703390Y-92909723D02*
X151655771Y-92862104D01*
X151655771Y-92862104D02*
X151608152Y-92766866D01*
X151608152Y-92766866D02*
X151608152Y-92624009D01*
X151608152Y-92624009D02*
X151655771Y-92528771D01*
X151655771Y-92528771D02*
X151751009Y-92481152D01*
X151751009Y-92481152D02*
X152274819Y-92481152D01*
X151227200Y-91290676D02*
X152512914Y-92147818D01*
X151370057Y-91004961D02*
X151322438Y-90957342D01*
X151322438Y-90957342D02*
X151274819Y-90862104D01*
X151274819Y-90862104D02*
X151274819Y-90624009D01*
X151274819Y-90624009D02*
X151322438Y-90528771D01*
X151322438Y-90528771D02*
X151370057Y-90481152D01*
X151370057Y-90481152D02*
X151465295Y-90433533D01*
X151465295Y-90433533D02*
X151560533Y-90433533D01*
X151560533Y-90433533D02*
X151703390Y-90481152D01*
X151703390Y-90481152D02*
X152274819Y-91052580D01*
X152274819Y-91052580D02*
X152274819Y-90433533D01*
X152179580Y-90004961D02*
X152227200Y-89957342D01*
X152227200Y-89957342D02*
X152274819Y-90004961D01*
X152274819Y-90004961D02*
X152227200Y-90052580D01*
X152227200Y-90052580D02*
X152179580Y-90004961D01*
X152179580Y-90004961D02*
X152274819Y-90004961D01*
X151274819Y-89624009D02*
X151274819Y-88957343D01*
X151274819Y-88957343D02*
X152274819Y-89385914D01*
X152274819Y-88528771D02*
X152274819Y-88338295D01*
X152274819Y-88338295D02*
X152227200Y-88243057D01*
X152227200Y-88243057D02*
X152179580Y-88195438D01*
X152179580Y-88195438D02*
X152036723Y-88100200D01*
X152036723Y-88100200D02*
X151846247Y-88052581D01*
X151846247Y-88052581D02*
X151465295Y-88052581D01*
X151465295Y-88052581D02*
X151370057Y-88100200D01*
X151370057Y-88100200D02*
X151322438Y-88147819D01*
X151322438Y-88147819D02*
X151274819Y-88243057D01*
X151274819Y-88243057D02*
X151274819Y-88433533D01*
X151274819Y-88433533D02*
X151322438Y-88528771D01*
X151322438Y-88528771D02*
X151370057Y-88576390D01*
X151370057Y-88576390D02*
X151465295Y-88624009D01*
X151465295Y-88624009D02*
X151703390Y-88624009D01*
X151703390Y-88624009D02*
X151798628Y-88576390D01*
X151798628Y-88576390D02*
X151846247Y-88528771D01*
X151846247Y-88528771D02*
X151893866Y-88433533D01*
X151893866Y-88433533D02*
X151893866Y-88243057D01*
X151893866Y-88243057D02*
X151846247Y-88147819D01*
X151846247Y-88147819D02*
X151798628Y-88100200D01*
X151798628Y-88100200D02*
X151703390Y-88052581D01*
X151608152Y-87195438D02*
X152274819Y-87195438D01*
X151227200Y-87433533D02*
X151941485Y-87671628D01*
X151941485Y-87671628D02*
X151941485Y-87052581D01*
X152274819Y-86671628D02*
X151608152Y-86671628D01*
X151703390Y-86671628D02*
X151655771Y-86624009D01*
X151655771Y-86624009D02*
X151608152Y-86528771D01*
X151608152Y-86528771D02*
X151608152Y-86385914D01*
X151608152Y-86385914D02*
X151655771Y-86290676D01*
X151655771Y-86290676D02*
X151751009Y-86243057D01*
X151751009Y-86243057D02*
X152274819Y-86243057D01*
X151751009Y-86243057D02*
X151655771Y-86195438D01*
X151655771Y-86195438D02*
X151608152Y-86100200D01*
X151608152Y-86100200D02*
X151608152Y-85957343D01*
X151608152Y-85957343D02*
X151655771Y-85862104D01*
X151655771Y-85862104D02*
X151751009Y-85814485D01*
X151751009Y-85814485D02*
X152274819Y-85814485D01*
X152274819Y-85338295D02*
X151608152Y-85338295D01*
X151703390Y-85338295D02*
X151655771Y-85290676D01*
X151655771Y-85290676D02*
X151608152Y-85195438D01*
X151608152Y-85195438D02*
X151608152Y-85052581D01*
X151608152Y-85052581D02*
X151655771Y-84957343D01*
X151655771Y-84957343D02*
X151751009Y-84909724D01*
X151751009Y-84909724D02*
X152274819Y-84909724D01*
X151751009Y-84909724D02*
X151655771Y-84862105D01*
X151655771Y-84862105D02*
X151608152Y-84766867D01*
X151608152Y-84766867D02*
X151608152Y-84624010D01*
X151608152Y-84624010D02*
X151655771Y-84528771D01*
X151655771Y-84528771D02*
X151751009Y-84481152D01*
X151751009Y-84481152D02*
X152274819Y-84481152D01*
D12*
X188675000Y-101792831D02*
X188681047Y-101798879D01*
X188681047Y-101798879D02*
X188675000Y-101804926D01*
X188675000Y-101804926D02*
X188668952Y-101798879D01*
X188668952Y-101798879D02*
X188675000Y-101792831D01*
X188675000Y-101792831D02*
X188675000Y-101804926D01*
D11*
%TO.C,REF4*%
X227500000Y-112725000D02*
G75*
G02*
X221100000Y-112725000I-3200000J0D01*
G01*
X221100000Y-112725000D02*
G75*
G02*
X227500000Y-112725000I3200000J0D01*
G01*
%TO.C,REF3*%
X227200000Y-80250000D02*
G75*
G02*
X220800000Y-80250000I-3200000J0D01*
G01*
X220800000Y-80250000D02*
G75*
G02*
X227200000Y-80250000I3200000J0D01*
G01*
%TO.C,REF2*%
X75500000Y-80450000D02*
G75*
G02*
X69100000Y-80450000I-3200000J0D01*
G01*
X69100000Y-80450000D02*
G75*
G02*
X75500000Y-80450000I3200000J0D01*
G01*
%TO.C,REF1*%
X75600000Y-113025000D02*
G75*
G02*
X69200000Y-113025000I-3200000J0D01*
G01*
X69200000Y-113025000D02*
G75*
G02*
X75600000Y-113025000I3200000J0D01*
G01*
%TD*%
M02*
