%TF.GenerationSoftware,KiCad,Pcbnew,9.0.6*%
%TF.CreationDate,2026-01-10T21:11:38+01:00*%
%TF.ProjectId,_autosave-sisterboard_A,5f617574-6f73-4617-9665-2d7369737465,1.0*%
%TF.SameCoordinates,Original*%
%TF.FileFunction,Copper,L1,Top*%
%TF.FilePolarity,Positive*%
%FSLAX46Y46*%
G04 Gerber Fmt 4.6, Leading zero omitted, Abs format (unit mm)*
G04 Created by KiCad (PCBNEW 9.0.6) date 2026-01-10 21:11:38*
%MOMM*%
%LPD*%
G01*
G04 APERTURE LIST*
G04 Aperture macros list*
%AMRoundRect*
0 Rectangle with rounded corners*
0 $1 Rounding radius*
0 $2 $3 $4 $5 $6 $7 $8 $9 X,Y pos of 4 corners*
0 Add a 4 corners polygon primitive as box body*
4,1,4,$2,$3,$4,$5,$6,$7,$8,$9,$2,$3,0*
0 Add four circle primitives for the rounded corners*
1,1,$1+$1,$2,$3*
1,1,$1+$1,$4,$5*
1,1,$1+$1,$6,$7*
1,1,$1+$1,$8,$9*
0 Add four rect primitives between the rounded corners*
20,1,$1+$1,$2,$3,$4,$5,0*
20,1,$1+$1,$4,$5,$6,$7,0*
20,1,$1+$1,$6,$7,$8,$9,0*
20,1,$1+$1,$8,$9,$2,$3,0*%
G04 Aperture macros list end*
%TA.AperFunction,SMDPad,CuDef*%
%ADD10RoundRect,0.250000X0.250000X0.475000X-0.250000X0.475000X-0.250000X-0.475000X0.250000X-0.475000X0*%
%TD*%
%TA.AperFunction,SMDPad,CuDef*%
%ADD11RoundRect,0.250000X-0.450000X0.262500X-0.450000X-0.262500X0.450000X-0.262500X0.450000X0.262500X0*%
%TD*%
%TA.AperFunction,SMDPad,CuDef*%
%ADD12RoundRect,0.250000X-0.250000X-0.475000X0.250000X-0.475000X0.250000X0.475000X-0.250000X0.475000X0*%
%TD*%
%TA.AperFunction,SMDPad,CuDef*%
%ADD13R,2.794000X2.794000*%
%TD*%
%TA.AperFunction,SMDPad,CuDef*%
%ADD14R,0.807999X0.254800*%
%TD*%
%TA.AperFunction,SMDPad,CuDef*%
%ADD15R,0.254800X0.807999*%
%TD*%
%TA.AperFunction,SMDPad,CuDef*%
%ADD16RoundRect,0.250000X0.262500X0.450000X-0.262500X0.450000X-0.262500X-0.450000X0.262500X-0.450000X0*%
%TD*%
%TA.AperFunction,SMDPad,CuDef*%
%ADD17RoundRect,0.250000X0.450000X-0.262500X0.450000X0.262500X-0.450000X0.262500X-0.450000X-0.262500X0*%
%TD*%
%TA.AperFunction,SMDPad,CuDef*%
%ADD18RoundRect,0.250000X0.475000X-0.250000X0.475000X0.250000X-0.475000X0.250000X-0.475000X-0.250000X0*%
%TD*%
%TA.AperFunction,SMDPad,CuDef*%
%ADD19RoundRect,0.250000X-0.475000X0.250000X-0.475000X-0.250000X0.475000X-0.250000X0.475000X0.250000X0*%
%TD*%
%TA.AperFunction,SMDPad,CuDef*%
%ADD20R,0.540000X0.750000*%
%TD*%
%TA.AperFunction,SMDPad,CuDef*%
%ADD21RoundRect,0.150000X0.000010X0.000010X-0.000010X0.000010X-0.000010X-0.000010X0.000010X-0.000010X0*%
%TD*%
%TA.AperFunction,SMDPad,CuDef*%
%ADD22RoundRect,0.250000X-0.262500X-0.450000X0.262500X-0.450000X0.262500X0.450000X-0.262500X0.450000X0*%
%TD*%
%TA.AperFunction,ComponentPad*%
%ADD23C,2.200000*%
%TD*%
%TA.AperFunction,ComponentPad*%
%ADD24C,1.720000*%
%TD*%
%TA.AperFunction,ComponentPad*%
%ADD25C,1.600000*%
%TD*%
%TA.AperFunction,ComponentPad*%
%ADD26RoundRect,0.250000X-0.550000X0.550000X-0.550000X-0.550000X0.550000X-0.550000X0.550000X0.550000X0*%
%TD*%
%TA.AperFunction,WasherPad*%
%ADD27C,3.260000*%
%TD*%
%TA.AperFunction,SMDPad,CuDef*%
%ADD28RoundRect,0.150000X-0.000010X-0.000010X0.000010X-0.000010X0.000010X0.000010X-0.000010X0.000010X0*%
%TD*%
%TA.AperFunction,ComponentPad*%
%ADD29C,1.700000*%
%TD*%
%TA.AperFunction,ComponentPad*%
%ADD30R,1.700000X1.700000*%
%TD*%
%TA.AperFunction,SMDPad,CuDef*%
%ADD31R,1.000001X0.599999*%
%TD*%
%TA.AperFunction,SMDPad,CuDef*%
%ADD32C,1.000000*%
%TD*%
%TA.AperFunction,ViaPad*%
%ADD33C,0.600000*%
%TD*%
%TA.AperFunction,Conductor*%
%ADD34C,0.200000*%
%TD*%
G04 APERTURE END LIST*
D10*
%TO.P,C10,2*%
%TO.N,+3.3V*%
X152500000Y-88200000D03*
%TO.P,C10,1*%
%TO.N,GND*%
X154400000Y-88200000D03*
%TD*%
D11*
%TO.P,R1,2*%
%TO.N,Net-(U1-SDOUT)*%
X150375000Y-90675000D03*
%TO.P,R1,1*%
%TO.N,/SDOUT*%
X150375000Y-88850000D03*
%TD*%
D12*
%TO.P,C8,2*%
%TO.N,GND*%
X148025000Y-89075000D03*
%TO.P,C8,1*%
%TO.N,Net-(U1-DREG)*%
X146125000Y-89075000D03*
%TD*%
%TO.P,C9,2*%
%TO.N,GND*%
X154450000Y-90600000D03*
%TO.P,C9,1*%
%TO.N,+3.3V*%
X152550000Y-90600000D03*
%TD*%
D10*
%TO.P,C7,2*%
%TO.N,Net-(U1-DREG)*%
X146100000Y-91650000D03*
%TO.P,C7,1*%
%TO.N,GND*%
X148000000Y-91650000D03*
%TD*%
D13*
%TO.P,U1,25,VSS*%
%TO.N,GND*%
X152455000Y-95045200D03*
D14*
%TO.P,U1,24,DREG*%
%TO.N,Net-(U1-DREG)*%
X150488900Y-96295515D03*
%TO.P,U1,23,FSYNC*%
%TO.N,/FSYNC*%
X150488900Y-95795389D03*
%TO.P,U1,22,BCLK*%
%TO.N,/BCLK*%
X150488900Y-95295263D03*
%TO.P,U1,21,SDOUT*%
%TO.N,Net-(U1-SDOUT)*%
X150488900Y-94795137D03*
%TO.P,U1,20,GPIO1*%
%TO.N,unconnected-(U1-GPIO1-Pad20)*%
X150488900Y-94295011D03*
%TO.P,U1,19,IOVDD*%
%TO.N,+3.3V*%
X150488900Y-93794885D03*
D15*
%TO.P,U1,18,SDA_SSZ*%
%TO.N,/SDA_SSZ*%
X151204685Y-93079100D03*
%TO.P,U1,17,SCL_MOSI*%
%TO.N,/SCL_MOSI*%
X151704811Y-93079100D03*
%TO.P,U1,16,ADDR0_SCLK*%
%TO.N,GND*%
X152204937Y-93079100D03*
%TO.P,U1,15,ADDR1_MISO*%
X152705063Y-93079100D03*
%TO.P,U1,14,SHDNZ*%
%TO.N,/SHDNZ*%
X153205189Y-93079100D03*
%TO.P,U1,13,PDMCLK4_GPO4*%
%TO.N,Net-(U1-PDMCLK4_GPO4)*%
X153705315Y-93079100D03*
D14*
%TO.P,U1,12,PDMDIN4_GPI4*%
%TO.N,Net-(U1-PDMDIN4_GPI4)*%
X154421100Y-93794885D03*
%TO.P,U1,11,PDMCLK3_GPO3*%
%TO.N,Net-(U1-PDMCLK3_GPO3)*%
X154421100Y-94295011D03*
%TO.P,U1,10,PDMDIN3_GPI3*%
%TO.N,Net-(U1-PDMDIN3_GPI3)*%
X154421100Y-94795137D03*
%TO.P,U1,9,PDMLK2_GPO2*%
%TO.N,Net-(U1-PDMLK2_GPO2)*%
X154421100Y-95295263D03*
%TO.P,U1,8,PDMDIN2_GPI2*%
%TO.N,Net-(U1-PDMDIN2_GPI2)*%
X154421100Y-95795389D03*
%TO.P,U1,7,PDMLK1_GPO1*%
%TO.N,Net-(U1-PDMLK1_GPO1)*%
X154421100Y-96295515D03*
D15*
%TO.P,U1,6,PDMDIN1_GPI1*%
%TO.N,Net-(U1-PDMDIN1_GPI1)*%
X153705315Y-97011300D03*
%TO.P,U1,5,MICBIAS*%
%TO.N,Net-(U1-MICBIAS)*%
X153205189Y-97011300D03*
%TO.P,U1,4,AVSS*%
%TO.N,GND*%
X152705063Y-97011300D03*
%TO.P,U1,3,VREF*%
%TO.N,Net-(U1-VREF)*%
X152204937Y-97011300D03*
%TO.P,U1,2,AREG*%
%TO.N,Net-(U1-AREG)*%
X151704811Y-97011300D03*
%TO.P,U1,1,AVDD*%
%TO.N,+1V8*%
X151204685Y-97011300D03*
%TD*%
D16*
%TO.P,R17,2*%
%TO.N,GND*%
X215850000Y-114450000D03*
%TO.P,R17,1*%
%TO.N,Net-(U1-PDMDIN4_GPI4)*%
X217675000Y-114450000D03*
%TD*%
D17*
%TO.P,R15,2*%
%TO.N,Net-(J2-Pin_4)*%
X215537000Y-110612000D03*
%TO.P,R15,1*%
%TO.N,Net-(U1-PDMDIN4_GPI4)*%
X215537000Y-112437000D03*
%TD*%
D18*
%TO.P,C26,2*%
%TO.N,GND*%
X217787000Y-110537000D03*
%TO.P,C26,1*%
%TO.N,Net-(U1-PDMDIN4_GPI4)*%
X217787000Y-112437000D03*
%TD*%
D19*
%TO.P,C24,2*%
%TO.N,GND*%
X207962000Y-112512000D03*
%TO.P,C24,1*%
%TO.N,+1V8*%
X207962000Y-110612000D03*
%TD*%
D20*
%TO.P,U9,5,VDD*%
%TO.N,+1V8*%
X213087000Y-112463000D03*
%TO.P,U9,4,CLK*%
%TO.N,Net-(U1-PDMCLK4_GPO4)*%
X212265000Y-112463000D03*
D21*
%TO.P,U9,3,GND*%
%TO.N,GND*%
X211690500Y-111625000D03*
D20*
%TO.P,U9,2,LR*%
X212265000Y-110787000D03*
%TO.P,U9,1,DATA*%
%TO.N,Net-(J2-Pin_4)*%
X213087000Y-110787000D03*
%TD*%
D19*
%TO.P,C2,1*%
%TO.N,GND*%
X157350000Y-90375000D03*
%TO.P,C2,2*%
%TO.N,+1V8*%
X157350000Y-92275000D03*
%TD*%
D12*
%TO.P,C1,1*%
%TO.N,+1V8*%
X159525000Y-91450000D03*
%TO.P,C1,2*%
%TO.N,GND*%
X161425000Y-91450000D03*
%TD*%
D18*
%TO.P,C4,1*%
%TO.N,Net-(U1-MICBIAS)*%
X157430000Y-96045200D03*
%TO.P,C4,2*%
%TO.N,GND*%
X157430000Y-94145200D03*
%TD*%
D10*
%TO.P,C5,1*%
%TO.N,GND*%
X161580000Y-99020200D03*
%TO.P,C5,2*%
%TO.N,Net-(U1-AREG)*%
X159680000Y-99020200D03*
%TD*%
D19*
%TO.P,C6,1*%
%TO.N,Net-(U1-AREG)*%
X157455000Y-97920200D03*
%TO.P,C6,2*%
%TO.N,GND*%
X157455000Y-99820200D03*
%TD*%
D18*
%TO.P,C3,1*%
%TO.N,Net-(U1-VREF)*%
X159800000Y-96025000D03*
%TO.P,C3,2*%
%TO.N,GND*%
X159800000Y-94125000D03*
%TD*%
D17*
%TO.P,R14,2*%
%TO.N,Net-(J2-Pin_4)*%
X168825000Y-110763500D03*
%TO.P,R14,1*%
%TO.N,Net-(U1-PDMDIN4_GPI4)*%
X168825000Y-112588500D03*
%TD*%
D20*
%TO.P,U8,5,VDD*%
%TO.N,+1V8*%
X166475000Y-112476000D03*
%TO.P,U8,4,CLK*%
%TO.N,Net-(U1-PDMCLK4_GPO4)*%
X165653000Y-112476000D03*
D21*
%TO.P,U8,3,GND*%
%TO.N,GND*%
X165078500Y-111638000D03*
D20*
%TO.P,U8,2,LR*%
%TO.N,+1V8*%
X165653000Y-110800000D03*
%TO.P,U8,1,DATA*%
%TO.N,Net-(J2-Pin_4)*%
X166475000Y-110800000D03*
%TD*%
D19*
%TO.P,C18,2*%
%TO.N,GND*%
X125402000Y-80875000D03*
%TO.P,C18,1*%
%TO.N,Net-(U1-PDMDIN2_GPI2)*%
X125402000Y-78975000D03*
%TD*%
D18*
%TO.P,C25,2*%
%TO.N,GND*%
X171075000Y-110801000D03*
%TO.P,C25,1*%
%TO.N,Net-(U1-PDMDIN4_GPI4)*%
X171075000Y-112701000D03*
%TD*%
D22*
%TO.P,R16,2*%
%TO.N,GND*%
X170912500Y-115000000D03*
%TO.P,R16,1*%
%TO.N,Net-(U1-PDMDIN4_GPI4)*%
X169087500Y-115000000D03*
%TD*%
D23*
%TO.P,J1,SH*%
%TO.N,N/C*%
X81550000Y-104510000D03*
X81550000Y-88920000D03*
D24*
%TO.P,J1,14*%
X92220000Y-102175000D03*
%TO.P,J1,13*%
X92220000Y-99635000D03*
%TO.P,J1,12*%
X92220000Y-93795000D03*
%TO.P,J1,11*%
X92220000Y-91255000D03*
D25*
%TO.P,J1,9*%
X87390000Y-101160000D03*
%TO.P,J1,8*%
%TO.N,GND*%
X84850000Y-99890000D03*
%TO.P,J1,7*%
%TO.N,+3.3V*%
X87390000Y-98620000D03*
%TO.P,J1,6*%
%TO.N,/SHDNZ*%
X84850000Y-97350000D03*
%TO.P,J1,5*%
%TO.N,/SCL_MOSI*%
X87390000Y-96080000D03*
%TO.P,J1,4*%
%TO.N,/SDA_SSZ*%
X84850000Y-94810000D03*
%TO.P,J1,3*%
%TO.N,/SDOUT*%
X87390000Y-93540000D03*
D26*
%TO.P,J1,2*%
%TO.N,/BCLK*%
X84850000Y-92270000D03*
D27*
%TO.P,J1,*%
%TO.N,*%
X78500000Y-102430000D03*
X78500000Y-91000000D03*
%TD*%
D22*
%TO.P,R9,2*%
%TO.N,GND*%
X127402000Y-82813000D03*
%TO.P,R9,1*%
%TO.N,Net-(U1-PDMDIN2_GPI2)*%
X125577000Y-82813000D03*
%TD*%
D20*
%TO.P,U5,5,VDD*%
%TO.N,+1V8*%
X130328000Y-79137000D03*
%TO.P,U5,4,CLK*%
%TO.N,Net-(U1-PDMLK2_GPO2)*%
X131150000Y-79137000D03*
D28*
%TO.P,U5,3,GND*%
%TO.N,GND*%
X131724500Y-79975000D03*
D20*
%TO.P,U5,2,LR*%
X131150000Y-80813000D03*
%TO.P,U5,1,DATA*%
%TO.N,Net-(J2-Pin_2)*%
X130328000Y-80813000D03*
%TD*%
D29*
%TO.P,J2,4,Pin_4*%
%TO.N,Net-(J2-Pin_4)*%
X189150000Y-92095000D03*
%TO.P,J2,3,Pin_3*%
%TO.N,Net-(J2-Pin_3)*%
X189150000Y-89555000D03*
%TO.P,J2,2,Pin_2*%
%TO.N,Net-(J2-Pin_2)*%
X189150000Y-87015000D03*
D30*
%TO.P,J2,1,Pin_1*%
%TO.N,Net-(J2-Pin_1)*%
X189150000Y-84475000D03*
%TD*%
D11*
%TO.P,R7,2*%
%TO.N,Net-(U1-PDMDIN2_GPI2)*%
X127902000Y-80800000D03*
%TO.P,R7,1*%
%TO.N,Net-(J2-Pin_2)*%
X127902000Y-78975000D03*
%TD*%
D18*
%TO.P,C23,2*%
%TO.N,GND*%
X161350000Y-110751000D03*
%TO.P,C23,1*%
%TO.N,+1V8*%
X161350000Y-112651000D03*
%TD*%
D19*
%TO.P,C16,2*%
%TO.N,GND*%
X135650000Y-80925000D03*
%TO.P,C16,1*%
%TO.N,+1V8*%
X135650000Y-79025000D03*
%TD*%
D20*
%TO.P,U2,1,DATA*%
%TO.N,Net-(J2-Pin_3)*%
X130241500Y-112219000D03*
%TO.P,U2,2,LR*%
%TO.N,+1V8*%
X131063500Y-112219000D03*
D28*
%TO.P,U2,3,GND*%
%TO.N,GND*%
X131638000Y-111381000D03*
D20*
%TO.P,U2,4,CLK*%
%TO.N,Net-(U1-PDMCLK3_GPO3)*%
X131063500Y-110543000D03*
%TO.P,U2,5,VDD*%
%TO.N,+1V8*%
X130241500Y-110543000D03*
%TD*%
D18*
%TO.P,C20,1*%
%TO.N,+1V8*%
X207900000Y-80850000D03*
%TO.P,C20,2*%
%TO.N,GND*%
X207900000Y-78950000D03*
%TD*%
D19*
%TO.P,C12,1*%
%TO.N,+1V8*%
X135265500Y-110456000D03*
%TO.P,C12,2*%
%TO.N,GND*%
X135265500Y-112356000D03*
%TD*%
D16*
%TO.P,R12,1*%
%TO.N,GND*%
X170565500Y-82699000D03*
%TO.P,R12,2*%
%TO.N,Net-(U1-PDMDIN1_GPI1)*%
X168740500Y-82699000D03*
%TD*%
D22*
%TO.P,R13,1*%
%TO.N,Net-(U1-PDMDIN1_GPI1)*%
X215662500Y-82700000D03*
%TO.P,R13,2*%
%TO.N,GND*%
X217487500Y-82700000D03*
%TD*%
D19*
%TO.P,C22,1*%
%TO.N,Net-(U1-PDMDIN1_GPI1)*%
X217625000Y-78925000D03*
%TO.P,C22,2*%
%TO.N,GND*%
X217625000Y-80825000D03*
%TD*%
D17*
%TO.P,R3,1*%
%TO.N,Net-(J2-Pin_3)*%
X127790500Y-112518500D03*
%TO.P,R3,2*%
%TO.N,Net-(U1-PDMDIN3_GPI3)*%
X127790500Y-110693500D03*
%TD*%
D31*
%TO.P,U10,1,IN*%
%TO.N,+3.3V*%
X187299999Y-100796999D03*
%TO.P,U10,2,GND*%
%TO.N,GND*%
X187299999Y-101747000D03*
%TO.P,U10,3,EN*%
%TO.N,+3.3V*%
X187299999Y-102696998D03*
%TO.P,U10,4,N/C*%
%TO.N,unconnected-(U10-N{slash}C-Pad4)*%
X190049999Y-102696998D03*
%TO.P,U10,5,OUT*%
%TO.N,+1V8*%
X190049999Y-100796999D03*
%TD*%
D22*
%TO.P,R4,1*%
%TO.N,Net-(U1-PDMDIN3_GPI3)*%
X78978500Y-114656000D03*
%TO.P,R4,2*%
%TO.N,GND*%
X80803500Y-114656000D03*
%TD*%
D19*
%TO.P,C21,1*%
%TO.N,Net-(U1-PDMDIN1_GPI1)*%
X170803000Y-78874000D03*
%TO.P,C21,2*%
%TO.N,GND*%
X170803000Y-80774000D03*
%TD*%
D18*
%TO.P,C17,1*%
%TO.N,Net-(U1-PDMDIN2_GPI2)*%
X78650000Y-80925000D03*
%TO.P,C17,2*%
%TO.N,GND*%
X78650000Y-79025000D03*
%TD*%
D19*
%TO.P,C28,1*%
%TO.N,+1V8*%
X193050000Y-100797000D03*
%TO.P,C28,2*%
%TO.N,GND*%
X193050000Y-102697000D03*
%TD*%
D17*
%TO.P,R10,1*%
%TO.N,Net-(J2-Pin_1)*%
X168478000Y-80749000D03*
%TO.P,R10,2*%
%TO.N,Net-(U1-PDMDIN1_GPI1)*%
X168478000Y-78924000D03*
%TD*%
D19*
%TO.P,C19,1*%
%TO.N,+1V8*%
X161028000Y-78924000D03*
%TO.P,C19,2*%
%TO.N,GND*%
X161028000Y-80824000D03*
%TD*%
%TO.P,C13,1*%
%TO.N,Net-(U1-PDMDIN3_GPI3)*%
X78853500Y-110856000D03*
%TO.P,C13,2*%
%TO.N,GND*%
X78853500Y-112756000D03*
%TD*%
D18*
%TO.P,C11,1*%
%TO.N,+1V8*%
X88678500Y-112556000D03*
%TO.P,C11,2*%
%TO.N,GND*%
X88678500Y-110656000D03*
%TD*%
D19*
%TO.P,C15,1*%
%TO.N,+1V8*%
X88650000Y-78975000D03*
%TO.P,C15,2*%
%TO.N,GND*%
X88650000Y-80875000D03*
%TD*%
D20*
%TO.P,U3,1,DATA*%
%TO.N,Net-(J2-Pin_3)*%
X83591500Y-112544000D03*
%TO.P,U3,2,LR*%
%TO.N,GND*%
X84413500Y-112544000D03*
D28*
%TO.P,U3,3,GND*%
X84988000Y-111706000D03*
D20*
%TO.P,U3,4,CLK*%
%TO.N,Net-(U1-PDMCLK3_GPO3)*%
X84413500Y-110868000D03*
%TO.P,U3,5,VDD*%
%TO.N,+1V8*%
X83591500Y-110868000D03*
%TD*%
%TO.P,U7,1,DATA*%
%TO.N,Net-(J2-Pin_1)*%
X213046000Y-79063000D03*
%TO.P,U7,2,LR*%
%TO.N,GND*%
X212224000Y-79063000D03*
D21*
%TO.P,U7,3,GND*%
X211649500Y-79901000D03*
D20*
%TO.P,U7,4,CLK*%
%TO.N,Net-(U1-PDMLK1_GPO1)*%
X212224000Y-80739000D03*
%TO.P,U7,5,VDD*%
%TO.N,+1V8*%
X213046000Y-80739000D03*
%TD*%
D17*
%TO.P,R11,1*%
%TO.N,Net-(J2-Pin_1)*%
X215400000Y-80762500D03*
%TO.P,R11,2*%
%TO.N,Net-(U1-PDMDIN1_GPI1)*%
X215400000Y-78937500D03*
%TD*%
D19*
%TO.P,C14,1*%
%TO.N,Net-(U1-PDMDIN3_GPI3)*%
X125565500Y-110681000D03*
%TO.P,C14,2*%
%TO.N,GND*%
X125565500Y-112581000D03*
%TD*%
D20*
%TO.P,U4,1,DATA*%
%TO.N,Net-(J2-Pin_2)*%
X83576000Y-80787000D03*
%TO.P,U4,2,LR*%
%TO.N,+1V8*%
X84398000Y-80787000D03*
D28*
%TO.P,U4,3,GND*%
%TO.N,GND*%
X84972500Y-79949000D03*
D20*
%TO.P,U4,4,CLK*%
%TO.N,Net-(U1-PDMLK2_GPO2)*%
X84398000Y-79111000D03*
%TO.P,U4,5,VDD*%
%TO.N,+1V8*%
X83576000Y-79111000D03*
%TD*%
D11*
%TO.P,R6,1*%
%TO.N,Net-(J2-Pin_2)*%
X81150000Y-79025000D03*
%TO.P,R6,2*%
%TO.N,Net-(U1-PDMDIN2_GPI2)*%
X81150000Y-80850000D03*
%TD*%
D17*
%TO.P,R2,1*%
%TO.N,Net-(J2-Pin_3)*%
X81078500Y-112681000D03*
%TO.P,R2,2*%
%TO.N,Net-(U1-PDMDIN3_GPI3)*%
X81078500Y-110856000D03*
%TD*%
D20*
%TO.P,U6,1,DATA*%
%TO.N,Net-(J2-Pin_1)*%
X166125000Y-79099000D03*
%TO.P,U6,2,LR*%
%TO.N,+1V8*%
X165303000Y-79099000D03*
D21*
%TO.P,U6,3,GND*%
%TO.N,GND*%
X164728500Y-79937000D03*
D20*
%TO.P,U6,4,CLK*%
%TO.N,Net-(U1-PDMLK1_GPO1)*%
X165303000Y-80775000D03*
%TO.P,U6,5,VDD*%
%TO.N,+1V8*%
X166125000Y-80775000D03*
%TD*%
D32*
%TO.P,TP2,1,1*%
%TO.N,+1V8*%
X193000000Y-97897000D03*
%TD*%
%TO.P,TP1,1,1*%
%TO.N,+3.3V*%
X183925000Y-97775000D03*
%TD*%
D22*
%TO.P,R8,1*%
%TO.N,Net-(U1-PDMDIN2_GPI2)*%
X78825000Y-82975000D03*
%TO.P,R8,2*%
%TO.N,GND*%
X80650000Y-82975000D03*
%TD*%
D16*
%TO.P,R5,1*%
%TO.N,Net-(U1-PDMDIN3_GPI3)*%
X127590500Y-114481000D03*
%TO.P,R5,2*%
%TO.N,GND*%
X125765500Y-114481000D03*
%TD*%
D18*
%TO.P,C27,1*%
%TO.N,GND*%
X184050000Y-102697000D03*
%TO.P,C27,2*%
%TO.N,+3.3V*%
X184050000Y-100797000D03*
%TD*%
D33*
%TO.N,Net-(U1-PDMDIN2_GPI2)*%
X155356000Y-85323600D03*
X127782000Y-84681600D03*
X126656000Y-79322400D03*
X155797000Y-95995900D03*
%TO.N,Net-(U1-PDMLK2_GPO2)*%
X156054000Y-94381000D03*
X155547000Y-80037100D03*
%TO.N,Net-(U1-PDMLK1_GPO1)*%
X173499000Y-82986900D03*
X173374000Y-95227800D03*
X167270000Y-80218700D03*
%TO.N,/BCLK*%
X93464600Y-95997200D03*
%TO.N,Net-(U1-PDMCLK4_GPO4)*%
X158559000Y-114016000D03*
X166476000Y-109906000D03*
X155164000Y-92555900D03*
%TO.N,Net-(U1-SDOUT)*%
X134655000Y-89510400D03*
X134831000Y-94721000D03*
%TO.N,Net-(U1-PDMDIN4_GPI4)*%
X161523000Y-86350100D03*
X167618000Y-112577000D03*
%TO.N,Net-(J2-Pin_1)*%
X170857000Y-84188600D03*
X211402000Y-78491000D03*
X214204000Y-80911300D03*
X165728000Y-78239700D03*
X166875000Y-81380100D03*
%TO.N,Net-(U1-PDMDIN1_GPI1)*%
X194415000Y-76689200D03*
X191427000Y-80388700D03*
X159582000Y-76980100D03*
X154440000Y-97123200D03*
%TO.N,Net-(J2-Pin_4)*%
X176318000Y-110148000D03*
X195047000Y-106956000D03*
%TO.N,Net-(J2-Pin_3)*%
X185451000Y-116885000D03*
%TO.N,Net-(U1-PDMDIN3_GPI3)*%
X124574000Y-111443000D03*
X125691000Y-107325000D03*
X128679000Y-85628000D03*
X155878000Y-87865700D03*
X155809000Y-93605000D03*
%TO.N,Net-(J2-Pin_2)*%
X129333000Y-77290900D03*
X129330000Y-80882000D03*
X82835500Y-80830800D03*
X83586700Y-77509400D03*
X185451000Y-76689200D03*
%TO.N,/SCL_MOSI*%
X90861300Y-98813600D03*
X150308000Y-91724300D03*
X148562000Y-87514700D03*
X150299000Y-87490600D03*
X146607000Y-96254100D03*
%TO.N,/SHDNZ*%
X86847000Y-86374500D03*
%TO.N,Net-(U1-DREG)*%
X143676000Y-91650000D03*
X143619000Y-95873900D03*
%TO.N,+3.3V*%
X149612000Y-93588300D03*
X151336000Y-87625400D03*
X159073000Y-97682200D03*
%TO.N,+1V8*%
X159368000Y-92898400D03*
X159782000Y-77821300D03*
X160675000Y-92900000D03*
X162679000Y-110628000D03*
X209677000Y-112896000D03*
X210731000Y-110500000D03*
X95811000Y-110123000D03*
X92823000Y-79285600D03*
X206024000Y-80594500D03*
X87638300Y-81828700D03*
X95811000Y-98347700D03*
%TO.N,GND*%
X146607000Y-87172700D03*
X149595000Y-80824000D03*
X84729900Y-113602000D03*
X85994700Y-80951400D03*
X83813800Y-116294000D03*
X83975300Y-76793700D03*
X209355000Y-84726500D03*
X209535000Y-79063000D03*
X153604000Y-99820200D03*
%TD*%
D34*
%TO.N,Net-(U1-PDMDIN2_GPI2)*%
X81880100Y-82813000D02*
X81485100Y-83207900D01*
X81485100Y-82418100D02*
X81880100Y-82813000D01*
X125942000Y-82813000D02*
X125971000Y-82784100D01*
X125971000Y-82841900D02*
X125942000Y-82813000D01*
X81485100Y-83207900D02*
X81485100Y-82418100D01*
X125971000Y-82784100D02*
X125971000Y-82841900D01*
X78737500Y-81012500D02*
X78650000Y-80925000D01*
X78825000Y-81223700D02*
X78737500Y-81012500D01*
X78825000Y-82975000D02*
X78825000Y-81223700D01*
X126000000Y-82701700D02*
X127902000Y-80800000D01*
X125971000Y-82771900D02*
X126000000Y-82701700D01*
X125971000Y-82784100D02*
X125971000Y-82771900D01*
X125992000Y-82891200D02*
X127782000Y-84681600D01*
X125971000Y-82841900D02*
X125992000Y-82891200D01*
X125576000Y-79148700D02*
X125402000Y-78975000D01*
X125995000Y-79322400D02*
X125576000Y-79148700D01*
X126656000Y-79322400D02*
X125995000Y-79322400D01*
X81485100Y-83351700D02*
X81485100Y-83207900D01*
X81307500Y-83780500D02*
X81485100Y-83351700D01*
X80878700Y-83958100D02*
X81307500Y-83780500D01*
X80469000Y-83958100D02*
X80878700Y-83958100D01*
X79340800Y-83490800D02*
X80469000Y-83958100D01*
X78825000Y-82975000D02*
X79340800Y-83490800D01*
X81880100Y-82813000D02*
X125942000Y-82813000D01*
X81317600Y-81017600D02*
X81150000Y-80850000D01*
X81485100Y-81422100D02*
X81317600Y-81017600D01*
X81485100Y-82418100D02*
X81485100Y-81422100D01*
X154260000Y-84681600D02*
X127782000Y-84681600D01*
X155035000Y-85002600D02*
X154260000Y-84681600D01*
X155356000Y-85323600D02*
X155035000Y-85002600D01*
X155455000Y-95795400D02*
X154421100Y-95795400D01*
X155697000Y-95895600D02*
X155455000Y-95795400D01*
X155797000Y-95995900D02*
X155697000Y-95895600D01*
X154421100Y-95795400D02*
X154421000Y-95795400D01*
X125577000Y-82813000D02*
X125942000Y-82813000D01*
%TO.N,Net-(U1-PDMLK2_GPO2)*%
X131161000Y-79159500D02*
X131150000Y-79170800D01*
X131150000Y-79148200D02*
X131161000Y-79159500D01*
X131150000Y-79170800D02*
X131150000Y-79148200D01*
X131150000Y-79148200D02*
X131150000Y-79137000D01*
X85650000Y-79111000D02*
X84398000Y-79111000D01*
X86589400Y-79500100D02*
X85650000Y-79111000D01*
X87528900Y-79889300D02*
X86589400Y-79500100D01*
X130962000Y-79889300D02*
X87528900Y-79889300D01*
X131095000Y-79834100D02*
X130962000Y-79889300D01*
X131150000Y-79700800D02*
X131095000Y-79834100D01*
X131150000Y-79170800D02*
X131150000Y-79700800D01*
X134877000Y-80037100D02*
X155547000Y-80037100D01*
X133817000Y-79598300D02*
X134877000Y-80037100D01*
X132758000Y-79159500D02*
X133817000Y-79598300D01*
X131161000Y-79159500D02*
X132758000Y-79159500D01*
X154781000Y-95295300D02*
X154421100Y-95295300D01*
X155394000Y-95041100D02*
X154781000Y-95295300D01*
X156054000Y-94381000D02*
X155394000Y-95041100D01*
X154421100Y-95295300D02*
X154421000Y-95295300D01*
%TO.N,Net-(U1-PDMCLK3_GPO3)*%
X84413500Y-111189000D02*
X84413500Y-110868000D01*
X84092600Y-111510000D02*
X84413500Y-111189000D01*
X83296600Y-111510000D02*
X84092600Y-111510000D01*
X83116700Y-111435000D02*
X83296600Y-111510000D01*
X83042200Y-111256000D02*
X83116700Y-111435000D01*
X83042200Y-110779000D02*
X83042200Y-111256000D01*
X83422400Y-109861000D02*
X83042200Y-110779000D01*
X84340500Y-109481000D02*
X83422400Y-109861000D01*
X130682000Y-109481000D02*
X84340500Y-109481000D01*
X131332000Y-109750000D02*
X130682000Y-109481000D01*
X131415000Y-109834000D02*
X131332000Y-109750000D01*
X131600000Y-110281000D02*
X131415000Y-109834000D01*
X131338000Y-110543000D02*
X131600000Y-110281000D01*
X131064000Y-110543000D02*
X131338000Y-110543000D01*
X131063500Y-110543000D02*
X131064000Y-110543000D01*
%TO.N,Net-(U1-PDMLK1_GPO1)*%
X207850000Y-82986900D02*
X173499000Y-82986900D01*
X210563000Y-81862900D02*
X207850000Y-82986900D01*
X211497000Y-80928800D02*
X210563000Y-81862900D01*
X211956000Y-80739000D02*
X211497000Y-80928800D01*
X212224000Y-80739000D02*
X211956000Y-80739000D01*
X165303000Y-80454100D02*
X165303000Y-80775000D01*
X165624000Y-80133100D02*
X165303000Y-80454100D01*
X167124000Y-80133100D02*
X165624000Y-80133100D01*
X167227000Y-80175900D02*
X167124000Y-80133100D01*
X167270000Y-80218700D02*
X167227000Y-80175900D01*
X154871000Y-96295500D02*
X154421100Y-96295500D01*
X155627000Y-96608700D02*
X154871000Y-96295500D01*
X155754000Y-96608700D02*
X155627000Y-96608700D01*
X156211000Y-96419200D02*
X155754000Y-96608700D01*
X156400000Y-95961900D02*
X156211000Y-96419200D01*
X156400000Y-95859400D02*
X156400000Y-95961900D01*
X156586000Y-95412800D02*
X156400000Y-95859400D01*
X157032000Y-95227800D02*
X156586000Y-95412800D01*
X173374000Y-95227800D02*
X157032000Y-95227800D01*
X154421100Y-96295500D02*
X154421000Y-96295500D01*
%TO.N,/BCLK*%
X150489000Y-95295300D02*
X150488900Y-95295300D01*
X93815600Y-95646200D02*
X93464600Y-95997200D01*
X94662800Y-95295300D02*
X93815600Y-95646200D01*
X150488900Y-95295300D02*
X94662800Y-95295300D01*
%TO.N,Net-(U1-PDMCLK4_GPO4)*%
X165653000Y-112155000D02*
X165653000Y-112476000D01*
X165974000Y-111834000D02*
X165653000Y-112155000D01*
X166811000Y-111834000D02*
X165974000Y-111834000D01*
X166953000Y-111893000D02*
X166811000Y-111834000D01*
X167012000Y-112035000D02*
X166953000Y-111893000D01*
X167012000Y-112464000D02*
X167012000Y-112035000D01*
X166650000Y-113338000D02*
X167012000Y-112464000D01*
X166492000Y-113496000D02*
X166650000Y-113338000D01*
X165237000Y-114016000D02*
X166492000Y-113496000D01*
X158559000Y-114016000D02*
X165237000Y-114016000D01*
X210812000Y-112463000D02*
X212265000Y-112463000D01*
X209910000Y-112089000D02*
X210812000Y-112463000D01*
X209007000Y-111715000D02*
X209910000Y-112089000D01*
X203836000Y-111715000D02*
X209007000Y-111715000D01*
X201251000Y-110645000D02*
X203836000Y-111715000D01*
X198667000Y-109574000D02*
X201251000Y-110645000D01*
X167043000Y-109574000D02*
X198667000Y-109574000D01*
X166642000Y-109740000D02*
X167043000Y-109574000D01*
X166476000Y-109906000D02*
X166642000Y-109740000D01*
X154271000Y-93079100D02*
X153705300Y-93079100D01*
X154902000Y-92817500D02*
X154271000Y-93079100D01*
X155164000Y-92555900D02*
X154902000Y-92817500D01*
X153705300Y-93079100D02*
X153705000Y-93079100D01*
%TO.N,Net-(U1-SDOUT)*%
X150375000Y-90720900D02*
X150375000Y-90675000D01*
X150343000Y-90799300D02*
X150375000Y-90720900D01*
X149434000Y-91708100D02*
X150343000Y-90799300D01*
X147161000Y-92649400D02*
X149434000Y-91708100D01*
X140014000Y-92649400D02*
X147161000Y-92649400D01*
X136224000Y-91079900D02*
X140014000Y-92649400D01*
X134655000Y-89510400D02*
X136224000Y-91079900D01*
X149870000Y-94795100D02*
X150488900Y-94795100D01*
X149781000Y-94758100D02*
X149870000Y-94795100D01*
X149692000Y-94721000D02*
X149781000Y-94758100D01*
X134831000Y-94721000D02*
X149692000Y-94721000D01*
X150488900Y-94795100D02*
X150489000Y-94795100D01*
%TO.N,Net-(U1-PDMDIN4_GPI4)*%
X168833000Y-112588000D02*
X168831000Y-112594000D01*
X168819000Y-112583000D02*
X168833000Y-112588000D01*
X217675000Y-112493000D02*
X217619000Y-112437000D01*
X217731000Y-112437000D02*
X217675000Y-112493000D01*
X217619000Y-112437000D02*
X217731000Y-112437000D01*
X171019000Y-112645000D02*
X171075000Y-112701000D01*
X170883000Y-112588000D02*
X171019000Y-112645000D01*
X168833000Y-112588000D02*
X170883000Y-112588000D01*
X217619000Y-112437000D02*
X215537000Y-112437000D01*
X217731000Y-112437000D02*
X217787000Y-112437000D01*
X217675000Y-114450000D02*
X217675000Y-112493000D01*
X168805000Y-112577000D02*
X167618000Y-112577000D01*
X168819000Y-112583000D02*
X168805000Y-112577000D01*
X169395900Y-115023800D02*
X169396000Y-115023800D01*
X169372100Y-115000000D02*
X169395900Y-115023800D01*
X169087500Y-115000000D02*
X169372100Y-115000000D01*
X169088000Y-114279000D02*
X169396000Y-115023800D01*
X169088000Y-113037000D02*
X169088000Y-114279000D01*
X168956000Y-112720000D02*
X169088000Y-113037000D01*
X168831000Y-112594000D02*
X168956000Y-112720000D01*
X216890000Y-115235000D02*
X217675000Y-114450000D01*
X214996000Y-116019000D02*
X216890000Y-115235000D01*
X170827000Y-116019000D02*
X214996000Y-116019000D01*
X169597000Y-115510000D02*
X170827000Y-116019000D01*
X169396000Y-115023800D02*
X169597000Y-115510000D01*
X154421000Y-93794900D02*
X154421100Y-93794900D01*
X160702000Y-86350100D02*
X161523000Y-86350100D01*
X159300000Y-86930700D02*
X160702000Y-86350100D01*
X156691000Y-89539500D02*
X159300000Y-86930700D01*
X155849000Y-91572800D02*
X156691000Y-89539500D01*
X155849000Y-92228800D02*
X155849000Y-91572800D01*
X155470000Y-93142300D02*
X155849000Y-92228800D01*
X155189000Y-93423800D02*
X155470000Y-93142300D01*
X155092000Y-93657800D02*
X155189000Y-93423800D01*
X154955000Y-93794900D02*
X155092000Y-93657800D01*
X154421100Y-93794900D02*
X154955000Y-93794900D01*
X168831000Y-112594000D02*
X168825000Y-112588500D01*
X168825000Y-112588500D02*
X168819000Y-112583000D01*
%TO.N,Net-(J2-Pin_1)*%
X187544000Y-84188600D02*
X170857000Y-84188600D01*
X188236000Y-84475000D02*
X187544000Y-84188600D01*
X189150000Y-84475000D02*
X188236000Y-84475000D01*
X213046000Y-78957800D02*
X213046000Y-79063000D01*
X212972000Y-78778100D02*
X213046000Y-78957800D01*
X212803000Y-78609400D02*
X212972000Y-78778100D01*
X212216000Y-78366400D02*
X212803000Y-78609400D01*
X211614000Y-78366400D02*
X212216000Y-78366400D01*
X211464000Y-78428700D02*
X211614000Y-78366400D01*
X211402000Y-78491000D02*
X211464000Y-78428700D01*
X215146000Y-80911300D02*
X215326000Y-80836900D01*
X214204000Y-80911300D02*
X215146000Y-80911300D01*
X213597000Y-82565800D02*
X215326000Y-80836900D01*
X209749000Y-84159600D02*
X213597000Y-82565800D01*
X190805000Y-84159600D02*
X209749000Y-84159600D01*
X190425000Y-84317300D02*
X190805000Y-84159600D01*
X190044000Y-84475000D02*
X190425000Y-84317300D01*
X189150000Y-84475000D02*
X190044000Y-84475000D01*
X166125000Y-78546900D02*
X166125000Y-79099000D01*
X166035000Y-78457100D02*
X166125000Y-78546900D01*
X165882000Y-78393600D02*
X166035000Y-78457100D01*
X165728000Y-78239700D02*
X165882000Y-78393600D01*
X168162000Y-81064600D02*
X168478000Y-80749000D01*
X167401000Y-81380100D02*
X168162000Y-81064600D01*
X166875000Y-81380100D02*
X167401000Y-81380100D01*
X215326000Y-80836500D02*
X215326000Y-80836900D01*
X215400000Y-80762500D02*
X215326000Y-80836500D01*
%TO.N,Net-(U1-PDMDIN1_GPI1)*%
X216895000Y-78937500D02*
X216397000Y-79435900D01*
X169458000Y-79806100D02*
X169360000Y-79707600D01*
X169557000Y-79707600D02*
X169458000Y-79806100D01*
X215898000Y-78937500D02*
X216895000Y-78937500D01*
X169360000Y-79707600D02*
X169557000Y-79707600D01*
X169714000Y-79707600D02*
X169557000Y-79707600D01*
X170150000Y-79527000D02*
X169714000Y-79707600D01*
X170803000Y-78874000D02*
X170150000Y-79527000D01*
X169192000Y-79638000D02*
X168478000Y-78924000D01*
X169360000Y-79707600D02*
X169192000Y-79638000D01*
X217604000Y-78937500D02*
X216895000Y-78937500D01*
X217619000Y-78931200D02*
X217604000Y-78937500D01*
X217625000Y-78925000D02*
X217619000Y-78931200D01*
X215048000Y-78585000D02*
X215898000Y-78937500D01*
X214276000Y-77813400D02*
X215048000Y-78585000D01*
X211562000Y-76689200D02*
X214276000Y-77813400D01*
X194415000Y-76689200D02*
X211562000Y-76689200D01*
X173389000Y-80388700D02*
X191427000Y-80388700D01*
X171560000Y-79631400D02*
X173389000Y-80388700D01*
X170803000Y-78874000D02*
X171560000Y-79631400D01*
X167506000Y-77952100D02*
X168478000Y-78924000D01*
X165160000Y-76980100D02*
X167506000Y-77952100D01*
X159582000Y-76980100D02*
X165160000Y-76980100D01*
X215907800Y-78947200D02*
X215907800Y-78947300D01*
X215409700Y-78947200D02*
X215907800Y-78947200D01*
X215400000Y-78937500D02*
X215409700Y-78947200D01*
X216397000Y-79435900D02*
X215907800Y-78947300D01*
X215907800Y-78947300D02*
X215898000Y-78937500D01*
X153728700Y-97034700D02*
X153728700Y-97034900D01*
X153705300Y-97011300D02*
X153728700Y-97034700D01*
X153761000Y-97067200D02*
X153728700Y-97034900D01*
X153896000Y-97123200D02*
X153761000Y-97067200D01*
X154440000Y-97123200D02*
X153896000Y-97123200D01*
X153728700Y-97034900D02*
X153705000Y-97011300D01*
X169100000Y-82340000D02*
X168920000Y-82519500D01*
X169458000Y-81473300D02*
X169100000Y-82340000D01*
X169458000Y-79806100D02*
X169458000Y-81473300D01*
X168920000Y-82519500D02*
X168740500Y-82699000D01*
X168920000Y-82519500D02*
X168740000Y-82699000D01*
X215662500Y-82700000D02*
X215662300Y-82699800D01*
X216030000Y-82332800D02*
X215662300Y-82699800D01*
X216397000Y-81446300D02*
X216030000Y-82332800D01*
X216397000Y-79435900D02*
X216397000Y-81446300D01*
X215662300Y-82699800D02*
X215662000Y-82700000D01*
%TO.N,Net-(J2-Pin_4)*%
X213755000Y-110612000D02*
X213711000Y-110656000D01*
X213711000Y-110568000D02*
X213755000Y-110612000D01*
X213711000Y-110656000D02*
X213711000Y-110568000D01*
X213680000Y-110730000D02*
X213711000Y-110656000D01*
X213668000Y-110743000D02*
X213680000Y-110730000D01*
X213562000Y-110787000D02*
X213668000Y-110743000D01*
X213087000Y-110787000D02*
X213562000Y-110787000D01*
X213755000Y-110612000D02*
X215537000Y-110612000D01*
X213711000Y-110466000D02*
X213711000Y-110568000D01*
X213608000Y-110218000D02*
X213711000Y-110466000D01*
X211940000Y-108550000D02*
X213608000Y-110218000D01*
X208093000Y-106956000D02*
X211940000Y-108550000D01*
X195047000Y-106956000D02*
X208093000Y-106956000D01*
X168807000Y-110782000D02*
X168825000Y-110763500D01*
X168763000Y-110800000D02*
X168807000Y-110782000D01*
X166475000Y-110800000D02*
X168763000Y-110800000D01*
X176233000Y-110064000D02*
X176318000Y-110148000D01*
X176029000Y-109979000D02*
X176233000Y-110064000D01*
X170164000Y-109979000D02*
X176029000Y-109979000D01*
X169217000Y-110371000D02*
X170164000Y-109979000D01*
X168843000Y-110745000D02*
X169217000Y-110371000D01*
X168825000Y-110763500D02*
X168843000Y-110745000D01*
%TO.N,Net-(J2-Pin_3)*%
X129827000Y-113807000D02*
X130242000Y-112806000D01*
X130656000Y-113807000D02*
X129827000Y-113807000D01*
X130242000Y-112806000D02*
X130656000Y-113807000D01*
X82986100Y-112612000D02*
X83151500Y-112544000D01*
X83123100Y-112612000D02*
X82986100Y-112612000D01*
X83151500Y-112544000D02*
X83123100Y-112612000D01*
X126465000Y-115253000D02*
X126678000Y-114738000D01*
X126891000Y-115253000D02*
X126465000Y-115253000D01*
X126678000Y-114738000D02*
X126891000Y-115253000D01*
X83151500Y-112544000D02*
X83591500Y-112544000D01*
X82820700Y-112681000D02*
X81078500Y-112681000D01*
X82986100Y-112612000D02*
X82820700Y-112681000D01*
X127176000Y-113133000D02*
X127790000Y-112518000D01*
X126678000Y-114335000D02*
X127176000Y-113133000D01*
X126678000Y-114738000D02*
X126678000Y-114335000D01*
X135988000Y-116885000D02*
X185451000Y-116885000D01*
X132140000Y-115291000D02*
X135988000Y-116885000D01*
X130656000Y-113807000D02*
X132140000Y-115291000D01*
X126895000Y-115256000D02*
X126891000Y-115253000D01*
X127418000Y-115473000D02*
X126895000Y-115256000D01*
X127636000Y-115473000D02*
X127418000Y-115473000D01*
X128532000Y-115102000D02*
X127636000Y-115473000D01*
X129827000Y-113807000D02*
X128532000Y-115102000D01*
X125950000Y-115466000D02*
X126465000Y-115253000D01*
X86943500Y-115466000D02*
X125950000Y-115466000D01*
X84977400Y-114651000D02*
X86943500Y-115466000D01*
X84228300Y-113902000D02*
X84977400Y-114651000D01*
X84163000Y-113745000D02*
X84228300Y-113902000D01*
X84097700Y-113587000D02*
X84163000Y-113745000D01*
X83123100Y-112612000D02*
X84097700Y-113587000D01*
X130241500Y-112447300D02*
X130241500Y-112219000D01*
X130242000Y-112447800D02*
X130241500Y-112447300D01*
X130242000Y-112806000D02*
X130242000Y-112447800D01*
X130242000Y-112447800D02*
X130242000Y-112219000D01*
X127790500Y-112518500D02*
X127790000Y-112518000D01*
%TO.N,Net-(U1-PDMDIN3_GPI3)*%
X79439100Y-114195000D02*
X78978500Y-114656000D01*
X79899600Y-113084000D02*
X79439100Y-114195000D01*
X79899600Y-112642000D02*
X79899600Y-113084000D01*
X79376600Y-111379000D02*
X79899600Y-112642000D01*
X78853500Y-110856000D02*
X79376600Y-111379000D01*
X81078500Y-110856000D02*
X78853500Y-110856000D01*
X83015900Y-108919000D02*
X81078500Y-110856000D01*
X86863700Y-107325000D02*
X83015900Y-108919000D01*
X125691000Y-107325000D02*
X86863700Y-107325000D01*
X152429000Y-85628000D02*
X128679000Y-85628000D01*
X154868000Y-86638200D02*
X152429000Y-85628000D01*
X155801000Y-87571600D02*
X154868000Y-86638200D01*
X155878000Y-87757100D02*
X155801000Y-87571600D01*
X155878000Y-87865700D02*
X155878000Y-87757100D01*
X127790500Y-110693500D02*
X127790000Y-110694000D01*
X127590300Y-114480800D02*
X127590300Y-114480700D01*
X127590500Y-114481000D02*
X127590300Y-114480800D01*
X128244000Y-113827000D02*
X127590300Y-114480700D01*
X128799000Y-112487000D02*
X128244000Y-113827000D01*
X128799000Y-112416000D02*
X128799000Y-112487000D01*
X128295000Y-111198000D02*
X128799000Y-112416000D01*
X127790000Y-110694000D02*
X128295000Y-111198000D01*
X127590300Y-114480700D02*
X127590000Y-114481000D01*
X125565500Y-110681000D02*
X125565500Y-110687000D01*
X154421000Y-94795100D02*
X154421100Y-94795100D01*
X155259000Y-94155100D02*
X155809000Y-93605000D01*
X155092000Y-94558700D02*
X155259000Y-94155100D01*
X154856000Y-94795100D02*
X155092000Y-94558700D01*
X154421100Y-94795100D02*
X154856000Y-94795100D01*
X125572000Y-110687000D02*
X125565500Y-110687000D01*
X125587000Y-110694000D02*
X125572000Y-110687000D01*
X127790000Y-110694000D02*
X125587000Y-110694000D01*
X124689000Y-111443000D02*
X124574000Y-111443000D01*
X124885000Y-111362000D02*
X124689000Y-111443000D01*
X125559000Y-110687000D02*
X124885000Y-111362000D01*
X125565500Y-110687000D02*
X125559000Y-110687000D01*
%TO.N,Net-(J2-Pin_2)*%
X127902000Y-77796200D02*
X127818000Y-77593400D01*
X128021000Y-77677400D02*
X127902000Y-77796200D01*
X127818000Y-77593400D02*
X128021000Y-77677400D01*
X129840000Y-80813000D02*
X130328000Y-80813000D01*
X129757000Y-80847500D02*
X129840000Y-80813000D01*
X129673000Y-80882000D02*
X129757000Y-80847500D01*
X129330000Y-80882000D02*
X129673000Y-80882000D01*
X127902000Y-77796200D02*
X127902000Y-78975000D01*
X82910300Y-80787000D02*
X83576000Y-80787000D01*
X82857400Y-80808900D02*
X82910300Y-80787000D01*
X82835500Y-80830800D02*
X82857400Y-80808900D01*
X128673000Y-77677400D02*
X128021000Y-77677400D01*
X129140000Y-77484100D02*
X128673000Y-77677400D01*
X129333000Y-77290900D02*
X129140000Y-77484100D01*
X129772000Y-76852100D02*
X129333000Y-77290900D01*
X130831000Y-76413200D02*
X129772000Y-76852100D01*
X184980000Y-76413200D02*
X130831000Y-76413200D01*
X185313000Y-76551200D02*
X184980000Y-76413200D01*
X185451000Y-76689200D02*
X185313000Y-76551200D01*
X127615000Y-77509400D02*
X83586700Y-77509400D01*
X127818000Y-77593400D02*
X127615000Y-77509400D01*
X81610600Y-79025000D02*
X81150000Y-79025000D01*
X82396800Y-78699300D02*
X81610600Y-79025000D01*
X83586700Y-77509400D02*
X82396800Y-78699300D01*
%TO.N,/SDOUT*%
X91254600Y-89675400D02*
X87390000Y-93540000D01*
X95102400Y-88081600D02*
X91254600Y-89675400D01*
X149063000Y-88081600D02*
X95102400Y-88081600D01*
X149991000Y-88465800D02*
X149063000Y-88081600D01*
X150375000Y-88850000D02*
X149991000Y-88465800D01*
%TO.N,/SCL_MOSI*%
X151705000Y-92699700D02*
X151705000Y-93079100D01*
X151437000Y-92052000D02*
X151705000Y-92699700D01*
X151392000Y-92007200D02*
X151437000Y-92052000D01*
X150709000Y-91724300D02*
X151392000Y-92007200D01*
X150308000Y-91724300D02*
X150709000Y-91724300D01*
X146329000Y-96531900D02*
X146607000Y-96254100D01*
X145659000Y-96809700D02*
X146329000Y-96531900D01*
X94282200Y-96809700D02*
X145659000Y-96809700D01*
X91863200Y-97811600D02*
X94282200Y-96809700D01*
X90861300Y-98813600D02*
X91863200Y-97811600D01*
X150258000Y-87514700D02*
X148562000Y-87514700D01*
X150287000Y-87502600D02*
X150258000Y-87514700D01*
X150299000Y-87490600D02*
X150287000Y-87502600D01*
X151704800Y-93079100D02*
X151705000Y-93079100D01*
%TO.N,/SHDNZ*%
X153205000Y-92743600D02*
X153205000Y-93079100D01*
X153541000Y-92408200D02*
X153205000Y-92743600D01*
X153696000Y-92408200D02*
X153541000Y-92408200D01*
X154535000Y-92060800D02*
X153696000Y-92408200D01*
X154731000Y-91865400D02*
X154535000Y-92060800D01*
X155274000Y-90554800D02*
X154731000Y-91865400D01*
X155274000Y-88494400D02*
X155274000Y-90554800D01*
X154653000Y-86995400D02*
X155274000Y-88494400D01*
X153154000Y-86374500D02*
X154653000Y-86995400D01*
X86847000Y-86374500D02*
X153154000Y-86374500D01*
X153205200Y-93079100D02*
X153205000Y-93079100D01*
%TO.N,/SDA_SSZ*%
X151204700Y-92911600D02*
X151204700Y-93079100D01*
X151205000Y-92911300D02*
X151204700Y-92911600D01*
X151205000Y-92743600D02*
X151205000Y-92911300D01*
X150869000Y-92408200D02*
X151205000Y-92743600D01*
X150092000Y-92408200D02*
X150869000Y-92408200D01*
X148472000Y-93079000D02*
X150092000Y-92408200D01*
X96342800Y-93079000D02*
X148472000Y-93079000D01*
X91755400Y-94979200D02*
X96342800Y-93079000D01*
X85138800Y-94979200D02*
X91755400Y-94979200D01*
X84934600Y-94894600D02*
X85138800Y-94979200D01*
X84850000Y-94810000D02*
X84934600Y-94894600D01*
X151205000Y-92911300D02*
X151205000Y-93079100D01*
%TO.N,Net-(U1-DREG)*%
X146097300Y-91647300D02*
X146097300Y-91643600D01*
X146100000Y-91650000D02*
X146097300Y-91647300D01*
X146112000Y-91637500D02*
X146097300Y-91643600D01*
X146125000Y-91607300D02*
X146112000Y-91637500D01*
X146125000Y-89075000D02*
X146125000Y-91607300D01*
X146082000Y-91650000D02*
X143676000Y-91650000D01*
X146097300Y-91643600D02*
X146082000Y-91650000D01*
X147880000Y-96295500D02*
X150488900Y-96295500D01*
X147146000Y-95991400D02*
X147880000Y-96295500D01*
X146412000Y-95687200D02*
X147146000Y-95991400D01*
X143938000Y-95687200D02*
X146412000Y-95687200D01*
X143712000Y-95780600D02*
X143938000Y-95687200D01*
X143619000Y-95873900D02*
X143712000Y-95780600D01*
X150488900Y-96295500D02*
X150489000Y-96295500D01*
%TO.N,Net-(U1-VREF)*%
X152204900Y-97120300D02*
X152204900Y-97011300D01*
X152205000Y-97120400D02*
X152204900Y-97120300D01*
X152205000Y-97229600D02*
X152205000Y-97120400D01*
X152359000Y-97602400D02*
X152205000Y-97229600D01*
X152509000Y-97752600D02*
X152359000Y-97602400D01*
X153245000Y-98057100D02*
X152509000Y-97752600D01*
X155046000Y-98057100D02*
X153245000Y-98057100D01*
X157640000Y-96982700D02*
X155046000Y-98057100D01*
X158165000Y-96982700D02*
X157640000Y-96982700D01*
X159321000Y-96503900D02*
X158165000Y-96982700D01*
X159800000Y-96025000D02*
X159321000Y-96503900D01*
X152205000Y-97120400D02*
X152205000Y-97011300D01*
%TO.N,+3.3V*%
X186437000Y-100943000D02*
X186505000Y-100915000D01*
X186505000Y-100971000D02*
X186437000Y-100943000D01*
X186505000Y-100915000D02*
X186505000Y-100971000D01*
X149964000Y-93794900D02*
X149672000Y-93794900D01*
X186578000Y-100797000D02*
X187300000Y-100797000D01*
X186533000Y-100842000D02*
X186578000Y-100797000D01*
X186533000Y-100847000D02*
X186533000Y-100842000D01*
X186505000Y-100915000D02*
X186533000Y-100847000D01*
X186917000Y-102697000D02*
X187300000Y-102697000D01*
X186533000Y-102314000D02*
X186917000Y-102697000D01*
X186533000Y-101039000D02*
X186533000Y-102314000D01*
X186505000Y-100971000D02*
X186533000Y-101039000D01*
X149964000Y-93794900D02*
X150489000Y-93794900D01*
X97119400Y-93794900D02*
X149672000Y-93794900D01*
X93271600Y-95388700D02*
X97119400Y-93794900D01*
X90977300Y-97683000D02*
X93271600Y-95388700D01*
X88715100Y-98620000D02*
X90977300Y-97683000D01*
X87390000Y-98620000D02*
X88715100Y-98620000D01*
X149612000Y-93588400D02*
X149715000Y-93691600D01*
X149612000Y-93588300D02*
X149612000Y-93588400D01*
X149672000Y-93794900D02*
X149715000Y-93691600D01*
X149715000Y-93691600D02*
X149964000Y-93794900D01*
X183901900Y-97784500D02*
X183902000Y-97784500D01*
X183911400Y-97775000D02*
X183901900Y-97784500D01*
X183925000Y-97775000D02*
X183911400Y-97775000D01*
X183879000Y-97728600D02*
X183902000Y-97784500D01*
X183767000Y-97682200D02*
X183879000Y-97728600D01*
X159073000Y-97682200D02*
X183767000Y-97682200D01*
X184299000Y-100943000D02*
X186437000Y-100943000D01*
X184123000Y-100870000D02*
X184299000Y-100943000D01*
X184112000Y-100860000D02*
X184123000Y-100870000D01*
X184050000Y-100797000D02*
X184112000Y-100860000D01*
X183988000Y-100734000D02*
X184050000Y-100797000D01*
X183925000Y-100584000D02*
X183988000Y-100734000D01*
X183925000Y-97840600D02*
X183925000Y-100584000D01*
X183902000Y-97784500D02*
X183925000Y-97840600D01*
X152525000Y-88225000D02*
X152500000Y-88200000D01*
X152550000Y-88285400D02*
X152525000Y-88225000D01*
X152550000Y-90600000D02*
X152550000Y-88285400D01*
X151631000Y-87625400D02*
X151336000Y-87625400D01*
X152134000Y-87833700D02*
X151631000Y-87625400D01*
X152475000Y-88175000D02*
X152134000Y-87833700D01*
X152500000Y-88200000D02*
X152475000Y-88175000D01*
%TO.N,Net-(U1-AREG)*%
X158157000Y-98622500D02*
X157455000Y-97920200D01*
X159118000Y-99020200D02*
X158157000Y-98622500D01*
X159680000Y-99020200D02*
X159118000Y-99020200D01*
X151704800Y-97178800D02*
X151704800Y-97011300D01*
X151705000Y-97179000D02*
X151704800Y-97178800D01*
X151705000Y-97346800D02*
X151705000Y-97179000D01*
X151942000Y-97919400D02*
X151705000Y-97346800D01*
X152076000Y-98053100D02*
X151942000Y-97919400D01*
X152971000Y-98424000D02*
X152076000Y-98053100D01*
X156595000Y-98424000D02*
X152971000Y-98424000D01*
X157203000Y-98172100D02*
X156595000Y-98424000D01*
X157455000Y-97920200D02*
X157203000Y-98172100D01*
X151705000Y-97179000D02*
X151705000Y-97011300D01*
%TO.N,Net-(U1-MICBIAS)*%
X157361000Y-96045200D02*
X157430000Y-96045200D01*
X157243000Y-96094100D02*
X157361000Y-96045200D01*
X156469000Y-96867700D02*
X157243000Y-96094100D01*
X154484000Y-97690200D02*
X156469000Y-96867700D01*
X153219000Y-97690200D02*
X154484000Y-97690200D01*
X153209000Y-97686200D02*
X153219000Y-97690200D01*
X153205000Y-97676500D02*
X153209000Y-97686200D01*
X153205000Y-97011300D02*
X153205000Y-97676500D01*
X153205200Y-97011300D02*
X153205000Y-97011300D01*
%TO.N,+1V8*%
X165613000Y-110720000D02*
X165653000Y-110681000D01*
X165653000Y-110760000D02*
X165613000Y-110720000D01*
X163607000Y-110785000D02*
X163561000Y-110674000D01*
X163672000Y-110720000D02*
X163607000Y-110785000D01*
X163561000Y-110674000D02*
X163672000Y-110720000D01*
X87396300Y-110226000D02*
X87806700Y-110056000D01*
X87636700Y-110467000D02*
X87396300Y-110226000D01*
X87806700Y-110056000D02*
X87636700Y-110467000D01*
X163194000Y-79222700D02*
X163107000Y-79011500D01*
X163318000Y-79099000D02*
X163194000Y-79222700D01*
X163107000Y-79011500D02*
X163318000Y-79099000D01*
X95811000Y-110004000D02*
X95692600Y-109886000D01*
X95929400Y-109886000D02*
X95811000Y-110004000D01*
X206503000Y-80213900D02*
X206883000Y-79295100D01*
X207264000Y-80213900D02*
X206503000Y-80213900D01*
X206883000Y-79295100D02*
X207264000Y-80213900D01*
X133807000Y-112219000D02*
X133942000Y-112084000D01*
X133942000Y-112354000D02*
X133807000Y-112219000D01*
X135266000Y-109888000D02*
X134864000Y-108920000D01*
X135667000Y-108920000D02*
X135266000Y-109888000D01*
X134864000Y-108920000D02*
X135667000Y-108920000D01*
X163265000Y-112309000D02*
X163607000Y-111483000D01*
X163949000Y-112309000D02*
X163265000Y-112309000D01*
X163607000Y-111483000D02*
X163949000Y-112309000D01*
X165653000Y-110681000D02*
X165653000Y-110760000D01*
X95692600Y-109886000D02*
X95929400Y-109886000D01*
X133942000Y-112084000D02*
X133942000Y-112354000D01*
X196085000Y-108184000D02*
X192085000Y-108184000D01*
X193050000Y-100797000D02*
X190050000Y-100797000D01*
X133942000Y-111999000D02*
X133942000Y-112084000D01*
X134097000Y-111624000D02*
X133942000Y-111999000D01*
X135266000Y-110456000D02*
X134097000Y-111624000D01*
X159854000Y-77821300D02*
X159782000Y-77821300D01*
X159976000Y-77871800D02*
X159854000Y-77821300D01*
X161028000Y-78924000D02*
X159976000Y-77871800D01*
X193025000Y-97922000D02*
X193000000Y-97897000D01*
X193050000Y-97982400D02*
X193025000Y-97922000D01*
X193050000Y-100797000D02*
X193050000Y-97982400D01*
X193568000Y-101315000D02*
X193050000Y-100797000D01*
X194085000Y-102564000D02*
X193568000Y-101315000D01*
X194085000Y-106184000D02*
X194085000Y-102564000D01*
X88092100Y-111970000D02*
X88678500Y-112556000D01*
X87636700Y-110870000D02*
X88092100Y-111970000D01*
X87636700Y-110467000D02*
X87636700Y-110870000D01*
X83912400Y-110226000D02*
X87396300Y-110226000D01*
X83591500Y-110547000D02*
X83912400Y-110226000D01*
X83591500Y-110868000D02*
X83591500Y-110547000D01*
X165653000Y-110760000D02*
X165653000Y-110800000D01*
X164208000Y-112568000D02*
X163949000Y-112309000D01*
X165540000Y-113120000D02*
X164208000Y-112568000D01*
X166212000Y-113120000D02*
X165540000Y-113120000D01*
X166398000Y-113043000D02*
X166212000Y-113120000D01*
X166475000Y-112857000D02*
X166398000Y-113043000D01*
X166475000Y-112476000D02*
X166475000Y-112857000D01*
X168630000Y-108184000D02*
X192085000Y-108184000D01*
X166525000Y-109056000D02*
X168630000Y-108184000D01*
X165734000Y-109846000D02*
X166525000Y-109056000D01*
X165653000Y-110043000D02*
X165734000Y-109846000D01*
X165653000Y-110681000D02*
X165653000Y-110043000D01*
X165613000Y-110720000D02*
X163672000Y-110720000D01*
X163450000Y-110628000D02*
X162679000Y-110628000D01*
X163561000Y-110674000D02*
X163450000Y-110628000D01*
X163607000Y-110785000D02*
X163607000Y-111483000D01*
X213087000Y-112784000D02*
X213087000Y-112463000D01*
X212766000Y-113105000D02*
X213087000Y-112784000D01*
X210033000Y-113105000D02*
X212766000Y-113105000D01*
X209781000Y-113001000D02*
X210033000Y-113105000D01*
X209677000Y-112896000D02*
X209781000Y-113001000D01*
X88217100Y-109886000D02*
X95692600Y-109886000D01*
X87806700Y-110056000D02*
X88217100Y-109886000D01*
X206073000Y-80594500D02*
X206024000Y-80594500D01*
X206157000Y-80559600D02*
X206073000Y-80594500D01*
X206503000Y-80213900D02*
X206157000Y-80559600D01*
X207264000Y-80213900D02*
X207900000Y-80850000D01*
X206883000Y-78802800D02*
X206883000Y-79295100D01*
X207152000Y-78154300D02*
X206883000Y-78802800D01*
X207800000Y-77885700D02*
X207152000Y-78154300D01*
X212472000Y-77885700D02*
X207800000Y-77885700D01*
X213260000Y-78212100D02*
X212472000Y-77885700D01*
X213586000Y-79000300D02*
X213260000Y-78212100D01*
X213586000Y-79174600D02*
X213586000Y-79000300D01*
X213316000Y-79826900D02*
X213586000Y-79174600D01*
X213273000Y-79870200D02*
X213316000Y-79826900D01*
X213046000Y-80418100D02*
X213273000Y-79870200D01*
X213046000Y-80739000D02*
X213046000Y-80418100D01*
X133807000Y-112219000D02*
X131064000Y-112219000D01*
X160672000Y-92898400D02*
X159368000Y-92898400D01*
X160674000Y-92899200D02*
X160672000Y-92898400D01*
X160675000Y-92900000D02*
X160674000Y-92899200D01*
X86713200Y-81828700D02*
X87638300Y-81828700D01*
X85455800Y-81307900D02*
X86713200Y-81828700D01*
X85124700Y-80976800D02*
X85455800Y-81307900D01*
X84666400Y-80787000D02*
X85124700Y-80976800D01*
X84398000Y-80787000D02*
X84666400Y-80787000D01*
X163318000Y-79099000D02*
X165303000Y-79099000D01*
X162895000Y-78924000D02*
X161028000Y-78924000D01*
X163107000Y-79011500D02*
X162895000Y-78924000D01*
X163194000Y-79684500D02*
X163194000Y-79222700D01*
X163608000Y-80684000D02*
X163194000Y-79684500D01*
X163768000Y-80843400D02*
X163608000Y-80684000D01*
X165152000Y-81416900D02*
X163768000Y-80843400D01*
X165804000Y-81416900D02*
X165152000Y-81416900D01*
X166125000Y-81095900D02*
X165804000Y-81416900D01*
X166125000Y-80775000D02*
X166125000Y-81095900D01*
X122038000Y-98347700D02*
X95811000Y-98347700D01*
X125886000Y-99941500D02*
X122038000Y-98347700D01*
X134864000Y-108920000D02*
X125886000Y-99941500D01*
X151205000Y-97346800D02*
X151205000Y-97011300D01*
X150869000Y-97682200D02*
X151205000Y-97346800D01*
X149054000Y-97682200D02*
X150869000Y-97682200D01*
X145384000Y-99202700D02*
X149054000Y-97682200D01*
X135667000Y-108920000D02*
X145384000Y-99202700D01*
X135266000Y-110456000D02*
X135266000Y-109888000D01*
X95811000Y-110123000D02*
X95811000Y-110093000D01*
X95811000Y-110123000D02*
X95811000Y-110093000D01*
X95811000Y-110123000D02*
X95811000Y-110093000D01*
X95811000Y-110093000D02*
X95811000Y-110004000D01*
X192085000Y-108184000D02*
X194085000Y-106184000D01*
X194085000Y-106184000D02*
X196085000Y-108184000D01*
X135265500Y-110456000D02*
X135266000Y-110456000D01*
X151204700Y-97011300D02*
X151205000Y-97011300D01*
X135656800Y-79018200D02*
X135656800Y-78760100D01*
X135650000Y-79025000D02*
X135656800Y-79018200D01*
X135385000Y-78760100D02*
X135656800Y-78760100D01*
X134745000Y-78495100D02*
X135385000Y-78760100D01*
X130649000Y-78495100D02*
X134745000Y-78495100D01*
X130328000Y-78816100D02*
X130649000Y-78495100D01*
X130328000Y-79137000D02*
X130328000Y-78816100D01*
X137705000Y-77821300D02*
X159782000Y-77821300D01*
X136252000Y-78423100D02*
X137705000Y-77821300D01*
X135915000Y-78760100D02*
X136252000Y-78423100D01*
X135656800Y-78760100D02*
X135915000Y-78760100D01*
X161398900Y-112769100D02*
X161398900Y-112769000D01*
X161398900Y-112699900D02*
X161398900Y-112769100D01*
X161350000Y-112651000D02*
X161398900Y-112699900D01*
X161684000Y-112651000D02*
X161398900Y-112769000D01*
X162439000Y-112651000D02*
X161684000Y-112651000D01*
X163265000Y-112309000D02*
X162439000Y-112651000D01*
X134038000Y-112585000D02*
X133942000Y-112354000D01*
X134259000Y-112807000D02*
X134038000Y-112585000D01*
X135025000Y-113124000D02*
X134259000Y-112807000D01*
X160543000Y-113124000D02*
X135025000Y-113124000D01*
X161114000Y-112887000D02*
X160543000Y-113124000D01*
X161398900Y-112769000D02*
X161114000Y-112887000D01*
X131063500Y-112219000D02*
X131064000Y-112219000D01*
X207962000Y-110612000D02*
X207962000Y-110556000D01*
X129973000Y-110543000D02*
X130241500Y-110543000D01*
X129515000Y-110353000D02*
X129973000Y-110543000D01*
X129376000Y-110215000D02*
X129515000Y-110353000D01*
X128583000Y-109886000D02*
X129376000Y-110215000D01*
X95929400Y-109886000D02*
X128583000Y-109886000D01*
X130241500Y-110543000D02*
X130242000Y-110543000D01*
X88805300Y-79130300D02*
X88650000Y-78975000D01*
X89180200Y-79285600D02*
X88805300Y-79130300D01*
X92823000Y-79285600D02*
X89180200Y-79285600D01*
X83576000Y-78629600D02*
X83576000Y-79111000D01*
X83736400Y-78469100D02*
X83576000Y-78629600D01*
X87786400Y-78469100D02*
X83736400Y-78469100D01*
X88397100Y-78722100D02*
X87786400Y-78469100D01*
X88650000Y-78975000D02*
X88397100Y-78722100D01*
X207906000Y-110556000D02*
X207962000Y-110556000D01*
X206748000Y-109398000D02*
X207906000Y-110556000D01*
X203817000Y-108184000D02*
X206748000Y-109398000D01*
X196085000Y-108184000D02*
X203817000Y-108184000D01*
X208153000Y-110500000D02*
X210731000Y-110500000D01*
X208018000Y-110556000D02*
X208153000Y-110500000D01*
X207962000Y-110556000D02*
X208018000Y-110556000D01*
X157350300Y-92274700D02*
X157662000Y-92274700D01*
X157350000Y-92275000D02*
X157350300Y-92274700D01*
X157662000Y-92586700D02*
X157662000Y-92274700D01*
X158414000Y-92898400D02*
X157662000Y-92586700D01*
X159368000Y-92898400D02*
X158414000Y-92898400D01*
X158758000Y-91450000D02*
X159525000Y-91450000D01*
X157762000Y-91862500D02*
X158758000Y-91450000D01*
X157662000Y-91963300D02*
X157762000Y-91862500D01*
X157662000Y-92274700D02*
X157662000Y-91963300D01*
%TO.N,GND*%
X172429000Y-112512000D02*
X172072000Y-112869000D01*
X172072000Y-112155000D02*
X172429000Y-112512000D01*
X214250000Y-113193000D02*
X214321000Y-113021000D01*
X214421000Y-113122000D02*
X214250000Y-113193000D01*
X214321000Y-113021000D02*
X214421000Y-113122000D01*
X162102000Y-85696700D02*
X160102000Y-83696700D01*
X164102000Y-83696700D02*
X162102000Y-85696700D01*
X214321000Y-112558000D02*
X214028000Y-111850000D01*
X214614000Y-111850000D02*
X214321000Y-112558000D01*
X214028000Y-111850000D02*
X214614000Y-111850000D01*
X152357000Y-92075200D02*
X152229000Y-91766500D01*
X152538000Y-91894400D02*
X152357000Y-92075200D01*
X152229000Y-91766500D02*
X152538000Y-91894400D01*
X152189000Y-108515000D02*
X153604000Y-105101000D01*
X155018000Y-108515000D02*
X152189000Y-108515000D01*
X153604000Y-105101000D02*
X155018000Y-108515000D01*
X152455000Y-93875100D02*
X152330000Y-93750000D01*
X152580000Y-93750000D02*
X152455000Y-93875100D01*
X160417000Y-90375000D02*
X160530000Y-90327900D01*
X160483000Y-90441600D02*
X160417000Y-90375000D01*
X160530000Y-90327900D02*
X160483000Y-90441600D01*
X80604100Y-115470000D02*
X80803500Y-114989000D01*
X81085600Y-115271000D02*
X80604100Y-115470000D01*
X80803500Y-114989000D02*
X81085600Y-115271000D01*
X148405000Y-89835400D02*
X148025000Y-90215600D01*
X148025000Y-89455200D02*
X148405000Y-89835400D01*
X89891100Y-112581000D02*
X89671400Y-112801000D01*
X89671400Y-112361000D02*
X89891100Y-112581000D01*
X131157000Y-80860200D02*
X131150000Y-80863100D01*
X131150000Y-80843100D02*
X131157000Y-80860200D01*
X172072000Y-112869000D02*
X172072000Y-112155000D01*
X160102000Y-83696700D02*
X164102000Y-83696700D01*
X184364000Y-103325000D02*
X183736000Y-103325000D01*
X152330000Y-93750000D02*
X152580000Y-93750000D01*
X148025000Y-90215600D02*
X148025000Y-89455200D01*
X89671400Y-112801000D02*
X89671400Y-112361000D01*
X131150000Y-80863100D02*
X131150000Y-80843100D01*
X89341900Y-111319000D02*
X88678500Y-110656000D01*
X89671400Y-112115000D02*
X89341900Y-111319000D01*
X89671400Y-112361000D02*
X89671400Y-112115000D01*
X191428000Y-101747000D02*
X187300000Y-101747000D01*
X192575000Y-102222000D02*
X191428000Y-101747000D01*
X193050000Y-102697000D02*
X192575000Y-102222000D01*
X79412200Y-79787200D02*
X78650000Y-79025000D01*
X80101600Y-81451600D02*
X79412200Y-79787200D01*
X80101600Y-82038800D02*
X80101600Y-81451600D01*
X80375800Y-82700800D02*
X80101600Y-82038800D01*
X80650000Y-82975000D02*
X80375800Y-82700800D01*
X192736000Y-103011000D02*
X193050000Y-102697000D01*
X191978000Y-103325000D02*
X192736000Y-103011000D01*
X184364000Y-103325000D02*
X191978000Y-103325000D01*
X167182000Y-104919000D02*
X161350000Y-110751000D01*
X171030000Y-103325000D02*
X167182000Y-104919000D01*
X183736000Y-103325000D02*
X171030000Y-103325000D01*
X148025000Y-89455200D02*
X148025000Y-89075000D01*
X148012000Y-91637500D02*
X148000000Y-91650000D01*
X148025000Y-91607300D02*
X148012000Y-91637500D01*
X148025000Y-90215600D02*
X148025000Y-91607300D01*
X152357000Y-92148500D02*
X152357000Y-92075200D01*
X152281000Y-92332100D02*
X152357000Y-92148500D01*
X152205000Y-92515800D02*
X152281000Y-92332100D01*
X152205000Y-93624900D02*
X152205000Y-92515800D01*
X152330000Y-93750000D02*
X152205000Y-93624900D01*
X151823000Y-91360700D02*
X152229000Y-91766500D01*
X151558000Y-90720600D02*
X151823000Y-91360700D01*
X151558000Y-90706500D02*
X151558000Y-90720600D01*
X151303000Y-90090600D02*
X151558000Y-90706500D01*
X150687000Y-89835400D02*
X151303000Y-90090600D01*
X148405000Y-89835400D02*
X150687000Y-89835400D01*
X160417000Y-90375000D02*
X157350000Y-90375000D01*
X160530000Y-90555300D02*
X160483000Y-90441600D01*
X161425000Y-91450000D02*
X160530000Y-90555300D01*
X149595000Y-80824000D02*
X161028000Y-80824000D01*
X149423000Y-80925000D02*
X135650000Y-80925000D01*
X149544000Y-80874500D02*
X149423000Y-80925000D01*
X149595000Y-80824000D02*
X149544000Y-80874500D01*
X84413500Y-113062000D02*
X84413500Y-112544000D01*
X84571700Y-113444000D02*
X84413500Y-113062000D01*
X84729900Y-113602000D02*
X84571700Y-113444000D01*
X80122500Y-115670000D02*
X80604100Y-115470000D01*
X78760800Y-115670000D02*
X80122500Y-115670000D01*
X78320900Y-115488000D02*
X78760800Y-115670000D01*
X78138600Y-115048000D02*
X78320900Y-115488000D01*
X78138600Y-113976000D02*
X78138600Y-115048000D01*
X78496100Y-113113000D02*
X78138600Y-113976000D01*
X78853500Y-112756000D02*
X78496100Y-113113000D01*
X80803500Y-114989000D02*
X80803500Y-114656000D01*
X82067800Y-115271000D02*
X81085600Y-115271000D01*
X83302400Y-115782000D02*
X82067800Y-115271000D01*
X83813800Y-116294000D02*
X83302400Y-115782000D01*
X79787400Y-77887600D02*
X78650000Y-79025000D01*
X82428300Y-76793700D02*
X79787400Y-77887600D01*
X83975300Y-76793700D02*
X82428300Y-76793700D01*
X207956000Y-79006500D02*
X207900000Y-78950000D01*
X208093000Y-79063000D02*
X207956000Y-79006500D01*
X209535000Y-79063000D02*
X208093000Y-79063000D01*
X212224000Y-79063000D02*
X209535000Y-79063000D01*
X217277000Y-111047000D02*
X217787000Y-110537000D01*
X216046000Y-111557000D02*
X217277000Y-111047000D01*
X215321000Y-111557000D02*
X216046000Y-111557000D01*
X214614000Y-111850000D02*
X215321000Y-111557000D01*
X214321000Y-113021000D02*
X214321000Y-112558000D01*
X214593000Y-113193000D02*
X215850000Y-114450000D01*
X214421000Y-113122000D02*
X214593000Y-113193000D01*
X171819000Y-111545000D02*
X171075000Y-110801000D01*
X172072000Y-112155000D02*
X171819000Y-111545000D01*
X146094000Y-112356000D02*
X135266000Y-112356000D01*
X149942000Y-110762000D02*
X146094000Y-112356000D01*
X152189000Y-108515000D02*
X149942000Y-110762000D01*
X161293000Y-89565400D02*
X160530000Y-90327900D01*
X162102000Y-87610900D02*
X161293000Y-89565400D01*
X162102000Y-85696700D02*
X162102000Y-87610900D01*
X131150000Y-81154000D02*
X131150000Y-80863100D01*
X130937000Y-81667700D02*
X131150000Y-81154000D01*
X130471000Y-82133900D02*
X130937000Y-81667700D01*
X128832000Y-82813000D02*
X130471000Y-82133900D01*
X127402000Y-82813000D02*
X128832000Y-82813000D01*
X131186000Y-80889100D02*
X131157000Y-80860200D01*
X131273000Y-80925000D02*
X131186000Y-80889100D01*
X135650000Y-80925000D02*
X131273000Y-80925000D01*
X137036000Y-82310900D02*
X135650000Y-80925000D01*
X140382000Y-83696700D02*
X137036000Y-82310900D01*
X160102000Y-83696700D02*
X140382000Y-83696700D01*
X153604000Y-99820200D02*
X157455000Y-99820200D01*
X159302000Y-110751000D02*
X161350000Y-110751000D01*
X155806000Y-109303000D02*
X159302000Y-110751000D01*
X155018000Y-108515000D02*
X155806000Y-109303000D01*
X131150000Y-80813000D02*
X131150000Y-80843100D01*
X183736000Y-103325000D02*
X184050000Y-103011000D01*
X184050000Y-103011000D02*
X184364000Y-103325000D01*
X207860900Y-112613100D02*
X207860900Y-112756200D01*
X207962000Y-112512000D02*
X207860900Y-112613100D01*
X208450000Y-113000000D02*
X207860900Y-112756200D01*
X209630000Y-113489000D02*
X208450000Y-113000000D01*
X213694000Y-113489000D02*
X209630000Y-113489000D01*
X214137000Y-113305000D02*
X213694000Y-113489000D01*
X214250000Y-113193000D02*
X214137000Y-113305000D01*
X207271000Y-112512000D02*
X172429000Y-112512000D01*
X207860900Y-112756200D02*
X207271000Y-112512000D01*
X170447000Y-82817800D02*
X170565500Y-82699000D01*
X170067000Y-83197900D02*
X170447000Y-82817800D01*
X168862000Y-83696700D02*
X170067000Y-83197900D01*
X164102000Y-83696700D02*
X168862000Y-83696700D01*
X170803000Y-82293600D02*
X170803000Y-80774000D01*
X170684000Y-82580200D02*
X170803000Y-82293600D01*
X170565500Y-82699000D02*
X170684000Y-82580200D01*
X86125100Y-80875000D02*
X88650000Y-80875000D01*
X86032900Y-80913200D02*
X86125100Y-80875000D01*
X85994700Y-80951400D02*
X86032900Y-80913200D01*
X88650000Y-80875000D02*
X125402000Y-80875000D01*
X160026000Y-94125000D02*
X159800000Y-94125000D01*
X160411000Y-93965400D02*
X160026000Y-94125000D01*
X160894000Y-93482400D02*
X160411000Y-93965400D01*
X161425000Y-92200800D02*
X160894000Y-93482400D01*
X161425000Y-91450000D02*
X161425000Y-92200800D01*
X157440000Y-94135100D02*
X157430000Y-94145200D01*
X157464000Y-94125000D02*
X157440000Y-94135100D01*
X159800000Y-94125000D02*
X157464000Y-94125000D01*
X217556000Y-82631200D02*
X217487500Y-82700000D01*
X217625000Y-82465300D02*
X217556000Y-82631200D01*
X217625000Y-80825000D02*
X217625000Y-82465300D01*
X214028000Y-84726500D02*
X209355000Y-84726500D01*
X216474000Y-83713200D02*
X214028000Y-84726500D01*
X217419000Y-82768800D02*
X216474000Y-83713200D01*
X217487500Y-82700000D02*
X217419000Y-82768800D01*
X152705100Y-96241800D02*
X152705100Y-97011300D01*
X152705000Y-96241700D02*
X152705100Y-96241800D01*
X152705000Y-97011300D02*
X152705000Y-96241700D01*
X125765500Y-113878700D02*
X125765500Y-114481000D01*
X125766000Y-113878200D02*
X125765500Y-113878700D01*
X125766000Y-113878200D02*
X125766000Y-114481000D01*
X152491600Y-95045200D02*
X152517500Y-95019300D01*
X152455000Y-95045200D02*
X152491600Y-95045200D01*
X152580000Y-95170200D02*
X152517500Y-95019300D01*
X152705000Y-95472100D02*
X152580000Y-95170200D01*
X152705000Y-96241700D02*
X152705000Y-95472100D01*
X152455000Y-94868400D02*
X152455000Y-93875100D01*
X152517500Y-95019300D02*
X152455000Y-94868400D01*
X152705100Y-93079100D02*
X152705000Y-93079100D01*
X152204900Y-93079100D02*
X152204900Y-93750000D01*
X152705000Y-93624900D02*
X152705000Y-93079100D01*
X152580000Y-93750000D02*
X152705000Y-93624900D01*
X152330000Y-93750000D02*
X152204900Y-93750000D01*
X154450000Y-90600000D02*
X154425000Y-90600000D01*
X154425000Y-90625000D02*
X154425000Y-90600000D01*
X153438000Y-91612100D02*
X154425000Y-90625000D01*
X152756000Y-91894400D02*
X153438000Y-91612100D01*
X152538000Y-91894400D02*
X152756000Y-91894400D01*
X170912500Y-115000000D02*
X170912300Y-114999800D01*
X171602000Y-114311000D02*
X170912300Y-114999800D01*
X172072000Y-113176000D02*
X171602000Y-114311000D01*
X172072000Y-112869000D02*
X172072000Y-113176000D01*
X170912300Y-114999800D02*
X170912000Y-115000000D01*
X184050000Y-102697000D02*
X183893000Y-102854000D01*
X184050000Y-103011000D02*
X183893000Y-102854000D01*
X135265500Y-112356000D02*
X135266000Y-112356000D01*
X163663000Y-101103000D02*
X161580000Y-99020200D01*
X167511000Y-102697000D02*
X163663000Y-101103000D01*
X183736000Y-102697000D02*
X167511000Y-102697000D01*
X183893000Y-102854000D02*
X183736000Y-102697000D01*
X125544900Y-112630900D02*
X125544900Y-112631000D01*
X125544900Y-112601600D02*
X125544900Y-112630900D01*
X125565500Y-112581000D02*
X125544900Y-112601600D01*
X125424000Y-112581000D02*
X125544900Y-112631000D01*
X89891100Y-112581000D02*
X125424000Y-112581000D01*
X125766000Y-112922000D02*
X125766000Y-113878200D01*
X125666000Y-112681000D02*
X125766000Y-112922000D01*
X125544900Y-112631000D02*
X125666000Y-112681000D01*
X153604000Y-103723100D02*
X153604000Y-102947200D01*
X153604000Y-102947200D02*
X153604000Y-99820200D01*
X153604000Y-105101000D02*
X153604000Y-104610400D01*
X153604000Y-104610400D02*
X153604000Y-103723100D01*
X154400000Y-90514600D02*
X154400000Y-90207300D01*
X154425000Y-90575000D02*
X154400000Y-90514600D01*
X154425000Y-90600000D02*
X154425000Y-90575000D01*
X154400000Y-90207300D02*
X154400000Y-89900100D01*
X154400000Y-90207300D02*
X154400000Y-88849900D01*
X154029000Y-87953500D02*
X154400000Y-88849900D01*
X153699000Y-87624200D02*
X154029000Y-87953500D01*
X152008000Y-86923700D02*
X153699000Y-87624200D01*
X147032000Y-86923700D02*
X152008000Y-86923700D01*
X146732000Y-87048200D02*
X147032000Y-86923700D01*
X146607000Y-87172700D02*
X146732000Y-87048200D01*
X154400000Y-88849900D02*
X154400000Y-88200000D01*
X84864600Y-112544000D02*
X84580400Y-112544000D01*
X85011000Y-112605000D02*
X84864600Y-112544000D01*
X85340400Y-112934000D02*
X85011000Y-112605000D01*
X86281800Y-113324000D02*
X85340400Y-112934000D01*
X89153100Y-113324000D02*
X86281800Y-113324000D01*
X89519600Y-113172000D02*
X89153100Y-113324000D01*
X89671400Y-112806000D02*
X89519600Y-113172000D01*
X89671400Y-112801000D02*
X89671400Y-112806000D01*
X84580400Y-112544000D02*
X84413500Y-112544000D01*
X213101000Y-111429000D02*
X212457400Y-111429000D01*
X213964000Y-111786000D02*
X213101000Y-111429000D01*
X214028000Y-111850000D02*
X213964000Y-111786000D01*
X212457400Y-111429000D02*
X212452900Y-111429000D01*
X212305000Y-111388000D02*
X212281000Y-111329800D01*
X212403000Y-111429000D02*
X212305000Y-111388000D01*
X212452900Y-111429000D02*
X212403000Y-111429000D01*
X212265000Y-111291000D02*
X212265000Y-110787000D01*
X212281000Y-111329800D02*
X212265000Y-111291000D01*
%TD*%
M02*
