%TF.GenerationSoftware,KiCad,Pcbnew,9.0.6*%
%TF.CreationDate,2026-01-10T21:11:38+01:00*%
%TF.ProjectId,_autosave-sisterboard_A,5f617574-6f73-4617-9665-2d7369737465,1.0*%
%TF.SameCoordinates,Original*%
%TF.FileFunction,Paste,Top*%
%TF.FilePolarity,Positive*%
%FSLAX46Y46*%
G04 Gerber Fmt 4.6, Leading zero omitted, Abs format (unit mm)*
G04 Created by KiCad (PCBNEW 9.0.6) date 2026-01-10 21:11:38*
%MOMM*%
%LPD*%
G01*
G04 APERTURE LIST*
G04 Aperture macros list*
%AMRoundRect*
0 Rectangle with rounded corners*
0 $1 Rounding radius*
0 $2 $3 $4 $5 $6 $7 $8 $9 X,Y pos of 4 corners*
0 Add a 4 corners polygon primitive as box body*
4,1,4,$2,$3,$4,$5,$6,$7,$8,$9,$2,$3,0*
0 Add four circle primitives for the rounded corners*
1,1,$1+$1,$2,$3*
1,1,$1+$1,$4,$5*
1,1,$1+$1,$6,$7*
1,1,$1+$1,$8,$9*
0 Add four rect primitives between the rounded corners*
20,1,$1+$1,$2,$3,$4,$5,0*
20,1,$1+$1,$4,$5,$6,$7,0*
20,1,$1+$1,$6,$7,$8,$9,0*
20,1,$1+$1,$8,$9,$2,$3,0*%
G04 Aperture macros list end*
%ADD10C,0.000000*%
%ADD11C,0.290000*%
%ADD12RoundRect,0.250000X0.250000X0.475000X-0.250000X0.475000X-0.250000X-0.475000X0.250000X-0.475000X0*%
%ADD13RoundRect,0.250000X-0.450000X0.262500X-0.450000X-0.262500X0.450000X-0.262500X0.450000X0.262500X0*%
%ADD14RoundRect,0.250000X-0.250000X-0.475000X0.250000X-0.475000X0.250000X0.475000X-0.250000X0.475000X0*%
%ADD15R,2.794000X2.794000*%
%ADD16R,0.807999X0.254800*%
%ADD17R,0.254800X0.807999*%
%ADD18RoundRect,0.250000X0.262500X0.450000X-0.262500X0.450000X-0.262500X-0.450000X0.262500X-0.450000X0*%
%ADD19RoundRect,0.250000X0.450000X-0.262500X0.450000X0.262500X-0.450000X0.262500X-0.450000X-0.262500X0*%
%ADD20RoundRect,0.250000X0.475000X-0.250000X0.475000X0.250000X-0.475000X0.250000X-0.475000X-0.250000X0*%
%ADD21RoundRect,0.250000X-0.475000X0.250000X-0.475000X-0.250000X0.475000X-0.250000X0.475000X0.250000X0*%
%ADD22RoundRect,0.250000X-0.262500X-0.450000X0.262500X-0.450000X0.262500X0.450000X-0.262500X0.450000X0*%
%ADD23R,1.000001X0.599999*%
G04 APERTURE END LIST*
D10*
%TO.C,U9*%
G36*
X212456646Y-110487219D02*
G01*
X212484778Y-110515350D01*
X212500003Y-110552104D01*
X212500003Y-111021894D01*
X212484778Y-111058647D01*
X212456646Y-111086775D01*
X212419893Y-111102000D01*
X212400003Y-111102000D01*
X212129996Y-111101997D01*
X212110106Y-111101997D01*
X212073353Y-111086775D01*
X212045225Y-111058644D01*
X212030000Y-111021891D01*
X212030000Y-110571997D01*
X212030004Y-110552107D01*
X212045225Y-110515354D01*
X212073353Y-110487222D01*
X212110106Y-110471997D01*
X212130000Y-110471997D01*
X212400003Y-110471994D01*
X212419893Y-110471994D01*
X212456646Y-110487219D01*
G37*
G36*
X212456646Y-112163221D02*
G01*
X212484778Y-112191350D01*
X212500003Y-112228106D01*
X212500003Y-112697890D01*
X212484778Y-112734643D01*
X212456646Y-112762775D01*
X212419893Y-112778000D01*
X212110106Y-112778000D01*
X212073353Y-112762775D01*
X212045225Y-112734643D01*
X212030000Y-112697890D01*
X212030000Y-112248000D01*
X212030004Y-112228106D01*
X212045225Y-112191350D01*
X212073353Y-112163221D01*
X212110106Y-112148000D01*
X212419893Y-112148000D01*
X212456646Y-112163221D01*
G37*
G36*
X213278646Y-112163221D02*
G01*
X213306778Y-112191350D01*
X213322000Y-112228106D01*
X213322000Y-112697890D01*
X213306778Y-112734643D01*
X213278646Y-112762775D01*
X213241893Y-112778000D01*
X212932106Y-112778000D01*
X212895353Y-112762775D01*
X212867221Y-112734643D01*
X212852000Y-112697890D01*
X212852000Y-112228106D01*
X212867221Y-112191350D01*
X212895353Y-112163221D01*
X212932106Y-112148000D01*
X213241893Y-112148000D01*
X213278646Y-112163221D01*
G37*
G36*
X213278646Y-110487222D02*
G01*
X213306778Y-110515354D01*
X213322000Y-110552107D01*
X213322000Y-111021894D01*
X213306778Y-111058647D01*
X213278646Y-111086775D01*
X213241893Y-111102000D01*
X212932106Y-111102000D01*
X212895353Y-111086775D01*
X212867221Y-111058647D01*
X212852000Y-111021894D01*
X212852000Y-110552107D01*
X212867221Y-110515354D01*
X212895353Y-110487222D01*
X212932106Y-110471997D01*
X213241893Y-110471997D01*
X213278646Y-110487222D01*
G37*
D11*
X211657319Y-111857540D02*
G75*
G02*
X210835710Y-112286657I-644319J232540D01*
G01*
X210892226Y-110950732D02*
G75*
G02*
X211674660Y-111447710I120775J-674268D01*
G01*
X210489454Y-112066728D02*
G75*
G02*
X210528632Y-111140632I523548J441728D01*
G01*
D10*
%TO.C,U8*%
G36*
X165844646Y-110500219D02*
G01*
X165872778Y-110528350D01*
X165888003Y-110565104D01*
X165888003Y-111034894D01*
X165872778Y-111071647D01*
X165844646Y-111099775D01*
X165807893Y-111115000D01*
X165788003Y-111115000D01*
X165517996Y-111114997D01*
X165498106Y-111114997D01*
X165461353Y-111099775D01*
X165433225Y-111071644D01*
X165418000Y-111034891D01*
X165418000Y-110584997D01*
X165418004Y-110565107D01*
X165433225Y-110528354D01*
X165461353Y-110500222D01*
X165498106Y-110484997D01*
X165518000Y-110484997D01*
X165788003Y-110484994D01*
X165807893Y-110484994D01*
X165844646Y-110500219D01*
G37*
G36*
X165844646Y-112176221D02*
G01*
X165872778Y-112204350D01*
X165888003Y-112241106D01*
X165888003Y-112710890D01*
X165872778Y-112747643D01*
X165844646Y-112775775D01*
X165807893Y-112791000D01*
X165498106Y-112791000D01*
X165461353Y-112775775D01*
X165433225Y-112747643D01*
X165418000Y-112710890D01*
X165418000Y-112261000D01*
X165418004Y-112241106D01*
X165433225Y-112204350D01*
X165461353Y-112176221D01*
X165498106Y-112161000D01*
X165807893Y-112161000D01*
X165844646Y-112176221D01*
G37*
G36*
X166666646Y-112176221D02*
G01*
X166694778Y-112204350D01*
X166710000Y-112241106D01*
X166710000Y-112710890D01*
X166694778Y-112747643D01*
X166666646Y-112775775D01*
X166629893Y-112791000D01*
X166320106Y-112791000D01*
X166283353Y-112775775D01*
X166255221Y-112747643D01*
X166240000Y-112710890D01*
X166240000Y-112241106D01*
X166255221Y-112204350D01*
X166283353Y-112176221D01*
X166320106Y-112161000D01*
X166629893Y-112161000D01*
X166666646Y-112176221D01*
G37*
G36*
X166666646Y-110500222D02*
G01*
X166694778Y-110528354D01*
X166710000Y-110565107D01*
X166710000Y-111034894D01*
X166694778Y-111071647D01*
X166666646Y-111099775D01*
X166629893Y-111115000D01*
X166320106Y-111115000D01*
X166283353Y-111099775D01*
X166255221Y-111071647D01*
X166240000Y-111034894D01*
X166240000Y-110565107D01*
X166255221Y-110528354D01*
X166283353Y-110500222D01*
X166320106Y-110484997D01*
X166629893Y-110484997D01*
X166666646Y-110500222D01*
G37*
D11*
X165045319Y-111870540D02*
G75*
G02*
X164223710Y-112299657I-644319J232540D01*
G01*
X164280226Y-110963732D02*
G75*
G02*
X165062660Y-111460710I120775J-674268D01*
G01*
X163877454Y-112079728D02*
G75*
G02*
X163916632Y-111153632I523548J441728D01*
G01*
D10*
%TO.C,U5*%
G36*
X131285004Y-80498003D02*
G01*
X131304894Y-80498003D01*
X131341647Y-80513225D01*
X131369775Y-80541356D01*
X131385000Y-80578109D01*
X131385000Y-81028003D01*
X131384996Y-81047893D01*
X131369775Y-81084646D01*
X131341647Y-81112778D01*
X131304894Y-81128003D01*
X131285000Y-81128003D01*
X131014997Y-81128006D01*
X130995107Y-81128006D01*
X130958354Y-81112781D01*
X130930222Y-81084650D01*
X130914997Y-81047896D01*
X130914997Y-80578106D01*
X130930222Y-80541353D01*
X130958354Y-80513225D01*
X130995107Y-80498000D01*
X131014997Y-80498000D01*
X131285004Y-80498003D01*
G37*
G36*
X131341647Y-78837225D02*
G01*
X131369775Y-78865357D01*
X131385000Y-78902110D01*
X131385000Y-79352000D01*
X131384996Y-79371894D01*
X131369775Y-79408650D01*
X131341647Y-79436779D01*
X131304894Y-79452000D01*
X130995107Y-79452000D01*
X130958354Y-79436779D01*
X130930222Y-79408650D01*
X130914997Y-79371894D01*
X130914997Y-78902110D01*
X130930222Y-78865357D01*
X130958354Y-78837225D01*
X130995107Y-78822000D01*
X131304894Y-78822000D01*
X131341647Y-78837225D01*
G37*
G36*
X130519647Y-80513225D02*
G01*
X130547779Y-80541353D01*
X130563000Y-80578106D01*
X130563000Y-81047893D01*
X130547779Y-81084646D01*
X130519647Y-81112778D01*
X130482894Y-81128003D01*
X130173107Y-81128003D01*
X130136354Y-81112778D01*
X130108222Y-81084646D01*
X130093000Y-81047893D01*
X130093000Y-80578106D01*
X130108222Y-80541353D01*
X130136354Y-80513225D01*
X130173107Y-80498000D01*
X130482894Y-80498000D01*
X130519647Y-80513225D01*
G37*
G36*
X130519647Y-78837225D02*
G01*
X130547779Y-78865357D01*
X130563000Y-78902110D01*
X130563000Y-79371894D01*
X130547779Y-79408650D01*
X130519647Y-79436779D01*
X130482894Y-79452000D01*
X130173107Y-79452000D01*
X130136354Y-79436779D01*
X130108222Y-79408650D01*
X130093000Y-79371894D01*
X130093000Y-78902110D01*
X130108222Y-78865357D01*
X130136354Y-78837225D01*
X130173107Y-78822000D01*
X130482894Y-78822000D01*
X130519647Y-78837225D01*
G37*
D11*
X132925546Y-79533272D02*
G75*
G02*
X132886368Y-80459368I-523548J-441728D01*
G01*
X132522774Y-80649268D02*
G75*
G02*
X131740340Y-80152290I-120775J674268D01*
G01*
X131757681Y-79742460D02*
G75*
G02*
X132579290Y-79313343I644319J-232540D01*
G01*
%TO.C,U2*%
X131671181Y-111148460D02*
G75*
G02*
X132492790Y-110719343I644319J-232540D01*
G01*
X132436274Y-112055268D02*
G75*
G02*
X131653840Y-111558290I-120775J674268D01*
G01*
X132839046Y-110939272D02*
G75*
G02*
X132799868Y-111865368I-523548J-441728D01*
G01*
D10*
G36*
X130433147Y-110243225D02*
G01*
X130461279Y-110271357D01*
X130476500Y-110308110D01*
X130476500Y-110777894D01*
X130461279Y-110814650D01*
X130433147Y-110842779D01*
X130396394Y-110858000D01*
X130086607Y-110858000D01*
X130049854Y-110842779D01*
X130021722Y-110814650D01*
X130006500Y-110777894D01*
X130006500Y-110308110D01*
X130021722Y-110271357D01*
X130049854Y-110243225D01*
X130086607Y-110228000D01*
X130396394Y-110228000D01*
X130433147Y-110243225D01*
G37*
G36*
X130433147Y-111919225D02*
G01*
X130461279Y-111947353D01*
X130476500Y-111984106D01*
X130476500Y-112453893D01*
X130461279Y-112490646D01*
X130433147Y-112518778D01*
X130396394Y-112534003D01*
X130086607Y-112534003D01*
X130049854Y-112518778D01*
X130021722Y-112490646D01*
X130006500Y-112453893D01*
X130006500Y-111984106D01*
X130021722Y-111947353D01*
X130049854Y-111919225D01*
X130086607Y-111904000D01*
X130396394Y-111904000D01*
X130433147Y-111919225D01*
G37*
G36*
X131255147Y-110243225D02*
G01*
X131283275Y-110271357D01*
X131298500Y-110308110D01*
X131298500Y-110758000D01*
X131298496Y-110777894D01*
X131283275Y-110814650D01*
X131255147Y-110842779D01*
X131218394Y-110858000D01*
X130908607Y-110858000D01*
X130871854Y-110842779D01*
X130843722Y-110814650D01*
X130828497Y-110777894D01*
X130828497Y-110308110D01*
X130843722Y-110271357D01*
X130871854Y-110243225D01*
X130908607Y-110228000D01*
X131218394Y-110228000D01*
X131255147Y-110243225D01*
G37*
G36*
X131198504Y-111904003D02*
G01*
X131218394Y-111904003D01*
X131255147Y-111919225D01*
X131283275Y-111947356D01*
X131298500Y-111984109D01*
X131298500Y-112434003D01*
X131298496Y-112453893D01*
X131283275Y-112490646D01*
X131255147Y-112518778D01*
X131218394Y-112534003D01*
X131198500Y-112534003D01*
X130928497Y-112534006D01*
X130908607Y-112534006D01*
X130871854Y-112518781D01*
X130843722Y-112490650D01*
X130828497Y-112453896D01*
X130828497Y-111984106D01*
X130843722Y-111947353D01*
X130871854Y-111919225D01*
X130908607Y-111904000D01*
X130928497Y-111904000D01*
X131198504Y-111904003D01*
G37*
D11*
%TO.C,U3*%
X85021181Y-111473460D02*
G75*
G02*
X85842790Y-111044343I644319J-232540D01*
G01*
X85786274Y-112380268D02*
G75*
G02*
X85003840Y-111883290I-120775J674268D01*
G01*
X86189046Y-111264272D02*
G75*
G02*
X86149868Y-112190368I-523548J-441728D01*
G01*
D10*
G36*
X83783147Y-110568225D02*
G01*
X83811279Y-110596357D01*
X83826500Y-110633110D01*
X83826500Y-111102894D01*
X83811279Y-111139650D01*
X83783147Y-111167779D01*
X83746394Y-111183000D01*
X83436607Y-111183000D01*
X83399854Y-111167779D01*
X83371722Y-111139650D01*
X83356500Y-111102894D01*
X83356500Y-110633110D01*
X83371722Y-110596357D01*
X83399854Y-110568225D01*
X83436607Y-110553000D01*
X83746394Y-110553000D01*
X83783147Y-110568225D01*
G37*
G36*
X83783147Y-112244225D02*
G01*
X83811279Y-112272353D01*
X83826500Y-112309106D01*
X83826500Y-112778893D01*
X83811279Y-112815646D01*
X83783147Y-112843778D01*
X83746394Y-112859003D01*
X83436607Y-112859003D01*
X83399854Y-112843778D01*
X83371722Y-112815646D01*
X83356500Y-112778893D01*
X83356500Y-112309106D01*
X83371722Y-112272353D01*
X83399854Y-112244225D01*
X83436607Y-112229000D01*
X83746394Y-112229000D01*
X83783147Y-112244225D01*
G37*
G36*
X84605147Y-110568225D02*
G01*
X84633275Y-110596357D01*
X84648500Y-110633110D01*
X84648500Y-111083000D01*
X84648496Y-111102894D01*
X84633275Y-111139650D01*
X84605147Y-111167779D01*
X84568394Y-111183000D01*
X84258607Y-111183000D01*
X84221854Y-111167779D01*
X84193722Y-111139650D01*
X84178497Y-111102894D01*
X84178497Y-110633110D01*
X84193722Y-110596357D01*
X84221854Y-110568225D01*
X84258607Y-110553000D01*
X84568394Y-110553000D01*
X84605147Y-110568225D01*
G37*
G36*
X84548504Y-112229003D02*
G01*
X84568394Y-112229003D01*
X84605147Y-112244225D01*
X84633275Y-112272356D01*
X84648500Y-112309109D01*
X84648500Y-112759003D01*
X84648496Y-112778893D01*
X84633275Y-112815646D01*
X84605147Y-112843778D01*
X84568394Y-112859003D01*
X84548500Y-112859003D01*
X84278497Y-112859006D01*
X84258607Y-112859006D01*
X84221854Y-112843781D01*
X84193722Y-112815650D01*
X84178497Y-112778896D01*
X84178497Y-112309106D01*
X84193722Y-112272353D01*
X84221854Y-112244225D01*
X84258607Y-112229000D01*
X84278497Y-112229000D01*
X84548504Y-112229003D01*
G37*
D11*
%TO.C,U7*%
X210448454Y-80342728D02*
G75*
G02*
X210487632Y-79416632I523548J441728D01*
G01*
X210851226Y-79226732D02*
G75*
G02*
X211633660Y-79723710I120775J-674268D01*
G01*
X211616319Y-80133540D02*
G75*
G02*
X210794710Y-80562657I-644319J232540D01*
G01*
D10*
G36*
X213237646Y-78763222D02*
G01*
X213265778Y-78791354D01*
X213281000Y-78828107D01*
X213281000Y-79297894D01*
X213265778Y-79334647D01*
X213237646Y-79362775D01*
X213200893Y-79378000D01*
X212891106Y-79378000D01*
X212854353Y-79362775D01*
X212826221Y-79334647D01*
X212811000Y-79297894D01*
X212811000Y-78828107D01*
X212826221Y-78791354D01*
X212854353Y-78763222D01*
X212891106Y-78747997D01*
X213200893Y-78747997D01*
X213237646Y-78763222D01*
G37*
G36*
X213237646Y-80439221D02*
G01*
X213265778Y-80467350D01*
X213281000Y-80504106D01*
X213281000Y-80973890D01*
X213265778Y-81010643D01*
X213237646Y-81038775D01*
X213200893Y-81054000D01*
X212891106Y-81054000D01*
X212854353Y-81038775D01*
X212826221Y-81010643D01*
X212811000Y-80973890D01*
X212811000Y-80504106D01*
X212826221Y-80467350D01*
X212854353Y-80439221D01*
X212891106Y-80424000D01*
X213200893Y-80424000D01*
X213237646Y-80439221D01*
G37*
G36*
X212415646Y-80439221D02*
G01*
X212443778Y-80467350D01*
X212459003Y-80504106D01*
X212459003Y-80973890D01*
X212443778Y-81010643D01*
X212415646Y-81038775D01*
X212378893Y-81054000D01*
X212069106Y-81054000D01*
X212032353Y-81038775D01*
X212004225Y-81010643D01*
X211989000Y-80973890D01*
X211989000Y-80524000D01*
X211989004Y-80504106D01*
X212004225Y-80467350D01*
X212032353Y-80439221D01*
X212069106Y-80424000D01*
X212378893Y-80424000D01*
X212415646Y-80439221D01*
G37*
G36*
X212415646Y-78763219D02*
G01*
X212443778Y-78791350D01*
X212459003Y-78828104D01*
X212459003Y-79297894D01*
X212443778Y-79334647D01*
X212415646Y-79362775D01*
X212378893Y-79378000D01*
X212359003Y-79378000D01*
X212088996Y-79377997D01*
X212069106Y-79377997D01*
X212032353Y-79362775D01*
X212004225Y-79334644D01*
X211989000Y-79297891D01*
X211989000Y-78847997D01*
X211989004Y-78828107D01*
X212004225Y-78791354D01*
X212032353Y-78763222D01*
X212069106Y-78747997D01*
X212089000Y-78747997D01*
X212359003Y-78747994D01*
X212378893Y-78747994D01*
X212415646Y-78763219D01*
G37*
D11*
%TO.C,U4*%
X85005681Y-79716460D02*
G75*
G02*
X85827290Y-79287343I644319J-232540D01*
G01*
X85770774Y-80623268D02*
G75*
G02*
X84988340Y-80126290I-120775J674268D01*
G01*
X86173546Y-79507272D02*
G75*
G02*
X86134368Y-80433368I-523548J-441728D01*
G01*
D10*
G36*
X83767647Y-78811225D02*
G01*
X83795779Y-78839357D01*
X83811000Y-78876110D01*
X83811000Y-79345894D01*
X83795779Y-79382650D01*
X83767647Y-79410779D01*
X83730894Y-79426000D01*
X83421107Y-79426000D01*
X83384354Y-79410779D01*
X83356222Y-79382650D01*
X83341000Y-79345894D01*
X83341000Y-78876110D01*
X83356222Y-78839357D01*
X83384354Y-78811225D01*
X83421107Y-78796000D01*
X83730894Y-78796000D01*
X83767647Y-78811225D01*
G37*
G36*
X83767647Y-80487225D02*
G01*
X83795779Y-80515353D01*
X83811000Y-80552106D01*
X83811000Y-81021893D01*
X83795779Y-81058646D01*
X83767647Y-81086778D01*
X83730894Y-81102003D01*
X83421107Y-81102003D01*
X83384354Y-81086778D01*
X83356222Y-81058646D01*
X83341000Y-81021893D01*
X83341000Y-80552106D01*
X83356222Y-80515353D01*
X83384354Y-80487225D01*
X83421107Y-80472000D01*
X83730894Y-80472000D01*
X83767647Y-80487225D01*
G37*
G36*
X84589647Y-78811225D02*
G01*
X84617775Y-78839357D01*
X84633000Y-78876110D01*
X84633000Y-79326000D01*
X84632996Y-79345894D01*
X84617775Y-79382650D01*
X84589647Y-79410779D01*
X84552894Y-79426000D01*
X84243107Y-79426000D01*
X84206354Y-79410779D01*
X84178222Y-79382650D01*
X84162997Y-79345894D01*
X84162997Y-78876110D01*
X84178222Y-78839357D01*
X84206354Y-78811225D01*
X84243107Y-78796000D01*
X84552894Y-78796000D01*
X84589647Y-78811225D01*
G37*
G36*
X84533004Y-80472003D02*
G01*
X84552894Y-80472003D01*
X84589647Y-80487225D01*
X84617775Y-80515356D01*
X84633000Y-80552109D01*
X84633000Y-81002003D01*
X84632996Y-81021893D01*
X84617775Y-81058646D01*
X84589647Y-81086778D01*
X84552894Y-81102003D01*
X84533000Y-81102003D01*
X84262997Y-81102006D01*
X84243107Y-81102006D01*
X84206354Y-81086781D01*
X84178222Y-81058650D01*
X84162997Y-81021896D01*
X84162997Y-80552106D01*
X84178222Y-80515353D01*
X84206354Y-80487225D01*
X84243107Y-80472000D01*
X84262997Y-80472000D01*
X84533004Y-80472003D01*
G37*
D11*
%TO.C,U6*%
X163527454Y-80378728D02*
G75*
G02*
X163566632Y-79452632I523548J441728D01*
G01*
X163930226Y-79262732D02*
G75*
G02*
X164712660Y-79759710I120775J-674268D01*
G01*
X164695319Y-80169540D02*
G75*
G02*
X163873710Y-80598657I-644319J232540D01*
G01*
D10*
G36*
X166316646Y-78799222D02*
G01*
X166344778Y-78827354D01*
X166360000Y-78864107D01*
X166360000Y-79333894D01*
X166344778Y-79370647D01*
X166316646Y-79398775D01*
X166279893Y-79414000D01*
X165970106Y-79414000D01*
X165933353Y-79398775D01*
X165905221Y-79370647D01*
X165890000Y-79333894D01*
X165890000Y-78864107D01*
X165905221Y-78827354D01*
X165933353Y-78799222D01*
X165970106Y-78783997D01*
X166279893Y-78783997D01*
X166316646Y-78799222D01*
G37*
G36*
X166316646Y-80475221D02*
G01*
X166344778Y-80503350D01*
X166360000Y-80540106D01*
X166360000Y-81009890D01*
X166344778Y-81046643D01*
X166316646Y-81074775D01*
X166279893Y-81090000D01*
X165970106Y-81090000D01*
X165933353Y-81074775D01*
X165905221Y-81046643D01*
X165890000Y-81009890D01*
X165890000Y-80540106D01*
X165905221Y-80503350D01*
X165933353Y-80475221D01*
X165970106Y-80460000D01*
X166279893Y-80460000D01*
X166316646Y-80475221D01*
G37*
G36*
X165494646Y-80475221D02*
G01*
X165522778Y-80503350D01*
X165538003Y-80540106D01*
X165538003Y-81009890D01*
X165522778Y-81046643D01*
X165494646Y-81074775D01*
X165457893Y-81090000D01*
X165148106Y-81090000D01*
X165111353Y-81074775D01*
X165083225Y-81046643D01*
X165068000Y-81009890D01*
X165068000Y-80560000D01*
X165068004Y-80540106D01*
X165083225Y-80503350D01*
X165111353Y-80475221D01*
X165148106Y-80460000D01*
X165457893Y-80460000D01*
X165494646Y-80475221D01*
G37*
G36*
X165494646Y-78799219D02*
G01*
X165522778Y-78827350D01*
X165538003Y-78864104D01*
X165538003Y-79333894D01*
X165522778Y-79370647D01*
X165494646Y-79398775D01*
X165457893Y-79414000D01*
X165438003Y-79414000D01*
X165167996Y-79413997D01*
X165148106Y-79413997D01*
X165111353Y-79398775D01*
X165083225Y-79370644D01*
X165068000Y-79333891D01*
X165068000Y-78883997D01*
X165068004Y-78864107D01*
X165083225Y-78827354D01*
X165111353Y-78799222D01*
X165148106Y-78783997D01*
X165168000Y-78783997D01*
X165438003Y-78783994D01*
X165457893Y-78783994D01*
X165494646Y-78799219D01*
G37*
%TD*%
D12*
%TO.C,C10*%
X152500000Y-88200000D03*
X154400000Y-88200000D03*
%TD*%
D13*
%TO.C,R1*%
X150375000Y-90675000D03*
X150375000Y-88850000D03*
%TD*%
D14*
%TO.C,C8*%
X148025000Y-89075000D03*
X146125000Y-89075000D03*
%TD*%
%TO.C,C9*%
X154450000Y-90600000D03*
X152550000Y-90600000D03*
%TD*%
D12*
%TO.C,C7*%
X146100000Y-91650000D03*
X148000000Y-91650000D03*
%TD*%
D15*
%TO.C,U1*%
X152455000Y-95045200D03*
D16*
X150488900Y-96295515D03*
X150488900Y-95795389D03*
X150488900Y-95295263D03*
X150488900Y-94795137D03*
X150488900Y-94295011D03*
X150488900Y-93794885D03*
D17*
X151204685Y-93079100D03*
X151704811Y-93079100D03*
X152204937Y-93079100D03*
X152705063Y-93079100D03*
X153205189Y-93079100D03*
X153705315Y-93079100D03*
D16*
X154421100Y-93794885D03*
X154421100Y-94295011D03*
X154421100Y-94795137D03*
X154421100Y-95295263D03*
X154421100Y-95795389D03*
X154421100Y-96295515D03*
D17*
X153705315Y-97011300D03*
X153205189Y-97011300D03*
X152705063Y-97011300D03*
X152204937Y-97011300D03*
X151704811Y-97011300D03*
X151204685Y-97011300D03*
%TD*%
D18*
%TO.C,R17*%
X215850000Y-114450000D03*
X217675000Y-114450000D03*
%TD*%
D19*
%TO.C,R15*%
X215537000Y-110612000D03*
X215537000Y-112437000D03*
%TD*%
D20*
%TO.C,C26*%
X217787000Y-110537000D03*
X217787000Y-112437000D03*
%TD*%
D21*
%TO.C,C24*%
X207962000Y-112512000D03*
X207962000Y-110612000D03*
%TD*%
%TO.C,C2*%
X157350000Y-90375000D03*
X157350000Y-92275000D03*
%TD*%
D14*
%TO.C,C1*%
X159525000Y-91450000D03*
X161425000Y-91450000D03*
%TD*%
D20*
%TO.C,C4*%
X157430000Y-96045200D03*
X157430000Y-94145200D03*
%TD*%
D12*
%TO.C,C5*%
X161580000Y-99020200D03*
X159680000Y-99020200D03*
%TD*%
D21*
%TO.C,C6*%
X157455000Y-97920200D03*
X157455000Y-99820200D03*
%TD*%
D20*
%TO.C,C3*%
X159800000Y-96025000D03*
X159800000Y-94125000D03*
%TD*%
D19*
%TO.C,R14*%
X168825000Y-110763500D03*
X168825000Y-112588500D03*
%TD*%
D21*
%TO.C,C18*%
X125402000Y-80875000D03*
X125402000Y-78975000D03*
%TD*%
D20*
%TO.C,C25*%
X171075000Y-110801000D03*
X171075000Y-112701000D03*
%TD*%
D22*
%TO.C,R16*%
X170912500Y-115000000D03*
X169087500Y-115000000D03*
%TD*%
%TO.C,R9*%
X127402000Y-82813000D03*
X125577000Y-82813000D03*
%TD*%
D13*
%TO.C,R7*%
X127902000Y-80800000D03*
X127902000Y-78975000D03*
%TD*%
D20*
%TO.C,C23*%
X161350000Y-110751000D03*
X161350000Y-112651000D03*
%TD*%
D21*
%TO.C,C16*%
X135650000Y-80925000D03*
X135650000Y-79025000D03*
%TD*%
D20*
%TO.C,C20*%
X207900000Y-80850000D03*
X207900000Y-78950000D03*
%TD*%
D21*
%TO.C,C12*%
X135265500Y-110456000D03*
X135265500Y-112356000D03*
%TD*%
D18*
%TO.C,R12*%
X170565500Y-82699000D03*
X168740500Y-82699000D03*
%TD*%
D22*
%TO.C,R13*%
X215662500Y-82700000D03*
X217487500Y-82700000D03*
%TD*%
D21*
%TO.C,C22*%
X217625000Y-78925000D03*
X217625000Y-80825000D03*
%TD*%
D19*
%TO.C,R3*%
X127790500Y-112518500D03*
X127790500Y-110693500D03*
%TD*%
D23*
%TO.C,U10*%
X187299999Y-100796999D03*
X187299999Y-101747000D03*
X187299999Y-102696998D03*
X190049999Y-102696998D03*
X190049999Y-100796999D03*
%TD*%
D22*
%TO.C,R4*%
X78978500Y-114656000D03*
X80803500Y-114656000D03*
%TD*%
D21*
%TO.C,C21*%
X170803000Y-78874000D03*
X170803000Y-80774000D03*
%TD*%
D20*
%TO.C,C17*%
X78650000Y-80925000D03*
X78650000Y-79025000D03*
%TD*%
D21*
%TO.C,C28*%
X193050000Y-100797000D03*
X193050000Y-102697000D03*
%TD*%
D19*
%TO.C,R10*%
X168478000Y-80749000D03*
X168478000Y-78924000D03*
%TD*%
D21*
%TO.C,C19*%
X161028000Y-78924000D03*
X161028000Y-80824000D03*
%TD*%
%TO.C,C13*%
X78853500Y-110856000D03*
X78853500Y-112756000D03*
%TD*%
D20*
%TO.C,C11*%
X88678500Y-112556000D03*
X88678500Y-110656000D03*
%TD*%
D21*
%TO.C,C15*%
X88650000Y-78975000D03*
X88650000Y-80875000D03*
%TD*%
D19*
%TO.C,R11*%
X215400000Y-80762500D03*
X215400000Y-78937500D03*
%TD*%
D21*
%TO.C,C14*%
X125565500Y-110681000D03*
X125565500Y-112581000D03*
%TD*%
D13*
%TO.C,R6*%
X81150000Y-79025000D03*
X81150000Y-80850000D03*
%TD*%
D19*
%TO.C,R2*%
X81078500Y-112681000D03*
X81078500Y-110856000D03*
%TD*%
D22*
%TO.C,R8*%
X78825000Y-82975000D03*
X80650000Y-82975000D03*
%TD*%
D18*
%TO.C,R5*%
X127590500Y-114481000D03*
X125765500Y-114481000D03*
%TD*%
D20*
%TO.C,C27*%
X184050000Y-102697000D03*
X184050000Y-100797000D03*
%TD*%
M02*
