%TF.GenerationSoftware,KiCad,Pcbnew,9.0.6*%
%TF.CreationDate,2026-01-10T21:11:38+01:00*%
%TF.ProjectId,_autosave-sisterboard_A,5f617574-6f73-4617-9665-2d7369737465,1.0*%
%TF.SameCoordinates,Original*%
%TF.FileFunction,Copper,L2,Bot*%
%TF.FilePolarity,Positive*%
%FSLAX46Y46*%
G04 Gerber Fmt 4.6, Leading zero omitted, Abs format (unit mm)*
G04 Created by KiCad (PCBNEW 9.0.6) date 2026-01-10 21:11:38*
%MOMM*%
%LPD*%
G01*
G04 APERTURE LIST*
G04 Aperture macros list*
%AMRoundRect*
0 Rectangle with rounded corners*
0 $1 Rounding radius*
0 $2 $3 $4 $5 $6 $7 $8 $9 X,Y pos of 4 corners*
0 Add a 4 corners polygon primitive as box body*
4,1,4,$2,$3,$4,$5,$6,$7,$8,$9,$2,$3,0*
0 Add four circle primitives for the rounded corners*
1,1,$1+$1,$2,$3*
1,1,$1+$1,$4,$5*
1,1,$1+$1,$6,$7*
1,1,$1+$1,$8,$9*
0 Add four rect primitives between the rounded corners*
20,1,$1+$1,$2,$3,$4,$5,0*
20,1,$1+$1,$4,$5,$6,$7,0*
20,1,$1+$1,$6,$7,$8,$9,0*
20,1,$1+$1,$8,$9,$2,$3,0*%
G04 Aperture macros list end*
%TA.AperFunction,ComponentPad*%
%ADD10C,2.200000*%
%TD*%
%TA.AperFunction,ComponentPad*%
%ADD11C,1.720000*%
%TD*%
%TA.AperFunction,ComponentPad*%
%ADD12C,1.600000*%
%TD*%
%TA.AperFunction,ComponentPad*%
%ADD13RoundRect,0.250000X-0.550000X0.550000X-0.550000X-0.550000X0.550000X-0.550000X0.550000X0.550000X0*%
%TD*%
%TA.AperFunction,WasherPad*%
%ADD14C,3.260000*%
%TD*%
%TA.AperFunction,ComponentPad*%
%ADD15C,1.700000*%
%TD*%
%TA.AperFunction,ComponentPad*%
%ADD16R,1.700000X1.700000*%
%TD*%
%TA.AperFunction,ViaPad*%
%ADD17C,0.600000*%
%TD*%
%TA.AperFunction,Conductor*%
%ADD18C,0.200000*%
%TD*%
G04 APERTURE END LIST*
D10*
%TO.P,J1,SH*%
%TO.N,N/C*%
X81550000Y-104510000D03*
X81550000Y-88920000D03*
D11*
%TO.P,J1,14*%
X92220000Y-102175000D03*
%TO.P,J1,13*%
X92220000Y-99635000D03*
%TO.P,J1,12*%
X92220000Y-93795000D03*
%TO.P,J1,11*%
X92220000Y-91255000D03*
D12*
%TO.P,J1,9*%
X87390000Y-101160000D03*
%TO.P,J1,8*%
%TO.N,GND*%
X84850000Y-99890000D03*
%TO.P,J1,7*%
%TO.N,+3.3V*%
X87390000Y-98620000D03*
%TO.P,J1,6*%
%TO.N,/SHDNZ*%
X84850000Y-97350000D03*
%TO.P,J1,5*%
%TO.N,/SCL_MOSI*%
X87390000Y-96080000D03*
%TO.P,J1,4*%
%TO.N,/SDA_SSZ*%
X84850000Y-94810000D03*
%TO.P,J1,3*%
%TO.N,/SDOUT*%
X87390000Y-93540000D03*
D13*
%TO.P,J1,2*%
%TO.N,/BCLK*%
X84850000Y-92270000D03*
D14*
%TO.P,J1,*%
%TO.N,*%
X78500000Y-102430000D03*
X78500000Y-91000000D03*
%TD*%
D15*
%TO.P,J2,4,Pin_4*%
%TO.N,Net-(J2-Pin_4)*%
X189150000Y-92095000D03*
%TO.P,J2,3,Pin_3*%
%TO.N,Net-(J2-Pin_3)*%
X189150000Y-89555000D03*
%TO.P,J2,2,Pin_2*%
%TO.N,Net-(J2-Pin_2)*%
X189150000Y-87015000D03*
D16*
%TO.P,J2,1,Pin_1*%
%TO.N,Net-(J2-Pin_1)*%
X189150000Y-84475000D03*
%TD*%
D17*
%TO.N,Net-(U1-PDMDIN2_GPI2)*%
X155356000Y-85323600D03*
X127782000Y-84681600D03*
X126656000Y-79322400D03*
X155797000Y-95995900D03*
%TO.N,Net-(U1-PDMLK2_GPO2)*%
X156054000Y-94381000D03*
X155547000Y-80037100D03*
%TO.N,Net-(U1-PDMLK1_GPO1)*%
X173499000Y-82986900D03*
X173374000Y-95227800D03*
X167270000Y-80218700D03*
%TO.N,/BCLK*%
X93464600Y-95997200D03*
%TO.N,Net-(U1-PDMCLK4_GPO4)*%
X158559000Y-114016000D03*
X166476000Y-109906000D03*
X155164000Y-92555900D03*
%TO.N,Net-(U1-SDOUT)*%
X134655000Y-89510400D03*
X134831000Y-94721000D03*
%TO.N,Net-(U1-PDMDIN4_GPI4)*%
X161523000Y-86350100D03*
X167618000Y-112577000D03*
%TO.N,Net-(J2-Pin_1)*%
X170857000Y-84188600D03*
X211402000Y-78491000D03*
X214204000Y-80911300D03*
X165728000Y-78239700D03*
X166875000Y-81380100D03*
%TO.N,Net-(U1-PDMDIN1_GPI1)*%
X194415000Y-76689200D03*
X191427000Y-80388700D03*
X159582000Y-76980100D03*
X154440000Y-97123200D03*
%TO.N,Net-(J2-Pin_4)*%
X176318000Y-110148000D03*
X195047000Y-106956000D03*
%TO.N,Net-(J2-Pin_3)*%
X185451000Y-116885000D03*
%TO.N,Net-(U1-PDMDIN3_GPI3)*%
X124574000Y-111443000D03*
X125691000Y-107325000D03*
X128679000Y-85628000D03*
X155878000Y-87865700D03*
X155809000Y-93605000D03*
%TO.N,Net-(J2-Pin_2)*%
X129333000Y-77290900D03*
X129330000Y-80882000D03*
X82835500Y-80830800D03*
X83586700Y-77509400D03*
X185451000Y-76689200D03*
%TO.N,/SCL_MOSI*%
X90861300Y-98813600D03*
X150308000Y-91724300D03*
X148562000Y-87514700D03*
X150299000Y-87490600D03*
X146607000Y-96254100D03*
%TO.N,/SHDNZ*%
X86847000Y-86374500D03*
%TO.N,Net-(U1-DREG)*%
X143676000Y-91650000D03*
X143619000Y-95873900D03*
%TO.N,+3.3V*%
X149612000Y-93588300D03*
X151336000Y-87625400D03*
X159073000Y-97682200D03*
%TO.N,+1V8*%
X159368000Y-92898400D03*
X159782000Y-77821300D03*
X160675000Y-92900000D03*
X162679000Y-110628000D03*
X209677000Y-112896000D03*
X210731000Y-110500000D03*
X95811000Y-110123000D03*
X92823000Y-79285600D03*
X206024000Y-80594500D03*
X87638300Y-81828700D03*
X95811000Y-98347700D03*
%TO.N,GND*%
X146607000Y-87172700D03*
X149595000Y-80824000D03*
X84729900Y-113602000D03*
X85994700Y-80951400D03*
X83813800Y-116294000D03*
X83975300Y-76793700D03*
X209355000Y-84726500D03*
X209535000Y-79063000D03*
X153604000Y-99820200D03*
%TD*%
D18*
%TO.N,Net-(U1-PDMDIN2_GPI2)*%
X127219000Y-79885100D02*
X126656000Y-79322400D01*
X127782000Y-81243700D02*
X127219000Y-79885100D01*
X127782000Y-84681600D02*
X127782000Y-81243700D01*
X156114000Y-86081000D02*
X155356000Y-85323600D01*
X156871000Y-87909500D02*
X156114000Y-86081000D01*
X156871000Y-94163000D02*
X156871000Y-87909500D01*
X156334000Y-95459100D02*
X156871000Y-94163000D01*
X155797000Y-95995900D02*
X156334000Y-95459100D01*
%TO.N,Net-(U1-PDMLK2_GPO2)*%
X155154000Y-80430400D02*
X155547000Y-80037100D01*
X154760000Y-81379900D02*
X155154000Y-80430400D01*
X154760000Y-84407300D02*
X154760000Y-81379900D01*
X155605000Y-86446200D02*
X154760000Y-84407300D01*
X156450000Y-88485200D02*
X155605000Y-86446200D01*
X156450000Y-93706500D02*
X156450000Y-88485200D01*
X156252000Y-94183400D02*
X156450000Y-93706500D01*
X156054000Y-94381000D02*
X156252000Y-94183400D01*
%TO.N,Net-(U1-PDMLK1_GPO1)*%
X173499000Y-95013700D02*
X173499000Y-82986900D01*
X173436000Y-95165100D02*
X173499000Y-95013700D01*
X173374000Y-95227800D02*
X173436000Y-95165100D01*
X169000000Y-80218700D02*
X167270000Y-80218700D01*
X171954000Y-81442200D02*
X169000000Y-80218700D01*
X173499000Y-82986900D02*
X171954000Y-81442200D01*
%TO.N,/BCLK*%
X91041200Y-92270000D02*
X84850000Y-92270000D01*
X91944600Y-92644200D02*
X91041200Y-92270000D01*
X92181900Y-92644200D02*
X91944600Y-92644200D01*
X93038800Y-92999100D02*
X92181900Y-92644200D01*
X93074200Y-93034600D02*
X93038800Y-92999100D01*
X93464600Y-93976900D02*
X93074200Y-93034600D01*
X93464600Y-95997200D02*
X93464600Y-93976900D01*
%TO.N,Net-(U1-PDMCLK4_GPO4)*%
X160099000Y-111297000D02*
X160069000Y-111224000D01*
X160142000Y-111254000D02*
X160099000Y-111297000D01*
X160069000Y-111224000D02*
X160142000Y-111254000D01*
X160099000Y-111865000D02*
X160099000Y-111297000D01*
X159668000Y-112907000D02*
X160099000Y-111865000D01*
X158559000Y-114016000D02*
X159668000Y-112907000D01*
X165743000Y-109906000D02*
X166476000Y-109906000D01*
X164492000Y-110424000D02*
X165743000Y-109906000D01*
X164336000Y-110580000D02*
X164492000Y-110424000D01*
X162708000Y-111254000D02*
X164336000Y-110580000D01*
X160142000Y-111254000D02*
X162708000Y-111254000D01*
X155164000Y-95931000D02*
X155164000Y-92555900D01*
X155354000Y-96390600D02*
X155164000Y-95931000D01*
X155814000Y-96580900D02*
X155354000Y-96390600D01*
X157979000Y-96580900D02*
X155814000Y-96580900D01*
X159435000Y-97184400D02*
X157979000Y-96580900D01*
X160039000Y-98641200D02*
X159435000Y-97184400D01*
X160039000Y-111194000D02*
X160039000Y-98641200D01*
X160069000Y-111224000D02*
X160039000Y-111194000D01*
%TO.N,Net-(U1-SDOUT)*%
X134655000Y-94420700D02*
X134655000Y-89510400D01*
X134743000Y-94633100D02*
X134655000Y-94420700D01*
X134831000Y-94721000D02*
X134743000Y-94633100D01*
%TO.N,Net-(U1-PDMDIN4_GPI4)*%
X166024000Y-90851700D02*
X161523000Y-86350100D01*
X167618000Y-94699500D02*
X166024000Y-90851700D01*
X167618000Y-112577000D02*
X167618000Y-94699500D01*
%TO.N,Net-(J2-Pin_1)*%
X211593000Y-78491000D02*
X211402000Y-78491000D01*
X211919000Y-78626300D02*
X211593000Y-78491000D01*
X214204000Y-80911300D02*
X211919000Y-78626300D01*
X167461000Y-81380100D02*
X166875000Y-81380100D01*
X168463000Y-81795000D02*
X167461000Y-81380100D01*
X170857000Y-84188600D02*
X168463000Y-81795000D01*
X165728000Y-79422400D02*
X165728000Y-78239700D01*
X166301000Y-80806700D02*
X165728000Y-79422400D01*
X166875000Y-81380100D02*
X166301000Y-80806700D01*
%TO.N,Net-(U1-PDMDIN1_GPI1)*%
X153377000Y-97123200D02*
X154440000Y-97123200D01*
X151562000Y-96371500D02*
X153377000Y-97123200D01*
X150603000Y-95412200D02*
X151562000Y-96371500D01*
X149009000Y-91564400D02*
X150603000Y-95412200D01*
X149009000Y-89135900D02*
X149009000Y-91564400D01*
X149371000Y-88263100D02*
X149009000Y-89135900D01*
X149732000Y-87390200D02*
X149371000Y-88263100D01*
X149732000Y-86475900D02*
X149732000Y-87390200D01*
X150740000Y-84042400D02*
X149732000Y-86475900D01*
X157173000Y-77609500D02*
X150740000Y-84042400D01*
X158692000Y-76980100D02*
X157173000Y-77609500D01*
X159582000Y-76980100D02*
X158692000Y-76980100D01*
X191427000Y-80032900D02*
X191427000Y-80388700D01*
X191679000Y-79425600D02*
X191427000Y-80032900D01*
X194415000Y-76689200D02*
X191679000Y-79425600D01*
%TO.N,Net-(J2-Pin_4)*%
X177912000Y-103333000D02*
X189150000Y-92095000D01*
X176318000Y-107181000D02*
X177912000Y-103333000D01*
X176318000Y-110148000D02*
X176318000Y-107181000D01*
X188577000Y-91522100D02*
X189150000Y-92095000D01*
X188004000Y-90139000D02*
X188577000Y-91522100D01*
X188004000Y-89483300D02*
X188004000Y-90139000D01*
X188311000Y-88742800D02*
X188004000Y-89483300D01*
X189052000Y-88436000D02*
X188311000Y-88742800D01*
X189136000Y-88436000D02*
X189052000Y-88436000D01*
X190021000Y-88802500D02*
X189136000Y-88436000D01*
X193453000Y-92235100D02*
X190021000Y-88802500D01*
X195047000Y-96082900D02*
X193453000Y-92235100D01*
X195047000Y-106956000D02*
X195047000Y-96082900D01*
%TO.N,Net-(J2-Pin_3)*%
X189732000Y-90136600D02*
X189150000Y-89555000D01*
X190313000Y-91540700D02*
X189732000Y-90136600D01*
X190313000Y-109769000D02*
X190313000Y-91540700D01*
X188719000Y-113617000D02*
X190313000Y-109769000D01*
X185451000Y-116885000D02*
X188719000Y-113617000D01*
%TO.N,Net-(U1-PDMDIN3_GPI3)*%
X124574000Y-109232000D02*
X124574000Y-111443000D01*
X125132000Y-107884000D02*
X124574000Y-109232000D01*
X125691000Y-107325000D02*
X125132000Y-107884000D01*
X127185000Y-87122000D02*
X128679000Y-85628000D01*
X125691000Y-90728800D02*
X127185000Y-87122000D01*
X125691000Y-107325000D02*
X125691000Y-90728800D01*
X155844000Y-93570700D02*
X155809000Y-93605000D01*
X155878000Y-93487900D02*
X155844000Y-93570700D01*
X155878000Y-87865700D02*
X155878000Y-93487900D01*
%TO.N,Net-(J2-Pin_2)*%
X129332000Y-77292100D02*
X129333000Y-77290900D01*
X129330000Y-77294800D02*
X129332000Y-77292100D01*
X129330000Y-80882000D02*
X129330000Y-77294800D01*
X187045000Y-84909800D02*
X189150000Y-87015000D01*
X185451000Y-81062000D02*
X187045000Y-84909800D01*
X185451000Y-76689200D02*
X185451000Y-81062000D01*
X82835500Y-78791800D02*
X82835500Y-80830800D01*
X83211100Y-77885000D02*
X82835500Y-78791800D01*
X83586700Y-77509400D02*
X83211100Y-77885000D01*
%TO.N,/SCL_MOSI*%
X89862800Y-98552800D02*
X87390000Y-96080000D01*
X90492400Y-98813600D02*
X89862800Y-98552800D01*
X90861300Y-98813600D02*
X90492400Y-98813600D01*
X150304000Y-87495200D02*
X150299000Y-87490600D01*
X150308000Y-87506500D02*
X150304000Y-87495200D01*
X150308000Y-91724300D02*
X150308000Y-87506500D01*
X147584000Y-88492100D02*
X148562000Y-87514700D01*
X146607000Y-90851800D02*
X147584000Y-88492100D01*
X146607000Y-96254100D02*
X146607000Y-90851800D01*
%TO.N,/SHDNZ*%
X84297000Y-96797000D02*
X84850000Y-97350000D01*
X83744000Y-95461900D02*
X84297000Y-96797000D01*
X83744000Y-91671700D02*
X83744000Y-95461900D01*
X85295500Y-87926000D02*
X83744000Y-91671700D01*
X86847000Y-86374500D02*
X85295500Y-87926000D01*
%TO.N,Net-(U1-DREG)*%
X143647000Y-91678300D02*
X143676000Y-91650000D01*
X143619000Y-91746600D02*
X143647000Y-91678300D01*
X143619000Y-95873900D02*
X143619000Y-91746600D01*
%TO.N,+3.3V*%
X150822000Y-92891500D02*
X151336000Y-92377600D01*
X151700000Y-93254900D02*
X150822000Y-92891500D01*
X151336000Y-92377600D02*
X151700000Y-93254900D01*
X150801000Y-92891500D02*
X150822000Y-92891500D01*
X149960000Y-93239900D02*
X150801000Y-92891500D01*
X149612000Y-93588300D02*
X149960000Y-93239900D01*
X151336000Y-92377600D02*
X151336000Y-87625400D01*
X155085000Y-96640400D02*
X151700000Y-93254900D01*
X157600000Y-97682100D02*
X155085000Y-96640400D01*
X159073000Y-97682100D02*
X157600000Y-97682100D01*
X159073000Y-97682200D02*
X159073000Y-97682100D01*
%TO.N,+1V8*%
X91551400Y-81828700D02*
X92823000Y-80557100D01*
X93722100Y-82727800D02*
X91551400Y-81828700D01*
X92823000Y-80557100D02*
X93722100Y-82727800D01*
X209677000Y-112225000D02*
X209677000Y-112896000D01*
X210152000Y-111079000D02*
X209677000Y-112225000D01*
X210731000Y-110500000D02*
X210152000Y-111079000D01*
X159368000Y-78528900D02*
X159368000Y-92898400D01*
X159575000Y-78028600D02*
X159368000Y-78528900D01*
X159782000Y-77821300D02*
X159575000Y-78028600D01*
X91551400Y-81828700D02*
X87638300Y-81828700D01*
X92823000Y-80557100D02*
X92823000Y-79285600D01*
X160675000Y-107207000D02*
X160675000Y-92900000D01*
X161677000Y-109626000D02*
X160675000Y-107207000D01*
X162679000Y-110628000D02*
X161677000Y-109626000D01*
X206024000Y-103539000D02*
X206024000Y-80594500D01*
X207617000Y-107387000D02*
X206024000Y-103539000D01*
X210731000Y-110500000D02*
X207617000Y-107387000D01*
X95811000Y-110123000D02*
X95811000Y-98347700D01*
X95811000Y-86929500D02*
X95811000Y-98345300D01*
X94317000Y-83322700D02*
X95811000Y-86929500D01*
X93722100Y-82727800D02*
X94317000Y-83322700D01*
X95811000Y-98347700D02*
X95811000Y-98345300D01*
%TO.N,GND*%
X148425000Y-86883300D02*
X148732000Y-86575800D01*
X148950000Y-87100800D02*
X148425000Y-86883300D01*
X148732000Y-86575800D02*
X148950000Y-87100800D01*
X85856400Y-81089600D02*
X85579900Y-81366100D01*
X84271900Y-115836000D02*
X83813800Y-116294000D01*
X84729900Y-114730000D02*
X84271900Y-115836000D01*
X84729900Y-113602000D02*
X84729900Y-114730000D01*
X209445000Y-79153100D02*
X209535000Y-79063000D01*
X209355000Y-79370800D02*
X209445000Y-79153100D01*
X209355000Y-84726500D02*
X209355000Y-79370800D01*
X84070600Y-76888900D02*
X83975300Y-76793700D01*
X84165800Y-77118900D02*
X84070600Y-76888900D01*
X84165800Y-78577800D02*
X84165800Y-77118900D01*
X84942000Y-80451700D02*
X84165800Y-78577800D01*
X85579900Y-81089600D02*
X84942000Y-80451700D01*
X85856400Y-81089600D02*
X85994700Y-80951400D01*
X147101000Y-86883300D02*
X148425000Y-86883300D01*
X146752000Y-87028000D02*
X147101000Y-86883300D01*
X146607000Y-87172700D02*
X146752000Y-87028000D01*
X148732000Y-82297100D02*
X148732000Y-86575800D01*
X149164000Y-81255400D02*
X148732000Y-82297100D01*
X149595000Y-80824000D02*
X149164000Y-81255400D01*
X153604000Y-99405600D02*
X153604000Y-99820200D01*
X153310000Y-98697700D02*
X153604000Y-99405600D01*
X150235000Y-95622700D02*
X153310000Y-98697700D01*
X148642000Y-91774900D02*
X150235000Y-95622700D01*
X148642000Y-88844900D02*
X148642000Y-91774900D01*
X148904000Y-88210600D02*
X148642000Y-88844900D01*
X148944000Y-88170400D02*
X148904000Y-88210600D01*
X149167000Y-87633000D02*
X148944000Y-88170400D01*
X149167000Y-87625700D02*
X149167000Y-87633000D01*
X148950000Y-87100800D02*
X149167000Y-87625700D01*
X85579900Y-81366100D02*
X85579900Y-81089600D01*
X85579900Y-81089600D02*
X85856400Y-81089600D01*
X84850000Y-99890000D02*
X84789900Y-99890000D01*
X84789900Y-99829900D02*
X84789900Y-99890000D01*
X84113600Y-99153600D02*
X84789900Y-99829900D01*
X83377100Y-97375600D02*
X84113600Y-99153600D01*
X83377100Y-85224400D02*
X83377100Y-97375600D01*
X84547600Y-82398400D02*
X83377100Y-85224400D01*
X85579900Y-81366100D02*
X84547600Y-82398400D01*
X84729900Y-100095000D02*
X84729900Y-113602000D01*
X84789900Y-99950100D02*
X84729900Y-100095000D01*
X84789900Y-99890000D02*
X84789900Y-99950100D01*
%TD*%
M02*
