M48
; DRILL file {KiCad 9.0.6} date 2026-01-10T21:11:38+0100
; FORMAT={-:-/ absolute / inch / decimal}
; #@! TF.CreationDate,2026-01-10T21:11:38+01:00
; #@! TF.GenerationSoftware,Kicad,Pcbnew,9.0.6
; #@! TF.FileFunction,Plated,1,2,PTH
FMAT,2
INCH
; #@! TA.AperFunction,Plated,PTH,ViaDrill
T1C0.0118
; #@! TA.AperFunction,Plated,PTH,ComponentDrill
T2C0.0354
; #@! TA.AperFunction,Plated,PTH,ComponentDrill
T3C0.0394
; #@! TA.AperFunction,Plated,PTH,ComponentDrill
T4C0.0402
; #@! TA.AperFunction,Plated,PTH,ComponentDrill
T5C0.0622
%
G90
G05
T1
X3.2612Y-3.1823
X3.2908Y-3.0516
X3.2998Y-4.5785
X3.3061Y-3.0234
X3.3358Y-4.4725
X3.3856Y-3.1871
X3.4192Y-3.4006
X3.4503Y-3.2216
X3.5772Y-3.8903
X3.6544Y-3.1215
X3.6797Y-3.7794
X3.7721Y-3.872
X3.7721Y-4.3356
X4.9045Y-4.3875
X4.9485Y-4.2254
X4.9865Y-3.1229
X5.0308Y-3.3339
X5.0661Y-3.3712
X5.0917Y-3.1843
X5.0919Y-3.0429
X5.3014Y-3.524
X5.3083Y-3.7292
X5.6543Y-3.7746
X5.6565Y-3.6083
X5.7719Y-3.432
X5.7719Y-3.7895
X5.8489Y-3.4455
X5.8896Y-3.182
X5.8902Y-3.6846
X5.9173Y-3.4445
X5.9176Y-3.6112
X5.9581Y-3.4498
X6.0474Y-3.9299
X6.0803Y-3.8237
X6.1088Y-3.6439
X6.1164Y-3.3592
X6.1239Y-3.1511
X6.1337Y-3.7794
X6.1342Y-3.6852
X6.1369Y-3.4593
X6.1439Y-3.7158
X6.2425Y-4.4888
X6.2627Y-3.8458
X6.2743Y-3.6574
X6.2828Y-3.0307
X6.2906Y-3.0638
X6.3258Y-3.6575
X6.3592Y-3.3996
X6.4047Y-4.3554
X6.5247Y-3.0803
X6.5542Y-4.327
X6.5699Y-3.2039
X6.5854Y-3.1582
X6.5991Y-4.4322
X6.7267Y-3.3145
X6.8257Y-3.7491
X6.8307Y-3.2672
X6.9417Y-4.3365
X7.3012Y-3.0193
X7.3012Y-4.6018
X7.5365Y-3.1649
X7.6541Y-3.0193
X7.679Y-4.2109
X8.1112Y-3.173
X8.2423Y-3.3357
X8.2494Y-3.1127
X8.255Y-4.4447
X8.2965Y-4.3504
X8.3229Y-3.0902
X8.4332Y-3.1855
T2
X3.3406Y-3.6327
X3.3406Y-3.7327
X3.3406Y-3.8327
X3.3406Y-3.9327
X3.4406Y-3.6827
X3.4406Y-3.7827
X3.4406Y-3.8827
X3.4406Y-3.9827
T3
X7.4469Y-3.3258
X7.4469Y-3.4258
X7.4469Y-3.5258
X7.4469Y-3.6258
T4
X3.6307Y-3.5927
X3.6307Y-3.6927
X3.6307Y-3.9226
X3.6307Y-4.0226
T5
X3.2106Y-3.5008
X3.2106Y-4.1146
M30
