%TF.GenerationSoftware,KiCad,Pcbnew,9.0.6*%
%TF.CreationDate,2026-01-10T21:11:38+01:00*%
%TF.ProjectId,_autosave-sisterboard_A,5f617574-6f73-4617-9665-2d7369737465,1.0*%
%TF.SameCoordinates,Original*%
%TF.FileFunction,Soldermask,Top*%
%TF.FilePolarity,Negative*%
%FSLAX46Y46*%
G04 Gerber Fmt 4.6, Leading zero omitted, Abs format (unit mm)*
G04 Created by KiCad (PCBNEW 9.0.6) date 2026-01-10 21:11:38*
%MOMM*%
%LPD*%
G01*
G04 APERTURE LIST*
G04 Aperture macros list*
%AMRoundRect*
0 Rectangle with rounded corners*
0 $1 Rounding radius*
0 $2 $3 $4 $5 $6 $7 $8 $9 X,Y pos of 4 corners*
0 Add a 4 corners polygon primitive as box body*
4,1,4,$2,$3,$4,$5,$6,$7,$8,$9,$2,$3,0*
0 Add four circle primitives for the rounded corners*
1,1,$1+$1,$2,$3*
1,1,$1+$1,$4,$5*
1,1,$1+$1,$6,$7*
1,1,$1+$1,$8,$9*
0 Add four rect primitives between the rounded corners*
20,1,$1+$1,$2,$3,$4,$5,0*
20,1,$1+$1,$4,$5,$6,$7,0*
20,1,$1+$1,$6,$7,$8,$9,0*
20,1,$1+$1,$8,$9,$2,$3,0*%
G04 Aperture macros list end*
%ADD10C,0.370000*%
%ADD11RoundRect,0.250000X0.250000X0.475000X-0.250000X0.475000X-0.250000X-0.475000X0.250000X-0.475000X0*%
%ADD12RoundRect,0.250000X-0.450000X0.262500X-0.450000X-0.262500X0.450000X-0.262500X0.450000X0.262500X0*%
%ADD13RoundRect,0.250000X-0.250000X-0.475000X0.250000X-0.475000X0.250000X0.475000X-0.250000X0.475000X0*%
%ADD14R,2.794000X2.794000*%
%ADD15R,0.807999X0.254800*%
%ADD16R,0.254800X0.807999*%
%ADD17RoundRect,0.250000X0.262500X0.450000X-0.262500X0.450000X-0.262500X-0.450000X0.262500X-0.450000X0*%
%ADD18RoundRect,0.250000X0.450000X-0.262500X0.450000X0.262500X-0.450000X0.262500X-0.450000X-0.262500X0*%
%ADD19RoundRect,0.250000X0.475000X-0.250000X0.475000X0.250000X-0.475000X0.250000X-0.475000X-0.250000X0*%
%ADD20RoundRect,0.250000X-0.475000X0.250000X-0.475000X-0.250000X0.475000X-0.250000X0.475000X0.250000X0*%
%ADD21RoundRect,0.101600X0.270000X0.375000X-0.270000X0.375000X-0.270000X-0.375000X0.270000X-0.375000X0*%
%ADD22RoundRect,0.250000X-0.262500X-0.450000X0.262500X-0.450000X0.262500X0.450000X-0.262500X0.450000X0*%
%ADD23C,2.200000*%
%ADD24C,1.720000*%
%ADD25C,1.600000*%
%ADD26RoundRect,0.250000X-0.550000X0.550000X-0.550000X-0.550000X0.550000X-0.550000X0.550000X0.550000X0*%
%ADD27C,3.260000*%
%ADD28RoundRect,0.101600X-0.270000X-0.375000X0.270000X-0.375000X0.270000X0.375000X-0.270000X0.375000X0*%
%ADD29C,1.700000*%
%ADD30R,1.700000X1.700000*%
%ADD31R,1.000001X0.599999*%
%ADD32C,1.000000*%
G04 APERTURE END LIST*
D10*
%TO.C,U9*%
X211690500Y-111625000D02*
G75*
G02*
X210335500Y-111625000I-677500J0D01*
G01*
X210335500Y-111625000D02*
G75*
G02*
X211690500Y-111625000I677500J0D01*
G01*
X211690500Y-111625000D02*
G75*
G02*
X210335500Y-111625000I-677500J0D01*
G01*
X210335500Y-111625000D02*
G75*
G02*
X211690500Y-111625000I677500J0D01*
G01*
%TO.C,U8*%
X165078500Y-111638000D02*
G75*
G02*
X163723500Y-111638000I-677500J0D01*
G01*
X163723500Y-111638000D02*
G75*
G02*
X165078500Y-111638000I677500J0D01*
G01*
X165078500Y-111638000D02*
G75*
G02*
X163723500Y-111638000I-677500J0D01*
G01*
X163723500Y-111638000D02*
G75*
G02*
X165078500Y-111638000I677500J0D01*
G01*
%TO.C,U5*%
X133079500Y-79975000D02*
G75*
G02*
X131724500Y-79975000I-677500J0D01*
G01*
X131724500Y-79975000D02*
G75*
G02*
X133079500Y-79975000I677500J0D01*
G01*
X133079500Y-79975000D02*
G75*
G02*
X131724500Y-79975000I-677500J0D01*
G01*
X131724500Y-79975000D02*
G75*
G02*
X133079500Y-79975000I677500J0D01*
G01*
%TO.C,U2*%
X132993000Y-111381000D02*
G75*
G02*
X131638000Y-111381000I-677500J0D01*
G01*
X131638000Y-111381000D02*
G75*
G02*
X132993000Y-111381000I677500J0D01*
G01*
X132993000Y-111381000D02*
G75*
G02*
X131638000Y-111381000I-677500J0D01*
G01*
X131638000Y-111381000D02*
G75*
G02*
X132993000Y-111381000I677500J0D01*
G01*
%TO.C,U3*%
X86343000Y-111706000D02*
G75*
G02*
X84988000Y-111706000I-677500J0D01*
G01*
X84988000Y-111706000D02*
G75*
G02*
X86343000Y-111706000I677500J0D01*
G01*
X86343000Y-111706000D02*
G75*
G02*
X84988000Y-111706000I-677500J0D01*
G01*
X84988000Y-111706000D02*
G75*
G02*
X86343000Y-111706000I677500J0D01*
G01*
%TO.C,U7*%
X211649500Y-79901000D02*
G75*
G02*
X210294500Y-79901000I-677500J0D01*
G01*
X210294500Y-79901000D02*
G75*
G02*
X211649500Y-79901000I677500J0D01*
G01*
X211649500Y-79901000D02*
G75*
G02*
X210294500Y-79901000I-677500J0D01*
G01*
X210294500Y-79901000D02*
G75*
G02*
X211649500Y-79901000I677500J0D01*
G01*
%TO.C,U4*%
X86327500Y-79949000D02*
G75*
G02*
X84972500Y-79949000I-677500J0D01*
G01*
X84972500Y-79949000D02*
G75*
G02*
X86327500Y-79949000I677500J0D01*
G01*
X86327500Y-79949000D02*
G75*
G02*
X84972500Y-79949000I-677500J0D01*
G01*
X84972500Y-79949000D02*
G75*
G02*
X86327500Y-79949000I677500J0D01*
G01*
%TO.C,U6*%
X164728500Y-79937000D02*
G75*
G02*
X163373500Y-79937000I-677500J0D01*
G01*
X163373500Y-79937000D02*
G75*
G02*
X164728500Y-79937000I677500J0D01*
G01*
X164728500Y-79937000D02*
G75*
G02*
X163373500Y-79937000I-677500J0D01*
G01*
X163373500Y-79937000D02*
G75*
G02*
X164728500Y-79937000I677500J0D01*
G01*
%TD*%
D11*
%TO.C,C10*%
X152500000Y-88200000D03*
X154400000Y-88200000D03*
%TD*%
D12*
%TO.C,R1*%
X150375000Y-90675000D03*
X150375000Y-88850000D03*
%TD*%
D13*
%TO.C,C8*%
X148025000Y-89075000D03*
X146125000Y-89075000D03*
%TD*%
%TO.C,C9*%
X154450000Y-90600000D03*
X152550000Y-90600000D03*
%TD*%
D11*
%TO.C,C7*%
X146100000Y-91650000D03*
X148000000Y-91650000D03*
%TD*%
D14*
%TO.C,U1*%
X152455000Y-95045200D03*
D15*
X150488900Y-96295515D03*
X150488900Y-95795389D03*
X150488900Y-95295263D03*
X150488900Y-94795137D03*
X150488900Y-94295011D03*
X150488900Y-93794885D03*
D16*
X151204685Y-93079100D03*
X151704811Y-93079100D03*
X152204937Y-93079100D03*
X152705063Y-93079100D03*
X153205189Y-93079100D03*
X153705315Y-93079100D03*
D15*
X154421100Y-93794885D03*
X154421100Y-94295011D03*
X154421100Y-94795137D03*
X154421100Y-95295263D03*
X154421100Y-95795389D03*
X154421100Y-96295515D03*
D16*
X153705315Y-97011300D03*
X153205189Y-97011300D03*
X152705063Y-97011300D03*
X152204937Y-97011300D03*
X151704811Y-97011300D03*
X151204685Y-97011300D03*
%TD*%
D17*
%TO.C,R17*%
X215850000Y-114450000D03*
X217675000Y-114450000D03*
%TD*%
D18*
%TO.C,R15*%
X215537000Y-110612000D03*
X215537000Y-112437000D03*
%TD*%
D19*
%TO.C,C26*%
X217787000Y-110537000D03*
X217787000Y-112437000D03*
%TD*%
D20*
%TO.C,C24*%
X207962000Y-112512000D03*
X207962000Y-110612000D03*
%TD*%
D21*
%TO.C,U9*%
X213087000Y-112463000D03*
X212265000Y-112463000D03*
X212265000Y-110787000D03*
X213087000Y-110787000D03*
%TD*%
D20*
%TO.C,C2*%
X157350000Y-90375000D03*
X157350000Y-92275000D03*
%TD*%
D13*
%TO.C,C1*%
X159525000Y-91450000D03*
X161425000Y-91450000D03*
%TD*%
D19*
%TO.C,C4*%
X157430000Y-96045200D03*
X157430000Y-94145200D03*
%TD*%
D11*
%TO.C,C5*%
X161580000Y-99020200D03*
X159680000Y-99020200D03*
%TD*%
D20*
%TO.C,C6*%
X157455000Y-97920200D03*
X157455000Y-99820200D03*
%TD*%
D19*
%TO.C,C3*%
X159800000Y-96025000D03*
X159800000Y-94125000D03*
%TD*%
D18*
%TO.C,R14*%
X168825000Y-110763500D03*
X168825000Y-112588500D03*
%TD*%
D21*
%TO.C,U8*%
X166475000Y-112476000D03*
X165653000Y-112476000D03*
X165653000Y-110800000D03*
X166475000Y-110800000D03*
%TD*%
D20*
%TO.C,C18*%
X125402000Y-80875000D03*
X125402000Y-78975000D03*
%TD*%
D19*
%TO.C,C25*%
X171075000Y-110801000D03*
X171075000Y-112701000D03*
%TD*%
D22*
%TO.C,R16*%
X170912500Y-115000000D03*
X169087500Y-115000000D03*
%TD*%
D23*
%TO.C,J1*%
X81550000Y-104510000D03*
X81550000Y-88920000D03*
D24*
X92220000Y-102175000D03*
X92220000Y-99635000D03*
X92220000Y-93795000D03*
X92220000Y-91255000D03*
D25*
X87390000Y-101160000D03*
X84850000Y-99890000D03*
X87390000Y-98620000D03*
X84850000Y-97350000D03*
X87390000Y-96080000D03*
X84850000Y-94810000D03*
X87390000Y-93540000D03*
D26*
X84850000Y-92270000D03*
D27*
X78500000Y-102430000D03*
X78500000Y-91000000D03*
%TD*%
D22*
%TO.C,R9*%
X127402000Y-82813000D03*
X125577000Y-82813000D03*
%TD*%
D28*
%TO.C,U5*%
X130328000Y-79137000D03*
X131150000Y-79137000D03*
X131150000Y-80813000D03*
X130328000Y-80813000D03*
%TD*%
D29*
%TO.C,J2*%
X189150000Y-92095000D03*
X189150000Y-89555000D03*
X189150000Y-87015000D03*
D30*
X189150000Y-84475000D03*
%TD*%
D12*
%TO.C,R7*%
X127902000Y-80800000D03*
X127902000Y-78975000D03*
%TD*%
D19*
%TO.C,C23*%
X161350000Y-110751000D03*
X161350000Y-112651000D03*
%TD*%
D20*
%TO.C,C16*%
X135650000Y-80925000D03*
X135650000Y-79025000D03*
%TD*%
D28*
%TO.C,U2*%
X130241500Y-112219000D03*
X131063500Y-112219000D03*
X131063500Y-110543000D03*
X130241500Y-110543000D03*
%TD*%
D19*
%TO.C,C20*%
X207900000Y-80850000D03*
X207900000Y-78950000D03*
%TD*%
D20*
%TO.C,C12*%
X135265500Y-110456000D03*
X135265500Y-112356000D03*
%TD*%
D17*
%TO.C,R12*%
X170565500Y-82699000D03*
X168740500Y-82699000D03*
%TD*%
D22*
%TO.C,R13*%
X215662500Y-82700000D03*
X217487500Y-82700000D03*
%TD*%
D20*
%TO.C,C22*%
X217625000Y-78925000D03*
X217625000Y-80825000D03*
%TD*%
D18*
%TO.C,R3*%
X127790500Y-112518500D03*
X127790500Y-110693500D03*
%TD*%
D31*
%TO.C,U10*%
X187299999Y-100796999D03*
X187299999Y-101747000D03*
X187299999Y-102696998D03*
X190049999Y-102696998D03*
X190049999Y-100796999D03*
%TD*%
D22*
%TO.C,R4*%
X78978500Y-114656000D03*
X80803500Y-114656000D03*
%TD*%
D20*
%TO.C,C21*%
X170803000Y-78874000D03*
X170803000Y-80774000D03*
%TD*%
D19*
%TO.C,C17*%
X78650000Y-80925000D03*
X78650000Y-79025000D03*
%TD*%
D20*
%TO.C,C28*%
X193050000Y-100797000D03*
X193050000Y-102697000D03*
%TD*%
D18*
%TO.C,R10*%
X168478000Y-80749000D03*
X168478000Y-78924000D03*
%TD*%
D20*
%TO.C,C19*%
X161028000Y-78924000D03*
X161028000Y-80824000D03*
%TD*%
%TO.C,C13*%
X78853500Y-110856000D03*
X78853500Y-112756000D03*
%TD*%
D19*
%TO.C,C11*%
X88678500Y-112556000D03*
X88678500Y-110656000D03*
%TD*%
D20*
%TO.C,C15*%
X88650000Y-78975000D03*
X88650000Y-80875000D03*
%TD*%
D28*
%TO.C,U3*%
X83591500Y-112544000D03*
X84413500Y-112544000D03*
X84413500Y-110868000D03*
X83591500Y-110868000D03*
%TD*%
D21*
%TO.C,U7*%
X213046000Y-79063000D03*
X212224000Y-79063000D03*
X212224000Y-80739000D03*
X213046000Y-80739000D03*
%TD*%
D18*
%TO.C,R11*%
X215400000Y-80762500D03*
X215400000Y-78937500D03*
%TD*%
D20*
%TO.C,C14*%
X125565500Y-110681000D03*
X125565500Y-112581000D03*
%TD*%
D28*
%TO.C,U4*%
X83576000Y-80787000D03*
X84398000Y-80787000D03*
X84398000Y-79111000D03*
X83576000Y-79111000D03*
%TD*%
D12*
%TO.C,R6*%
X81150000Y-79025000D03*
X81150000Y-80850000D03*
%TD*%
D18*
%TO.C,R2*%
X81078500Y-112681000D03*
X81078500Y-110856000D03*
%TD*%
D21*
%TO.C,U6*%
X166125000Y-79099000D03*
X165303000Y-79099000D03*
X165303000Y-80775000D03*
X166125000Y-80775000D03*
%TD*%
D32*
%TO.C,TP2*%
X193000000Y-97897000D03*
%TD*%
%TO.C,TP1*%
X183925000Y-97775000D03*
%TD*%
D22*
%TO.C,R8*%
X78825000Y-82975000D03*
X80650000Y-82975000D03*
%TD*%
D17*
%TO.C,R5*%
X127590500Y-114481000D03*
X125765500Y-114481000D03*
%TD*%
D19*
%TO.C,C27*%
X184050000Y-102697000D03*
X184050000Y-100797000D03*
%TD*%
M02*
