%TF.GenerationSoftware,KiCad,Pcbnew,9.0.6*%
%TF.CreationDate,2026-02-19T14:51:32+00:00*%
%TF.ProjectId,SongBeam4.0,536f6e67-4265-4616-9d34-2e302e6b6963,4.0*%
%TF.SameCoordinates,Original*%
%TF.FileFunction,Soldermask,Top*%
%TF.FilePolarity,Negative*%
%FSLAX46Y46*%
G04 Gerber Fmt 4.6, Leading zero omitted, Abs format (unit mm)*
G04 Created by KiCad (PCBNEW 9.0.6) date 2026-02-19 14:51:32*
%MOMM*%
%LPD*%
G01*
G04 APERTURE LIST*
G04 Aperture macros list*
%AMRoundRect*
0 Rectangle with rounded corners*
0 $1 Rounding radius*
0 $2 $3 $4 $5 $6 $7 $8 $9 X,Y pos of 4 corners*
0 Add a 4 corners polygon primitive as box body*
4,1,4,$2,$3,$4,$5,$6,$7,$8,$9,$2,$3,0*
0 Add four circle primitives for the rounded corners*
1,1,$1+$1,$2,$3*
1,1,$1+$1,$4,$5*
1,1,$1+$1,$6,$7*
1,1,$1+$1,$8,$9*
0 Add four rect primitives between the rounded corners*
20,1,$1+$1,$2,$3,$4,$5,0*
20,1,$1+$1,$4,$5,$6,$7,0*
20,1,$1+$1,$6,$7,$8,$9,0*
20,1,$1+$1,$8,$9,$2,$3,0*%
%AMFreePoly0*
4,1,23,0.500000,-0.750000,0.000000,-0.750000,0.000000,-0.745722,-0.065263,-0.745722,-0.191342,-0.711940,-0.304381,-0.646677,-0.396677,-0.554381,-0.461940,-0.441342,-0.495722,-0.315263,-0.495722,-0.250000,-0.500000,-0.250000,-0.500000,0.250000,-0.495722,0.250000,-0.495722,0.315263,-0.461940,0.441342,-0.396677,0.554381,-0.304381,0.646677,-0.191342,0.711940,-0.065263,0.745722,0.000000,0.745722,
0.000000,0.750000,0.500000,0.750000,0.500000,-0.750000,0.500000,-0.750000,$1*%
%AMFreePoly1*
4,1,23,0.000000,0.745722,0.065263,0.745722,0.191342,0.711940,0.304381,0.646677,0.396677,0.554381,0.461940,0.441342,0.495722,0.315263,0.495722,0.250000,0.500000,0.250000,0.500000,-0.250000,0.495722,-0.250000,0.495722,-0.315263,0.461940,-0.441342,0.396677,-0.554381,0.304381,-0.646677,0.191342,-0.711940,0.065263,-0.745722,0.000000,-0.745722,0.000000,-0.750000,-0.500000,-0.750000,
-0.500000,0.750000,0.000000,0.750000,0.000000,0.745722,0.000000,0.745722,$1*%
G04 Aperture macros list end*
%ADD10C,0.370000*%
%ADD11RoundRect,0.100000X-0.100000X0.130000X-0.100000X-0.130000X0.100000X-0.130000X0.100000X0.130000X0*%
%ADD12RoundRect,0.102000X0.270000X0.300000X-0.270000X0.300000X-0.270000X-0.300000X0.270000X-0.300000X0*%
%ADD13R,1.050000X0.750000*%
%ADD14RoundRect,0.250000X-0.262500X-0.450000X0.262500X-0.450000X0.262500X0.450000X-0.262500X0.450000X0*%
%ADD15R,0.807999X0.254800*%
%ADD16R,0.254800X0.807999*%
%ADD17R,2.794000X2.794000*%
%ADD18C,1.000000*%
%ADD19RoundRect,0.250000X-0.475000X0.250000X-0.475000X-0.250000X0.475000X-0.250000X0.475000X0.250000X0*%
%ADD20FreePoly0,90.000000*%
%ADD21FreePoly1,90.000000*%
%ADD22RoundRect,0.250000X0.475000X-0.250000X0.475000X0.250000X-0.475000X0.250000X-0.475000X-0.250000X0*%
%ADD23C,0.600000*%
%ADD24RoundRect,0.101600X-0.270000X-0.375000X0.270000X-0.375000X0.270000X0.375000X-0.270000X0.375000X0*%
%ADD25RoundRect,0.250000X0.450000X-0.262500X0.450000X0.262500X-0.450000X0.262500X-0.450000X-0.262500X0*%
%ADD26R,0.850000X0.850000*%
%ADD27C,0.850000*%
%ADD28RoundRect,0.250000X0.600000X-0.400000X0.600000X0.400000X-0.600000X0.400000X-0.600000X-0.400000X0*%
%ADD29RoundRect,0.250000X-0.250000X-0.475000X0.250000X-0.475000X0.250000X0.475000X-0.250000X0.475000X0*%
%ADD30R,0.203200X0.660400*%
%ADD31R,1.600200X0.990600*%
%ADD32RoundRect,0.250000X0.262500X0.450000X-0.262500X0.450000X-0.262500X-0.450000X0.262500X-0.450000X0*%
%ADD33RoundRect,0.250000X-0.450000X0.262500X-0.450000X-0.262500X0.450000X-0.262500X0.450000X0.262500X0*%
%ADD34R,1.320800X0.558800*%
%ADD35R,0.838200X1.397000*%
%ADD36R,0.750000X1.050000*%
%ADD37R,1.400000X0.650000*%
%ADD38RoundRect,0.250000X0.250000X0.475000X-0.250000X0.475000X-0.250000X-0.475000X0.250000X-0.475000X0*%
%ADD39RoundRect,0.112500X0.237500X-0.112500X0.237500X0.112500X-0.237500X0.112500X-0.237500X-0.112500X0*%
%ADD40R,0.990600X0.711200*%
%ADD41R,0.600000X1.250000*%
%ADD42R,0.800000X0.500000*%
%ADD43R,0.500000X1.000000*%
%ADD44R,0.800000X0.300000*%
%ADD45R,0.500000X1.480000*%
%ADD46R,1.308100X0.330200*%
%ADD47R,1.447800X1.752600*%
%ADD48R,1.800000X0.800000*%
%ADD49R,1.350000X0.400000*%
%ADD50R,1.600000X2.100000*%
%ADD51R,1.900000X1.800000*%
%ADD52R,1.900000X1.900000*%
%ADD53C,1.447800*%
%ADD54C,2.133600*%
%ADD55R,0.558800X1.320800*%
%ADD56R,1.680000X3.150000*%
%ADD57R,1.600000X1.600000*%
%ADD58C,1.600000*%
%ADD59R,1.300000X1.300000*%
%ADD60C,1.300000*%
%ADD61RoundRect,0.100000X0.130000X0.100000X-0.130000X0.100000X-0.130000X-0.100000X0.130000X-0.100000X0*%
%ADD62R,2.286000X5.842000*%
%ADD63R,2.413000X5.842000*%
%ADD64R,3.000000X3.000000*%
%ADD65R,4.000000X4.000000*%
%ADD66C,3.000000*%
%ADD67R,1.515000X1.515000*%
%ADD68C,1.515000*%
%ADD69C,2.385000*%
%ADD70RoundRect,0.100000X0.637500X0.100000X-0.637500X0.100000X-0.637500X-0.100000X0.637500X-0.100000X0*%
%ADD71R,1.000000X0.599999*%
G04 APERTURE END LIST*
%TO.C,JP1*%
G36*
X79665000Y-81130000D02*
G01*
X81165000Y-81130000D01*
X81165000Y-80830000D01*
X79665000Y-80830000D01*
X79665000Y-81130000D01*
G37*
D10*
%TO.C,U4*%
X167337500Y-32630000D02*
G75*
G02*
X165982500Y-32630000I-677500J0D01*
G01*
X165982500Y-32630000D02*
G75*
G02*
X167337500Y-32630000I677500J0D01*
G01*
%TO.C,U7*%
X134728000Y-63951000D02*
G75*
G02*
X133373000Y-63951000I-677500J0D01*
G01*
X133373000Y-63951000D02*
G75*
G02*
X134728000Y-63951000I677500J0D01*
G01*
%TO.C,U5*%
X57218000Y-64451000D02*
G75*
G02*
X55863000Y-64451000I-677500J0D01*
G01*
X55863000Y-64451000D02*
G75*
G02*
X57218000Y-64451000I677500J0D01*
G01*
%TO.C,U8*%
X182322500Y-64070000D02*
G75*
G02*
X180967500Y-64070000I-677500J0D01*
G01*
X180967500Y-64070000D02*
G75*
G02*
X182322500Y-64070000I677500J0D01*
G01*
%TO.C,U6*%
X104500000Y-64540000D02*
G75*
G02*
X103145000Y-64540000I-677500J0D01*
G01*
X103145000Y-64540000D02*
G75*
G02*
X104500000Y-64540000I677500J0D01*
G01*
%TO.C,U1*%
X40117500Y-32635000D02*
G75*
G02*
X38762500Y-32635000I-677500J0D01*
G01*
X38762500Y-32635000D02*
G75*
G02*
X40117500Y-32635000I677500J0D01*
G01*
%TO.C,U3*%
X119752500Y-32708000D02*
G75*
G02*
X118397500Y-32708000I-677500J0D01*
G01*
X118397500Y-32708000D02*
G75*
G02*
X119752500Y-32708000I677500J0D01*
G01*
%TO.C,U2*%
X87319500Y-32613000D02*
G75*
G02*
X85964500Y-32613000I-677500J0D01*
G01*
X85964500Y-32613000D02*
G75*
G02*
X87319500Y-32613000I677500J0D01*
G01*
%TD*%
D11*
%TO.C,C33*%
X167530000Y-127770000D03*
X167530000Y-128410000D03*
%TD*%
D12*
%TO.C,L2*%
X88467000Y-125480000D03*
X87603000Y-125480000D03*
%TD*%
D13*
%TO.C,D8*%
X29900000Y-108550000D03*
X26300000Y-108550000D03*
%TD*%
D11*
%TO.C,C30*%
X90590000Y-126500000D03*
X90590000Y-127140000D03*
%TD*%
D14*
%TO.C,R33*%
X105290000Y-88020000D03*
X107115000Y-88020000D03*
%TD*%
D15*
%TO.C,U9*%
X163886000Y-87236415D03*
X163886000Y-86736289D03*
X163886000Y-86236163D03*
X163886000Y-85736037D03*
X163886000Y-85235911D03*
X163886000Y-84735785D03*
D16*
X163170215Y-84020000D03*
X162670089Y-84020000D03*
X162169963Y-84020000D03*
X161669837Y-84020000D03*
X161169711Y-84020000D03*
X160669585Y-84020000D03*
D15*
X159953800Y-84735785D03*
X159953800Y-85235911D03*
X159953800Y-85736037D03*
X159953800Y-86236163D03*
X159953800Y-86736289D03*
X159953800Y-87236415D03*
D16*
X160669585Y-87952200D03*
X161169711Y-87952200D03*
X161669837Y-87952200D03*
X162169963Y-87952200D03*
X162670089Y-87952200D03*
X163170215Y-87952200D03*
D17*
X161919900Y-85986100D03*
%TD*%
D18*
%TO.C,TP8*%
X98810000Y-79240000D03*
%TD*%
%TO.C,TP2*%
X79930000Y-101960000D03*
%TD*%
D19*
%TO.C,C32*%
X80400000Y-90370000D03*
X80400000Y-92270000D03*
%TD*%
D20*
%TO.C,JP1*%
X80415000Y-81630000D03*
D21*
X80415000Y-80330000D03*
%TD*%
D22*
%TO.C,C26*%
X157735000Y-91880000D03*
X157735000Y-89980000D03*
%TD*%
D23*
%TO.C,U4*%
X166660000Y-32630000D03*
D24*
X164586000Y-33468000D03*
X165408000Y-33468000D03*
X165408000Y-31792000D03*
X164586000Y-31792000D03*
%TD*%
D25*
%TO.C,R17*%
X161485000Y-91930000D03*
X161485000Y-90105000D03*
%TD*%
D26*
%TO.C,J8*%
X82955000Y-106395000D03*
D27*
X83955000Y-106395000D03*
X84955000Y-106395000D03*
X85955000Y-106395000D03*
X86955000Y-106395000D03*
X87955000Y-106395000D03*
X88955000Y-106395000D03*
X89955000Y-106395000D03*
%TD*%
D28*
%TO.C,D7*%
X58010000Y-90740000D03*
X58010000Y-87240000D03*
%TD*%
D14*
%TO.C,R8*%
X165833000Y-36142000D03*
X167658000Y-36142000D03*
%TD*%
D29*
%TO.C,C12*%
X102992500Y-70410000D03*
X104892500Y-70410000D03*
%TD*%
D30*
%TO.C,U11*%
X34840000Y-95110000D03*
X35240050Y-95110000D03*
X35640100Y-95110000D03*
X36040150Y-95110000D03*
X36440200Y-95110000D03*
X36440200Y-92849400D03*
X36040150Y-92849400D03*
X35640100Y-92849400D03*
X35240050Y-92849400D03*
X34840000Y-92849400D03*
D31*
X35640100Y-93979700D03*
%TD*%
D32*
%TO.C,R2*%
X40485000Y-36145000D03*
X38660000Y-36145000D03*
%TD*%
D26*
%TO.C,J1*%
X83825000Y-80400000D03*
D27*
X83825000Y-81400000D03*
%TD*%
D29*
%TO.C,C34*%
X138340000Y-91770000D03*
X140240000Y-91770000D03*
%TD*%
D23*
%TO.C,U7*%
X134050500Y-63951000D03*
D24*
X131976500Y-64789000D03*
X132798500Y-64789000D03*
X132798500Y-63113000D03*
X131976500Y-63113000D03*
%TD*%
D14*
%TO.C,R36*%
X99460000Y-94460000D03*
X101285000Y-94460000D03*
%TD*%
D29*
%TO.C,C2*%
X38630000Y-38405000D03*
X40530000Y-38405000D03*
%TD*%
%TO.C,C22*%
X166935000Y-82980000D03*
X168835000Y-82980000D03*
%TD*%
D26*
%TO.C,J5*%
X110325000Y-43375000D03*
D27*
X109325000Y-43375000D03*
X108325000Y-43375000D03*
X107325000Y-43375000D03*
%TD*%
D33*
%TO.C,R18*%
X130350000Y-106060000D03*
X130350000Y-107885000D03*
%TD*%
D18*
%TO.C,TP1*%
X60910000Y-82000000D03*
%TD*%
D19*
%TO.C,C9*%
X51850500Y-63901000D03*
X51850500Y-65801000D03*
%TD*%
D14*
%TO.C,R7*%
X162053000Y-36122000D03*
X163878000Y-36122000D03*
%TD*%
%TO.C,R38*%
X138475000Y-89580000D03*
X140300000Y-89580000D03*
%TD*%
D34*
%TO.C,U12*%
X61345800Y-95650000D03*
X61345800Y-96589800D03*
X61345800Y-97529600D03*
X63835000Y-97529600D03*
X63835000Y-96589800D03*
X63835000Y-95650000D03*
%TD*%
D14*
%TO.C,R23*%
X43145000Y-84330000D03*
X44970000Y-84330000D03*
%TD*%
D23*
%TO.C,U5*%
X56540500Y-64451000D03*
D24*
X54466500Y-65289000D03*
X55288500Y-65289000D03*
X55288500Y-63613000D03*
X54466500Y-63613000D03*
%TD*%
D35*
%TO.C,U19*%
X94534999Y-111174600D03*
X93435001Y-111174600D03*
X92335001Y-111174600D03*
X91235000Y-111174600D03*
X90135000Y-111174600D03*
X89035000Y-111174600D03*
X87934999Y-111174600D03*
X86834999Y-111174600D03*
X85734999Y-111174600D03*
X85735001Y-120090000D03*
X86834999Y-120090000D03*
X87934999Y-120090000D03*
X89035000Y-120090000D03*
X90135000Y-120090000D03*
X91235000Y-120090000D03*
X92335001Y-120090000D03*
X93435001Y-120090000D03*
X94535001Y-120090000D03*
%TD*%
D29*
%TO.C,C6*%
X118235000Y-38428000D03*
X120135000Y-38428000D03*
%TD*%
D19*
%TO.C,C1*%
X34778000Y-32097000D03*
X34778000Y-33997000D03*
%TD*%
D26*
%TO.C,J7*%
X174640000Y-128900000D03*
D27*
X175640000Y-128900000D03*
X176640000Y-128900000D03*
X177640000Y-128900000D03*
%TD*%
D33*
%TO.C,R19*%
X133450000Y-106100000D03*
X133450000Y-107925000D03*
%TD*%
D26*
%TO.C,J6*%
X120370000Y-82380000D03*
D27*
X120370000Y-83380000D03*
X120370000Y-84380000D03*
X120370000Y-85380000D03*
X120370000Y-86380000D03*
X120370000Y-87380000D03*
X120370000Y-88380000D03*
%TD*%
D14*
%TO.C,R1*%
X34825000Y-36135000D03*
X36650000Y-36135000D03*
%TD*%
D36*
%TO.C,D6*%
X33160000Y-84320000D03*
X33160000Y-87920000D03*
%TD*%
D22*
%TO.C,C44*%
X94860000Y-79430000D03*
X94860000Y-77530000D03*
%TD*%
D37*
%TO.C,FAULT1*%
X43400000Y-87070000D03*
X43400000Y-89370000D03*
%TD*%
D38*
%TO.C,C35*%
X127010000Y-90010000D03*
X125110000Y-90010000D03*
%TD*%
D23*
%TO.C,U8*%
X181645000Y-64070000D03*
D24*
X179571000Y-64908000D03*
X180393000Y-64908000D03*
X180393000Y-63232000D03*
X179571000Y-63232000D03*
%TD*%
D19*
%TO.C,C24*%
X165285000Y-90005000D03*
X165285000Y-91905000D03*
%TD*%
D14*
%TO.C,R21*%
X41385000Y-104710000D03*
X43210000Y-104710000D03*
%TD*%
%TO.C,R11*%
X99237500Y-68120000D03*
X101062500Y-68120000D03*
%TD*%
D39*
%TO.C,D2*%
X67133800Y-114600000D03*
X67133800Y-113300000D03*
X65133800Y-113950000D03*
%TD*%
D40*
%TO.C,SW3*%
X113725001Y-106199999D03*
X109224999Y-106199999D03*
X113725001Y-104050001D03*
X109224999Y-104050001D03*
%TD*%
D25*
%TO.C,R26*%
X54690000Y-89030000D03*
X54690000Y-87205000D03*
%TD*%
D14*
%TO.C,R9*%
X52005500Y-67931000D03*
X53830500Y-67931000D03*
%TD*%
D32*
%TO.C,R34*%
X92595000Y-89130000D03*
X90770000Y-89130000D03*
%TD*%
D14*
%TO.C,R14*%
X133245500Y-67491000D03*
X135070500Y-67491000D03*
%TD*%
D25*
%TO.C,R25*%
X51610000Y-89000000D03*
X51610000Y-87175000D03*
%TD*%
D14*
%TO.C,R13*%
X129465500Y-67491000D03*
X131290500Y-67491000D03*
%TD*%
D29*
%TO.C,C20*%
X166935000Y-78730000D03*
X168835000Y-78730000D03*
%TD*%
D41*
%TO.C,U14*%
X107320000Y-92000800D03*
X106370000Y-92000800D03*
X105420000Y-92000800D03*
X105420000Y-94500800D03*
X106370000Y-94500800D03*
X107320000Y-94500800D03*
%TD*%
D19*
%TO.C,C29*%
X29700000Y-80540000D03*
X29700000Y-82440000D03*
%TD*%
D37*
%TO.C,CHG1*%
X43470000Y-100310000D03*
X43470000Y-98010000D03*
%TD*%
D22*
%TO.C,C27*%
X33760000Y-106050000D03*
X33760000Y-104150000D03*
%TD*%
D26*
%TO.C,J4*%
X143850000Y-82100000D03*
D27*
X143850000Y-83100000D03*
X143850000Y-84100000D03*
X143850000Y-85100000D03*
X143850000Y-86100000D03*
X143850000Y-87100000D03*
X143850000Y-88100000D03*
%TD*%
D29*
%TO.C,C14*%
X133230500Y-69781000D03*
X135130500Y-69781000D03*
%TD*%
D14*
%TO.C,R5*%
X114510000Y-36198000D03*
X116335000Y-36198000D03*
%TD*%
%TO.C,R10*%
X55715500Y-67931000D03*
X57540500Y-67931000D03*
%TD*%
D22*
%TO.C,C23*%
X167310000Y-91930000D03*
X167310000Y-90030000D03*
%TD*%
D26*
%TO.C,J12*%
X25120000Y-81590000D03*
D27*
X25120000Y-80590000D03*
%TD*%
D36*
%TO.C,D4*%
X96050000Y-88950000D03*
X96050000Y-92550000D03*
%TD*%
D14*
%TO.C,R15*%
X177060000Y-67610000D03*
X178885000Y-67610000D03*
%TD*%
D19*
%TO.C,C11*%
X99152500Y-63980000D03*
X99152500Y-65880000D03*
%TD*%
D42*
%TO.C,D1*%
X126350000Y-107790000D03*
D43*
X125500000Y-107720000D03*
D44*
X126350000Y-106890000D03*
D42*
X126350000Y-105990000D03*
X124650000Y-105990000D03*
D44*
X124650000Y-106890000D03*
D45*
X125500000Y-106300000D03*
D42*
X124650000Y-107790000D03*
%TD*%
D25*
%TO.C,R35*%
X84300000Y-87590000D03*
X84300000Y-85765000D03*
%TD*%
D46*
%TO.C,U13*%
X71336950Y-87869979D03*
X71336950Y-87219993D03*
X71336950Y-86570007D03*
X71336950Y-85920021D03*
X66930050Y-85920021D03*
X66930050Y-86570007D03*
X66930050Y-87219993D03*
X66930050Y-87869979D03*
D47*
X69133500Y-86895000D03*
%TD*%
D19*
%TO.C,C15*%
X177035000Y-63550000D03*
X177035000Y-65450000D03*
%TD*%
D14*
%TO.C,R12*%
X103007500Y-68140000D03*
X104832500Y-68140000D03*
%TD*%
D19*
%TO.C,C13*%
X129440500Y-63431000D03*
X129440500Y-65331000D03*
%TD*%
D14*
%TO.C,R37*%
X105387500Y-97920000D03*
X107212500Y-97920000D03*
%TD*%
D29*
%TO.C,C19*%
X166935000Y-76605000D03*
X168835000Y-76605000D03*
%TD*%
D48*
%TO.C,L1*%
X74440000Y-89090000D03*
X74440000Y-90690000D03*
%TD*%
D49*
%TO.C,J9*%
X28000000Y-91570000D03*
X28000000Y-92220000D03*
X28000000Y-92870000D03*
X28000000Y-93520000D03*
X28000000Y-94170000D03*
D50*
X27875000Y-89770000D03*
X27875000Y-95970000D03*
D51*
X25325000Y-89070000D03*
D52*
X25325000Y-91670000D03*
X25325000Y-94070000D03*
D51*
X25325000Y-96670000D03*
%TD*%
D53*
%TO.C,J3*%
X190382200Y-93873000D03*
X187842200Y-92857000D03*
X190382200Y-91841000D03*
X187842200Y-90825000D03*
X190382200Y-89809000D03*
X187842200Y-88793000D03*
X190382200Y-87777000D03*
X187842200Y-86761000D03*
D54*
X191195000Y-82189000D03*
X191195000Y-98445000D03*
%TD*%
D29*
%TO.C,C8*%
X165798000Y-38362000D03*
X167698000Y-38362000D03*
%TD*%
D25*
%TO.C,R29*%
X61060000Y-90800000D03*
X61060000Y-88975000D03*
%TD*%
D23*
%TO.C,U6*%
X103822500Y-64540000D03*
D24*
X101748500Y-65378000D03*
X102570500Y-65378000D03*
X102570500Y-63702000D03*
X101748500Y-63702000D03*
%TD*%
D13*
%TO.C,D5*%
X99360000Y-89780000D03*
X102960000Y-89780000D03*
%TD*%
D19*
%TO.C,C5*%
X114425000Y-32148000D03*
X114425000Y-34048000D03*
%TD*%
D18*
%TO.C,TP7*%
X88220000Y-79330000D03*
%TD*%
D19*
%TO.C,C28*%
X48030000Y-103190000D03*
X48030000Y-105090000D03*
%TD*%
D38*
%TO.C,C18*%
X168835000Y-85080000D03*
X166935000Y-85080000D03*
%TD*%
D29*
%TO.C,C41*%
X64300000Y-82030000D03*
X66200000Y-82030000D03*
%TD*%
D55*
%TO.C,U15*%
X78510400Y-88029200D03*
X79450200Y-88029200D03*
X80390000Y-88029200D03*
X80390000Y-85540000D03*
X79450200Y-85540000D03*
X78510400Y-85540000D03*
%TD*%
D26*
%TO.C,J11*%
X26330000Y-104390000D03*
D27*
X26330000Y-105390000D03*
%TD*%
D34*
%TO.C,U18*%
X75286200Y-113097500D03*
X75286200Y-115002500D03*
X77673800Y-114050000D03*
%TD*%
D29*
%TO.C,C16*%
X180825000Y-69900000D03*
X182725000Y-69900000D03*
%TD*%
D38*
%TO.C,C40*%
X70940000Y-91830000D03*
X69040000Y-91830000D03*
%TD*%
D25*
%TO.C,R39*%
X72912400Y-115125000D03*
X72912400Y-113300000D03*
%TD*%
D56*
%TO.C,F3*%
X54520000Y-104970000D03*
X59300000Y-104970000D03*
%TD*%
D57*
%TO.C,U10*%
X164120000Y-112590000D03*
D58*
X161580000Y-112590000D03*
X159040000Y-112590000D03*
X156500000Y-112590000D03*
X153960000Y-112590000D03*
X151420000Y-112590000D03*
X148880000Y-112590000D03*
X146340000Y-112590000D03*
X143800000Y-112590000D03*
X141260000Y-112590000D03*
X138720000Y-112590000D03*
X136180000Y-112590000D03*
X133640000Y-112590000D03*
X131100000Y-112590000D03*
X128560000Y-112590000D03*
X126020000Y-112590000D03*
X123480000Y-112590000D03*
X120940000Y-112590000D03*
X118400000Y-112590000D03*
X115860000Y-112590000D03*
X113320000Y-112590000D03*
X110780000Y-112590000D03*
X108240000Y-112590000D03*
X105700000Y-112590000D03*
X105700000Y-127830000D03*
X108240000Y-127830000D03*
X110780000Y-127830000D03*
X113320000Y-127830000D03*
X115860000Y-127830000D03*
X118400000Y-127830000D03*
X120940000Y-127830000D03*
X123480000Y-127830000D03*
X126020000Y-127830000D03*
X128560000Y-127830000D03*
X131100000Y-127830000D03*
X133640000Y-127830000D03*
X136180000Y-127830000D03*
X138720000Y-127830000D03*
X141260000Y-127830000D03*
X143800000Y-127830000D03*
X146340000Y-127830000D03*
X148880000Y-127830000D03*
X151420000Y-127830000D03*
X153960000Y-127830000D03*
X156500000Y-127830000D03*
X159040000Y-127830000D03*
X161580000Y-127830000D03*
X164120000Y-127830000D03*
X161580000Y-125290000D03*
X118400000Y-115130000D03*
X118400000Y-117670000D03*
X118400000Y-120210000D03*
X118400000Y-122750000D03*
X118400000Y-125290000D03*
D57*
X157820800Y-115640800D03*
D58*
X155280800Y-115640800D03*
X152740800Y-115640800D03*
X150200800Y-115640800D03*
X147660800Y-115640800D03*
D59*
X151150000Y-125391600D03*
D60*
X151150000Y-123391600D03*
X151150000Y-121391600D03*
X149150000Y-121391600D03*
X149150000Y-123391600D03*
X149150000Y-125391600D03*
X163390000Y-121480000D03*
X163390000Y-118940000D03*
%TD*%
D14*
%TO.C,R28*%
X64007500Y-90690000D03*
X65832500Y-90690000D03*
%TD*%
D32*
%TO.C,R4*%
X87620000Y-36105000D03*
X85795000Y-36105000D03*
%TD*%
D33*
%TO.C,R20*%
X136620000Y-106240000D03*
X136620000Y-108065000D03*
%TD*%
D19*
%TO.C,C3*%
X81950000Y-32075000D03*
X81950000Y-33975000D03*
%TD*%
D23*
%TO.C,U1*%
X39440000Y-32635000D03*
D24*
X37366000Y-33473000D03*
X38188000Y-33473000D03*
X38188000Y-31797000D03*
X37366000Y-31797000D03*
%TD*%
D14*
%TO.C,R16*%
X180840000Y-67610000D03*
X182665000Y-67610000D03*
%TD*%
D23*
%TO.C,U3*%
X119075000Y-32708000D03*
D24*
X117001000Y-33546000D03*
X117823000Y-33546000D03*
X117823000Y-31870000D03*
X117001000Y-31870000D03*
%TD*%
D38*
%TO.C,C4*%
X87670000Y-38385000D03*
X85770000Y-38385000D03*
%TD*%
D23*
%TO.C,U2*%
X86642000Y-32613000D03*
D24*
X84568000Y-33451000D03*
X85390000Y-33451000D03*
X85390000Y-31775000D03*
X84568000Y-31775000D03*
%TD*%
D19*
%TO.C,C7*%
X162048000Y-32112000D03*
X162048000Y-34012000D03*
%TD*%
D61*
%TO.C,C39*%
X86515000Y-122070000D03*
X85875000Y-122070000D03*
%TD*%
D32*
%TO.C,R27*%
X50115000Y-92390000D03*
X48290000Y-92390000D03*
%TD*%
D29*
%TO.C,C17*%
X166935000Y-87205000D03*
X168835000Y-87205000D03*
%TD*%
D62*
%TO.C,J10*%
X73458500Y-128360000D03*
D63*
X77840000Y-128360000D03*
X69077000Y-128360000D03*
%TD*%
D64*
%TO.C,BAT1*%
X58380000Y-120920000D03*
D65*
X47780000Y-120920000D03*
D66*
X37180000Y-120920000D03*
%TD*%
D67*
%TO.C,S2*%
X38810000Y-77855000D03*
D68*
X41810000Y-77855000D03*
X44810000Y-77855000D03*
D69*
X36010000Y-77855000D03*
X47610000Y-77855000D03*
%TD*%
D14*
%TO.C,R3*%
X81995000Y-36105000D03*
X83820000Y-36105000D03*
%TD*%
D25*
%TO.C,R24*%
X48390000Y-88880000D03*
X48390000Y-87055000D03*
%TD*%
D14*
%TO.C,R30*%
X68600000Y-101850000D03*
X70425000Y-101850000D03*
%TD*%
%TO.C,R6*%
X118232500Y-36208000D03*
X120057500Y-36208000D03*
%TD*%
D19*
%TO.C,C25*%
X155460000Y-89980000D03*
X155460000Y-91880000D03*
%TD*%
D70*
%TO.C,U16*%
X135325000Y-88306000D03*
X135325000Y-87656000D03*
X135325000Y-87006000D03*
X135325000Y-86356000D03*
X135325000Y-85706000D03*
X135325000Y-85056000D03*
X135325000Y-84406000D03*
X135325000Y-83756000D03*
X135325000Y-83106000D03*
X135325000Y-82456000D03*
X129600000Y-82456000D03*
X129600000Y-83106000D03*
X129600000Y-83756000D03*
X129600000Y-84406000D03*
X129600000Y-85056000D03*
X129600000Y-85706000D03*
X129600000Y-86356000D03*
X129600000Y-87006000D03*
X129600000Y-87656000D03*
X129600000Y-88306000D03*
%TD*%
D71*
%TO.C,U17*%
X92059999Y-81849999D03*
X92059999Y-82800000D03*
X92059999Y-83749998D03*
X94809999Y-83749998D03*
X94809999Y-81849999D03*
%TD*%
D29*
%TO.C,C10*%
X55670500Y-70211000D03*
X57570500Y-70211000D03*
%TD*%
D40*
%TO.C,SW2*%
X115860001Y-94469999D03*
X111359999Y-94469999D03*
X115860001Y-92320001D03*
X111359999Y-92320001D03*
%TD*%
D14*
%TO.C,R40*%
X72297500Y-81990000D03*
X74122500Y-81990000D03*
%TD*%
D19*
%TO.C,C43*%
X92170000Y-77500000D03*
X92170000Y-79400000D03*
%TD*%
D14*
%TO.C,R31*%
X75010000Y-101890000D03*
X76835000Y-101890000D03*
%TD*%
D53*
%TO.C,J2*%
X190362200Y-114453000D03*
X187822200Y-113437000D03*
X190362200Y-112421000D03*
X187822200Y-111405000D03*
X190362200Y-110389000D03*
X187822200Y-109373000D03*
X190362200Y-108357000D03*
X187822200Y-107341000D03*
D54*
X191175000Y-102769000D03*
X191175000Y-119025000D03*
%TD*%
D25*
%TO.C,R22*%
X37540000Y-105980000D03*
X37540000Y-104155000D03*
%TD*%
D29*
%TO.C,C38*%
X37695000Y-84470000D03*
X39595000Y-84470000D03*
%TD*%
D38*
%TO.C,C21*%
X168835000Y-80855000D03*
X166935000Y-80855000D03*
%TD*%
M02*
