%TF.GenerationSoftware,KiCad,Pcbnew,9.0.6*%
%TF.CreationDate,2026-02-19T14:51:32+00:00*%
%TF.ProjectId,SongBeam4.0,536f6e67-4265-4616-9d34-2e302e6b6963,4.0*%
%TF.SameCoordinates,Original*%
%TF.FileFunction,Soldermask,Bot*%
%TF.FilePolarity,Negative*%
%FSLAX46Y46*%
G04 Gerber Fmt 4.6, Leading zero omitted, Abs format (unit mm)*
G04 Created by KiCad (PCBNEW 9.0.6) date 2026-02-19 14:51:32*
%MOMM*%
%LPD*%
G01*
G04 APERTURE LIST*
%ADD10C,0.600000*%
%ADD11R,0.850000X0.850000*%
%ADD12C,0.850000*%
%ADD13C,1.447800*%
%ADD14C,2.133600*%
%ADD15R,1.600000X1.600000*%
%ADD16C,1.600000*%
%ADD17R,1.300000X1.300000*%
%ADD18C,1.300000*%
%ADD19R,3.000000X3.000000*%
%ADD20C,3.000000*%
%ADD21R,1.515000X1.515000*%
%ADD22C,1.515000*%
%ADD23C,2.385000*%
G04 APERTURE END LIST*
D10*
%TO.C,U4*%
X166660000Y-32630000D03*
%TD*%
D11*
%TO.C,J8*%
X82955000Y-106395000D03*
D12*
X83955000Y-106395000D03*
X84955000Y-106395000D03*
X85955000Y-106395000D03*
X86955000Y-106395000D03*
X87955000Y-106395000D03*
X88955000Y-106395000D03*
X89955000Y-106395000D03*
%TD*%
D11*
%TO.C,J1*%
X83825000Y-80400000D03*
D12*
X83825000Y-81400000D03*
%TD*%
D10*
%TO.C,U7*%
X134050500Y-63951000D03*
%TD*%
D11*
%TO.C,J5*%
X110325000Y-43375000D03*
D12*
X109325000Y-43375000D03*
X108325000Y-43375000D03*
X107325000Y-43375000D03*
%TD*%
D10*
%TO.C,U5*%
X56540500Y-64451000D03*
%TD*%
D11*
%TO.C,J7*%
X174640000Y-128900000D03*
D12*
X175640000Y-128900000D03*
X176640000Y-128900000D03*
X177640000Y-128900000D03*
%TD*%
D11*
%TO.C,J6*%
X120370000Y-82380000D03*
D12*
X120370000Y-83380000D03*
X120370000Y-84380000D03*
X120370000Y-85380000D03*
X120370000Y-86380000D03*
X120370000Y-87380000D03*
X120370000Y-88380000D03*
%TD*%
D10*
%TO.C,U8*%
X181645000Y-64070000D03*
%TD*%
D11*
%TO.C,J4*%
X143850000Y-82100000D03*
D12*
X143850000Y-83100000D03*
X143850000Y-84100000D03*
X143850000Y-85100000D03*
X143850000Y-86100000D03*
X143850000Y-87100000D03*
X143850000Y-88100000D03*
%TD*%
D11*
%TO.C,J12*%
X25120000Y-81590000D03*
D12*
X25120000Y-80590000D03*
%TD*%
D13*
%TO.C,J3*%
X190382200Y-93873000D03*
X187842200Y-92857000D03*
X190382200Y-91841000D03*
X187842200Y-90825000D03*
X190382200Y-89809000D03*
X187842200Y-88793000D03*
X190382200Y-87777000D03*
X187842200Y-86761000D03*
D14*
X191195000Y-82189000D03*
X191195000Y-98445000D03*
%TD*%
D10*
%TO.C,U6*%
X103822500Y-64540000D03*
%TD*%
D11*
%TO.C,J11*%
X26330000Y-104390000D03*
D12*
X26330000Y-105390000D03*
%TD*%
D15*
%TO.C,U10*%
X164120000Y-112590000D03*
D16*
X161580000Y-112590000D03*
X159040000Y-112590000D03*
X156500000Y-112590000D03*
X153960000Y-112590000D03*
X151420000Y-112590000D03*
X148880000Y-112590000D03*
X146340000Y-112590000D03*
X143800000Y-112590000D03*
X141260000Y-112590000D03*
X138720000Y-112590000D03*
X136180000Y-112590000D03*
X133640000Y-112590000D03*
X131100000Y-112590000D03*
X128560000Y-112590000D03*
X126020000Y-112590000D03*
X123480000Y-112590000D03*
X120940000Y-112590000D03*
X118400000Y-112590000D03*
X115860000Y-112590000D03*
X113320000Y-112590000D03*
X110780000Y-112590000D03*
X108240000Y-112590000D03*
X105700000Y-112590000D03*
X105700000Y-127830000D03*
X108240000Y-127830000D03*
X110780000Y-127830000D03*
X113320000Y-127830000D03*
X115860000Y-127830000D03*
X118400000Y-127830000D03*
X120940000Y-127830000D03*
X123480000Y-127830000D03*
X126020000Y-127830000D03*
X128560000Y-127830000D03*
X131100000Y-127830000D03*
X133640000Y-127830000D03*
X136180000Y-127830000D03*
X138720000Y-127830000D03*
X141260000Y-127830000D03*
X143800000Y-127830000D03*
X146340000Y-127830000D03*
X148880000Y-127830000D03*
X151420000Y-127830000D03*
X153960000Y-127830000D03*
X156500000Y-127830000D03*
X159040000Y-127830000D03*
X161580000Y-127830000D03*
X164120000Y-127830000D03*
X161580000Y-125290000D03*
X118400000Y-115130000D03*
X118400000Y-117670000D03*
X118400000Y-120210000D03*
X118400000Y-122750000D03*
X118400000Y-125290000D03*
D15*
X157820800Y-115640800D03*
D16*
X155280800Y-115640800D03*
X152740800Y-115640800D03*
X150200800Y-115640800D03*
X147660800Y-115640800D03*
D17*
X151150000Y-125391600D03*
D18*
X151150000Y-123391600D03*
X151150000Y-121391600D03*
X149150000Y-121391600D03*
X149150000Y-123391600D03*
X149150000Y-125391600D03*
X163390000Y-121480000D03*
X163390000Y-118940000D03*
%TD*%
D10*
%TO.C,U1*%
X39440000Y-32635000D03*
%TD*%
%TO.C,U3*%
X119075000Y-32708000D03*
%TD*%
%TO.C,U2*%
X86642000Y-32613000D03*
%TD*%
D19*
%TO.C,BAT1*%
X58380000Y-120920000D03*
D20*
X37180000Y-120920000D03*
%TD*%
D21*
%TO.C,S2*%
X38810000Y-77855000D03*
D22*
X41810000Y-77855000D03*
X44810000Y-77855000D03*
D23*
X36010000Y-77855000D03*
X47610000Y-77855000D03*
%TD*%
D13*
%TO.C,J2*%
X190362200Y-114453000D03*
X187822200Y-113437000D03*
X190362200Y-112421000D03*
X187822200Y-111405000D03*
X190362200Y-110389000D03*
X187822200Y-109373000D03*
X190362200Y-108357000D03*
X187822200Y-107341000D03*
D14*
X191175000Y-102769000D03*
X191175000Y-119025000D03*
%TD*%
M02*
