%TF.GenerationSoftware,KiCad,Pcbnew,9.0.6*%
%TF.CreationDate,2026-02-19T14:51:32+00:00*%
%TF.ProjectId,SongBeam4.0,536f6e67-4265-4616-9d34-2e302e6b6963,4.0*%
%TF.SameCoordinates,Original*%
%TF.FileFunction,Other,User*%
%FSLAX46Y46*%
G04 Gerber Fmt 4.6, Leading zero omitted, Abs format (unit mm)*
G04 Created by KiCad (PCBNEW 9.0.6) date 2026-02-19 14:51:32*
%MOMM*%
%LPD*%
G01*
G04 APERTURE LIST*
%ADD10C,0.050000*%
%ADD11C,0.152400*%
%ADD12C,0.100000*%
G04 APERTURE END LIST*
D10*
%TO.C,C33*%
X167880000Y-127390000D02*
X167880000Y-128790000D01*
X167180000Y-127390000D02*
X167880000Y-127390000D01*
X167880000Y-128790000D02*
X167180000Y-128790000D01*
X167180000Y-128790000D02*
X167180000Y-127390000D01*
%TO.C,L2*%
X88985000Y-124930000D02*
X87085000Y-124930000D01*
X88985000Y-126030000D02*
X87085000Y-126030000D01*
X88985000Y-124930000D02*
X88985000Y-126030000D01*
X87085000Y-124930000D02*
X87085000Y-126030000D01*
%TO.C,D8*%
X30675000Y-110225000D02*
X25525000Y-110225000D01*
X25525000Y-110225000D02*
X25525000Y-106875000D01*
X25525000Y-106875000D02*
X30675000Y-106875000D01*
X30675000Y-106875000D02*
X30675000Y-110225000D01*
%TO.C,C30*%
X90940000Y-126120000D02*
X90940000Y-127520000D01*
X90240000Y-126120000D02*
X90940000Y-126120000D01*
X90940000Y-127520000D02*
X90240000Y-127520000D01*
X90240000Y-127520000D02*
X90240000Y-126120000D01*
%TO.C,R33*%
X104522500Y-87070000D02*
X107882500Y-87070000D01*
X104522500Y-88970000D02*
X104522500Y-87070000D01*
X107882500Y-87070000D02*
X107882500Y-88970000D01*
X107882500Y-88970000D02*
X104522500Y-88970000D01*
D11*
%TO.C,U9*%
X159295801Y-84354385D02*
X159595800Y-84354385D01*
X159295801Y-87617815D02*
X159295801Y-84354385D01*
X159595800Y-83662000D02*
X160288185Y-83662000D01*
X159595800Y-84354385D02*
X159595800Y-83662000D01*
X159595800Y-87617815D02*
X159295801Y-87617815D01*
X159595800Y-88310200D02*
X159595800Y-87617815D01*
X160288185Y-83362001D02*
X163551615Y-83362001D01*
X160288185Y-83662000D02*
X160288185Y-83362001D01*
X160288185Y-88310200D02*
X159595800Y-88310200D01*
X160288185Y-88610199D02*
X160288185Y-88310200D01*
X163551615Y-83362001D02*
X163551615Y-83662000D01*
X163551615Y-83662000D02*
X164244000Y-83662000D01*
X163551615Y-88310200D02*
X163551615Y-88610199D01*
X163551615Y-88610199D02*
X160288185Y-88610199D01*
X164244000Y-83662000D02*
X164244000Y-84354385D01*
X164244000Y-84354385D02*
X164543999Y-84354385D01*
X164244000Y-87617815D02*
X164244000Y-88310200D01*
X164244000Y-88310200D02*
X163551615Y-88310200D01*
X164543999Y-84354385D02*
X164543999Y-87617815D01*
X164543999Y-87617815D02*
X164244000Y-87617815D01*
D10*
%TO.C,TP8*%
X99810000Y-79240000D02*
G75*
G02*
X97810000Y-79240000I-1000000J0D01*
G01*
X97810000Y-79240000D02*
G75*
G02*
X99810000Y-79240000I1000000J0D01*
G01*
%TO.C,TP2*%
X80930000Y-101960000D02*
G75*
G02*
X78930000Y-101960000I-1000000J0D01*
G01*
X78930000Y-101960000D02*
G75*
G02*
X80930000Y-101960000I1000000J0D01*
G01*
%TO.C,C32*%
X79420000Y-89620000D02*
X81380000Y-89620000D01*
X79420000Y-93020000D02*
X79420000Y-89620000D01*
X81380000Y-89620000D02*
X81380000Y-93020000D01*
X81380000Y-93020000D02*
X79420000Y-93020000D01*
%TO.C,JP1*%
X79165000Y-82630000D02*
X79165000Y-79330000D01*
X79165000Y-82630000D02*
X81665000Y-82630000D01*
X81665000Y-79330000D02*
X79165000Y-79330000D01*
X81665000Y-79330000D02*
X81665000Y-82630000D01*
%TO.C,C26*%
X156755000Y-89230000D02*
X158715000Y-89230000D01*
X156755000Y-92630000D02*
X156755000Y-89230000D01*
X158715000Y-89230000D02*
X158715000Y-92630000D01*
X158715000Y-92630000D02*
X156755000Y-92630000D01*
D12*
%TO.C,U4*%
X163423004Y-34729996D02*
X163423004Y-30606004D01*
X168416000Y-30606004D02*
X163423004Y-30606004D01*
X168416000Y-34729996D02*
X163423004Y-34729996D01*
X168416000Y-34729996D02*
X168416000Y-30606004D01*
D10*
%TO.C,R17*%
X160535000Y-89337500D02*
X162435000Y-89337500D01*
X160535000Y-92697500D02*
X160535000Y-89337500D01*
X162435000Y-89337500D02*
X162435000Y-92697500D01*
X162435000Y-92697500D02*
X160535000Y-92697500D01*
%TO.C,J8*%
X81955000Y-105255000D02*
X81955000Y-107535000D01*
X81955000Y-107535000D02*
X90955000Y-107535000D01*
X90955000Y-105255000D02*
X81955000Y-105255000D01*
X90955000Y-107535000D02*
X90955000Y-105255000D01*
%TO.C,D7*%
X56910000Y-86340000D02*
X59110000Y-86340000D01*
X56910000Y-91640000D02*
X56910000Y-86340000D01*
X59110000Y-86340000D02*
X59110000Y-91640000D01*
X59110000Y-91640000D02*
X56910000Y-91640000D01*
%TO.C,R8*%
X165065500Y-35192000D02*
X168425500Y-35192000D01*
X165065500Y-37092000D02*
X165065500Y-35192000D01*
X168425500Y-35192000D02*
X168425500Y-37092000D01*
X168425500Y-37092000D02*
X165065500Y-37092000D01*
%TO.C,C12*%
X102242500Y-69430000D02*
X105642500Y-69430000D01*
X102242500Y-71390000D02*
X102242500Y-69430000D01*
X105642500Y-69430000D02*
X105642500Y-71390000D01*
X105642500Y-71390000D02*
X102242500Y-71390000D01*
D11*
%TO.C,U11*%
X34332000Y-92570000D02*
X34484400Y-92570000D01*
X34332000Y-95389400D02*
X34332000Y-92570000D01*
X34484400Y-92265200D02*
X34484400Y-92570000D01*
X34484400Y-92265200D02*
X36795800Y-92265200D01*
X34484400Y-95389400D02*
X34332000Y-95389400D01*
X34484400Y-95694200D02*
X34484400Y-95389400D01*
X36795800Y-92265200D02*
X36795800Y-92570000D01*
X36795800Y-92570000D02*
X36948200Y-92570000D01*
X36795800Y-95694200D02*
X34484400Y-95694200D01*
X36795800Y-95694200D02*
X36795800Y-95389400D01*
X36948200Y-92570000D02*
X36948200Y-95389400D01*
X36948200Y-95389400D02*
X36795800Y-95389400D01*
D10*
%TO.C,R2*%
X37892500Y-35195000D02*
X41252500Y-35195000D01*
X37892500Y-37095000D02*
X37892500Y-35195000D01*
X41252500Y-35195000D02*
X41252500Y-37095000D01*
X41252500Y-37095000D02*
X37892500Y-37095000D01*
%TO.C,J1*%
X82685000Y-79400000D02*
X82685000Y-82400000D01*
X82685000Y-82400000D02*
X84965000Y-82400000D01*
X84965000Y-79400000D02*
X82685000Y-79400000D01*
X84965000Y-82400000D02*
X84965000Y-79400000D01*
%TO.C,C34*%
X137590000Y-90790000D02*
X140990000Y-90790000D01*
X137590000Y-92750000D02*
X137590000Y-90790000D01*
X140990000Y-90790000D02*
X140990000Y-92750000D01*
X140990000Y-92750000D02*
X137590000Y-92750000D01*
D12*
%TO.C,U7*%
X130813504Y-66050996D02*
X130813504Y-61927004D01*
X135806500Y-61927004D02*
X130813504Y-61927004D01*
X135806500Y-66050996D02*
X130813504Y-66050996D01*
X135806500Y-66050996D02*
X135806500Y-61927004D01*
D10*
%TO.C,R36*%
X98692500Y-93510000D02*
X102052500Y-93510000D01*
X98692500Y-95410000D02*
X98692500Y-93510000D01*
X102052500Y-93510000D02*
X102052500Y-95410000D01*
X102052500Y-95410000D02*
X98692500Y-95410000D01*
%TO.C,C2*%
X37880000Y-37425000D02*
X41280000Y-37425000D01*
X37880000Y-39385000D02*
X37880000Y-37425000D01*
X41280000Y-37425000D02*
X41280000Y-39385000D01*
X41280000Y-39385000D02*
X37880000Y-39385000D01*
%TO.C,C22*%
X166185000Y-82000000D02*
X169585000Y-82000000D01*
X166185000Y-83960000D02*
X166185000Y-82000000D01*
X169585000Y-82000000D02*
X169585000Y-83960000D01*
X169585000Y-83960000D02*
X166185000Y-83960000D01*
%TO.C,J5*%
X106325000Y-42235000D02*
X106325000Y-44515000D01*
X106325000Y-44515000D02*
X111325000Y-44515000D01*
X111325000Y-42235000D02*
X106325000Y-42235000D01*
X111325000Y-44515000D02*
X111325000Y-42235000D01*
%TO.C,R18*%
X129400000Y-105292500D02*
X131300000Y-105292500D01*
X129400000Y-108652500D02*
X129400000Y-105292500D01*
X131300000Y-105292500D02*
X131300000Y-108652500D01*
X131300000Y-108652500D02*
X129400000Y-108652500D01*
%TO.C,TP1*%
X61910000Y-82000000D02*
G75*
G02*
X59910000Y-82000000I-1000000J0D01*
G01*
X59910000Y-82000000D02*
G75*
G02*
X61910000Y-82000000I1000000J0D01*
G01*
%TO.C,C9*%
X50870500Y-63151000D02*
X52830500Y-63151000D01*
X50870500Y-66551000D02*
X50870500Y-63151000D01*
X52830500Y-63151000D02*
X52830500Y-66551000D01*
X52830500Y-66551000D02*
X50870500Y-66551000D01*
%TO.C,R7*%
X161285500Y-35172000D02*
X164645500Y-35172000D01*
X161285500Y-37072000D02*
X161285500Y-35172000D01*
X164645500Y-35172000D02*
X164645500Y-37072000D01*
X164645500Y-37072000D02*
X161285500Y-37072000D01*
%TO.C,R38*%
X137707500Y-88630000D02*
X141067500Y-88630000D01*
X137707500Y-90530000D02*
X137707500Y-88630000D01*
X141067500Y-88630000D02*
X141067500Y-90530000D01*
X141067500Y-90530000D02*
X137707500Y-90530000D01*
D11*
%TO.C,U12*%
X60431400Y-95116600D02*
X61485500Y-95116600D01*
X60431400Y-98063000D02*
X60431400Y-95116600D01*
X60431400Y-98063000D02*
X61485500Y-98063000D01*
X61485500Y-94786400D02*
X63695300Y-94786400D01*
X61485500Y-95116600D02*
X61485500Y-94786400D01*
X61485500Y-98393200D02*
X61485500Y-98063000D01*
X63695300Y-94786400D02*
X63695300Y-95116600D01*
X63695300Y-98063000D02*
X63695300Y-98393200D01*
X63695300Y-98393200D02*
X61485500Y-98393200D01*
X64749400Y-95116600D02*
X63695300Y-95116600D01*
X64749400Y-95116600D02*
X64749400Y-98063000D01*
X64749400Y-98063000D02*
X63695300Y-98063000D01*
D10*
%TO.C,R23*%
X42377500Y-83380000D02*
X45737500Y-83380000D01*
X42377500Y-85280000D02*
X42377500Y-83380000D01*
X45737500Y-83380000D02*
X45737500Y-85280000D01*
X45737500Y-85280000D02*
X42377500Y-85280000D01*
D12*
%TO.C,U5*%
X53303504Y-66550996D02*
X53303504Y-62427004D01*
X58296500Y-62427004D02*
X53303504Y-62427004D01*
X58296500Y-66550996D02*
X53303504Y-66550996D01*
X58296500Y-66550996D02*
X58296500Y-62427004D01*
D11*
%TO.C,U19*%
X84826400Y-110526900D02*
X85061900Y-110526900D01*
X84826400Y-120737700D02*
X84826400Y-110526900D01*
X85061900Y-110222100D02*
X85061900Y-110526900D01*
X85061900Y-110222100D02*
X95208100Y-110222100D01*
X85061900Y-120737700D02*
X84826400Y-120737700D01*
X85061900Y-121042500D02*
X85061900Y-120737700D01*
X95208100Y-110222100D02*
X95208100Y-110526900D01*
X95208100Y-110526900D02*
X95443600Y-110526900D01*
X95208100Y-121042500D02*
X85061900Y-121042500D01*
X95208100Y-121042500D02*
X95208100Y-120737700D01*
X95443600Y-110526900D02*
X95443600Y-120737700D01*
X95443600Y-120737700D02*
X95208100Y-120737700D01*
D10*
%TO.C,C6*%
X117485000Y-37448000D02*
X120885000Y-37448000D01*
X117485000Y-39408000D02*
X117485000Y-37448000D01*
X120885000Y-37448000D02*
X120885000Y-39408000D01*
X120885000Y-39408000D02*
X117485000Y-39408000D01*
%TO.C,C1*%
X33798000Y-31347000D02*
X35758000Y-31347000D01*
X33798000Y-34747000D02*
X33798000Y-31347000D01*
X35758000Y-31347000D02*
X35758000Y-34747000D01*
X35758000Y-34747000D02*
X33798000Y-34747000D01*
%TO.C,J7*%
X173640000Y-127760000D02*
X173640000Y-130040000D01*
X173640000Y-130040000D02*
X178640000Y-130040000D01*
X178640000Y-127760000D02*
X173640000Y-127760000D01*
X178640000Y-130040000D02*
X178640000Y-127760000D01*
%TO.C,R19*%
X132500000Y-105332500D02*
X134400000Y-105332500D01*
X132500000Y-108692500D02*
X132500000Y-105332500D01*
X134400000Y-105332500D02*
X134400000Y-108692500D01*
X134400000Y-108692500D02*
X132500000Y-108692500D01*
%TO.C,J6*%
X119230000Y-81380000D02*
X119230000Y-89380000D01*
X119230000Y-89380000D02*
X121510000Y-89380000D01*
X121510000Y-81380000D02*
X119230000Y-81380000D01*
X121510000Y-89380000D02*
X121510000Y-81380000D01*
%TO.C,R1*%
X34057500Y-35185000D02*
X37417500Y-35185000D01*
X34057500Y-37085000D02*
X34057500Y-35185000D01*
X37417500Y-35185000D02*
X37417500Y-37085000D01*
X37417500Y-37085000D02*
X34057500Y-37085000D01*
%TO.C,D6*%
X31485000Y-83545000D02*
X34835000Y-83545000D01*
X31485000Y-88695000D02*
X31485000Y-83545000D01*
X34835000Y-83545000D02*
X34835000Y-88695000D01*
X34835000Y-88695000D02*
X31485000Y-88695000D01*
%TO.C,C44*%
X93880000Y-76780000D02*
X95840000Y-76780000D01*
X93880000Y-80180000D02*
X93880000Y-76780000D01*
X95840000Y-76780000D02*
X95840000Y-80180000D01*
X95840000Y-80180000D02*
X93880000Y-80180000D01*
%TO.C,FAULT1*%
X42250000Y-86295000D02*
X44550000Y-86295000D01*
X42250000Y-90145000D02*
X42250000Y-86295000D01*
X44550000Y-86295000D02*
X44550000Y-90145000D01*
X44550000Y-90145000D02*
X42250000Y-90145000D01*
%TO.C,C35*%
X124360000Y-89030000D02*
X127760000Y-89030000D01*
X124360000Y-90990000D02*
X124360000Y-89030000D01*
X127760000Y-89030000D02*
X127760000Y-90990000D01*
X127760000Y-90990000D02*
X124360000Y-90990000D01*
D12*
%TO.C,U8*%
X178408004Y-66169996D02*
X178408004Y-62046004D01*
X183401000Y-62046004D02*
X178408004Y-62046004D01*
X183401000Y-66169996D02*
X178408004Y-66169996D01*
X183401000Y-66169996D02*
X183401000Y-62046004D01*
D10*
%TO.C,C24*%
X164305000Y-89255000D02*
X166265000Y-89255000D01*
X164305000Y-92655000D02*
X164305000Y-89255000D01*
X166265000Y-89255000D02*
X166265000Y-92655000D01*
X166265000Y-92655000D02*
X164305000Y-92655000D01*
%TO.C,R21*%
X40617500Y-103760000D02*
X43977500Y-103760000D01*
X40617500Y-105660000D02*
X40617500Y-103760000D01*
X43977500Y-103760000D02*
X43977500Y-105660000D01*
X43977500Y-105660000D02*
X40617500Y-105660000D01*
%TO.C,R11*%
X98470000Y-67170000D02*
X101830000Y-67170000D01*
X98470000Y-69070000D02*
X98470000Y-67170000D01*
X101830000Y-67170000D02*
X101830000Y-69070000D01*
X101830000Y-69070000D02*
X98470000Y-69070000D01*
%TO.C,D2*%
X64433800Y-112650000D02*
X67833800Y-112650000D01*
X64433800Y-115250000D02*
X64433800Y-112650000D01*
X67833800Y-112650000D02*
X67833800Y-115250000D01*
X67833800Y-115250000D02*
X64433800Y-115250000D01*
D11*
%TO.C,SW3*%
X108475699Y-103169200D02*
X108475699Y-107080800D01*
X108475699Y-107080800D02*
X114474301Y-107080800D01*
X114474301Y-103169200D02*
X108475699Y-103169200D01*
X114474301Y-107080800D02*
X114474301Y-103169200D01*
D10*
%TO.C,R26*%
X53740000Y-86437500D02*
X55640000Y-86437500D01*
X53740000Y-89797500D02*
X53740000Y-86437500D01*
X55640000Y-86437500D02*
X55640000Y-89797500D01*
X55640000Y-89797500D02*
X53740000Y-89797500D01*
%TO.C,R9*%
X51238000Y-66981000D02*
X54598000Y-66981000D01*
X51238000Y-68881000D02*
X51238000Y-66981000D01*
X54598000Y-66981000D02*
X54598000Y-68881000D01*
X54598000Y-68881000D02*
X51238000Y-68881000D01*
%TO.C,R34*%
X90002500Y-88180000D02*
X93362500Y-88180000D01*
X90002500Y-90080000D02*
X90002500Y-88180000D01*
X93362500Y-88180000D02*
X93362500Y-90080000D01*
X93362500Y-90080000D02*
X90002500Y-90080000D01*
%TO.C,R14*%
X132478000Y-66541000D02*
X135838000Y-66541000D01*
X132478000Y-68441000D02*
X132478000Y-66541000D01*
X135838000Y-66541000D02*
X135838000Y-68441000D01*
X135838000Y-68441000D02*
X132478000Y-68441000D01*
%TO.C,R25*%
X50660000Y-86407500D02*
X52560000Y-86407500D01*
X50660000Y-89767500D02*
X50660000Y-86407500D01*
X52560000Y-86407500D02*
X52560000Y-89767500D01*
X52560000Y-89767500D02*
X50660000Y-89767500D01*
%TO.C,R13*%
X128698000Y-66541000D02*
X132058000Y-66541000D01*
X128698000Y-68441000D02*
X128698000Y-66541000D01*
X132058000Y-66541000D02*
X132058000Y-68441000D01*
X132058000Y-68441000D02*
X128698000Y-68441000D01*
%TO.C,C20*%
X166185000Y-77750000D02*
X169585000Y-77750000D01*
X166185000Y-79710000D02*
X166185000Y-77750000D01*
X169585000Y-77750000D02*
X169585000Y-79710000D01*
X169585000Y-79710000D02*
X166185000Y-79710000D01*
%TO.C,U14*%
X104595000Y-91125800D02*
X108145000Y-91125800D01*
X104595000Y-95375800D02*
X104595000Y-91125800D01*
X108145000Y-91125800D02*
X108145000Y-95375800D01*
X108145000Y-95375800D02*
X104595000Y-95375800D01*
%TO.C,C29*%
X28720000Y-79790000D02*
X30680000Y-79790000D01*
X28720000Y-83190000D02*
X28720000Y-79790000D01*
X30680000Y-79790000D02*
X30680000Y-83190000D01*
X30680000Y-83190000D02*
X28720000Y-83190000D01*
%TO.C,CHG1*%
X42320000Y-97235000D02*
X44620000Y-97235000D01*
X42320000Y-101085000D02*
X42320000Y-97235000D01*
X44620000Y-97235000D02*
X44620000Y-101085000D01*
X44620000Y-101085000D02*
X42320000Y-101085000D01*
%TO.C,C27*%
X32780000Y-103400000D02*
X34740000Y-103400000D01*
X32780000Y-106800000D02*
X32780000Y-103400000D01*
X34740000Y-103400000D02*
X34740000Y-106800000D01*
X34740000Y-106800000D02*
X32780000Y-106800000D01*
%TO.C,J4*%
X142710000Y-81100000D02*
X142710000Y-89100000D01*
X142710000Y-89100000D02*
X144990000Y-89100000D01*
X144990000Y-81100000D02*
X142710000Y-81100000D01*
X144990000Y-89100000D02*
X144990000Y-81100000D01*
%TO.C,C14*%
X132480500Y-68801000D02*
X135880500Y-68801000D01*
X132480500Y-70761000D02*
X132480500Y-68801000D01*
X135880500Y-68801000D02*
X135880500Y-70761000D01*
X135880500Y-70761000D02*
X132480500Y-70761000D01*
%TO.C,R5*%
X113742500Y-35248000D02*
X117102500Y-35248000D01*
X113742500Y-37148000D02*
X113742500Y-35248000D01*
X117102500Y-35248000D02*
X117102500Y-37148000D01*
X117102500Y-37148000D02*
X113742500Y-37148000D01*
%TO.C,R10*%
X54948000Y-66981000D02*
X58308000Y-66981000D01*
X54948000Y-68881000D02*
X54948000Y-66981000D01*
X58308000Y-66981000D02*
X58308000Y-68881000D01*
X58308000Y-68881000D02*
X54948000Y-68881000D01*
%TO.C,C23*%
X166330000Y-89280000D02*
X168290000Y-89280000D01*
X166330000Y-92680000D02*
X166330000Y-89280000D01*
X168290000Y-89280000D02*
X168290000Y-92680000D01*
X168290000Y-92680000D02*
X166330000Y-92680000D01*
%TO.C,J12*%
X23980000Y-79590000D02*
X23980000Y-82590000D01*
X23980000Y-82590000D02*
X26260000Y-82590000D01*
X26260000Y-79590000D02*
X23980000Y-79590000D01*
X26260000Y-82590000D02*
X26260000Y-79590000D01*
%TO.C,D4*%
X94375000Y-88175000D02*
X97725000Y-88175000D01*
X94375000Y-93325000D02*
X94375000Y-88175000D01*
X97725000Y-88175000D02*
X97725000Y-93325000D01*
X97725000Y-93325000D02*
X94375000Y-93325000D01*
%TO.C,R15*%
X176292500Y-66660000D02*
X179652500Y-66660000D01*
X176292500Y-68560000D02*
X176292500Y-66660000D01*
X179652500Y-66660000D02*
X179652500Y-68560000D01*
X179652500Y-68560000D02*
X176292500Y-68560000D01*
%TO.C,C11*%
X98172500Y-63230000D02*
X100132500Y-63230000D01*
X98172500Y-66630000D02*
X98172500Y-63230000D01*
X100132500Y-63230000D02*
X100132500Y-66630000D01*
X100132500Y-66630000D02*
X98172500Y-66630000D01*
%TO.C,D1*%
X124000000Y-105490000D02*
X125000000Y-105490000D01*
X124000000Y-108290000D02*
X124000000Y-105490000D01*
X125000000Y-105310000D02*
X125000000Y-105490000D01*
X125000000Y-108290000D02*
X124000000Y-108290000D01*
X125000000Y-108470000D02*
X125000000Y-108290000D01*
X126000000Y-105310000D02*
X125000000Y-105310000D01*
X126000000Y-105490000D02*
X126000000Y-105310000D01*
X126000000Y-105490000D02*
X127000000Y-105490000D01*
X126000000Y-108290000D02*
X126000000Y-108470000D01*
X126000000Y-108470000D02*
X125000000Y-108470000D01*
X127000000Y-108290000D02*
X126000000Y-108290000D01*
X127000000Y-108290000D02*
X127000000Y-105490000D01*
%TO.C,R35*%
X83350000Y-84997500D02*
X85250000Y-84997500D01*
X83350000Y-88357500D02*
X83350000Y-84997500D01*
X85250000Y-84997500D02*
X85250000Y-88357500D01*
X85250000Y-88357500D02*
X83350000Y-88357500D01*
D11*
%TO.C,U13*%
X66022000Y-85500921D02*
X67330100Y-85500921D01*
X66022000Y-88289079D02*
X66022000Y-85500921D01*
X66022000Y-88289079D02*
X67330100Y-88289079D01*
X67330100Y-85091600D02*
X70936900Y-85091600D01*
X67330100Y-85500921D02*
X67330100Y-85091600D01*
X67330100Y-88698400D02*
X67330100Y-88289079D01*
X70936900Y-85091600D02*
X70936900Y-85500921D01*
X70936900Y-88289079D02*
X70936900Y-88698400D01*
X70936900Y-88698400D02*
X67330100Y-88698400D01*
X72245000Y-85500921D02*
X70936900Y-85500921D01*
X72245000Y-85500921D02*
X72245000Y-88289079D01*
X72245000Y-88289079D02*
X70936900Y-88289079D01*
D10*
%TO.C,C15*%
X176055000Y-62800000D02*
X178015000Y-62800000D01*
X176055000Y-66200000D02*
X176055000Y-62800000D01*
X178015000Y-62800000D02*
X178015000Y-66200000D01*
X178015000Y-66200000D02*
X176055000Y-66200000D01*
%TO.C,R12*%
X102240000Y-67190000D02*
X105600000Y-67190000D01*
X102240000Y-69090000D02*
X102240000Y-67190000D01*
X105600000Y-67190000D02*
X105600000Y-69090000D01*
X105600000Y-69090000D02*
X102240000Y-69090000D01*
%TO.C,C13*%
X128460500Y-62681000D02*
X130420500Y-62681000D01*
X128460500Y-66081000D02*
X128460500Y-62681000D01*
X130420500Y-62681000D02*
X130420500Y-66081000D01*
X130420500Y-66081000D02*
X128460500Y-66081000D01*
%TO.C,R37*%
X104620000Y-96970000D02*
X107980000Y-96970000D01*
X104620000Y-98870000D02*
X104620000Y-96970000D01*
X107980000Y-96970000D02*
X107980000Y-98870000D01*
X107980000Y-98870000D02*
X104620000Y-98870000D01*
%TO.C,C19*%
X166185000Y-75625000D02*
X169585000Y-75625000D01*
X166185000Y-77585000D02*
X166185000Y-75625000D01*
X169585000Y-75625000D02*
X169585000Y-77585000D01*
X169585000Y-77585000D02*
X166185000Y-77585000D01*
%TO.C,L1*%
X73290000Y-88190000D02*
X75590000Y-88190000D01*
X73290000Y-91590000D02*
X73290000Y-88190000D01*
X75590000Y-88190000D02*
X75590000Y-91590000D01*
X75590000Y-91590000D02*
X73290000Y-91590000D01*
D12*
%TO.C,J9*%
X22575000Y-87170000D02*
X29675000Y-87170000D01*
X22575000Y-98570000D02*
X22575000Y-87170000D01*
X29675000Y-87170000D02*
X29675000Y-98570000D01*
X29675000Y-98570000D02*
X22575000Y-98570000D01*
D11*
%TO.C,J3*%
X184260800Y-80868200D02*
X184260800Y-99765800D01*
X184260800Y-99765800D02*
X198129200Y-99765800D01*
X198129200Y-80868200D02*
X184260800Y-80868200D01*
X198129200Y-99765800D02*
X198129200Y-80868200D01*
D10*
%TO.C,C8*%
X165048000Y-37382000D02*
X168448000Y-37382000D01*
X165048000Y-39342000D02*
X165048000Y-37382000D01*
X168448000Y-37382000D02*
X168448000Y-39342000D01*
X168448000Y-39342000D02*
X165048000Y-39342000D01*
%TO.C,R29*%
X60110000Y-88207500D02*
X62010000Y-88207500D01*
X60110000Y-91567500D02*
X60110000Y-88207500D01*
X62010000Y-88207500D02*
X62010000Y-91567500D01*
X62010000Y-91567500D02*
X60110000Y-91567500D01*
D12*
%TO.C,U6*%
X100585504Y-66639996D02*
X100585504Y-62516004D01*
X105578500Y-62516004D02*
X100585504Y-62516004D01*
X105578500Y-66639996D02*
X100585504Y-66639996D01*
X105578500Y-66639996D02*
X105578500Y-62516004D01*
D10*
%TO.C,D5*%
X98585000Y-88105000D02*
X103735000Y-88105000D01*
X98585000Y-91455000D02*
X98585000Y-88105000D01*
X103735000Y-88105000D02*
X103735000Y-91455000D01*
X103735000Y-91455000D02*
X98585000Y-91455000D01*
%TO.C,C5*%
X113445000Y-31398000D02*
X115405000Y-31398000D01*
X113445000Y-34798000D02*
X113445000Y-31398000D01*
X115405000Y-31398000D02*
X115405000Y-34798000D01*
X115405000Y-34798000D02*
X113445000Y-34798000D01*
%TO.C,TP7*%
X89220000Y-79330000D02*
G75*
G02*
X87220000Y-79330000I-1000000J0D01*
G01*
X87220000Y-79330000D02*
G75*
G02*
X89220000Y-79330000I1000000J0D01*
G01*
%TO.C,C28*%
X47050000Y-102440000D02*
X49010000Y-102440000D01*
X47050000Y-105840000D02*
X47050000Y-102440000D01*
X49010000Y-102440000D02*
X49010000Y-105840000D01*
X49010000Y-105840000D02*
X47050000Y-105840000D01*
%TO.C,C18*%
X166185000Y-84100000D02*
X169585000Y-84100000D01*
X166185000Y-86060000D02*
X166185000Y-84100000D01*
X169585000Y-84100000D02*
X169585000Y-86060000D01*
X169585000Y-86060000D02*
X166185000Y-86060000D01*
%TO.C,C41*%
X63550000Y-81050000D02*
X66950000Y-81050000D01*
X63550000Y-83010000D02*
X63550000Y-81050000D01*
X66950000Y-81050000D02*
X66950000Y-83010000D01*
X66950000Y-83010000D02*
X63550000Y-83010000D01*
D11*
%TO.C,U15*%
X77646800Y-85679700D02*
X77977000Y-85679700D01*
X77646800Y-87889500D02*
X77646800Y-85679700D01*
X77977000Y-84625600D02*
X77977000Y-85679700D01*
X77977000Y-84625600D02*
X80923400Y-84625600D01*
X77977000Y-87889500D02*
X77646800Y-87889500D01*
X77977000Y-88943600D02*
X77977000Y-87889500D01*
X80923400Y-84625600D02*
X80923400Y-85679700D01*
X80923400Y-85679700D02*
X81253600Y-85679700D01*
X80923400Y-88943600D02*
X77977000Y-88943600D01*
X80923400Y-88943600D02*
X80923400Y-87889500D01*
X81253600Y-85679700D02*
X81253600Y-87889500D01*
X81253600Y-87889500D02*
X80923400Y-87889500D01*
D10*
%TO.C,J11*%
X25190000Y-103390000D02*
X25190000Y-106390000D01*
X25190000Y-106390000D02*
X27470000Y-106390000D01*
X27470000Y-103390000D02*
X25190000Y-103390000D01*
X27470000Y-106390000D02*
X27470000Y-103390000D01*
D11*
%TO.C,U18*%
X74371800Y-112589500D02*
X74371800Y-115510500D01*
X75324300Y-112246600D02*
X75324300Y-112589500D01*
X75324300Y-112246600D02*
X77635700Y-112246600D01*
X75324300Y-112589500D02*
X74371800Y-112589500D01*
X75324300Y-115510500D02*
X74371800Y-115510500D01*
X75324300Y-115853400D02*
X75324300Y-115510500D01*
X77635700Y-112246600D02*
X77635700Y-113542000D01*
X77635700Y-113542000D02*
X78588200Y-113542000D01*
X77635700Y-114558000D02*
X78588200Y-114558000D01*
X77635700Y-115853400D02*
X75324300Y-115853400D01*
X77635700Y-115853400D02*
X77635700Y-114558000D01*
X78588200Y-113542000D02*
X78588200Y-114558000D01*
D10*
%TO.C,C16*%
X180075000Y-68920000D02*
X183475000Y-68920000D01*
X180075000Y-70880000D02*
X180075000Y-68920000D01*
X183475000Y-68920000D02*
X183475000Y-70880000D01*
X183475000Y-70880000D02*
X180075000Y-70880000D01*
%TO.C,C40*%
X68290000Y-90850000D02*
X71690000Y-90850000D01*
X68290000Y-92810000D02*
X68290000Y-90850000D01*
X71690000Y-90850000D02*
X71690000Y-92810000D01*
X71690000Y-92810000D02*
X68290000Y-92810000D01*
%TO.C,R39*%
X71962400Y-112532500D02*
X73862400Y-112532500D01*
X71962400Y-115892500D02*
X71962400Y-112532500D01*
X73862400Y-112532500D02*
X73862400Y-115892500D01*
X73862400Y-115892500D02*
X71962400Y-115892500D01*
D12*
%TO.C,F3*%
X52680000Y-102350000D02*
X61140000Y-102350000D01*
X52680000Y-107590000D02*
X52680000Y-102350000D01*
X61140000Y-102350000D02*
X61140000Y-107590000D01*
X61140000Y-107590000D02*
X52680000Y-107590000D01*
D10*
%TO.C,R28*%
X63240000Y-89740000D02*
X66600000Y-89740000D01*
X63240000Y-91640000D02*
X63240000Y-89740000D01*
X66600000Y-89740000D02*
X66600000Y-91640000D01*
X66600000Y-91640000D02*
X63240000Y-91640000D01*
%TO.C,R4*%
X85027500Y-35155000D02*
X88387500Y-35155000D01*
X85027500Y-37055000D02*
X85027500Y-35155000D01*
X88387500Y-35155000D02*
X88387500Y-37055000D01*
X88387500Y-37055000D02*
X85027500Y-37055000D01*
%TO.C,R20*%
X135670000Y-105472500D02*
X137570000Y-105472500D01*
X135670000Y-108832500D02*
X135670000Y-105472500D01*
X137570000Y-105472500D02*
X137570000Y-108832500D01*
X137570000Y-108832500D02*
X135670000Y-108832500D01*
%TO.C,C3*%
X80970000Y-31325000D02*
X82930000Y-31325000D01*
X80970000Y-34725000D02*
X80970000Y-31325000D01*
X82930000Y-31325000D02*
X82930000Y-34725000D01*
X82930000Y-34725000D02*
X80970000Y-34725000D01*
D12*
%TO.C,U1*%
X36203004Y-34734996D02*
X36203004Y-30611004D01*
X41196000Y-30611004D02*
X36203004Y-30611004D01*
X41196000Y-34734996D02*
X36203004Y-34734996D01*
X41196000Y-34734996D02*
X41196000Y-30611004D01*
D10*
%TO.C,R16*%
X180072500Y-66660000D02*
X183432500Y-66660000D01*
X180072500Y-68560000D02*
X180072500Y-66660000D01*
X183432500Y-66660000D02*
X183432500Y-68560000D01*
X183432500Y-68560000D02*
X180072500Y-68560000D01*
D12*
%TO.C,U3*%
X115838004Y-34807996D02*
X115838004Y-30684004D01*
X120831000Y-30684004D02*
X115838004Y-30684004D01*
X120831000Y-34807996D02*
X115838004Y-34807996D01*
X120831000Y-34807996D02*
X120831000Y-30684004D01*
D10*
%TO.C,C4*%
X85020000Y-37405000D02*
X88420000Y-37405000D01*
X85020000Y-39365000D02*
X85020000Y-37405000D01*
X88420000Y-37405000D02*
X88420000Y-39365000D01*
X88420000Y-39365000D02*
X85020000Y-39365000D01*
D12*
%TO.C,U2*%
X83405004Y-34712996D02*
X83405004Y-30589004D01*
X88398000Y-30589004D02*
X83405004Y-30589004D01*
X88398000Y-34712996D02*
X83405004Y-34712996D01*
X88398000Y-34712996D02*
X88398000Y-30589004D01*
D10*
%TO.C,C7*%
X161068000Y-31362000D02*
X163028000Y-31362000D01*
X161068000Y-34762000D02*
X161068000Y-31362000D01*
X163028000Y-31362000D02*
X163028000Y-34762000D01*
X163028000Y-34762000D02*
X161068000Y-34762000D01*
%TO.C,C39*%
X85495000Y-121720000D02*
X86895000Y-121720000D01*
X85495000Y-122420000D02*
X85495000Y-121720000D01*
X86895000Y-121720000D02*
X86895000Y-122420000D01*
X86895000Y-122420000D02*
X85495000Y-122420000D01*
%TO.C,R27*%
X47522500Y-91440000D02*
X50882500Y-91440000D01*
X47522500Y-93340000D02*
X47522500Y-91440000D01*
X50882500Y-91440000D02*
X50882500Y-93340000D01*
X50882500Y-93340000D02*
X47522500Y-93340000D01*
%TO.C,C17*%
X166185000Y-86225000D02*
X169585000Y-86225000D01*
X166185000Y-88185000D02*
X166185000Y-86225000D01*
X169585000Y-86225000D02*
X169585000Y-88185000D01*
X169585000Y-88185000D02*
X166185000Y-88185000D01*
D11*
%TO.C,J10*%
X67616500Y-125185000D02*
X67616500Y-131535000D01*
X67616500Y-131535000D02*
X68340400Y-131535000D01*
X68340400Y-131535000D02*
X68340400Y-141187000D01*
X68340400Y-141187000D02*
X78576600Y-141187000D01*
X70537500Y-125185000D02*
X67616500Y-125185000D01*
X70537500Y-125870800D02*
X70537500Y-125185000D01*
X72061500Y-125185000D02*
X72061500Y-125870800D01*
X72061500Y-125870800D02*
X70537500Y-125870800D01*
X74855500Y-125185000D02*
X72061500Y-125185000D01*
X74855500Y-125870800D02*
X74855500Y-125185000D01*
X76379500Y-125185000D02*
X76379500Y-125870800D01*
X76379500Y-125870800D02*
X74855500Y-125870800D01*
X78576600Y-131535000D02*
X79300500Y-131535000D01*
X78576600Y-141187000D02*
X78576600Y-131535000D01*
X79300500Y-125185000D02*
X76379500Y-125185000D01*
X79300500Y-131535000D02*
X79300500Y-125185000D01*
D12*
%TO.C,BAT1*%
X34680000Y-109670000D02*
X60880000Y-109670000D01*
X34680000Y-131293000D02*
X34680000Y-109670000D01*
X60880000Y-109670000D02*
X60880000Y-131293000D01*
X60880000Y-131293000D02*
X34680000Y-131293000D01*
%TO.C,S2*%
X33818000Y-73955000D02*
X49802000Y-73955000D01*
X33818000Y-81755000D02*
X33818000Y-73955000D01*
X49802000Y-73955000D02*
X49802000Y-81755000D01*
X49802000Y-81755000D02*
X33818000Y-81755000D01*
D10*
%TO.C,R3*%
X81227500Y-35155000D02*
X84587500Y-35155000D01*
X81227500Y-37055000D02*
X81227500Y-35155000D01*
X84587500Y-35155000D02*
X84587500Y-37055000D01*
X84587500Y-37055000D02*
X81227500Y-37055000D01*
%TO.C,R24*%
X47440000Y-86287500D02*
X49340000Y-86287500D01*
X47440000Y-89647500D02*
X47440000Y-86287500D01*
X49340000Y-86287500D02*
X49340000Y-89647500D01*
X49340000Y-89647500D02*
X47440000Y-89647500D01*
%TO.C,R30*%
X67832500Y-100900000D02*
X71192500Y-100900000D01*
X67832500Y-102800000D02*
X67832500Y-100900000D01*
X71192500Y-100900000D02*
X71192500Y-102800000D01*
X71192500Y-102800000D02*
X67832500Y-102800000D01*
%TO.C,R6*%
X117465000Y-35258000D02*
X120825000Y-35258000D01*
X117465000Y-37158000D02*
X117465000Y-35258000D01*
X120825000Y-35258000D02*
X120825000Y-37158000D01*
X120825000Y-37158000D02*
X117465000Y-37158000D01*
%TO.C,C25*%
X154480000Y-89230000D02*
X156440000Y-89230000D01*
X154480000Y-92630000D02*
X154480000Y-89230000D01*
X156440000Y-89230000D02*
X156440000Y-92630000D01*
X156440000Y-92630000D02*
X154480000Y-92630000D01*
%TO.C,U16*%
X128612500Y-82001000D02*
X130012500Y-82001000D01*
X128612500Y-88761000D02*
X128612500Y-82001000D01*
X130012500Y-81881000D02*
X134912500Y-81881000D01*
X130012500Y-82001000D02*
X130012500Y-81881000D01*
X130012500Y-88761000D02*
X128612500Y-88761000D01*
X130012500Y-88881000D02*
X130012500Y-88761000D01*
X134912500Y-81881000D02*
X134912500Y-82001000D01*
X134912500Y-82001000D02*
X136312500Y-82001000D01*
X134912500Y-88761000D02*
X134912500Y-88881000D01*
X134912500Y-88881000D02*
X130012500Y-88881000D01*
X136312500Y-82001000D02*
X136312500Y-88761000D01*
X136312500Y-88761000D02*
X134912500Y-88761000D01*
%TO.C,U17*%
X91334999Y-80999999D02*
X95534998Y-80999999D01*
X91334999Y-84599999D02*
X91334999Y-80999999D01*
X91334999Y-84599999D02*
X95534998Y-84599999D01*
X95534998Y-84599999D02*
X95534998Y-80999999D01*
%TO.C,C10*%
X54920500Y-69231000D02*
X58320500Y-69231000D01*
X54920500Y-71191000D02*
X54920500Y-69231000D01*
X58320500Y-69231000D02*
X58320500Y-71191000D01*
X58320500Y-71191000D02*
X54920500Y-71191000D01*
D11*
%TO.C,SW2*%
X110610699Y-91439200D02*
X110610699Y-95350800D01*
X110610699Y-95350800D02*
X116609301Y-95350800D01*
X116609301Y-91439200D02*
X110610699Y-91439200D01*
X116609301Y-95350800D02*
X116609301Y-91439200D01*
D10*
%TO.C,R40*%
X71530000Y-81040000D02*
X74890000Y-81040000D01*
X71530000Y-82940000D02*
X71530000Y-81040000D01*
X74890000Y-81040000D02*
X74890000Y-82940000D01*
X74890000Y-82940000D02*
X71530000Y-82940000D01*
%TO.C,C43*%
X91190000Y-76750000D02*
X93150000Y-76750000D01*
X91190000Y-80150000D02*
X91190000Y-76750000D01*
X93150000Y-76750000D02*
X93150000Y-80150000D01*
X93150000Y-80150000D02*
X91190000Y-80150000D01*
%TO.C,R31*%
X74242500Y-100940000D02*
X77602500Y-100940000D01*
X74242500Y-102840000D02*
X74242500Y-100940000D01*
X77602500Y-100940000D02*
X77602500Y-102840000D01*
X77602500Y-102840000D02*
X74242500Y-102840000D01*
D11*
%TO.C,J2*%
X184240800Y-101448200D02*
X184240800Y-120345800D01*
X184240800Y-120345800D02*
X198109200Y-120345800D01*
X198109200Y-101448200D02*
X184240800Y-101448200D01*
X198109200Y-120345800D02*
X198109200Y-101448200D01*
D10*
%TO.C,R22*%
X36590000Y-103387500D02*
X38490000Y-103387500D01*
X36590000Y-106747500D02*
X36590000Y-103387500D01*
X38490000Y-103387500D02*
X38490000Y-106747500D01*
X38490000Y-106747500D02*
X36590000Y-106747500D01*
%TO.C,C38*%
X36945000Y-83490000D02*
X40345000Y-83490000D01*
X36945000Y-85450000D02*
X36945000Y-83490000D01*
X40345000Y-83490000D02*
X40345000Y-85450000D01*
X40345000Y-85450000D02*
X36945000Y-85450000D01*
%TO.C,C21*%
X166185000Y-79875000D02*
X169585000Y-79875000D01*
X166185000Y-81835000D02*
X166185000Y-79875000D01*
X169585000Y-79875000D02*
X169585000Y-81835000D01*
X169585000Y-81835000D02*
X166185000Y-81835000D01*
%TD*%
M02*
